G04*
G04 #@! TF.GenerationSoftware,Altium Limited,Altium Designer,24.5.2 (23)*
G04*
G04 Layer_Color=8421504*
%FSLAX44Y44*%
%MOMM*%
G71*
G04*
G04 #@! TF.SameCoordinates,4C3FC8D7-7CB9-4ABE-8DBE-F2AB0753C435*
G04*
G04*
G04 #@! TF.FilePolarity,Positive*
G04*
G01*
G75*
%ADD20R,1.4000X1.2000*%
%ADD21R,1.7500X4.5000*%
%ADD22R,5.5000X2.2000*%
%ADD23R,0.8300X0.6250*%
%ADD24R,1.2000X1.4000*%
%ADD25R,1.7000X2.0000*%
G04:AMPARAMS|DCode=26|XSize=1.75mm|YSize=0.57mm|CornerRadius=0.0712mm|HoleSize=0mm|Usage=FLASHONLY|Rotation=90.000|XOffset=0mm|YOffset=0mm|HoleType=Round|Shape=RoundedRectangle|*
%AMROUNDEDRECTD26*
21,1,1.7500,0.4275,0,0,90.0*
21,1,1.6075,0.5700,0,0,90.0*
1,1,0.1425,0.2138,0.8038*
1,1,0.1425,0.2138,-0.8038*
1,1,0.1425,-0.2138,-0.8038*
1,1,0.1425,-0.2138,0.8038*
%
%ADD26ROUNDEDRECTD26*%
%ADD27R,2.1200X2.2800*%
%ADD28R,1.3200X2.8100*%
%ADD29R,2.8100X1.3200*%
%ADD30R,0.9900X3.7900*%
%ADD31R,6.0000X4.5000*%
%ADD32R,2.0000X3.5000*%
%ADD33R,9.0000X8.3300*%
%ADD34R,1.9100X1.2350*%
%ADD35R,4.0000X1.0200*%
G04:AMPARAMS|DCode=36|XSize=4mm|YSize=7mm|CornerRadius=0.02mm|HoleSize=0mm|Usage=FLASHONLY|Rotation=0.000|XOffset=0mm|YOffset=0mm|HoleType=Round|Shape=RoundedRectangle|*
%AMROUNDEDRECTD36*
21,1,4.0000,6.9600,0,0,0.0*
21,1,3.9600,7.0000,0,0,0.0*
1,1,0.0400,1.9800,-3.4800*
1,1,0.0400,-1.9800,-3.4800*
1,1,0.0400,-1.9800,3.4800*
1,1,0.0400,1.9800,3.4800*
%
%ADD36ROUNDEDRECTD36*%
G04:AMPARAMS|DCode=37|XSize=4mm|YSize=7mm|CornerRadius=0.02mm|HoleSize=0mm|Usage=FLASHONLY|Rotation=270.000|XOffset=0mm|YOffset=0mm|HoleType=Round|Shape=RoundedRectangle|*
%AMROUNDEDRECTD37*
21,1,4.0000,6.9600,0,0,270.0*
21,1,3.9600,7.0000,0,0,270.0*
1,1,0.0400,-3.4800,-1.9800*
1,1,0.0400,-3.4800,1.9800*
1,1,0.0400,3.4800,1.9800*
1,1,0.0400,3.4800,-1.9800*
%
%ADD37ROUNDEDRECTD37*%
G36*
X1966816Y324728D02*
X1954216D01*
Y339228D01*
X1966816D01*
Y324728D01*
D02*
G37*
G36*
X1948816D02*
X1936216D01*
Y339228D01*
X1948816D01*
Y324728D01*
D02*
G37*
G36*
X1930816D02*
X1918216D01*
Y339228D01*
X1930816D01*
Y324728D01*
D02*
G37*
G36*
X1966816Y299328D02*
X1954216D01*
Y313828D01*
X1966816D01*
Y299328D01*
D02*
G37*
G36*
X1948816D02*
X1936216D01*
Y313828D01*
X1948816D01*
Y299328D01*
D02*
G37*
G36*
X1930816D02*
X1918216D01*
Y313828D01*
X1930816D01*
Y299328D01*
D02*
G37*
G36*
X1966816Y273928D02*
X1954216D01*
Y288428D01*
X1966816D01*
Y273928D01*
D02*
G37*
G36*
X1948816D02*
X1936216D01*
Y288428D01*
X1948816D01*
Y273928D01*
D02*
G37*
G36*
X1930816D02*
X1918216D01*
Y288428D01*
X1930816D01*
Y273928D01*
D02*
G37*
G36*
X2020816Y324728D02*
X2008216D01*
Y339228D01*
X2020816D01*
Y324728D01*
D02*
G37*
G36*
X2002816D02*
X1990216D01*
Y339228D01*
X2002816D01*
Y324728D01*
D02*
G37*
G36*
X1984816D02*
X1972216D01*
Y339228D01*
X1984816D01*
Y324728D01*
D02*
G37*
G36*
X2020816Y299328D02*
X2008216D01*
Y313828D01*
X2020816D01*
Y299328D01*
D02*
G37*
G36*
X2002816D02*
X1990216D01*
Y313828D01*
X2002816D01*
Y299328D01*
D02*
G37*
G36*
X1984816D02*
X1972216D01*
Y313828D01*
X1984816D01*
Y299328D01*
D02*
G37*
G36*
X2020816Y273928D02*
X2008216D01*
Y288428D01*
X2020816D01*
Y273928D01*
D02*
G37*
G36*
X2002816D02*
X1990216D01*
Y288428D01*
X2002816D01*
Y273928D01*
D02*
G37*
G36*
X1984816D02*
X1972216D01*
Y288428D01*
X1984816D01*
Y273928D01*
D02*
G37*
D20*
X581152Y100650D02*
D03*
Y120650D02*
D03*
X555752Y100650D02*
D03*
Y120650D02*
D03*
X2032834Y105576D02*
D03*
Y125576D02*
D03*
X1996440Y73660D02*
D03*
Y53660D02*
D03*
X2032762Y73754D02*
D03*
Y53754D02*
D03*
X1752600Y208440D02*
D03*
Y228440D02*
D03*
X1751330Y157640D02*
D03*
Y177640D02*
D03*
X1724660Y157640D02*
D03*
Y177640D02*
D03*
X1101090Y891720D02*
D03*
Y911720D02*
D03*
X1071880Y867270D02*
D03*
Y847270D02*
D03*
X1101090Y867270D02*
D03*
Y847270D02*
D03*
X1002030Y891720D02*
D03*
Y911720D02*
D03*
X1055370Y507860D02*
D03*
Y487860D02*
D03*
X1031240Y867270D02*
D03*
Y847270D02*
D03*
X1032510Y507860D02*
D03*
Y487860D02*
D03*
X1002030Y847270D02*
D03*
Y867270D02*
D03*
X990600Y633910D02*
D03*
Y653910D02*
D03*
X1101090Y637400D02*
D03*
Y617400D02*
D03*
X1920240Y53500D02*
D03*
Y73500D02*
D03*
X1882140Y53500D02*
D03*
Y73500D02*
D03*
X1920240Y125570D02*
D03*
Y105570D02*
D03*
X1882140Y125570D02*
D03*
Y105570D02*
D03*
X1958340D02*
D03*
Y125570D02*
D03*
X1996440D02*
D03*
Y105570D02*
D03*
X1958340Y73500D02*
D03*
Y53500D02*
D03*
X1907540Y356870D02*
D03*
Y376870D02*
D03*
X1685290Y892980D02*
D03*
Y912980D02*
D03*
X1784350Y892980D02*
D03*
Y912980D02*
D03*
Y868530D02*
D03*
Y848530D02*
D03*
X1755140Y868530D02*
D03*
Y848530D02*
D03*
X1714500Y868530D02*
D03*
Y848530D02*
D03*
X1685290D02*
D03*
Y868530D02*
D03*
X1784350Y641200D02*
D03*
Y621200D02*
D03*
X1673860Y637710D02*
D03*
Y657710D02*
D03*
X1715770Y511660D02*
D03*
Y491660D02*
D03*
X1738630Y511660D02*
D03*
Y491660D02*
D03*
X417830Y890440D02*
D03*
Y910440D02*
D03*
X388620Y865990D02*
D03*
Y845990D02*
D03*
X417830Y865990D02*
D03*
Y845990D02*
D03*
X318770Y890440D02*
D03*
Y910440D02*
D03*
X372110Y509120D02*
D03*
Y489120D02*
D03*
X347980Y865990D02*
D03*
Y845990D02*
D03*
X349250Y509120D02*
D03*
Y489120D02*
D03*
X318770Y845990D02*
D03*
Y865990D02*
D03*
X307340Y635170D02*
D03*
Y655170D02*
D03*
X417830Y638660D02*
D03*
Y618660D02*
D03*
D21*
X589280Y58420D02*
D03*
X556780D02*
D03*
D22*
X82960Y367030D02*
D03*
X165960D02*
D03*
X82960Y100330D02*
D03*
X165960D02*
D03*
D23*
X1071879Y797575D02*
D03*
Y819825D02*
D03*
X1031239Y820435D02*
D03*
Y798185D02*
D03*
X1101091Y798855D02*
D03*
Y821105D02*
D03*
X1002031Y797585D02*
D03*
Y819835D02*
D03*
X1685291Y821095D02*
D03*
Y798845D02*
D03*
X1714499Y799445D02*
D03*
Y821695D02*
D03*
X1784351Y822365D02*
D03*
Y800115D02*
D03*
X1755139Y798835D02*
D03*
Y821085D02*
D03*
X388620Y796300D02*
D03*
Y818550D02*
D03*
X347980Y796910D02*
D03*
Y819160D02*
D03*
X417830Y797570D02*
D03*
Y819820D02*
D03*
X318770Y796300D02*
D03*
Y818550D02*
D03*
D24*
X1076640Y560090D02*
D03*
X1056640D02*
D03*
X1070770Y1019760D02*
D03*
X1090770D02*
D03*
X1070770Y995630D02*
D03*
X1090770D02*
D03*
X1031080Y981730D02*
D03*
X1011080D02*
D03*
X1031080Y957600D02*
D03*
X1011080D02*
D03*
X1032190Y560090D02*
D03*
X1012190D02*
D03*
X1187290Y579140D02*
D03*
X1167290D02*
D03*
X1187290Y462300D02*
D03*
X1167290D02*
D03*
X1124270Y579140D02*
D03*
X1144270D02*
D03*
X1076640Y534690D02*
D03*
X1056640D02*
D03*
X970440Y585490D02*
D03*
X990440D02*
D03*
X970440Y609620D02*
D03*
X990440D02*
D03*
X1032190Y534690D02*
D03*
X1012190D02*
D03*
X1904730Y160020D02*
D03*
X1924730D02*
D03*
X1953420D02*
D03*
X1973420D02*
D03*
X243680Y393700D02*
D03*
X223680D02*
D03*
X243680Y366431D02*
D03*
X223680D02*
D03*
X223686Y339090D02*
D03*
X243686D02*
D03*
X120490Y171450D02*
D03*
X100490D02*
D03*
X484030Y463560D02*
D03*
X504030D02*
D03*
X1754030Y996890D02*
D03*
X1774030D02*
D03*
X1754030Y1021020D02*
D03*
X1774030D02*
D03*
X1714340Y958860D02*
D03*
X1694340D02*
D03*
X1714340Y982990D02*
D03*
X1694340D02*
D03*
X1870550Y582940D02*
D03*
X1850550D02*
D03*
X1807530D02*
D03*
X1827530D02*
D03*
X1870550Y466100D02*
D03*
X1850550D02*
D03*
X1653700Y613420D02*
D03*
X1673700D02*
D03*
X1653700Y589290D02*
D03*
X1673700D02*
D03*
X1715450Y538650D02*
D03*
X1695450D02*
D03*
X1759900Y538490D02*
D03*
X1739900D02*
D03*
X1759900Y563890D02*
D03*
X1739900D02*
D03*
X1715450D02*
D03*
X1695450D02*
D03*
X393380Y561350D02*
D03*
X373380D02*
D03*
X387510Y1018478D02*
D03*
X407510D02*
D03*
X387510Y994348D02*
D03*
X407510D02*
D03*
X347820Y980450D02*
D03*
X327820D02*
D03*
X347820Y956320D02*
D03*
X327820D02*
D03*
X348930Y561350D02*
D03*
X328930D02*
D03*
X504030Y580400D02*
D03*
X484030D02*
D03*
X441010D02*
D03*
X461010D02*
D03*
X393380Y535950D02*
D03*
X373380D02*
D03*
X287180Y586750D02*
D03*
X307180D02*
D03*
X287180Y610880D02*
D03*
X307180D02*
D03*
X348930Y535950D02*
D03*
X328930D02*
D03*
D25*
X1155360Y550940D02*
D03*
Y490940D02*
D03*
X1838620Y554740D02*
D03*
Y494740D02*
D03*
X472100Y552200D02*
D03*
Y492200D02*
D03*
D26*
X1026160Y651370D02*
D03*
X1038860D02*
D03*
X1051560D02*
D03*
X1064260D02*
D03*
Y593270D02*
D03*
X1051560D02*
D03*
X1038860D02*
D03*
X1026160D02*
D03*
X1709420Y655170D02*
D03*
X1722120D02*
D03*
X1734820D02*
D03*
X1747520D02*
D03*
Y597070D02*
D03*
X1734820D02*
D03*
X1722120D02*
D03*
X1709420D02*
D03*
X342900Y652630D02*
D03*
X355600D02*
D03*
X368300D02*
D03*
X381000D02*
D03*
Y594530D02*
D03*
X368300D02*
D03*
X355600D02*
D03*
X342900D02*
D03*
D27*
X989330Y681950D02*
D03*
Y725250D02*
D03*
X1672590Y729050D02*
D03*
Y685750D02*
D03*
X306070Y683210D02*
D03*
Y726510D02*
D03*
D28*
X1022350Y690900D02*
D03*
X1052190D02*
D03*
X1705930Y694860D02*
D03*
X1735770D02*
D03*
X339090Y692160D02*
D03*
X368930D02*
D03*
D29*
X58420Y798510D02*
D03*
Y768670D02*
D03*
X195580Y799780D02*
D03*
Y769940D02*
D03*
X425450Y1398966D02*
D03*
Y1369126D02*
D03*
X656590Y1398966D02*
D03*
Y1369126D02*
D03*
X1359154Y1398966D02*
D03*
Y1369126D02*
D03*
X1126998Y1398966D02*
D03*
Y1369126D02*
D03*
X1590040Y1398966D02*
D03*
Y1369126D02*
D03*
X1819910D02*
D03*
Y1398966D02*
D03*
D30*
X1994916Y197778D02*
D03*
X1969516D02*
D03*
X1944116D02*
D03*
D31*
X292100Y166300D02*
D03*
Y62300D02*
D03*
D32*
X271340Y243840D02*
D03*
X343340D02*
D03*
D33*
X101534D02*
D03*
D34*
X66040Y196850D02*
D03*
X66166Y291543D02*
D03*
D35*
X206144Y277840D02*
D03*
Y260840D02*
D03*
Y243840D02*
D03*
Y226840D02*
D03*
Y209840D02*
D03*
D36*
X728590Y767080D02*
D03*
X839590D02*
D03*
X1523120Y767080D02*
D03*
X1412120D02*
D03*
D37*
X1310386Y702700D02*
D03*
Y591700D02*
D03*
M02*
