G04*
G04 #@! TF.GenerationSoftware,Altium Limited,Altium Designer,24.5.2 (23)*
G04*
G04 Layer_Color=16711935*
%FSLAX44Y44*%
%MOMM*%
G71*
G04*
G04 #@! TF.SameCoordinates,4C3FC8D7-7CB9-4ABE-8DBE-F2AB0753C435*
G04*
G04*
G04 #@! TF.FilePolarity,Negative*
G04*
G01*
G75*
%ADD57C,2.3000*%
%ADD58R,1.8532X1.8532*%
%ADD59C,1.8532*%
G04:AMPARAMS|DCode=60|XSize=1.5032mm|YSize=1.5032mm|CornerRadius=0.4266mm|HoleSize=0mm|Usage=FLASHONLY|Rotation=270.000|XOffset=0mm|YOffset=0mm|HoleType=Round|Shape=RoundedRectangle|*
%AMROUNDEDRECTD60*
21,1,1.5032,0.6500,0,0,270.0*
21,1,0.6500,1.5032,0,0,270.0*
1,1,0.8532,-0.3250,-0.3250*
1,1,0.8532,-0.3250,0.3250*
1,1,0.8532,0.3250,0.3250*
1,1,0.8532,0.3250,-0.3250*
%
%ADD60ROUNDEDRECTD60*%
%ADD61C,1.5032*%
%ADD62C,1.7032*%
G04:AMPARAMS|DCode=63|XSize=1.7032mm|YSize=1.7032mm|CornerRadius=0.4766mm|HoleSize=0mm|Usage=FLASHONLY|Rotation=90.000|XOffset=0mm|YOffset=0mm|HoleType=Round|Shape=RoundedRectangle|*
%AMROUNDEDRECTD63*
21,1,1.7032,0.7500,0,0,90.0*
21,1,0.7500,1.7032,0,0,90.0*
1,1,0.9532,0.3750,0.3750*
1,1,0.9532,0.3750,-0.3750*
1,1,0.9532,-0.3750,-0.3750*
1,1,0.9532,-0.3750,0.3750*
%
%ADD63ROUNDEDRECTD63*%
%ADD64C,4.2032*%
%ADD65C,1.7112*%
%ADD66R,1.7112X1.7112*%
G04:AMPARAMS|DCode=67|XSize=1.7032mm|YSize=1.7032mm|CornerRadius=0.4766mm|HoleSize=0mm|Usage=FLASHONLY|Rotation=180.000|XOffset=0mm|YOffset=0mm|HoleType=Round|Shape=RoundedRectangle|*
%AMROUNDEDRECTD67*
21,1,1.7032,0.7500,0,0,180.0*
21,1,0.7500,1.7032,0,0,180.0*
1,1,0.9532,-0.3750,0.3750*
1,1,0.9532,0.3750,0.3750*
1,1,0.9532,0.3750,-0.3750*
1,1,0.9532,-0.3750,-0.3750*
%
%ADD67ROUNDEDRECTD67*%
G04:AMPARAMS|DCode=68|XSize=1.5032mm|YSize=1.5032mm|CornerRadius=0.4266mm|HoleSize=0mm|Usage=FLASHONLY|Rotation=0.000|XOffset=0mm|YOffset=0mm|HoleType=Round|Shape=RoundedRectangle|*
%AMROUNDEDRECTD68*
21,1,1.5032,0.6500,0,0,0.0*
21,1,0.6500,1.5032,0,0,0.0*
1,1,0.8532,0.3250,-0.3250*
1,1,0.8532,-0.3250,-0.3250*
1,1,0.8532,-0.3250,0.3250*
1,1,0.8532,0.3250,0.3250*
%
%ADD68ROUNDEDRECTD68*%
G04:AMPARAMS|DCode=69|XSize=1.8532mm|YSize=1.8532mm|CornerRadius=0.5141mm|HoleSize=0mm|Usage=FLASHONLY|Rotation=270.000|XOffset=0mm|YOffset=0mm|HoleType=Round|Shape=RoundedRectangle|*
%AMROUNDEDRECTD69*
21,1,1.8532,0.8250,0,0,270.0*
21,1,0.8250,1.8532,0,0,270.0*
1,1,1.0282,-0.4125,-0.4125*
1,1,1.0282,-0.4125,0.4125*
1,1,1.0282,0.4125,0.4125*
1,1,1.0282,0.4125,-0.4125*
%
%ADD69ROUNDEDRECTD69*%
%ADD70C,0.8382*%
%ADD71C,0.7112*%
%ADD72C,3.2512*%
D57*
X980440Y101600D02*
D03*
X1018540D02*
D03*
X1056640D02*
D03*
X1094740D02*
D03*
X1132840D02*
D03*
D58*
X1259840Y67310D02*
D03*
X1417320D02*
D03*
X762000Y71120D02*
D03*
X1572260Y67310D02*
D03*
X1729740D02*
D03*
D59*
X1310640D02*
D03*
X1468120D02*
D03*
X863600Y71120D02*
D03*
X812800D02*
D03*
X1623060Y67310D02*
D03*
X1780540D02*
D03*
X1704340Y1421800D02*
D03*
X1010920D02*
D03*
X1473200Y1421270D02*
D03*
X541020Y1421800D02*
D03*
X1242060D02*
D03*
X772160D02*
D03*
X1935480D02*
D03*
X309880D02*
D03*
D60*
X416560Y74996D02*
D03*
X635000Y50960D02*
D03*
X2052320Y198440D02*
D03*
D61*
X416560Y94996D02*
D03*
X635000Y70960D02*
D03*
X1974850Y377190D02*
D03*
X2052320Y218440D02*
D03*
D62*
X509760Y124460D02*
D03*
Y99060D02*
D03*
X1797410Y177800D02*
D03*
Y203200D02*
D03*
X904240Y185420D02*
D03*
X929640D02*
D03*
X904240Y210820D02*
D03*
X929640D02*
D03*
X955040Y185420D02*
D03*
Y210820D02*
D03*
X1005840Y185420D02*
D03*
Y210820D02*
D03*
X1056640Y185420D02*
D03*
Y210820D02*
D03*
X1107440Y185420D02*
D03*
Y210820D02*
D03*
X1183640Y185420D02*
D03*
X1158240Y210820D02*
D03*
Y185420D02*
D03*
X1132840Y210820D02*
D03*
Y185420D02*
D03*
X1082040Y210820D02*
D03*
Y185420D02*
D03*
X1031240Y210820D02*
D03*
Y185420D02*
D03*
X980440Y210820D02*
D03*
Y185420D02*
D03*
D63*
X509760Y73660D02*
D03*
X1797410Y228600D02*
D03*
D64*
X1176020Y1093470D02*
D03*
Y1038870D02*
D03*
Y984270D02*
D03*
Y918220D02*
D03*
Y863620D02*
D03*
Y809020D02*
D03*
X927100Y1168400D02*
D03*
Y1113800D02*
D03*
Y1059200D02*
D03*
Y883950D02*
D03*
Y938550D02*
D03*
Y993150D02*
D03*
X1859280Y1094730D02*
D03*
Y1040130D02*
D03*
Y985530D02*
D03*
X1610360Y1060460D02*
D03*
Y1115060D02*
D03*
Y1169660D02*
D03*
Y885210D02*
D03*
Y939810D02*
D03*
Y994410D02*
D03*
X1859280Y919480D02*
D03*
Y864880D02*
D03*
Y810280D02*
D03*
X492760Y1092190D02*
D03*
Y1037590D02*
D03*
Y982990D02*
D03*
Y916940D02*
D03*
Y862340D02*
D03*
Y807740D02*
D03*
X243840Y1057920D02*
D03*
Y1112520D02*
D03*
Y1167120D02*
D03*
Y882670D02*
D03*
Y937270D02*
D03*
Y991870D02*
D03*
D65*
X1124540Y614700D02*
D03*
Y640100D02*
D03*
Y665500D02*
D03*
X1807800Y618500D02*
D03*
Y643900D02*
D03*
Y669300D02*
D03*
X441280Y615960D02*
D03*
Y641360D02*
D03*
Y666760D02*
D03*
D66*
X1124540Y690900D02*
D03*
X1807800Y694700D02*
D03*
X441280Y692160D02*
D03*
D67*
X1183640Y210820D02*
D03*
D68*
X1994850Y377190D02*
D03*
D69*
X1704340Y1346800D02*
D03*
X1010920D02*
D03*
X1473200Y1346270D02*
D03*
X541020Y1346800D02*
D03*
X1242060D02*
D03*
X772160D02*
D03*
X1935480D02*
D03*
X309880D02*
D03*
D70*
X2021840Y153670D02*
D03*
X149860Y15240D02*
D03*
X218440D02*
D03*
X167640Y340360D02*
D03*
X203200Y142240D02*
D03*
D71*
X2043684Y34798D02*
D03*
X738124Y35052D02*
D03*
D72*
X2065020Y22860D02*
D03*
Y1477140D02*
D03*
X38100D02*
D03*
Y22860D02*
D03*
M02*
