G04*
G04 #@! TF.GenerationSoftware,Altium Limited,Altium Designer,24.5.2 (23)*
G04*
G04 Layer_Color=8388736*
%FSLAX44Y44*%
%MOMM*%
G71*
G04*
G04 #@! TF.SameCoordinates,E8997BAD-2734-4FEF-AB70-E13736D7F9D3*
G04*
G04*
G04 #@! TF.FilePolarity,Negative*
G04*
G01*
G75*
G04:AMPARAMS|DCode=32|XSize=1.4132mm|YSize=0.7932mm|CornerRadius=0.2491mm|HoleSize=0mm|Usage=FLASHONLY|Rotation=315.000|XOffset=0mm|YOffset=0mm|HoleType=Round|Shape=RoundedRectangle|*
%AMROUNDEDRECTD32*
21,1,1.4132,0.2950,0,0,315.0*
21,1,0.9150,0.7932,0,0,315.0*
1,1,0.4982,0.2192,-0.4278*
1,1,0.4982,-0.4278,0.2192*
1,1,0.4982,-0.2192,0.4278*
1,1,0.4982,0.4278,-0.2192*
%
%ADD32ROUNDEDRECTD32*%
%ADD33R,2.0032X1.4032*%
%ADD34R,3.1532X2.6532*%
%ADD35R,1.1100X1.1600*%
%ADD36R,1.1600X1.1100*%
%ADD37R,1.6032X1.4032*%
%ADD38R,1.4032X1.6032*%
G04:AMPARAMS|DCode=39|XSize=1.11mm|YSize=1.16mm|CornerRadius=0mm|HoleSize=0mm|Usage=FLASHONLY|Rotation=45.000|XOffset=0mm|YOffset=0mm|HoleType=Round|Shape=Rectangle|*
%AMROTATEDRECTD39*
4,1,4,0.0177,-0.8026,-0.8026,0.0177,-0.0177,0.8026,0.8026,-0.0177,0.0177,-0.8026,0.0*
%
%ADD39ROTATEDRECTD39*%

G04:AMPARAMS|DCode=40|XSize=2.0032mm|YSize=1.4032mm|CornerRadius=0mm|HoleSize=0mm|Usage=FLASHONLY|Rotation=135.000|XOffset=0mm|YOffset=0mm|HoleType=Round|Shape=Rectangle|*
%AMROTATEDRECTD40*
4,1,4,1.2044,-0.2121,0.2121,-1.2044,-1.2044,0.2121,-0.2121,1.2044,1.2044,-0.2121,0.0*
%
%ADD40ROTATEDRECTD40*%

G04:AMPARAMS|DCode=41|XSize=2.2632mm|YSize=0.8032mm|CornerRadius=0.1766mm|HoleSize=0mm|Usage=FLASHONLY|Rotation=90.000|XOffset=0mm|YOffset=0mm|HoleType=Round|Shape=RoundedRectangle|*
%AMROUNDEDRECTD41*
21,1,2.2632,0.4500,0,0,90.0*
21,1,1.9100,0.8032,0,0,90.0*
1,1,0.3532,0.2250,0.9550*
1,1,0.3532,0.2250,-0.9550*
1,1,0.3532,-0.2250,-0.9550*
1,1,0.3532,-0.2250,0.9550*
%
%ADD41ROUNDEDRECTD41*%
%ADD42R,1.9032X2.0032*%
%ADD43R,2.7032X1.1032*%
%ADD44R,1.1532X3.6532*%
%ADD45R,10.7032X8.6032*%
G04:AMPARAMS|DCode=46|XSize=9.271mm|YSize=5.4102mm|CornerRadius=2.6416mm|HoleSize=0mm|Usage=FLASHONLY|Rotation=135.000|XOffset=0mm|YOffset=0mm|HoleType=Round|Shape=RoundedRectangle|*
%AMROUNDEDRECTD46*
21,1,9.2710,0.1270,0,0,135.0*
21,1,3.9878,5.4102,0,0,135.0*
1,1,5.2832,-1.3650,1.4548*
1,1,5.2832,1.4548,-1.3650*
1,1,5.2832,1.3650,-1.4548*
1,1,5.2832,-1.4548,1.3650*
%
%ADD46ROUNDEDRECTD46*%
%ADD47P,2.4087X4X180.0*%
%ADD48C,1.8532*%
%ADD49C,1.2032*%
G04:AMPARAMS|DCode=50|XSize=4.5032mm|YSize=1.8532mm|CornerRadius=0.8516mm|HoleSize=0mm|Usage=FLASHONLY|Rotation=135.000|XOffset=0mm|YOffset=0mm|HoleType=Round|Shape=RoundedRectangle|*
%AMROUNDEDRECTD50*
21,1,4.5032,0.1500,0,0,135.0*
21,1,2.8000,1.8532,0,0,135.0*
1,1,1.7032,-0.9369,1.0430*
1,1,1.7032,1.0430,-0.9369*
1,1,1.7032,0.9369,-1.0430*
1,1,1.7032,-1.0430,0.9369*
%
%ADD50ROUNDEDRECTD50*%
G04:AMPARAMS|DCode=51|XSize=1.8532mm|YSize=1.8532mm|CornerRadius=0.5141mm|HoleSize=0mm|Usage=FLASHONLY|Rotation=180.000|XOffset=0mm|YOffset=0mm|HoleType=Round|Shape=RoundedRectangle|*
%AMROUNDEDRECTD51*
21,1,1.8532,0.8250,0,0,180.0*
21,1,0.8250,1.8532,0,0,180.0*
1,1,1.0282,-0.4125,0.4125*
1,1,1.0282,0.4125,0.4125*
1,1,1.0282,0.4125,-0.4125*
1,1,1.0282,-0.4125,-0.4125*
%
%ADD51ROUNDEDRECTD51*%
%ADD52R,1.5062X1.5062*%
%ADD53C,1.5092*%
%ADD54C,1.8282*%
%ADD55C,3.0992*%
%ADD56R,1.0032X1.0032*%
%ADD57C,1.8032*%
G04:AMPARAMS|DCode=58|XSize=1.8032mm|YSize=1.8032mm|CornerRadius=0.5016mm|HoleSize=0mm|Usage=FLASHONLY|Rotation=270.000|XOffset=0mm|YOffset=0mm|HoleType=Round|Shape=RoundedRectangle|*
%AMROUNDEDRECTD58*
21,1,1.8032,0.8000,0,0,270.0*
21,1,0.8000,1.8032,0,0,270.0*
1,1,1.0032,-0.4000,-0.4000*
1,1,1.0032,-0.4000,0.4000*
1,1,1.0032,0.4000,0.4000*
1,1,1.0032,0.4000,-0.4000*
%
%ADD58ROUNDEDRECTD58*%
%ADD59C,7.6032*%
%ADD60C,1.7232*%
G04:AMPARAMS|DCode=61|XSize=1.7232mm|YSize=1.7232mm|CornerRadius=0.4816mm|HoleSize=0mm|Usage=FLASHONLY|Rotation=90.000|XOffset=0mm|YOffset=0mm|HoleType=Round|Shape=RoundedRectangle|*
%AMROUNDEDRECTD61*
21,1,1.7232,0.7600,0,0,90.0*
21,1,0.7600,1.7232,0,0,90.0*
1,1,0.9632,0.3800,0.3800*
1,1,0.9632,0.3800,-0.3800*
1,1,0.9632,-0.3800,-0.3800*
1,1,0.9632,-0.3800,0.3800*
%
%ADD61ROUNDEDRECTD61*%
%ADD62O,2.4032X2.0032*%
%ADD63R,2.4032X2.0032*%
%ADD64C,1.7032*%
G04:AMPARAMS|DCode=65|XSize=1.7032mm|YSize=1.7032mm|CornerRadius=0.4766mm|HoleSize=0mm|Usage=FLASHONLY|Rotation=180.000|XOffset=0mm|YOffset=0mm|HoleType=Round|Shape=RoundedRectangle|*
%AMROUNDEDRECTD65*
21,1,1.7032,0.7500,0,0,180.0*
21,1,0.7500,1.7032,0,0,180.0*
1,1,0.9532,-0.3750,0.3750*
1,1,0.9532,0.3750,0.3750*
1,1,0.9532,0.3750,-0.3750*
1,1,0.9532,-0.3750,-0.3750*
%
%ADD65ROUNDEDRECTD65*%
%ADD66C,2.3000*%
G04:AMPARAMS|DCode=67|XSize=1.7032mm|YSize=1.7032mm|CornerRadius=0.4766mm|HoleSize=0mm|Usage=FLASHONLY|Rotation=90.000|XOffset=0mm|YOffset=0mm|HoleType=Round|Shape=RoundedRectangle|*
%AMROUNDEDRECTD67*
21,1,1.7032,0.7500,0,0,90.0*
21,1,0.7500,1.7032,0,0,90.0*
1,1,0.9532,0.3750,0.3750*
1,1,0.9532,0.3750,-0.3750*
1,1,0.9532,-0.3750,-0.3750*
1,1,0.9532,-0.3750,0.3750*
%
%ADD67ROUNDEDRECTD67*%
%ADD68C,2.0032*%
%ADD69C,5.7032*%
G36*
X2241196Y1345935D02*
X2242625Y1344506D01*
X2243398Y1342639D01*
Y1341628D01*
Y1227328D01*
Y1226318D01*
X2242625Y1224450D01*
X2241196Y1223021D01*
X2239328Y1222248D01*
X2219527D01*
X2217660Y1223021D01*
X2216231Y1224450D01*
X2215458Y1226318D01*
Y1227328D01*
Y1341628D01*
Y1342639D01*
X2216231Y1344506D01*
X2217660Y1345935D01*
X2219527Y1346708D01*
X2239328D01*
X2241196Y1345935D01*
D02*
G37*
G36*
X2166196D02*
X2167625Y1344506D01*
X2168398Y1342639D01*
Y1341628D01*
Y1227328D01*
Y1226318D01*
X2167625Y1224450D01*
X2166196Y1223021D01*
X2164328Y1222248D01*
X2144527D01*
X2142660Y1223021D01*
X2141231Y1224450D01*
X2140458Y1226318D01*
Y1227328D01*
Y1341628D01*
Y1342639D01*
X2141231Y1344506D01*
X2142660Y1345935D01*
X2144527Y1346708D01*
X2164328D01*
X2166196Y1345935D01*
D02*
G37*
G36*
X2012596D02*
X2014025Y1344506D01*
X2014798Y1342639D01*
Y1341628D01*
Y1227328D01*
Y1226318D01*
X2014025Y1224450D01*
X2012596Y1223021D01*
X2010728Y1222248D01*
X1990927D01*
X1989060Y1223021D01*
X1987631Y1224450D01*
X1986858Y1226318D01*
Y1227328D01*
Y1341628D01*
Y1342639D01*
X1987631Y1344506D01*
X1989060Y1345935D01*
X1990927Y1346708D01*
X2010728D01*
X2012596Y1345935D01*
D02*
G37*
G36*
X1937596D02*
X1939025Y1344506D01*
X1939798Y1342639D01*
Y1341628D01*
Y1227328D01*
Y1226318D01*
X1939025Y1224450D01*
X1937596Y1223021D01*
X1935728Y1222248D01*
X1915927D01*
X1914060Y1223021D01*
X1912631Y1224450D01*
X1911858Y1226318D01*
Y1227328D01*
Y1341628D01*
Y1342639D01*
X1912631Y1344506D01*
X1914060Y1345935D01*
X1915927Y1346708D01*
X1935728D01*
X1937596Y1345935D01*
D02*
G37*
G36*
X1781456D02*
X1782885Y1344506D01*
X1783658Y1342639D01*
Y1341628D01*
Y1227328D01*
Y1226318D01*
X1782885Y1224450D01*
X1781456Y1223021D01*
X1779588Y1222248D01*
X1759787D01*
X1757920Y1223021D01*
X1756491Y1224450D01*
X1755718Y1226318D01*
Y1227328D01*
Y1341628D01*
Y1342639D01*
X1756491Y1344506D01*
X1757920Y1345935D01*
X1759787Y1346708D01*
X1779588D01*
X1781456Y1345935D01*
D02*
G37*
G36*
X1706456D02*
X1707885Y1344506D01*
X1708658Y1342639D01*
Y1341628D01*
Y1227328D01*
Y1226318D01*
X1707885Y1224450D01*
X1706456Y1223021D01*
X1704588Y1222248D01*
X1684787D01*
X1682920Y1223021D01*
X1681491Y1224450D01*
X1680718Y1226318D01*
Y1227328D01*
Y1341628D01*
Y1342639D01*
X1681491Y1344506D01*
X1682920Y1345935D01*
X1684787Y1346708D01*
X1704588D01*
X1706456Y1345935D01*
D02*
G37*
G36*
X1551586D02*
X1553015Y1344506D01*
X1553788Y1342639D01*
Y1341628D01*
Y1227328D01*
Y1226318D01*
X1553015Y1224450D01*
X1551586Y1223021D01*
X1549718Y1222248D01*
X1529917D01*
X1528050Y1223021D01*
X1526621Y1224450D01*
X1525848Y1226318D01*
Y1227328D01*
Y1341628D01*
Y1342639D01*
X1526621Y1344506D01*
X1528050Y1345935D01*
X1529917Y1346708D01*
X1549718D01*
X1551586Y1345935D01*
D02*
G37*
G36*
X1476586D02*
X1478015Y1344506D01*
X1478788Y1342639D01*
Y1341628D01*
Y1227328D01*
Y1226318D01*
X1478015Y1224450D01*
X1476586Y1223021D01*
X1474718Y1222248D01*
X1454917D01*
X1453050Y1223021D01*
X1451621Y1224450D01*
X1450848Y1226318D01*
Y1227328D01*
Y1341628D01*
Y1342639D01*
X1451621Y1344506D01*
X1453050Y1345935D01*
X1454917Y1346708D01*
X1474718D01*
X1476586Y1345935D01*
D02*
G37*
G36*
X1322986D02*
X1324415Y1344506D01*
X1325188Y1342639D01*
Y1341628D01*
Y1227328D01*
Y1226318D01*
X1324415Y1224450D01*
X1322986Y1223021D01*
X1321118Y1222248D01*
X1301317D01*
X1299450Y1223021D01*
X1298021Y1224450D01*
X1297248Y1226318D01*
Y1227328D01*
Y1341628D01*
Y1342639D01*
X1298021Y1344506D01*
X1299450Y1345935D01*
X1301317Y1346708D01*
X1321118D01*
X1322986Y1345935D01*
D02*
G37*
G36*
X1247986D02*
X1249415Y1344506D01*
X1250188Y1342639D01*
Y1341628D01*
Y1227328D01*
Y1226318D01*
X1249415Y1224450D01*
X1247986Y1223021D01*
X1246118Y1222248D01*
X1226318D01*
X1224450Y1223021D01*
X1223021Y1224450D01*
X1222248Y1226318D01*
Y1227328D01*
Y1341628D01*
Y1342639D01*
X1223021Y1344506D01*
X1224450Y1345935D01*
X1226318Y1346708D01*
X1246118D01*
X1247986Y1345935D01*
D02*
G37*
G36*
X1091846D02*
X1093275Y1344506D01*
X1094048Y1342639D01*
Y1341628D01*
Y1227328D01*
Y1226318D01*
X1093275Y1224450D01*
X1091846Y1223021D01*
X1089978Y1222248D01*
X1070178D01*
X1068310Y1223021D01*
X1066881Y1224450D01*
X1066108Y1226318D01*
Y1227328D01*
Y1341628D01*
Y1342639D01*
X1066881Y1344506D01*
X1068310Y1345935D01*
X1070178Y1346708D01*
X1089978D01*
X1091846Y1345935D01*
D02*
G37*
G36*
X1016846D02*
X1018275Y1344506D01*
X1019048Y1342639D01*
Y1341628D01*
Y1227328D01*
Y1226318D01*
X1018275Y1224450D01*
X1016846Y1223021D01*
X1014978Y1222248D01*
X995178D01*
X993310Y1223021D01*
X991881Y1224450D01*
X991108Y1226318D01*
Y1227328D01*
Y1341628D01*
Y1342639D01*
X991881Y1344506D01*
X993310Y1345935D01*
X995178Y1346708D01*
X1014978D01*
X1016846Y1345935D01*
D02*
G37*
G36*
X863246D02*
X864675Y1344506D01*
X865448Y1342639D01*
Y1341628D01*
Y1227328D01*
Y1226318D01*
X864675Y1224450D01*
X863246Y1223021D01*
X861378Y1222248D01*
X841578D01*
X839710Y1223021D01*
X838281Y1224450D01*
X837508Y1226318D01*
Y1227328D01*
Y1341628D01*
Y1342639D01*
X838281Y1344506D01*
X839710Y1345935D01*
X841578Y1346708D01*
X861378D01*
X863246Y1345935D01*
D02*
G37*
G36*
X788246D02*
X789675Y1344506D01*
X790448Y1342639D01*
Y1341628D01*
Y1227328D01*
Y1226318D01*
X789675Y1224450D01*
X788246Y1223021D01*
X786378Y1222248D01*
X766578D01*
X764710Y1223021D01*
X763281Y1224450D01*
X762508Y1226318D01*
Y1227328D01*
Y1341628D01*
Y1342639D01*
X763281Y1344506D01*
X764710Y1345935D01*
X766578Y1346708D01*
X786378D01*
X788246Y1345935D01*
D02*
G37*
G36*
X633121D02*
X634551Y1344506D01*
X635324Y1342639D01*
Y1341628D01*
Y1227328D01*
Y1226318D01*
X634551Y1224450D01*
X633121Y1223021D01*
X631254Y1222248D01*
X611454D01*
X609586Y1223021D01*
X608157Y1224450D01*
X607384Y1226318D01*
Y1227328D01*
Y1341628D01*
Y1342639D01*
X608157Y1344506D01*
X609586Y1345935D01*
X611454Y1346708D01*
X631254D01*
X633121Y1345935D01*
D02*
G37*
G36*
X558121D02*
X559551Y1344506D01*
X560324Y1342639D01*
Y1341628D01*
Y1227328D01*
Y1226318D01*
X559551Y1224450D01*
X558121Y1223021D01*
X556254Y1222248D01*
X536454D01*
X534586Y1223021D01*
X533157Y1224450D01*
X532384Y1226318D01*
Y1227328D01*
Y1341628D01*
Y1342639D01*
X533157Y1344506D01*
X534586Y1345935D01*
X536454Y1346708D01*
X556254D01*
X558121Y1345935D01*
D02*
G37*
G36*
X403506D02*
X404935Y1344506D01*
X405708Y1342639D01*
Y1341628D01*
Y1227328D01*
Y1226318D01*
X404935Y1224450D01*
X403506Y1223021D01*
X401638Y1222248D01*
X381838D01*
X379970Y1223021D01*
X378541Y1224450D01*
X377768Y1226318D01*
Y1227328D01*
Y1341628D01*
Y1342639D01*
X378541Y1344506D01*
X379970Y1345935D01*
X381838Y1346708D01*
X401638D01*
X403506Y1345935D01*
D02*
G37*
G36*
X328506D02*
X329935Y1344506D01*
X330708Y1342639D01*
Y1341628D01*
Y1227328D01*
Y1226318D01*
X329935Y1224450D01*
X328506Y1223021D01*
X326638Y1222248D01*
X306838D01*
X304970Y1223021D01*
X303541Y1224450D01*
X302768Y1226318D01*
Y1227328D01*
Y1341628D01*
Y1342639D01*
X303541Y1344506D01*
X304970Y1345935D01*
X306838Y1346708D01*
X326638D01*
X328506Y1345935D01*
D02*
G37*
G36*
X2309114Y1036320D02*
X206914D01*
Y1188720D01*
X2309114D01*
Y1036320D01*
D02*
G37*
D32*
X556104Y467997D02*
D03*
X542669Y454562D02*
D03*
X524920Y472311D02*
D03*
X531638Y479028D02*
D03*
X538355Y485746D02*
D03*
X1248285Y490572D02*
D03*
X1241568Y483854D02*
D03*
X1234850Y477137D02*
D03*
X1252599Y459388D02*
D03*
X1266034Y472823D02*
D03*
X1997300Y470283D02*
D03*
X1983865Y456848D02*
D03*
X1966116Y474597D02*
D03*
X1972834Y481314D02*
D03*
X1979551Y488032D02*
D03*
D33*
X939509Y604647D02*
D03*
Y579247D02*
D03*
X1041509Y528447D02*
D03*
Y604647D02*
D03*
X939509Y528447D02*
D03*
X1670866Y603758D02*
D03*
Y578358D02*
D03*
X1772866Y527558D02*
D03*
Y603758D02*
D03*
X1670866Y527558D02*
D03*
X209132Y579120D02*
D03*
X311132Y528320D02*
D03*
Y604520D02*
D03*
X209132D02*
D03*
Y528320D02*
D03*
D34*
X73662Y771182D02*
D03*
X105662Y744182D02*
D03*
X73662D02*
D03*
X105662Y771182D02*
D03*
X73662Y442252D02*
D03*
X105662Y415252D02*
D03*
X73662D02*
D03*
X105662Y442252D02*
D03*
D35*
X2266594Y138006D02*
D03*
Y155786D02*
D03*
X1863274Y610870D02*
D03*
Y628650D02*
D03*
X387096Y610870D02*
D03*
Y628650D02*
D03*
X1117473Y610997D02*
D03*
Y628777D02*
D03*
X1938712Y628650D02*
D03*
Y610870D02*
D03*
X1208151Y628777D02*
D03*
Y610997D02*
D03*
X402336Y610870D02*
D03*
Y628650D02*
D03*
X1848034Y610870D02*
D03*
Y628650D02*
D03*
X477774D02*
D03*
Y610870D02*
D03*
X1132713Y610997D02*
D03*
Y628777D02*
D03*
X132700Y255154D02*
D03*
Y272934D02*
D03*
X153020Y255154D02*
D03*
Y272934D02*
D03*
X417830Y196850D02*
D03*
Y179070D02*
D03*
X1223645Y628777D02*
D03*
Y610997D02*
D03*
X493268Y628650D02*
D03*
Y610870D02*
D03*
X1833302D02*
D03*
Y628650D02*
D03*
X1147699Y610997D02*
D03*
Y628777D02*
D03*
X1954206Y628650D02*
D03*
Y610870D02*
D03*
X417322D02*
D03*
Y628650D02*
D03*
X1102741Y610997D02*
D03*
Y628777D02*
D03*
X372364Y610870D02*
D03*
Y628650D02*
D03*
X1878260Y610870D02*
D03*
Y628650D02*
D03*
D36*
X2220170Y137632D02*
D03*
X2237950D02*
D03*
X2220170Y157952D02*
D03*
X2237950D02*
D03*
X762000Y95250D02*
D03*
X779780D02*
D03*
X844550Y17780D02*
D03*
X862330D02*
D03*
X697230Y15240D02*
D03*
X715010D02*
D03*
X911098Y95250D02*
D03*
X893318D02*
D03*
X150230Y225690D02*
D03*
X132450D02*
D03*
X389194Y199538D02*
D03*
X371414D02*
D03*
X389194Y179218D02*
D03*
X371414D02*
D03*
X1186815Y607949D02*
D03*
X1169035D02*
D03*
X456438Y607822D02*
D03*
X438658D02*
D03*
X1186815Y592709D02*
D03*
X1169035D02*
D03*
X1917376Y592582D02*
D03*
X1899596D02*
D03*
X1917376Y607822D02*
D03*
X1899596D02*
D03*
X456438Y592582D02*
D03*
X438658D02*
D03*
D37*
X2022602Y106520D02*
D03*
Y86520D02*
D03*
Y39116D02*
D03*
Y59116D02*
D03*
X1252347Y927387D02*
D03*
Y947387D02*
D03*
X262890Y823882D02*
D03*
Y843882D02*
D03*
X1723644Y823882D02*
D03*
Y843882D02*
D03*
X544830Y927260D02*
D03*
Y947260D02*
D03*
X970443Y824009D02*
D03*
Y844009D02*
D03*
X521970Y927260D02*
D03*
Y947260D02*
D03*
X2005768Y927260D02*
D03*
Y947260D02*
D03*
X240066Y823882D02*
D03*
Y843882D02*
D03*
X1982908Y927260D02*
D03*
Y947260D02*
D03*
X101815Y161452D02*
D03*
Y141452D02*
D03*
X1275207Y927387D02*
D03*
Y947387D02*
D03*
X130302Y161130D02*
D03*
Y141130D02*
D03*
X73329Y161452D02*
D03*
Y141452D02*
D03*
X1701004Y823882D02*
D03*
Y843882D02*
D03*
X993267Y824009D02*
D03*
Y844009D02*
D03*
X1294591Y737141D02*
D03*
Y757141D02*
D03*
X2006854Y981108D02*
D03*
Y1001108D02*
D03*
X563880Y736760D02*
D03*
Y756760D02*
D03*
X1276096Y981616D02*
D03*
Y1001616D02*
D03*
X2025152Y737014D02*
D03*
Y757014D02*
D03*
X44842Y161452D02*
D03*
Y141452D02*
D03*
Y107686D02*
D03*
Y87686D02*
D03*
X545592Y981014D02*
D03*
Y1001014D02*
D03*
X2003308Y737522D02*
D03*
Y757522D02*
D03*
X542370Y737522D02*
D03*
Y757522D02*
D03*
X1272747Y737649D02*
D03*
Y757649D02*
D03*
X101815Y87660D02*
D03*
Y107660D02*
D03*
X130302Y87660D02*
D03*
Y107660D02*
D03*
X73329Y87686D02*
D03*
Y107686D02*
D03*
X862330Y59690D02*
D03*
Y39690D02*
D03*
X715010Y59370D02*
D03*
Y39370D02*
D03*
D38*
X1774030Y827786D02*
D03*
X1754030D02*
D03*
X1044542Y828040D02*
D03*
X1024542D02*
D03*
X363302Y694806D02*
D03*
X343302D02*
D03*
X1093679Y694933D02*
D03*
X1073679D02*
D03*
X1824240Y694806D02*
D03*
X1804240D02*
D03*
X1214964Y113066D02*
D03*
X1194964D02*
D03*
X1304076D02*
D03*
X1284076D02*
D03*
X1258410D02*
D03*
X1238410D02*
D03*
X314800Y828040D02*
D03*
X294800D02*
D03*
X1093782Y652193D02*
D03*
X1073782D02*
D03*
X1824240Y673470D02*
D03*
X1804240D02*
D03*
X1824068Y652526D02*
D03*
X1804068D02*
D03*
X1093679Y673597D02*
D03*
X1073679D02*
D03*
X363302Y673470D02*
D03*
X343302D02*
D03*
X363302Y652388D02*
D03*
X343302D02*
D03*
X457548Y625856D02*
D03*
X437548D02*
D03*
X1918302D02*
D03*
X1898302D02*
D03*
X1188016Y626031D02*
D03*
X1168016D02*
D03*
X1258410Y90678D02*
D03*
X1238410D02*
D03*
X1074740Y96520D02*
D03*
X1094740D02*
D03*
X1214964Y90678D02*
D03*
X1194964D02*
D03*
X1304785D02*
D03*
X1284785D02*
D03*
D39*
X509216Y513642D02*
D03*
X521788Y501070D02*
D03*
X1217994Y517452D02*
D03*
X1230566Y504880D02*
D03*
X1951310Y514812D02*
D03*
X1963882Y502240D02*
D03*
X1938737Y503318D02*
D03*
X1951310Y490746D02*
D03*
X498040Y502212D02*
D03*
X510612Y489640D02*
D03*
X1207072Y506158D02*
D03*
X1219644Y493586D02*
D03*
X564070Y482156D02*
D03*
X551498Y494728D02*
D03*
X1273302Y486918D02*
D03*
X1260730Y499490D02*
D03*
X2007044Y486220D02*
D03*
X1994472Y498792D02*
D03*
D40*
X669617Y483181D02*
D03*
X687578Y501142D02*
D03*
X723499Y537063D02*
D03*
X651374Y609188D02*
D03*
X597493Y555306D02*
D03*
X2130555Y483288D02*
D03*
X2148516Y501249D02*
D03*
X2184437Y537170D02*
D03*
X2112312Y609295D02*
D03*
X2058430Y555413D02*
D03*
X1327870Y555434D02*
D03*
X1381751Y609315D02*
D03*
X1453876Y537190D02*
D03*
X1417955Y501269D02*
D03*
X1399995Y483309D02*
D03*
D41*
X1858761Y757229D02*
D03*
X1871461D02*
D03*
X1896861D02*
D03*
X1909561D02*
D03*
X1922261D02*
D03*
X1934961D02*
D03*
X1947661Y664429D02*
D03*
X1934961D02*
D03*
X1922261D02*
D03*
X1909561D02*
D03*
X1896861D02*
D03*
X1884161D02*
D03*
X1871461D02*
D03*
X1858761D02*
D03*
X1947661Y757229D02*
D03*
X1884161D02*
D03*
X397823Y757230D02*
D03*
X410523D02*
D03*
X435923D02*
D03*
X448623D02*
D03*
X461323D02*
D03*
X474023D02*
D03*
X486723Y664429D02*
D03*
X474023D02*
D03*
X461323D02*
D03*
X448623D02*
D03*
X435923D02*
D03*
X423223D02*
D03*
X410523D02*
D03*
X397823D02*
D03*
X486723Y757230D02*
D03*
X423223D02*
D03*
X1128201Y664556D02*
D03*
X1140900D02*
D03*
X1153600D02*
D03*
X1166301D02*
D03*
X1179000D02*
D03*
X1191701D02*
D03*
X1204400D02*
D03*
X1217101D02*
D03*
X1204400Y757356D02*
D03*
X1191701D02*
D03*
X1179000D02*
D03*
X1166301D02*
D03*
X1140900D02*
D03*
X1128201D02*
D03*
X1217101D02*
D03*
X1153600D02*
D03*
D42*
X363220Y717370D02*
D03*
Y758370D02*
D03*
X1824158D02*
D03*
Y717370D02*
D03*
X1093597Y758497D02*
D03*
Y717497D02*
D03*
D43*
X514858Y736086D02*
D03*
Y767086D02*
D03*
X1975796Y736086D02*
D03*
Y767086D02*
D03*
X1245235Y736213D02*
D03*
Y767213D02*
D03*
D44*
X2047197Y996479D02*
D03*
X2059897D02*
D03*
X2072597D02*
D03*
X2123397D02*
D03*
X2097997D02*
D03*
X2110697D02*
D03*
X2162555D02*
D03*
X2175255D02*
D03*
X2187955D02*
D03*
X2238755D02*
D03*
X2213355D02*
D03*
X2226055D02*
D03*
X662459Y996479D02*
D03*
X611660D02*
D03*
X598960D02*
D03*
X586259D02*
D03*
X637060D02*
D03*
X649760D02*
D03*
X701617D02*
D03*
X714317D02*
D03*
X727017D02*
D03*
X777817D02*
D03*
X752417D02*
D03*
X765117D02*
D03*
X1316637Y996606D02*
D03*
X1329337D02*
D03*
X1342036D02*
D03*
X1392836D02*
D03*
X1367437D02*
D03*
X1380137D02*
D03*
X1508194D02*
D03*
X1457394D02*
D03*
X1444694D02*
D03*
X1431994D02*
D03*
X1482794D02*
D03*
X1495494D02*
D03*
X1884223Y865338D02*
D03*
X1896923D02*
D03*
X1871523D02*
D03*
X1922323D02*
D03*
X1935023D02*
D03*
X1947723D02*
D03*
X1826767D02*
D03*
X1814067D02*
D03*
X1801367D02*
D03*
X1750567D02*
D03*
X1775967D02*
D03*
X1763267D02*
D03*
X410585Y865338D02*
D03*
X461385D02*
D03*
X474085D02*
D03*
X486785D02*
D03*
X435985D02*
D03*
X423285D02*
D03*
X365829D02*
D03*
X353129D02*
D03*
X340429D02*
D03*
X289629D02*
D03*
X315029D02*
D03*
X302329D02*
D03*
X1140962Y865465D02*
D03*
X1191762D02*
D03*
X1204462D02*
D03*
X1217162D02*
D03*
X1166362D02*
D03*
X1153662D02*
D03*
X1096206D02*
D03*
X1083506D02*
D03*
X1070806D02*
D03*
X1020006D02*
D03*
X1045406D02*
D03*
X1032706D02*
D03*
D45*
X2085297Y894479D02*
D03*
X2200655D02*
D03*
X624360Y894480D02*
D03*
X739717D02*
D03*
X1354736Y894606D02*
D03*
X1470094D02*
D03*
X1909623Y967338D02*
D03*
X1788667D02*
D03*
X448685Y967338D02*
D03*
X327729D02*
D03*
X1179062Y967465D02*
D03*
X1058106D02*
D03*
D46*
X664206Y742932D02*
D03*
X734917Y672221D02*
D03*
X2104166Y746188D02*
D03*
X2174876Y675477D02*
D03*
X1373605Y746315D02*
D03*
X1444315Y675604D02*
D03*
D47*
X561746Y542750D02*
D03*
X2001706Y546006D02*
D03*
X1271145Y546133D02*
D03*
D48*
X548241Y556256D02*
D03*
X534735Y569762D02*
D03*
X391830Y1287780D02*
D03*
X1540386D02*
D03*
X851253D02*
D03*
X1770098D02*
D03*
X1999809D02*
D03*
X2229520D02*
D03*
X621541D02*
D03*
X1080964D02*
D03*
X1310675D02*
D03*
X1988200Y559512D02*
D03*
X1974694Y573017D02*
D03*
X1257639Y559639D02*
D03*
X1244134Y573144D02*
D03*
X1087120Y218440D02*
D03*
X1061720D02*
D03*
X1036320D02*
D03*
X985520Y193040D02*
D03*
X1010920D02*
D03*
X985520Y218440D02*
D03*
X1010920D02*
D03*
X1036320Y193040D02*
D03*
X1087120D02*
D03*
X1137920D02*
D03*
Y218440D02*
D03*
X1214120Y193040D02*
D03*
Y218440D02*
D03*
X1239520Y193040D02*
D03*
Y218440D02*
D03*
X1290320Y193040D02*
D03*
X1264920Y218440D02*
D03*
Y193040D02*
D03*
X1188720Y218440D02*
D03*
Y193040D02*
D03*
X1163320Y218440D02*
D03*
Y193040D02*
D03*
X1112520Y218440D02*
D03*
Y193040D02*
D03*
X1061720D02*
D03*
D49*
X632245Y766153D02*
D03*
X630307Y753949D02*
D03*
X675223Y709033D02*
D03*
X758138Y640260D02*
D03*
X734563Y643584D02*
D03*
X745933Y638323D02*
D03*
X725137Y653009D02*
D03*
X701018Y683238D02*
D03*
X706279Y671868D02*
D03*
X715705Y662442D02*
D03*
X702955Y695443D02*
D03*
X687427Y710971D02*
D03*
X663852Y714294D02*
D03*
X654427Y723720D02*
D03*
X644994Y733153D02*
D03*
X635568Y742578D02*
D03*
X698105Y731915D02*
D03*
X692844Y743286D02*
D03*
X683418Y752711D02*
D03*
X673985Y762144D02*
D03*
X664560Y771570D02*
D03*
X653189Y776831D02*
D03*
X640985Y774893D02*
D03*
X723900Y706120D02*
D03*
X735270Y700859D02*
D03*
X744696Y691433D02*
D03*
X754129Y682001D02*
D03*
X763555Y672575D02*
D03*
X768815Y661205D02*
D03*
X766878Y649000D02*
D03*
X711695Y704183D02*
D03*
X696167Y719711D02*
D03*
X2072204Y769409D02*
D03*
X2070267Y757205D02*
D03*
X2115182Y712289D02*
D03*
X2198098Y643516D02*
D03*
X2174523Y646839D02*
D03*
X2185893Y641578D02*
D03*
X2165097Y656265D02*
D03*
X2140978Y686494D02*
D03*
X2146239Y675124D02*
D03*
X2155664Y665698D02*
D03*
X2142915Y698699D02*
D03*
X2127387Y714227D02*
D03*
X2103812Y717550D02*
D03*
X2094386Y726976D02*
D03*
X2084953Y736408D02*
D03*
X2075528Y745834D02*
D03*
X2138064Y735171D02*
D03*
X2132803Y746541D02*
D03*
X2123378Y755967D02*
D03*
X2113945Y765400D02*
D03*
X2104519Y774826D02*
D03*
X2093149Y780086D02*
D03*
X2080944Y778149D02*
D03*
X2163860Y709376D02*
D03*
X2175230Y704115D02*
D03*
X2184656Y694689D02*
D03*
X2194088Y685256D02*
D03*
X2203514Y675831D02*
D03*
X2208775Y664460D02*
D03*
X2206837Y652256D02*
D03*
X2151655Y707438D02*
D03*
X2136127Y722966D02*
D03*
X1341644Y769536D02*
D03*
X1339706Y757331D02*
D03*
X1384621Y712416D02*
D03*
X1467537Y643643D02*
D03*
X1443962Y646966D02*
D03*
X1455332Y641705D02*
D03*
X1434536Y656392D02*
D03*
X1410417Y686621D02*
D03*
X1415678Y675250D02*
D03*
X1425103Y665825D02*
D03*
X1412354Y698826D02*
D03*
X1396826Y714353D02*
D03*
X1373251Y717677D02*
D03*
X1363826Y727103D02*
D03*
X1354393Y736535D02*
D03*
X1344967Y745961D02*
D03*
X1407504Y735298D02*
D03*
X1402243Y746668D02*
D03*
X1392817Y756094D02*
D03*
X1383384Y765527D02*
D03*
X1373958Y774953D02*
D03*
X1362588Y780213D02*
D03*
X1350383Y778276D02*
D03*
X1433299Y709503D02*
D03*
X1444669Y704242D02*
D03*
X1454095Y694816D02*
D03*
X1463528Y685383D02*
D03*
X1472953Y675958D02*
D03*
X1478214Y664587D02*
D03*
X1476277Y652383D02*
D03*
X1421094Y707565D02*
D03*
X1405566Y723093D02*
D03*
D50*
X735603Y672426D02*
D03*
X664838Y743191D02*
D03*
X2175562Y675682D02*
D03*
X2104798Y746447D02*
D03*
X1445001Y675809D02*
D03*
X1374237Y746573D02*
D03*
D51*
X316830Y1287780D02*
D03*
X1465386D02*
D03*
X776253D02*
D03*
X1695098D02*
D03*
X1924809D02*
D03*
X2154520D02*
D03*
X546541D02*
D03*
X1005964D02*
D03*
X1235675D02*
D03*
X1290320Y218440D02*
D03*
D52*
X1805940Y142240D02*
D03*
D53*
X1818640Y167640D02*
D03*
X1831340Y142240D02*
D03*
X1844040Y167640D02*
D03*
X1856740Y142240D02*
D03*
X1869440Y167640D02*
D03*
X1882140Y142240D02*
D03*
X1894840Y167640D02*
D03*
D54*
X1793240Y78740D02*
D03*
X1907540D02*
D03*
D55*
X1769140Y48240D02*
D03*
X1931640D02*
D03*
D56*
X200406Y1155446D02*
D03*
X189992D02*
D03*
Y1145540D02*
D03*
X200406D02*
D03*
X189992Y1136650D02*
D03*
X200406D02*
D03*
X189992Y1127760D02*
D03*
X200406D02*
D03*
X189992Y1118870D02*
D03*
X200406D02*
D03*
X189992Y1109980D02*
D03*
X200406D02*
D03*
X189992Y1101090D02*
D03*
X200406D02*
D03*
X2178904Y856740D02*
D03*
X2170175D02*
D03*
X2115916D02*
D03*
X2107188D02*
D03*
X2161447D02*
D03*
X2205089D02*
D03*
X2196361D02*
D03*
X2152719D02*
D03*
X2213817D02*
D03*
X2124483D02*
D03*
X2046089D02*
D03*
X2037361D02*
D03*
X2063546D02*
D03*
X2054818D02*
D03*
X2098459D02*
D03*
X2072274D02*
D03*
X2133373D02*
D03*
X2089731D02*
D03*
X2081003D02*
D03*
X2187632D02*
D03*
X2231274D02*
D03*
X2222546D02*
D03*
X2248731D02*
D03*
X2239841D02*
D03*
X761608Y856740D02*
D03*
X646250D02*
D03*
X778903D02*
D03*
X770336D02*
D03*
X654978D02*
D03*
X611336D02*
D03*
X620065D02*
D03*
X663545D02*
D03*
X672435D02*
D03*
X700509D02*
D03*
X691781D02*
D03*
X717966D02*
D03*
X709238D02*
D03*
X752879D02*
D03*
X726694D02*
D03*
X787793D02*
D03*
X744151D02*
D03*
X735423D02*
D03*
X585151D02*
D03*
X593880D02*
D03*
X602608D02*
D03*
X628793D02*
D03*
X637522D02*
D03*
X576423D02*
D03*
X1422158Y856867D02*
D03*
X1483257D02*
D03*
X1491985D02*
D03*
X1393922D02*
D03*
X1385355D02*
D03*
X1376627D02*
D03*
X1518170D02*
D03*
X1500713D02*
D03*
X1509280D02*
D03*
X1474528D02*
D03*
X1465800D02*
D03*
X1457071D02*
D03*
X1332985D02*
D03*
X1324257D02*
D03*
X1315528D02*
D03*
X1430886D02*
D03*
X1439615D02*
D03*
X1448343D02*
D03*
X1350442D02*
D03*
X1341714D02*
D03*
X1402812D02*
D03*
X1306800D02*
D03*
X1367899D02*
D03*
X1359170D02*
D03*
X2133373Y866138D02*
D03*
X2072274D02*
D03*
X2081003D02*
D03*
X2231274D02*
D03*
X2240002D02*
D03*
X2222546D02*
D03*
X2063546D02*
D03*
X2046089D02*
D03*
X2054818D02*
D03*
X2089731D02*
D03*
X2098459D02*
D03*
X2037361D02*
D03*
X2178904D02*
D03*
X2170175D02*
D03*
X2161447D02*
D03*
X2124644D02*
D03*
X2115916D02*
D03*
X2107188D02*
D03*
X2196361D02*
D03*
X2187632D02*
D03*
X2248731D02*
D03*
X2152719D02*
D03*
X2213817D02*
D03*
X2205089D02*
D03*
X672435Y866138D02*
D03*
X611336D02*
D03*
X620065D02*
D03*
X646250D02*
D03*
X654978D02*
D03*
X663707D02*
D03*
X585151D02*
D03*
X593880D02*
D03*
X602608D02*
D03*
X628793D02*
D03*
X637522D02*
D03*
X576423D02*
D03*
X735423D02*
D03*
X726694D02*
D03*
X752879D02*
D03*
X744151D02*
D03*
X770336D02*
D03*
X761608D02*
D03*
X787793D02*
D03*
X779064D02*
D03*
X691781D02*
D03*
X717966D02*
D03*
X709238D02*
D03*
X700509D02*
D03*
X1422158Y866265D02*
D03*
X1483257D02*
D03*
X1474528D02*
D03*
X1448343D02*
D03*
X1439615D02*
D03*
X1430886D02*
D03*
X1509442D02*
D03*
X1518170D02*
D03*
X1457071D02*
D03*
X1465800D02*
D03*
X1491985D02*
D03*
X1500713D02*
D03*
X1402812D02*
D03*
X1341714D02*
D03*
X1350442D02*
D03*
X1376627D02*
D03*
X1385355D02*
D03*
X1394084D02*
D03*
X1315528D02*
D03*
X1324257D02*
D03*
X1332985D02*
D03*
X1306800D02*
D03*
X1367899D02*
D03*
X1359170D02*
D03*
X2196361Y875536D02*
D03*
X2205089D02*
D03*
X2187632D02*
D03*
X2240002D02*
D03*
X2248731D02*
D03*
X2170175D02*
D03*
X2178904D02*
D03*
X2161447D02*
D03*
X2213817D02*
D03*
X2152719D02*
D03*
X2107188D02*
D03*
X2054818D02*
D03*
X2046089D02*
D03*
X2037361D02*
D03*
X2222546D02*
D03*
X2231274D02*
D03*
X2063546D02*
D03*
X2098459D02*
D03*
X2133373D02*
D03*
X2072274D02*
D03*
X2115916D02*
D03*
X2124644D02*
D03*
X2089731D02*
D03*
X2081003D02*
D03*
X593880Y875536D02*
D03*
X654978D02*
D03*
X585151D02*
D03*
X646250D02*
D03*
X602608D02*
D03*
X611336D02*
D03*
X620065D02*
D03*
X663707D02*
D03*
X672435D02*
D03*
X787793D02*
D03*
X779064D02*
D03*
X735423D02*
D03*
X726694D02*
D03*
X770336D02*
D03*
X637522D02*
D03*
X628793D02*
D03*
X761608D02*
D03*
X576423D02*
D03*
X744151D02*
D03*
X691781D02*
D03*
X709238D02*
D03*
X700509D02*
D03*
X717966D02*
D03*
X752879D02*
D03*
X1448343Y875663D02*
D03*
X1385355D02*
D03*
X1376627D02*
D03*
X1341714D02*
D03*
X1483257D02*
D03*
X1402812D02*
D03*
X1394084D02*
D03*
X1474528D02*
D03*
X1457071D02*
D03*
X1500713D02*
D03*
X1518170D02*
D03*
X1509442D02*
D03*
X1491985D02*
D03*
X1430886D02*
D03*
X1439615D02*
D03*
X1465800D02*
D03*
X1422158D02*
D03*
X1306800D02*
D03*
X1367899D02*
D03*
X1359170D02*
D03*
X1332985D02*
D03*
X1324257D02*
D03*
X1315528D02*
D03*
X1350442D02*
D03*
X2240002Y884934D02*
D03*
X2248731D02*
D03*
X2231274D02*
D03*
X2063546D02*
D03*
X2222546D02*
D03*
X2213817D02*
D03*
X2152719D02*
D03*
X2205089D02*
D03*
X2187632D02*
D03*
X2196361D02*
D03*
X2054818D02*
D03*
X2133373D02*
D03*
X2072274D02*
D03*
X2124644D02*
D03*
X2107188D02*
D03*
X2115916D02*
D03*
X2037361D02*
D03*
X2046089D02*
D03*
X2098459D02*
D03*
X2081003D02*
D03*
X2089731D02*
D03*
X2170175D02*
D03*
X2178904D02*
D03*
X2161447D02*
D03*
X779064Y884934D02*
D03*
X770336D02*
D03*
X620065D02*
D03*
X726694D02*
D03*
X628793D02*
D03*
X787793D02*
D03*
X654978D02*
D03*
X672435D02*
D03*
X663707D02*
D03*
X761608D02*
D03*
X611336D02*
D03*
X646250D02*
D03*
X691781D02*
D03*
X576423D02*
D03*
X752879D02*
D03*
X593880D02*
D03*
X585151D02*
D03*
X602608D02*
D03*
X700509D02*
D03*
X709238D02*
D03*
X717966D02*
D03*
X744151D02*
D03*
X637522D02*
D03*
X735423D02*
D03*
X1500713Y885061D02*
D03*
X1509442D02*
D03*
X1332985D02*
D03*
X1491985D02*
D03*
X1518170D02*
D03*
X1474528D02*
D03*
X1483257D02*
D03*
X1457071D02*
D03*
X1465800D02*
D03*
X1324257D02*
D03*
X1402812D02*
D03*
X1341714D02*
D03*
X1385355D02*
D03*
X1394084D02*
D03*
X1350442D02*
D03*
X1306800D02*
D03*
X1315528D02*
D03*
X1359170D02*
D03*
X1367899D02*
D03*
X1430886D02*
D03*
X1439615D02*
D03*
X1448343D02*
D03*
X1422158D02*
D03*
X1376627D02*
D03*
X2107188Y894332D02*
D03*
X2115916D02*
D03*
X2046089D02*
D03*
X2054818D02*
D03*
X2063546D02*
D03*
X2081003D02*
D03*
X2089731D02*
D03*
X2098459D02*
D03*
X2124644D02*
D03*
X2133373D02*
D03*
X2072274D02*
D03*
X2152719D02*
D03*
X2222546D02*
D03*
X2231274D02*
D03*
X2178904D02*
D03*
X2170175D02*
D03*
X2161447D02*
D03*
X2240002D02*
D03*
X2037361D02*
D03*
X2213817D02*
D03*
X2205089D02*
D03*
X2248731D02*
D03*
X2187632D02*
D03*
X2196361D02*
D03*
X654978Y894332D02*
D03*
X646250D02*
D03*
X663707D02*
D03*
X611336D02*
D03*
X672435D02*
D03*
X735423D02*
D03*
X744151D02*
D03*
X787793D02*
D03*
X726694D02*
D03*
X752879D02*
D03*
X709238D02*
D03*
X717966D02*
D03*
X691781D02*
D03*
X700509D02*
D03*
X779064D02*
D03*
X637522D02*
D03*
X576423D02*
D03*
X620065D02*
D03*
X628793D02*
D03*
X585151D02*
D03*
X761608D02*
D03*
X770336D02*
D03*
X593880D02*
D03*
X602608D02*
D03*
X1465800Y894459D02*
D03*
X1474528D02*
D03*
X1439615D02*
D03*
X1448343D02*
D03*
X1315528D02*
D03*
X1306800D02*
D03*
X1332985D02*
D03*
X1324257D02*
D03*
X1491985D02*
D03*
X1500713D02*
D03*
X1422158D02*
D03*
X1483257D02*
D03*
X1457071D02*
D03*
X1430886D02*
D03*
X1509442D02*
D03*
X1518170D02*
D03*
X1394084D02*
D03*
X1402812D02*
D03*
X1376627D02*
D03*
X1385355D02*
D03*
X1359170D02*
D03*
X1367899D02*
D03*
X1341714D02*
D03*
X1350442D02*
D03*
X2046089Y903730D02*
D03*
X2037361D02*
D03*
X2063546D02*
D03*
X2054818D02*
D03*
X2098459D02*
D03*
X2213817D02*
D03*
X2205089D02*
D03*
X2107188D02*
D03*
X2115916D02*
D03*
X2124644D02*
D03*
X2187632D02*
D03*
X2248731D02*
D03*
X2240002D02*
D03*
X2196361D02*
D03*
X2152719D02*
D03*
X2222546D02*
D03*
X2231274D02*
D03*
X2089731D02*
D03*
X2081003D02*
D03*
X2072274D02*
D03*
X2170175D02*
D03*
X2161447D02*
D03*
X2133373D02*
D03*
X2178904D02*
D03*
X602608Y903730D02*
D03*
X585151D02*
D03*
X593880D02*
D03*
X761608D02*
D03*
X770336D02*
D03*
X779064D02*
D03*
X576423D02*
D03*
X744151D02*
D03*
X752879D02*
D03*
X726694D02*
D03*
X735423D02*
D03*
X709238D02*
D03*
X717966D02*
D03*
X691781D02*
D03*
X700509D02*
D03*
X787793D02*
D03*
X620065D02*
D03*
X611336D02*
D03*
X637522D02*
D03*
X628793D02*
D03*
X654978D02*
D03*
X646250D02*
D03*
X672435D02*
D03*
X663707D02*
D03*
X1500713Y903857D02*
D03*
X1491985D02*
D03*
X1402812D02*
D03*
X1341714D02*
D03*
X1350442D02*
D03*
X1376627D02*
D03*
X1385355D02*
D03*
X1394084D02*
D03*
X1315528D02*
D03*
X1324257D02*
D03*
X1332985D02*
D03*
X1359170D02*
D03*
X1367899D02*
D03*
X1306800D02*
D03*
X1509442D02*
D03*
X1422158D02*
D03*
X1483257D02*
D03*
X1430886D02*
D03*
X1448343D02*
D03*
X1439615D02*
D03*
X1457071D02*
D03*
X1518170D02*
D03*
X1465800D02*
D03*
X1474528D02*
D03*
X2213817Y913128D02*
D03*
X2205089D02*
D03*
X2152719D02*
D03*
X2178904D02*
D03*
X2046089D02*
D03*
X2161447D02*
D03*
X2170175D02*
D03*
X2231274D02*
D03*
X2054818D02*
D03*
X2063546D02*
D03*
X2222546D02*
D03*
X2187632D02*
D03*
X2196361D02*
D03*
X2240002D02*
D03*
X2248731D02*
D03*
X2037361D02*
D03*
X2124644D02*
D03*
X2133373D02*
D03*
X2107188D02*
D03*
X2115916D02*
D03*
X2089731D02*
D03*
X2098459D02*
D03*
X2072274D02*
D03*
X2081003D02*
D03*
X700509Y913128D02*
D03*
X752879D02*
D03*
X691781D02*
D03*
X602608D02*
D03*
X717966D02*
D03*
X709238D02*
D03*
X744151D02*
D03*
X779064D02*
D03*
X770336D02*
D03*
X761608D02*
D03*
X735423D02*
D03*
X726694D02*
D03*
X787793D02*
D03*
X611336D02*
D03*
X620065D02*
D03*
X628793D02*
D03*
X672435D02*
D03*
X663707D02*
D03*
X654978D02*
D03*
X637522D02*
D03*
X585151D02*
D03*
X593880D02*
D03*
X646250D02*
D03*
X576423D02*
D03*
X1439615Y913255D02*
D03*
X1448343D02*
D03*
X1430886D02*
D03*
X1341714D02*
D03*
X1350442D02*
D03*
X1359170D02*
D03*
X1376627D02*
D03*
X1394084D02*
D03*
X1402812D02*
D03*
X1324257D02*
D03*
X1332985D02*
D03*
X1491985D02*
D03*
X1367899D02*
D03*
X1306800D02*
D03*
X1315528D02*
D03*
X1518170D02*
D03*
X1457071D02*
D03*
X1500713D02*
D03*
X1509442D02*
D03*
X1483257D02*
D03*
X1422158D02*
D03*
X1465800D02*
D03*
X1474528D02*
D03*
X1384808Y914146D02*
D03*
X2205089Y922526D02*
D03*
X2213817D02*
D03*
X2187632D02*
D03*
X2196361D02*
D03*
X2098459D02*
D03*
X2178904D02*
D03*
X2170175D02*
D03*
X2152719D02*
D03*
X2161447D02*
D03*
X2248731D02*
D03*
X2063546D02*
D03*
X2054818D02*
D03*
X2046089D02*
D03*
X2133373D02*
D03*
X2089731D02*
D03*
X2081003D02*
D03*
X2072274D02*
D03*
X2222546D02*
D03*
X2231274D02*
D03*
X2240002D02*
D03*
X2107188D02*
D03*
X2037361D02*
D03*
X2124644D02*
D03*
X2115916D02*
D03*
X691781Y922526D02*
D03*
X752879D02*
D03*
X744151D02*
D03*
X717966D02*
D03*
X709238D02*
D03*
X700509D02*
D03*
X779064D02*
D03*
X770336D02*
D03*
X761608D02*
D03*
X735423D02*
D03*
X726694D02*
D03*
X787793D02*
D03*
X576423D02*
D03*
X637522D02*
D03*
X628793D02*
D03*
X602608D02*
D03*
X593880D02*
D03*
X585151D02*
D03*
X620065D02*
D03*
X654978D02*
D03*
X646250D02*
D03*
X663707D02*
D03*
X611336D02*
D03*
X672435D02*
D03*
X1332985Y922653D02*
D03*
X1324257D02*
D03*
X1439615D02*
D03*
X1448343D02*
D03*
X1315528D02*
D03*
X1359170D02*
D03*
X1350442D02*
D03*
X1306800D02*
D03*
X1367899D02*
D03*
X1430886D02*
D03*
X1509442D02*
D03*
X1518170D02*
D03*
X1491985D02*
D03*
X1500713D02*
D03*
X1457071D02*
D03*
X1483257D02*
D03*
X1422158D02*
D03*
X1465800D02*
D03*
X1474528D02*
D03*
X1385355D02*
D03*
X1376627D02*
D03*
X1394084D02*
D03*
X1341714D02*
D03*
X1402812D02*
D03*
X1836604Y929894D02*
D03*
X1819147D02*
D03*
X1810419D02*
D03*
X1870276D02*
D03*
X1861548D02*
D03*
X1887733D02*
D03*
X1879004D02*
D03*
X1827875D02*
D03*
X1792962D02*
D03*
X1749320D02*
D03*
X1801690D02*
D03*
X1740592D02*
D03*
X1758049D02*
D03*
X1766777D02*
D03*
X1784234D02*
D03*
X1775505D02*
D03*
X1922646D02*
D03*
X1948831D02*
D03*
X1940103D02*
D03*
X1931375D02*
D03*
X1957560D02*
D03*
X1905189D02*
D03*
X1913918D02*
D03*
X1896461D02*
D03*
X461708Y929894D02*
D03*
X452980D02*
D03*
X444251D02*
D03*
X400610D02*
D03*
X409338D02*
D03*
X418066D02*
D03*
X479165D02*
D03*
X426795D02*
D03*
X470436D02*
D03*
X435523D02*
D03*
X496622D02*
D03*
X487893D02*
D03*
X323296D02*
D03*
X314567D02*
D03*
X340752D02*
D03*
X332024D02*
D03*
X358209D02*
D03*
X349481D02*
D03*
X375666D02*
D03*
X366937D02*
D03*
X288382D02*
D03*
X297111D02*
D03*
X305839D02*
D03*
X279654D02*
D03*
X1071130Y930021D02*
D03*
X1044944D02*
D03*
X1062401D02*
D03*
X1226999D02*
D03*
X1200814D02*
D03*
X1018759D02*
D03*
X1218270D02*
D03*
X1010031D02*
D03*
X1097315D02*
D03*
X1088586D02*
D03*
X1053673D02*
D03*
X1079858D02*
D03*
X1027488D02*
D03*
X1036216D02*
D03*
X1183357D02*
D03*
X1130987D02*
D03*
X1106043D02*
D03*
X1209542D02*
D03*
X1165900D02*
D03*
X1157172D02*
D03*
X1148444D02*
D03*
X1139715D02*
D03*
X1192085D02*
D03*
X1174629D02*
D03*
X2081003Y931924D02*
D03*
X2089731D02*
D03*
X2178904D02*
D03*
X2161447D02*
D03*
X2170175D02*
D03*
X2054818D02*
D03*
X2063546D02*
D03*
X2046089D02*
D03*
X2098459D02*
D03*
X2037361D02*
D03*
X2222546D02*
D03*
X2107188D02*
D03*
X2115916D02*
D03*
X2231274D02*
D03*
X2187632D02*
D03*
X2248731D02*
D03*
X2240002D02*
D03*
X2124644D02*
D03*
X2133373D02*
D03*
X2072274D02*
D03*
X2152719D02*
D03*
X2196361D02*
D03*
X2205089D02*
D03*
X2213817D02*
D03*
X672435Y931924D02*
D03*
X611336D02*
D03*
X620065D02*
D03*
X646250D02*
D03*
X654978D02*
D03*
X663707D02*
D03*
X585151D02*
D03*
X593880D02*
D03*
X602608D02*
D03*
X628793D02*
D03*
X637522D02*
D03*
X576423D02*
D03*
X787793D02*
D03*
X726694D02*
D03*
X735423D02*
D03*
X761608D02*
D03*
X770336D02*
D03*
X779064D02*
D03*
X700509D02*
D03*
X709238D02*
D03*
X717966D02*
D03*
X744151D02*
D03*
X752879D02*
D03*
X691781D02*
D03*
X1439615Y932051D02*
D03*
X1430886D02*
D03*
X1422158D02*
D03*
X1491985D02*
D03*
X1500713D02*
D03*
X1448343D02*
D03*
X1457071D02*
D03*
X1518170D02*
D03*
X1509442D02*
D03*
X1483257D02*
D03*
X1474528D02*
D03*
X1465800D02*
D03*
X1402812D02*
D03*
X1341714D02*
D03*
X1350442D02*
D03*
X1376627D02*
D03*
X1385355D02*
D03*
X1394084D02*
D03*
X1315528D02*
D03*
X1324257D02*
D03*
X1332985D02*
D03*
X1359170D02*
D03*
X1367899D02*
D03*
X1306800D02*
D03*
X1810419Y939292D02*
D03*
X1896461D02*
D03*
X1905189D02*
D03*
X1957560D02*
D03*
X1940103D02*
D03*
X1948831D02*
D03*
X1913918D02*
D03*
X1879004D02*
D03*
X1887733D02*
D03*
X1870276D02*
D03*
X1922646D02*
D03*
X1861548D02*
D03*
X1931375D02*
D03*
X1775505D02*
D03*
X1784234D02*
D03*
X1836604D02*
D03*
X1819147D02*
D03*
X1827875D02*
D03*
X1792962D02*
D03*
X1758049D02*
D03*
X1766777D02*
D03*
X1749320D02*
D03*
X1801690D02*
D03*
X1740592D02*
D03*
X279654Y939292D02*
D03*
X340752D02*
D03*
X332024D02*
D03*
X305839D02*
D03*
X297111D02*
D03*
X288382D02*
D03*
X366937D02*
D03*
X358209D02*
D03*
X349481D02*
D03*
X323296D02*
D03*
X314567D02*
D03*
X375666D02*
D03*
X496622D02*
D03*
X435523D02*
D03*
X444251D02*
D03*
X470436D02*
D03*
X479165D02*
D03*
X487893D02*
D03*
X409338D02*
D03*
X418066D02*
D03*
X426795D02*
D03*
X452980D02*
D03*
X461708D02*
D03*
X400610D02*
D03*
X1226999Y939419D02*
D03*
X1010031D02*
D03*
X1018759D02*
D03*
X1183357D02*
D03*
X1200814D02*
D03*
X1209542D02*
D03*
X1062401D02*
D03*
X1097315D02*
D03*
X1088586D02*
D03*
X1071130D02*
D03*
X1079858D02*
D03*
X1106043D02*
D03*
X1053673D02*
D03*
X1192085D02*
D03*
X1218270D02*
D03*
X1036216D02*
D03*
X1044944D02*
D03*
X1027488D02*
D03*
X1157172D02*
D03*
X1165900D02*
D03*
X1174629D02*
D03*
X1130987D02*
D03*
X1139715D02*
D03*
X1148444D02*
D03*
X1913918Y948690D02*
D03*
X1905189D02*
D03*
X1922646D02*
D03*
X1870276D02*
D03*
X1861548D02*
D03*
X1940103D02*
D03*
X1931375D02*
D03*
X1948831D02*
D03*
X1896461D02*
D03*
X1957560D02*
D03*
X1758049D02*
D03*
X1749320D02*
D03*
X1766777D02*
D03*
X1810419D02*
D03*
X1819147D02*
D03*
X1887733D02*
D03*
X1879004D02*
D03*
X1792962D02*
D03*
X1740592D02*
D03*
X1801690D02*
D03*
X1775505D02*
D03*
X1836604D02*
D03*
X1827875D02*
D03*
X1784234D02*
D03*
X279654Y948690D02*
D03*
X288382D02*
D03*
X444251D02*
D03*
X496622D02*
D03*
X435523D02*
D03*
X452980D02*
D03*
X409338D02*
D03*
X418066D02*
D03*
X426795D02*
D03*
X340752D02*
D03*
X461708D02*
D03*
X400610D02*
D03*
X323296D02*
D03*
X332024D02*
D03*
X470436D02*
D03*
X366937D02*
D03*
X375666D02*
D03*
X314567D02*
D03*
X487893D02*
D03*
X305839D02*
D03*
X297111D02*
D03*
X479165D02*
D03*
X349481D02*
D03*
X358209D02*
D03*
X1218270Y948817D02*
D03*
X1200814D02*
D03*
X1174629D02*
D03*
X1209542D02*
D03*
X1088586D02*
D03*
X1097315D02*
D03*
X1106043D02*
D03*
X1036216D02*
D03*
X1044944D02*
D03*
X1018759D02*
D03*
X1010031D02*
D03*
X1062401D02*
D03*
X1071130D02*
D03*
X1079858D02*
D03*
X1157172D02*
D03*
X1165900D02*
D03*
X1148444D02*
D03*
X1130987D02*
D03*
X1139715D02*
D03*
X1027488D02*
D03*
X1053673D02*
D03*
X1226999D02*
D03*
X1183357D02*
D03*
X1192085D02*
D03*
X1775505Y958088D02*
D03*
X1801690D02*
D03*
X1792962D02*
D03*
X1784234D02*
D03*
X1948831D02*
D03*
X1940103D02*
D03*
X1957560D02*
D03*
X1905189D02*
D03*
X1896461D02*
D03*
X1827875D02*
D03*
X1836604D02*
D03*
X1819147D02*
D03*
X1810419D02*
D03*
X1931375D02*
D03*
X1870276D02*
D03*
X1861548D02*
D03*
X1887733D02*
D03*
X1879004D02*
D03*
X1922646D02*
D03*
X1758049D02*
D03*
X1766777D02*
D03*
X1913918D02*
D03*
X1749320D02*
D03*
X1740592D02*
D03*
X470436Y958088D02*
D03*
X479165D02*
D03*
X487893D02*
D03*
X323296D02*
D03*
X314567D02*
D03*
X426795D02*
D03*
X418066D02*
D03*
X461708D02*
D03*
X400610D02*
D03*
X409338D02*
D03*
X452980D02*
D03*
X496622D02*
D03*
X435523D02*
D03*
X444251D02*
D03*
X349481D02*
D03*
X279654D02*
D03*
X288382D02*
D03*
X375666D02*
D03*
X366937D02*
D03*
X358209D02*
D03*
X297111D02*
D03*
X332024D02*
D03*
X340752D02*
D03*
X305839D02*
D03*
X1062401Y958215D02*
D03*
X1088586D02*
D03*
X1079858D02*
D03*
X1106043D02*
D03*
X1097315D02*
D03*
X1071130D02*
D03*
X1192085D02*
D03*
X1200814D02*
D03*
X1044944D02*
D03*
X1130987D02*
D03*
X1209542D02*
D03*
X1027488D02*
D03*
X1053673D02*
D03*
X1218270D02*
D03*
X1226999D02*
D03*
X1183357D02*
D03*
X1174629D02*
D03*
X1036216D02*
D03*
X1010031D02*
D03*
X1018759D02*
D03*
X1139715D02*
D03*
X1148444D02*
D03*
X1165900D02*
D03*
X1157172D02*
D03*
X1766777Y967486D02*
D03*
X1819147D02*
D03*
X1758049D02*
D03*
X1740592D02*
D03*
X1749320D02*
D03*
X1810419D02*
D03*
X1870276D02*
D03*
X1879004D02*
D03*
X1887733D02*
D03*
X1913918D02*
D03*
X1922646D02*
D03*
X1861548D02*
D03*
X1896461D02*
D03*
X1957560D02*
D03*
X1948831D02*
D03*
X1827875D02*
D03*
X1836604D02*
D03*
X1905189D02*
D03*
X1784234D02*
D03*
X1792962D02*
D03*
X1801690D02*
D03*
X1931375D02*
D03*
X1940103D02*
D03*
X1775505D02*
D03*
X461708Y967486D02*
D03*
X487893D02*
D03*
X479165D02*
D03*
X470436D02*
D03*
X496622D02*
D03*
X452980D02*
D03*
X444251D02*
D03*
X435523D02*
D03*
X426795D02*
D03*
X305839D02*
D03*
X297111D02*
D03*
X366937D02*
D03*
X409338D02*
D03*
X418066D02*
D03*
X288382D02*
D03*
X332024D02*
D03*
X340752D02*
D03*
X279654D02*
D03*
X375666D02*
D03*
X314567D02*
D03*
X323296D02*
D03*
X400610D02*
D03*
X349481D02*
D03*
X358209D02*
D03*
X1209542Y967613D02*
D03*
X1226999D02*
D03*
X1174629D02*
D03*
X1183357D02*
D03*
X1192085D02*
D03*
X1053673D02*
D03*
X1010031D02*
D03*
X1036216D02*
D03*
X1062401D02*
D03*
X1018759D02*
D03*
X1044944D02*
D03*
X1097315D02*
D03*
X1106043D02*
D03*
X1139715D02*
D03*
X1079858D02*
D03*
X1071130D02*
D03*
X1027488D02*
D03*
X1088586D02*
D03*
X1148444D02*
D03*
X1157172D02*
D03*
X1165900D02*
D03*
X1130987D02*
D03*
X1218270D02*
D03*
X1200814D02*
D03*
X1957560Y976884D02*
D03*
X1896461D02*
D03*
X1905189D02*
D03*
X1931375D02*
D03*
X1940103D02*
D03*
X1948831D02*
D03*
X1870276D02*
D03*
X1879004D02*
D03*
X1887733D02*
D03*
X1913918D02*
D03*
X1922646D02*
D03*
X1861548D02*
D03*
X1836604D02*
D03*
X1775505D02*
D03*
X1784234D02*
D03*
X1810419D02*
D03*
X1819147D02*
D03*
X1827875D02*
D03*
X1749320D02*
D03*
X1758049D02*
D03*
X1766777D02*
D03*
X1792962D02*
D03*
X1801690D02*
D03*
X1740592D02*
D03*
X279654Y976884D02*
D03*
X340752D02*
D03*
X332024D02*
D03*
X305839D02*
D03*
X297111D02*
D03*
X288382D02*
D03*
X366937D02*
D03*
X358209D02*
D03*
X349481D02*
D03*
X323296D02*
D03*
X314567D02*
D03*
X375666D02*
D03*
X496622D02*
D03*
X435523D02*
D03*
X444251D02*
D03*
X470436D02*
D03*
X479165D02*
D03*
X487893D02*
D03*
X409338D02*
D03*
X418066D02*
D03*
X426795D02*
D03*
X452980D02*
D03*
X461708D02*
D03*
X400610D02*
D03*
X1053673Y977011D02*
D03*
X1044944D02*
D03*
X1062401D02*
D03*
X1106043D02*
D03*
X1130987D02*
D03*
X1209542D02*
D03*
X1139715D02*
D03*
X1148444D02*
D03*
X1079858D02*
D03*
X1010031D02*
D03*
X1088586D02*
D03*
X1097315D02*
D03*
X1036216D02*
D03*
X1071130D02*
D03*
X1018759D02*
D03*
X1027488D02*
D03*
X1200814D02*
D03*
X1157172D02*
D03*
X1165900D02*
D03*
X1192085D02*
D03*
X1174629D02*
D03*
X1226999D02*
D03*
X1218270D02*
D03*
X1183357D02*
D03*
X1905189Y986282D02*
D03*
X1896461D02*
D03*
X1922646D02*
D03*
X1913918D02*
D03*
X1784234D02*
D03*
X1792962D02*
D03*
X1775505D02*
D03*
X1827875D02*
D03*
X1836604D02*
D03*
X1758049D02*
D03*
X1766777D02*
D03*
X1749320D02*
D03*
X1801690D02*
D03*
X1740592D02*
D03*
X1819147D02*
D03*
X1931375D02*
D03*
X1810419D02*
D03*
X1940103D02*
D03*
X1957560D02*
D03*
X1948831D02*
D03*
X1887733D02*
D03*
X1879004D02*
D03*
X1870276D02*
D03*
X1861548D02*
D03*
X496622Y986282D02*
D03*
X479165D02*
D03*
X487893D02*
D03*
X409338D02*
D03*
X400610D02*
D03*
X426795D02*
D03*
X418066D02*
D03*
X444251D02*
D03*
X435523D02*
D03*
X461708D02*
D03*
X452980D02*
D03*
X470436D02*
D03*
X314567D02*
D03*
X323296D02*
D03*
X366937D02*
D03*
X375666D02*
D03*
X332024D02*
D03*
X288382D02*
D03*
X297111D02*
D03*
X340752D02*
D03*
X279654D02*
D03*
X358209D02*
D03*
X305839D02*
D03*
X349481D02*
D03*
X1226999Y986409D02*
D03*
X1157172D02*
D03*
X1106043D02*
D03*
X1010031D02*
D03*
X1200814D02*
D03*
X1218270D02*
D03*
X1062401D02*
D03*
X1071130D02*
D03*
X1088586D02*
D03*
X1192085D02*
D03*
X1097315D02*
D03*
X1036216D02*
D03*
X1018759D02*
D03*
X1139715D02*
D03*
X1130987D02*
D03*
X1209542D02*
D03*
X1053673D02*
D03*
X1044944D02*
D03*
X1148444D02*
D03*
X1079858D02*
D03*
X1174629D02*
D03*
X1183357D02*
D03*
X1165900D02*
D03*
X1027488D02*
D03*
X1784234Y995680D02*
D03*
X1792962D02*
D03*
X1775505D02*
D03*
X1827875D02*
D03*
X1836604D02*
D03*
X1801690D02*
D03*
X1766777D02*
D03*
X1879004D02*
D03*
X1758049D02*
D03*
X1740592D02*
D03*
X1749320D02*
D03*
X1819147D02*
D03*
X1957560D02*
D03*
X1896461D02*
D03*
X1905189D02*
D03*
X1931375D02*
D03*
X1940103D02*
D03*
X1948831D02*
D03*
X1861548D02*
D03*
X1870276D02*
D03*
X1810419D02*
D03*
X1913918D02*
D03*
X1887733D02*
D03*
X1922646D02*
D03*
X366937Y995680D02*
D03*
X358209D02*
D03*
X375666D02*
D03*
X314567D02*
D03*
X349481D02*
D03*
X487893D02*
D03*
X479165D02*
D03*
X470436D02*
D03*
X288382D02*
D03*
X297111D02*
D03*
X305839D02*
D03*
X279654D02*
D03*
X323296D02*
D03*
X332024D02*
D03*
X340752D02*
D03*
X409338D02*
D03*
X400610D02*
D03*
X426795D02*
D03*
X418066D02*
D03*
X461708D02*
D03*
X444251D02*
D03*
X452980D02*
D03*
X496622D02*
D03*
X435523D02*
D03*
X1157172Y995807D02*
D03*
X1165900D02*
D03*
X1148444D02*
D03*
X1062401D02*
D03*
X1106043D02*
D03*
X1071130D02*
D03*
X1174629D02*
D03*
X1053673D02*
D03*
X1044944D02*
D03*
X1139715D02*
D03*
X1130987D02*
D03*
X1183357D02*
D03*
X1192085D02*
D03*
X1018759D02*
D03*
X1010031D02*
D03*
X1218270D02*
D03*
X1226999D02*
D03*
X1200814D02*
D03*
X1088586D02*
D03*
X1209542D02*
D03*
X1079858D02*
D03*
X1027488D02*
D03*
X1036216D02*
D03*
X1097315D02*
D03*
X1749482Y1005078D02*
D03*
X1740592D02*
D03*
X1801690D02*
D03*
X1758049D02*
D03*
X1940103D02*
D03*
X1931375D02*
D03*
X1766777D02*
D03*
X1827875D02*
D03*
X1819147D02*
D03*
X1810419D02*
D03*
X1836604D02*
D03*
X1792962D02*
D03*
X1784234D02*
D03*
X1775505D02*
D03*
X1948831D02*
D03*
X1861548D02*
D03*
X1922646D02*
D03*
X1913918D02*
D03*
X1887733D02*
D03*
X1879004D02*
D03*
X1870438D02*
D03*
X1957560D02*
D03*
X1896461D02*
D03*
X1905189D02*
D03*
X470436Y1005078D02*
D03*
X349481D02*
D03*
X358209D02*
D03*
X435523D02*
D03*
X444251D02*
D03*
X496622D02*
D03*
X479165D02*
D03*
X487893D02*
D03*
X288544D02*
D03*
X297111D02*
D03*
X314567D02*
D03*
X279654D02*
D03*
X323296D02*
D03*
X340752D02*
D03*
X366937D02*
D03*
X332024D02*
D03*
X375666D02*
D03*
X409500D02*
D03*
X418066D02*
D03*
X426795D02*
D03*
X400610D02*
D03*
X452980D02*
D03*
X305839D02*
D03*
X461708D02*
D03*
X1079858Y1005205D02*
D03*
X1157172D02*
D03*
X1097315D02*
D03*
X1088586D02*
D03*
X1071130D02*
D03*
X1183357D02*
D03*
X1174629D02*
D03*
X1165900D02*
D03*
X1062401D02*
D03*
X1106043D02*
D03*
X1053673D02*
D03*
X1044944D02*
D03*
X1218270D02*
D03*
X1209542D02*
D03*
X1226999D02*
D03*
X1130987D02*
D03*
X1148444D02*
D03*
X1192085D02*
D03*
X1139877D02*
D03*
X1018921D02*
D03*
X1010031D02*
D03*
X1027488D02*
D03*
X1200814D02*
D03*
X1036216D02*
D03*
X1495552Y1250950D02*
D03*
X1485138D02*
D03*
X1434154D02*
D03*
X1444568D02*
D03*
X1895418Y1252220D02*
D03*
X296926D02*
D03*
X1725422D02*
D03*
X796982D02*
D03*
X756920D02*
D03*
X745744D02*
D03*
X286512D02*
D03*
X1905832D02*
D03*
X2185162D02*
D03*
X807396D02*
D03*
X1205300D02*
D03*
X1664024D02*
D03*
X1215714D02*
D03*
X1266698D02*
D03*
X1256284D02*
D03*
X1037012D02*
D03*
X975614D02*
D03*
X1715008D02*
D03*
X986028D02*
D03*
X1026598D02*
D03*
X1674438D02*
D03*
X1946402D02*
D03*
X518668D02*
D03*
X347910D02*
D03*
X580066D02*
D03*
X2174748D02*
D03*
X529082D02*
D03*
X1956816D02*
D03*
X2123764D02*
D03*
X569652D02*
D03*
X337496D02*
D03*
X2134178D02*
D03*
X1444568Y1259840D02*
D03*
X1434154D02*
D03*
X1495552D02*
D03*
X1485138D02*
D03*
X529082Y1261110D02*
D03*
X1037012D02*
D03*
X986028D02*
D03*
X1674438D02*
D03*
X1266698D02*
D03*
X347910D02*
D03*
X1026598D02*
D03*
X2174748D02*
D03*
X1205300D02*
D03*
X2134178D02*
D03*
X1215714D02*
D03*
X518668D02*
D03*
X1664024D02*
D03*
X1256284D02*
D03*
X2123764D02*
D03*
X807396D02*
D03*
X1895418D02*
D03*
X296926D02*
D03*
X580066D02*
D03*
X1905832D02*
D03*
X569652D02*
D03*
X1946402D02*
D03*
X1725422D02*
D03*
X286512D02*
D03*
X1956816D02*
D03*
X2185162D02*
D03*
X975614D02*
D03*
X796982D02*
D03*
X337496D02*
D03*
X1715008D02*
D03*
X745744Y1261364D02*
D03*
X756920D02*
D03*
X1434154Y1268730D02*
D03*
X1444568D02*
D03*
X1495552D02*
D03*
X1485138D02*
D03*
X975614Y1270000D02*
D03*
X1037012D02*
D03*
X518668D02*
D03*
X1026598D02*
D03*
X347910D02*
D03*
X986028D02*
D03*
X1266698D02*
D03*
X337496D02*
D03*
X580066D02*
D03*
X296926D02*
D03*
X796982D02*
D03*
X1205300D02*
D03*
X569652D02*
D03*
X1256284D02*
D03*
X529082D02*
D03*
X1215714D02*
D03*
X807396D02*
D03*
X1946402D02*
D03*
X1664024D02*
D03*
X1956816D02*
D03*
X2134178D02*
D03*
X2123764D02*
D03*
X1725422D02*
D03*
X1715008D02*
D03*
X1895418D02*
D03*
X1905832D02*
D03*
X1674438D02*
D03*
X286512D02*
D03*
X2185162D02*
D03*
X2174748D02*
D03*
X745744Y1270508D02*
D03*
X756920D02*
D03*
X1495552Y1304290D02*
D03*
X1434154D02*
D03*
X1485138D02*
D03*
X1444568D02*
D03*
X756158Y1305560D02*
D03*
X337496D02*
D03*
X286512D02*
D03*
X975614D02*
D03*
X296926D02*
D03*
X1715008D02*
D03*
X807396D02*
D03*
X1895418D02*
D03*
X796982D02*
D03*
X1725422D02*
D03*
X2134178D02*
D03*
X2123764D02*
D03*
X1956816D02*
D03*
X347910D02*
D03*
X518668D02*
D03*
X2174748D02*
D03*
X529082D02*
D03*
X1946402D02*
D03*
X745744D02*
D03*
X1905832D02*
D03*
X569652D02*
D03*
X580066D02*
D03*
X2185162D02*
D03*
X1664024D02*
D03*
X1674438D02*
D03*
X1037012D02*
D03*
X1205300D02*
D03*
X1215714D02*
D03*
X1256284D02*
D03*
X1266698D02*
D03*
X1026598D02*
D03*
X986028D02*
D03*
X1444568Y1313180D02*
D03*
X1434154D02*
D03*
X1495552D02*
D03*
X1485138D02*
D03*
X580066Y1314450D02*
D03*
X1905832D02*
D03*
X1256284D02*
D03*
X518668D02*
D03*
X745744D02*
D03*
X337496D02*
D03*
X2123764D02*
D03*
X1266698D02*
D03*
X1946402D02*
D03*
X347910D02*
D03*
X807396D02*
D03*
X1956816D02*
D03*
X529082D02*
D03*
X569652D02*
D03*
X2174748D02*
D03*
X1205300D02*
D03*
X975614D02*
D03*
X1725422D02*
D03*
X1715008D02*
D03*
X296926D02*
D03*
X1215714D02*
D03*
X286512D02*
D03*
X1895418D02*
D03*
X796982D02*
D03*
X986028D02*
D03*
X1026598D02*
D03*
X1674438D02*
D03*
X2134178D02*
D03*
X2185162D02*
D03*
X1037012D02*
D03*
X756158D02*
D03*
X1664024D02*
D03*
X1434154Y1322070D02*
D03*
X1444568D02*
D03*
X1495552D02*
D03*
X1485138D02*
D03*
X2134178Y1323340D02*
D03*
X518668D02*
D03*
X1215714D02*
D03*
X347910D02*
D03*
X1266698D02*
D03*
X337496D02*
D03*
X286512D02*
D03*
X296926D02*
D03*
X1256284D02*
D03*
X1715008D02*
D03*
X2174748D02*
D03*
X2185162D02*
D03*
X1674438D02*
D03*
X580066D02*
D03*
X1205300D02*
D03*
X1037012D02*
D03*
X807396D02*
D03*
X986028D02*
D03*
X569652D02*
D03*
X1946402D02*
D03*
X1725422D02*
D03*
X1026598D02*
D03*
X1895418D02*
D03*
X796982D02*
D03*
X756158D02*
D03*
X745744D02*
D03*
X1905832D02*
D03*
X1664024D02*
D03*
X529082D02*
D03*
X2123764D02*
D03*
X975614D02*
D03*
X1956816D02*
D03*
D57*
X1962912Y142240D02*
D03*
D58*
Y167640D02*
D03*
D59*
X1557020Y514350D02*
D03*
X1559560Y238506D02*
D03*
X796290D02*
D03*
Y513080D02*
D03*
D60*
X64770Y601472D02*
D03*
Y576072D02*
D03*
Y626872D02*
D03*
Y652272D02*
D03*
D61*
Y550672D02*
D03*
D62*
X2063496Y99060D02*
D03*
Y73660D02*
D03*
D63*
Y48260D02*
D03*
D64*
X2215874Y97768D02*
D03*
X2241274D02*
D03*
X92836Y251830D02*
D03*
Y277230D02*
D03*
X392518Y139354D02*
D03*
X367118D02*
D03*
D65*
X2266674Y97768D02*
D03*
X417918Y139354D02*
D03*
D66*
X1056640Y59690D02*
D03*
X1018540D02*
D03*
X1094740D02*
D03*
X949960D02*
D03*
X911860D02*
D03*
X800100D02*
D03*
X762000D02*
D03*
X1314450D02*
D03*
X1276350D02*
D03*
X1238250D02*
D03*
X1200150D02*
D03*
X1162050D02*
D03*
D67*
X92836Y226430D02*
D03*
D68*
X1557528Y695960D02*
D03*
X1582928D02*
D03*
X1608328D02*
D03*
X1633728D02*
D03*
Y721360D02*
D03*
X1608328D02*
D03*
X1582928D02*
D03*
X1557528D02*
D03*
X1532128Y695960D02*
D03*
Y721360D02*
D03*
X1633728Y670560D02*
D03*
X1608328D02*
D03*
X1532128D02*
D03*
X1557528D02*
D03*
X1582928D02*
D03*
X1633728Y772160D02*
D03*
X1608328D02*
D03*
X1532128Y746760D02*
D03*
Y772160D02*
D03*
X1557528D02*
D03*
X1582928D02*
D03*
X1633728Y746760D02*
D03*
X1608328D02*
D03*
X1582928D02*
D03*
X1557528D02*
D03*
X2290318Y695960D02*
D03*
Y721360D02*
D03*
Y746760D02*
D03*
Y772160D02*
D03*
X2264918Y721360D02*
D03*
X2264918Y695960D02*
D03*
Y670560D02*
D03*
X2290318D02*
D03*
X2264918Y746760D02*
D03*
Y772160D02*
D03*
X2366518Y721360D02*
D03*
X2366518Y695960D02*
D03*
Y670560D02*
D03*
Y746760D02*
D03*
Y772160D02*
D03*
X2315718Y670560D02*
D03*
X2341118Y670560D02*
D03*
X2315718Y695960D02*
D03*
Y721360D02*
D03*
Y746760D02*
D03*
Y772160D02*
D03*
X2341118Y772160D02*
D03*
Y746760D02*
D03*
Y721360D02*
D03*
Y695960D02*
D03*
X825500Y746760D02*
D03*
X850900D02*
D03*
X876300D02*
D03*
X901700D02*
D03*
X850900Y772160D02*
D03*
X825500Y772160D02*
D03*
X800100D02*
D03*
Y746760D02*
D03*
X876300Y772160D02*
D03*
X901700D02*
D03*
X850900Y670560D02*
D03*
X825500Y670560D02*
D03*
X800100D02*
D03*
X876300D02*
D03*
X901700D02*
D03*
X800100Y721360D02*
D03*
X800100Y695960D02*
D03*
X825500Y721360D02*
D03*
X850900D02*
D03*
X876300D02*
D03*
X901700D02*
D03*
X901700Y695960D02*
D03*
X876300D02*
D03*
X850900D02*
D03*
X825500D02*
D03*
X86360Y897128D02*
D03*
X111760D02*
D03*
X137160D02*
D03*
X162560D02*
D03*
Y922528D02*
D03*
X137160D02*
D03*
X111760D02*
D03*
X86360D02*
D03*
X60960Y897128D02*
D03*
Y922528D02*
D03*
X162560Y871728D02*
D03*
X137160D02*
D03*
X60960D02*
D03*
X86360D02*
D03*
X111760D02*
D03*
X162560Y973328D02*
D03*
X137160D02*
D03*
X60960Y947928D02*
D03*
Y973328D02*
D03*
X86360D02*
D03*
X111760D02*
D03*
X162560Y947928D02*
D03*
X137160D02*
D03*
X111760D02*
D03*
X86360D02*
D03*
X137160Y1067054D02*
D03*
Y1092454D02*
D03*
Y1117854D02*
D03*
Y1143254D02*
D03*
X111760Y1143254D02*
D03*
Y1117854D02*
D03*
Y1092454D02*
D03*
Y1067054D02*
D03*
X137160Y1041654D02*
D03*
X111760Y1041654D02*
D03*
X162560Y1143254D02*
D03*
Y1117854D02*
D03*
Y1041654D02*
D03*
Y1067054D02*
D03*
X162560Y1092454D02*
D03*
X60960Y1143254D02*
D03*
Y1117854D02*
D03*
X86360Y1041654D02*
D03*
X60960D02*
D03*
Y1067054D02*
D03*
X60960Y1092454D02*
D03*
X86360Y1143254D02*
D03*
Y1117854D02*
D03*
Y1092454D02*
D03*
Y1067054D02*
D03*
D69*
X38100Y35560D02*
D03*
Y1355090D02*
D03*
X2461260D02*
D03*
X2460288Y36576D02*
D03*
M02*
