G04*
G04 #@! TF.GenerationSoftware,Altium Limited,Altium Designer,24.5.2 (23)*
G04*
G04 Layer_Color=0*
%FSLAX44Y44*%
%MOMM*%
G71*
G04*
G04 #@! TF.SameCoordinates,E8997BAD-2734-4FEF-AB70-E13736D7F9D3*
G04*
G04*
G04 #@! TF.FilePolarity,Positive*
G04*
G01*
G75*
%ADD125C,0.0254*%
G36*
X390144Y725424D02*
X498602Y725424D01*
X499613D01*
X501480Y724651D01*
X502909Y723222D01*
X503682Y721355D01*
Y720344D01*
D01*
Y700532D01*
Y699521D01*
X502909Y697654D01*
X501480Y696225D01*
X499613Y695452D01*
X498602D01*
D01*
X388620D01*
X387609D01*
X385742Y696225D01*
X384313Y697654D01*
X383540Y699521D01*
Y700532D01*
D01*
Y718820D01*
X383540Y719470D01*
X383794Y720746D01*
X384292Y721948D01*
X385014Y723030D01*
X385934Y723950D01*
X387016Y724672D01*
X388218Y725170D01*
X389493Y725424D01*
X390144Y725424D01*
X390144Y725424D01*
D02*
G37*
G36*
X1113714Y720674D02*
Y721684D01*
X1114488Y723551D01*
X1115917Y724980D01*
X1117784Y725754D01*
X1118794D01*
D01*
X1228776D01*
X1229787D01*
X1231654Y724980D01*
X1233083Y723551D01*
X1233856Y721684D01*
Y720674D01*
D01*
Y700862D01*
Y699851D01*
X1233083Y697984D01*
X1231654Y696555D01*
X1229787Y695782D01*
X1228776D01*
D01*
X1118794D01*
X1117784D01*
X1115917Y696555D01*
X1114488Y697984D01*
X1113714Y699851D01*
Y700862D01*
D01*
Y720674D01*
D02*
G37*
G36*
X1959135Y725829D02*
X1960145D01*
X1962012Y725056D01*
X1963441Y723627D01*
X1964215Y721760D01*
Y720749D01*
D01*
Y700937D01*
Y699927D01*
X1963441Y698060D01*
X1962012Y696631D01*
X1960145Y695857D01*
X1959135D01*
D01*
X1849153D01*
X1848142D01*
X1846275Y696631D01*
X1844846Y698060D01*
X1844073Y699927D01*
Y700937D01*
D01*
Y720749D01*
Y721760D01*
X1844846Y723627D01*
X1846275Y725056D01*
X1848142Y725829D01*
X1849153D01*
D01*
X1849211D01*
X1959135D01*
D02*
G37*
D125*
X0Y23876D02*
Y1367536D01*
D02*
G02*
X25400Y1392936I25400J0D01*
G01*
X2472988D01*
D02*
G02*
X2498388Y1367536I0J-25400D01*
G01*
Y23876D01*
D02*
G02*
X2472988Y-1524I-25400J0D01*
G01*
X25400D01*
D02*
G02*
X0Y23876I0J25400D01*
G01*
M02*
