G04*
G04 #@! TF.GenerationSoftware,Altium Limited,Altium Designer,24.5.2 (23)*
G04*
G04 Layer_Physical_Order=3*
G04 Layer_Color=16440176*
%FSLAX44Y44*%
%MOMM*%
G71*
G04*
G04 #@! TF.SameCoordinates,E8997BAD-2734-4FEF-AB70-E13736D7F9D3*
G04*
G04*
G04 #@! TF.FilePolarity,Positive*
G04*
G01*
G75*
%ADD77P,2.1213X4X180.0*%
%ADD78C,1.6500*%
%ADD79C,1.0000*%
G04:AMPARAMS|DCode=81|XSize=1.65mm|YSize=1.65mm|CornerRadius=0.4125mm|HoleSize=0mm|Usage=FLASHONLY|Rotation=180.000|XOffset=0mm|YOffset=0mm|HoleType=Round|Shape=RoundedRectangle|*
%AMROUNDEDRECTD81*
21,1,1.6500,0.8250,0,0,180.0*
21,1,0.8250,1.6500,0,0,180.0*
1,1,0.8250,-0.4125,0.4125*
1,1,0.8250,0.4125,0.4125*
1,1,0.8250,0.4125,-0.4125*
1,1,0.8250,-0.4125,-0.4125*
%
%ADD81ROUNDEDRECTD81*%
%ADD82R,1.3030X1.3030*%
%ADD83C,1.3060*%
%ADD84C,1.6250*%
%ADD85C,2.8960*%
%ADD86R,0.8000X0.8000*%
%ADD87C,1.6000*%
G04:AMPARAMS|DCode=88|XSize=1.6mm|YSize=1.6mm|CornerRadius=0.4mm|HoleSize=0mm|Usage=FLASHONLY|Rotation=270.000|XOffset=0mm|YOffset=0mm|HoleType=Round|Shape=RoundedRectangle|*
%AMROUNDEDRECTD88*
21,1,1.6000,0.8000,0,0,270.0*
21,1,0.8000,1.6000,0,0,270.0*
1,1,0.8000,-0.4000,-0.4000*
1,1,0.8000,-0.4000,0.4000*
1,1,0.8000,0.4000,0.4000*
1,1,0.8000,0.4000,-0.4000*
%
%ADD88ROUNDEDRECTD88*%
%ADD90C,1.5200*%
G04:AMPARAMS|DCode=91|XSize=1.52mm|YSize=1.52mm|CornerRadius=0.38mm|HoleSize=0mm|Usage=FLASHONLY|Rotation=90.000|XOffset=0mm|YOffset=0mm|HoleType=Round|Shape=RoundedRectangle|*
%AMROUNDEDRECTD91*
21,1,1.5200,0.7600,0,0,90.0*
21,1,0.7600,1.5200,0,0,90.0*
1,1,0.7600,0.3800,0.3800*
1,1,0.7600,0.3800,-0.3800*
1,1,0.7600,-0.3800,-0.3800*
1,1,0.7600,-0.3800,0.3800*
%
%ADD91ROUNDEDRECTD91*%
%ADD92O,2.2000X1.8000*%
%ADD93R,2.2000X1.8000*%
%ADD94C,1.5000*%
G04:AMPARAMS|DCode=95|XSize=1.5mm|YSize=1.5mm|CornerRadius=0.375mm|HoleSize=0mm|Usage=FLASHONLY|Rotation=180.000|XOffset=0mm|YOffset=0mm|HoleType=Round|Shape=RoundedRectangle|*
%AMROUNDEDRECTD95*
21,1,1.5000,0.7500,0,0,180.0*
21,1,0.7500,1.5000,0,0,180.0*
1,1,0.7500,-0.3750,0.3750*
1,1,0.7500,0.3750,0.3750*
1,1,0.7500,0.3750,-0.3750*
1,1,0.7500,-0.3750,-0.3750*
%
%ADD95ROUNDEDRECTD95*%
%ADD96C,2.2000*%
G04:AMPARAMS|DCode=97|XSize=1.5mm|YSize=1.5mm|CornerRadius=0.375mm|HoleSize=0mm|Usage=FLASHONLY|Rotation=90.000|XOffset=0mm|YOffset=0mm|HoleType=Round|Shape=RoundedRectangle|*
%AMROUNDEDRECTD97*
21,1,1.5000,0.7500,0,0,90.0*
21,1,0.7500,1.5000,0,0,90.0*
1,1,0.7500,0.3750,0.3750*
1,1,0.7500,0.3750,-0.3750*
1,1,0.7500,-0.3750,-0.3750*
1,1,0.7500,-0.3750,0.3750*
%
%ADD97ROUNDEDRECTD97*%
%ADD98C,1.8000*%
%ADD99R,0.8000X0.8000*%
G04:AMPARAMS|DCode=100|XSize=0.5mm|YSize=0.5mm|CornerRadius=0.125mm|HoleSize=0mm|Usage=FLASHONLY|Rotation=0.000|XOffset=0mm|YOffset=0mm|HoleType=Round|Shape=RoundedRectangle|*
%AMROUNDEDRECTD100*
21,1,0.5000,0.2500,0,0,0.0*
21,1,0.2500,0.5000,0,0,0.0*
1,1,0.2500,0.1250,-0.1250*
1,1,0.2500,-0.1250,-0.1250*
1,1,0.2500,-0.1250,0.1250*
1,1,0.2500,0.1250,0.1250*
%
%ADD100ROUNDEDRECTD100*%
%ADD101C,5.5000*%
%ADD102C,0.5000*%
%ADD103C,0.6350*%
%ADD104C,0.7620*%
%ADD105C,0.5080*%
%ADD106C,0.3810*%
%ADD107C,0.6000*%
%ADD108C,1.0160*%
G04:AMPARAMS|DCode=109|XSize=9.0678mm|YSize=5.207mm|CornerRadius=2.6035mm|HoleSize=0mm|Usage=FLASHONLY|Rotation=135.000|XOffset=0mm|YOffset=0mm|HoleType=Round|Shape=RoundedRectangle|*
%AMROUNDEDRECTD109*
21,1,9.0678,0.0000,0,0,135.0*
21,1,3.8608,5.2070,0,0,135.0*
1,1,5.2070,-1.3650,1.3650*
1,1,5.2070,1.3650,-1.3650*
1,1,5.2070,1.3650,-1.3650*
1,1,5.2070,-1.3650,1.3650*
%
%ADD109ROUNDEDRECTD109*%
G04:AMPARAMS|DCode=110|XSize=5.08mm|YSize=1.524mm|CornerRadius=0.381mm|HoleSize=0mm|Usage=FLASHONLY|Rotation=135.000|XOffset=0mm|YOffset=0mm|HoleType=Round|Shape=RoundedRectangle|*
%AMROUNDEDRECTD110*
21,1,5.0800,0.7620,0,0,135.0*
21,1,4.3180,1.5240,0,0,135.0*
1,1,0.7620,-1.2572,1.7961*
1,1,0.7620,1.7961,-1.2572*
1,1,0.7620,1.2572,-1.7961*
1,1,0.7620,-1.7961,1.2572*
%
%ADD110ROUNDEDRECTD110*%
G36*
X214630Y1160272D02*
X214376Y1160018D01*
Y1099312D01*
X192532Y1077468D01*
X193294Y1030224D01*
X176530Y1013460D01*
X41910D01*
X23622Y1030224D01*
Y1158494D01*
X36322Y1171194D01*
X203708D01*
X214630Y1160272D01*
D02*
G37*
G36*
X2402749Y1304217D02*
X2402802Y1303138D01*
X2403223Y1301021D01*
X2404049Y1299026D01*
X2405249Y1297231D01*
X2406775Y1295704D01*
X2408570Y1294505D01*
X2410565Y1293679D01*
X2412682Y1293258D01*
X2413762Y1293205D01*
X2494261D01*
X2494261Y1293205D01*
X2494261Y1293205D01*
X2494261D01*
X2496569Y1292586D01*
X2496574Y1292584D01*
X2497723Y1291435D01*
X2498344Y1289934D01*
X2498344Y1289121D01*
X2498344Y1197610D01*
Y978916D01*
X1970024D01*
Y913892D01*
X1962912Y906526D01*
X1586992D01*
X1514348Y979170D01*
X1244600D01*
X1243330Y979678D01*
X1238250Y974598D01*
Y911860D01*
X1230884Y904494D01*
X854710D01*
X782574Y976630D01*
X619760Y976630D01*
X518414Y976630D01*
X515366Y976630D01*
X507238Y968248D01*
Y914908D01*
X504698Y911098D01*
X500634Y904494D01*
X252730D01*
X191262Y843026D01*
X38354D01*
X25400Y855980D01*
Y985520D01*
X43180Y1003300D01*
X181610D01*
X200660Y1022350D01*
Y1068070D01*
X220980Y1088390D01*
Y1173480D01*
X215900Y1178560D01*
X124460D01*
X105410Y1197610D01*
Y1371600D01*
X127000Y1393190D01*
X2373884D01*
X2402749Y1393190D01*
Y1304217D01*
D02*
G37*
G36*
X1579745Y896497D02*
X1659017D01*
X1665732Y889782D01*
Y837438D01*
X1651254Y822960D01*
X1516004Y822960D01*
X1386499Y692495D01*
X1383959Y692491D01*
X1371723Y704727D01*
X1239036D01*
Y721684D01*
X1238642Y723666D01*
X1237868Y725533D01*
X1236746Y727214D01*
X1235316Y728643D01*
X1233636Y729765D01*
X1231769Y730539D01*
X1229787Y730933D01*
X1117784D01*
X1115802Y730539D01*
X1113935Y729765D01*
X1112254Y728643D01*
X1110825Y727214D01*
X1109703Y725533D01*
X1108929Y723666D01*
X1108535Y721684D01*
Y704727D01*
X988691D01*
X964773Y728645D01*
X965081Y801215D01*
Y884682D01*
X976766Y896497D01*
X1262505D01*
X1263547Y895456D01*
X1264932Y894882D01*
X1266432D01*
X1267818Y895456D01*
X1268859Y896497D01*
X1289935D01*
X1294253Y900815D01*
Y944168D01*
X1314181Y961898D01*
X1514344D01*
X1579745Y896497D01*
D02*
G37*
G36*
X846709Y892175D02*
X917448D01*
X920242Y889381D01*
Y829310D01*
X913130Y822198D01*
X809498Y822198D01*
X660908Y673608D01*
X632373Y702143D01*
X510661Y701731D01*
X508862Y703524D01*
Y721355D01*
X508467Y723337D01*
X507694Y725204D01*
X506571Y726884D01*
X505142Y728313D01*
X503462Y729436D01*
X501595Y730209D01*
X499613Y730603D01*
X498602D01*
X390144Y730603D01*
X390144Y730603D01*
X389494Y730603D01*
X388993Y730504D01*
X388483D01*
X387207Y730250D01*
X386736Y730055D01*
X386236Y729955D01*
X385034Y729458D01*
X384610Y729174D01*
X384138Y728979D01*
X383057Y728256D01*
X382696Y727896D01*
X382272Y727612D01*
X381352Y726692D01*
X381068Y726268D01*
X380708Y725907D01*
X379985Y724826D01*
X379790Y724354D01*
X379506Y723930D01*
X379008Y722728D01*
X378909Y722228D01*
X378714Y721757D01*
X378460Y720481D01*
Y719971D01*
X378360Y719470D01*
X378360Y718820D01*
Y701283D01*
X185323Y700629D01*
X181610Y704342D01*
Y819658D01*
X260604Y898652D01*
X531916D01*
Y897394D01*
X532490Y896009D01*
X533550Y894948D01*
X534936Y894374D01*
X536436D01*
X537822Y894948D01*
X538882Y896009D01*
X539456Y897394D01*
Y898652D01*
X559054D01*
X567944Y907542D01*
Y954786D01*
X574040Y960882D01*
X778002D01*
X846709Y892175D01*
D02*
G37*
G36*
X2389393Y949183D02*
Y947927D01*
X2389117Y835152D01*
X2389124Y833484D01*
X2381505Y825865D01*
X2251321Y825111D01*
X2116709Y690499D01*
X2093087Y714121D01*
X1969394D01*
Y720749D01*
Y721760D01*
Y721760D01*
Y721760D01*
X1969237Y722548D01*
X1969000Y723742D01*
X1969000Y723742D01*
Y723742D01*
X1968226Y725609D01*
Y725609D01*
Y725609D01*
X1968226Y725609D01*
X1967849Y726174D01*
X1967104Y727289D01*
X1965675Y728718D01*
X1964559Y729463D01*
X1963994Y729841D01*
X1963994Y729841D01*
X1963994D01*
X1963994D01*
X1962127Y730614D01*
X1962127D01*
X1962127Y730614D01*
X1961132Y730813D01*
X1960145Y731009D01*
X1960145D01*
X1960145D01*
X1848142D01*
X1848142D01*
X1848142D01*
X1847354Y730852D01*
X1846160Y730614D01*
X1846160Y730614D01*
X1846160D01*
X1844293Y729841D01*
X1844293D01*
X1844293D01*
X1844293Y729841D01*
X1843728Y729463D01*
X1842612Y728718D01*
X1841183Y727289D01*
X1840061Y725609D01*
X1839287Y723742D01*
X1838893Y721760D01*
Y720749D01*
Y714121D01*
X1726565D01*
X1682750Y757936D01*
Y811623D01*
Y884682D01*
X1691640Y893572D01*
X1693164Y894588D01*
X1993902D01*
X1994559Y893932D01*
X1995944Y893358D01*
X1997444D01*
X1998829Y893932D01*
X1999486Y894588D01*
X2016760D01*
X2026158Y903986D01*
Y946109D01*
X2035089Y955040D01*
X2382520Y956183D01*
X2389393Y949183D01*
D02*
G37*
G36*
X2403348Y804926D02*
X2403348Y645922D01*
X2364486Y607060D01*
X2199894D01*
X2120392Y686562D01*
X2251202Y817372D01*
X2390902D01*
X2403348Y804926D01*
D02*
G37*
G36*
X1673606Y803656D02*
X1673606Y650494D01*
X1629664Y606552D01*
X1469136Y606552D01*
X1389096Y686592D01*
X1390167Y688837D01*
X1390175Y688846D01*
X1394902Y693608D01*
X1517904Y816610D01*
X1660652D01*
X1673606Y803656D01*
D02*
G37*
G36*
X947420Y787055D02*
Y655320D01*
X898398Y606298D01*
X728472D01*
X665988Y668782D01*
X811276Y814070D01*
X920405D01*
X947420Y787055D01*
D02*
G37*
G36*
X1354020Y553212D02*
X1615694D01*
X1742711Y680229D01*
X1797287Y680229D01*
X1951463Y681021D01*
X2055143Y577342D01*
X2490491D01*
X2491436Y94743D01*
X2491465Y80284D01*
X2489670Y78486D01*
X2436114Y78486D01*
X2431158Y77998D01*
X2422002Y74205D01*
X2414994Y67198D01*
X2411202Y58041D01*
X2410714Y53086D01*
X2410714D01*
X2410714Y50546D01*
X2410714Y573D01*
X2408914Y-1219D01*
X85598Y9839D01*
X85598Y52767D01*
X85153Y57289D01*
X81693Y65646D01*
X75298Y72041D01*
X66941Y75501D01*
X62419Y75946D01*
X62419Y75946D01*
X62419Y75946D01*
X9144D01*
Y682102D01*
X221835D01*
X484627Y683638D01*
X615053Y553212D01*
X876554D01*
X1005219Y681877D01*
X1223262Y683970D01*
X1354020Y553212D01*
D02*
G37*
%LPC*%
G36*
X2229520Y1297382D02*
X2227035Y1297055D01*
X2224719Y1296096D01*
X2222730Y1294570D01*
X2221204Y1292581D01*
X2220245Y1290265D01*
X2219918Y1287780D01*
X2220245Y1285295D01*
X2221204Y1282979D01*
X2222730Y1280990D01*
X2224719Y1279464D01*
X2227035Y1278505D01*
X2229520Y1278178D01*
X2232005Y1278505D01*
X2234321Y1279464D01*
X2236310Y1280990D01*
X2237836Y1282979D01*
X2238795Y1285295D01*
X2239122Y1287780D01*
X2238795Y1290265D01*
X2237836Y1292581D01*
X2236310Y1294570D01*
X2234321Y1296096D01*
X2232005Y1297055D01*
X2229520Y1297382D01*
D02*
G37*
G36*
X1999809D02*
X1997323Y1297055D01*
X1995008Y1296096D01*
X1993019Y1294570D01*
X1991493Y1292581D01*
X1990534Y1290265D01*
X1990207Y1287780D01*
X1990534Y1285295D01*
X1991493Y1282979D01*
X1993019Y1280990D01*
X1995008Y1279464D01*
X1997323Y1278505D01*
X1999809Y1278178D01*
X2002294Y1278505D01*
X2004610Y1279464D01*
X2006599Y1280990D01*
X2008125Y1282979D01*
X2009084Y1285295D01*
X2009411Y1287780D01*
X2009084Y1290265D01*
X2008125Y1292581D01*
X2006599Y1294570D01*
X2004610Y1296096D01*
X2002294Y1297055D01*
X1999809Y1297382D01*
D02*
G37*
G36*
X1770098D02*
X1767612Y1297055D01*
X1765296Y1296096D01*
X1763308Y1294570D01*
X1761782Y1292581D01*
X1760822Y1290265D01*
X1760495Y1287780D01*
X1760822Y1285295D01*
X1761782Y1282979D01*
X1763308Y1280990D01*
X1765296Y1279464D01*
X1767612Y1278505D01*
X1770098Y1278178D01*
X1772583Y1278505D01*
X1774899Y1279464D01*
X1776887Y1280990D01*
X1778413Y1282979D01*
X1779373Y1285295D01*
X1779700Y1287780D01*
X1779373Y1290265D01*
X1778413Y1292581D01*
X1776887Y1294570D01*
X1774899Y1296096D01*
X1772583Y1297055D01*
X1770098Y1297382D01*
D02*
G37*
G36*
X1540386D02*
X1537901Y1297055D01*
X1535585Y1296096D01*
X1533596Y1294570D01*
X1532070Y1292581D01*
X1531111Y1290265D01*
X1530784Y1287780D01*
X1531111Y1285295D01*
X1532070Y1282979D01*
X1533596Y1280990D01*
X1535585Y1279464D01*
X1537901Y1278505D01*
X1540386Y1278178D01*
X1542872Y1278505D01*
X1545187Y1279464D01*
X1547176Y1280990D01*
X1548702Y1282979D01*
X1549661Y1285295D01*
X1549988Y1287780D01*
X1549661Y1290265D01*
X1548702Y1292581D01*
X1547176Y1294570D01*
X1545187Y1296096D01*
X1542872Y1297055D01*
X1540386Y1297382D01*
D02*
G37*
G36*
X1310675D02*
X1308190Y1297055D01*
X1305874Y1296096D01*
X1303885Y1294570D01*
X1302359Y1292581D01*
X1301400Y1290265D01*
X1301073Y1287780D01*
X1301400Y1285295D01*
X1302359Y1282979D01*
X1303885Y1280990D01*
X1305874Y1279464D01*
X1308190Y1278505D01*
X1310675Y1278178D01*
X1313160Y1278505D01*
X1315476Y1279464D01*
X1317465Y1280990D01*
X1318991Y1282979D01*
X1319950Y1285295D01*
X1320277Y1287780D01*
X1319950Y1290265D01*
X1318991Y1292581D01*
X1317465Y1294570D01*
X1315476Y1296096D01*
X1313160Y1297055D01*
X1310675Y1297382D01*
D02*
G37*
G36*
X1080964D02*
X1078478Y1297055D01*
X1076163Y1296096D01*
X1074174Y1294570D01*
X1072648Y1292581D01*
X1071689Y1290265D01*
X1071362Y1287780D01*
X1071689Y1285295D01*
X1072648Y1282979D01*
X1074174Y1280990D01*
X1076163Y1279464D01*
X1078478Y1278505D01*
X1080964Y1278178D01*
X1083449Y1278505D01*
X1085765Y1279464D01*
X1087754Y1280990D01*
X1089279Y1282979D01*
X1090239Y1285295D01*
X1090566Y1287780D01*
X1090239Y1290265D01*
X1089279Y1292581D01*
X1087754Y1294570D01*
X1085765Y1296096D01*
X1083449Y1297055D01*
X1080964Y1297382D01*
D02*
G37*
G36*
X851253D02*
X848767Y1297055D01*
X846451Y1296096D01*
X844463Y1294570D01*
X842937Y1292581D01*
X841977Y1290265D01*
X841650Y1287780D01*
X841977Y1285295D01*
X842937Y1282979D01*
X844463Y1280990D01*
X846451Y1279464D01*
X848767Y1278505D01*
X851253Y1278178D01*
X853738Y1278505D01*
X856054Y1279464D01*
X858042Y1280990D01*
X859568Y1282979D01*
X860527Y1285295D01*
X860855Y1287780D01*
X860527Y1290265D01*
X859568Y1292581D01*
X858042Y1294570D01*
X856054Y1296096D01*
X853738Y1297055D01*
X851253Y1297382D01*
D02*
G37*
G36*
X621541D02*
X619056Y1297055D01*
X616740Y1296096D01*
X614752Y1294570D01*
X613226Y1292581D01*
X612266Y1290265D01*
X611939Y1287780D01*
X612266Y1285295D01*
X613226Y1282979D01*
X614752Y1280990D01*
X616740Y1279464D01*
X619056Y1278505D01*
X621541Y1278178D01*
X624026Y1278505D01*
X626342Y1279464D01*
X628331Y1280990D01*
X629857Y1282979D01*
X630816Y1285295D01*
X631143Y1287780D01*
X630816Y1290265D01*
X629857Y1292581D01*
X628331Y1294570D01*
X626342Y1296096D01*
X624026Y1297055D01*
X621541Y1297382D01*
D02*
G37*
G36*
X391830D02*
X389345Y1297055D01*
X387029Y1296096D01*
X385040Y1294570D01*
X383514Y1292581D01*
X382555Y1290265D01*
X382228Y1287780D01*
X382555Y1285295D01*
X383514Y1282979D01*
X385040Y1280990D01*
X387029Y1279464D01*
X389345Y1278505D01*
X391830Y1278178D01*
X394315Y1278505D01*
X396631Y1279464D01*
X398620Y1280990D01*
X400146Y1282979D01*
X401105Y1285295D01*
X401432Y1287780D01*
X401105Y1290265D01*
X400146Y1292581D01*
X398620Y1294570D01*
X396631Y1296096D01*
X394315Y1297055D01*
X391830Y1297382D01*
D02*
G37*
G36*
X1991340Y1178061D02*
X1988840D01*
X1987857Y1177866D01*
X1987023Y1177309D01*
X1985537D01*
X1984703Y1177866D01*
X1983720Y1178061D01*
X1981220D01*
X1980237Y1177866D01*
X1979403Y1177309D01*
X1978846Y1176475D01*
X1978651Y1175492D01*
Y1172992D01*
X1978846Y1172009D01*
X1979403Y1171175D01*
Y1170959D01*
X1978846Y1170125D01*
X1978651Y1169142D01*
Y1166642D01*
X1978846Y1165659D01*
X1979403Y1164825D01*
X1980237Y1164268D01*
X1981220Y1164073D01*
X1983720D01*
X1984703Y1164268D01*
X1985537Y1164825D01*
X1987023D01*
X1987857Y1164268D01*
X1988840Y1164073D01*
X1991340D01*
X1992323Y1164268D01*
X1993157Y1164825D01*
X1993714Y1165659D01*
X1993909Y1166642D01*
Y1169142D01*
X1993714Y1170125D01*
X1993214Y1171067D01*
X1993714Y1172009D01*
X1993909Y1172992D01*
Y1175492D01*
X1993714Y1176475D01*
X1993157Y1177309D01*
X1992323Y1177866D01*
X1991340Y1178061D01*
D02*
G37*
G36*
X1955417D02*
X1952917D01*
X1951934Y1177866D01*
X1951100Y1177309D01*
X1949614D01*
X1948780Y1177866D01*
X1947797Y1178061D01*
X1945297D01*
X1944314Y1177866D01*
X1943480Y1177309D01*
X1942923Y1176475D01*
X1942728Y1175492D01*
Y1172992D01*
X1942923Y1172009D01*
X1943423Y1171067D01*
X1942923Y1170125D01*
X1942728Y1169142D01*
Y1166642D01*
X1942923Y1165659D01*
X1943480Y1164825D01*
X1944314Y1164268D01*
X1945297Y1164073D01*
X1947797D01*
X1948780Y1164268D01*
X1949614Y1164825D01*
X1951100D01*
X1951934Y1164268D01*
X1952917Y1164073D01*
X1955417D01*
X1956400Y1164268D01*
X1957234Y1164825D01*
X1957791Y1165659D01*
X1957986Y1166642D01*
Y1169142D01*
X1957791Y1170125D01*
X1957234Y1170959D01*
Y1171175D01*
X1957791Y1172009D01*
X1957986Y1172992D01*
Y1175492D01*
X1957791Y1176475D01*
X1957234Y1177309D01*
X1956400Y1177866D01*
X1955417Y1178061D01*
D02*
G37*
G36*
X1919494D02*
X1916994D01*
X1916011Y1177866D01*
X1915177Y1177309D01*
X1913691D01*
X1912858Y1177866D01*
X1911874Y1178061D01*
X1909374D01*
X1908391Y1177866D01*
X1907558Y1177309D01*
X1907000Y1176475D01*
X1906805Y1175492D01*
Y1172992D01*
X1907000Y1172009D01*
X1907558Y1171175D01*
Y1170959D01*
X1907000Y1170125D01*
X1906805Y1169142D01*
Y1166642D01*
X1907000Y1165659D01*
X1907558Y1164825D01*
X1908391Y1164268D01*
X1909374Y1164073D01*
X1911874D01*
X1912858Y1164268D01*
X1913691Y1164825D01*
X1915177D01*
X1916011Y1164268D01*
X1916994Y1164073D01*
X1919494D01*
X1920478Y1164268D01*
X1921311Y1164825D01*
X1921868Y1165659D01*
X1922064Y1166642D01*
Y1169142D01*
X1921868Y1170125D01*
X1921369Y1171067D01*
X1921868Y1172009D01*
X1922064Y1172992D01*
Y1175492D01*
X1921868Y1176475D01*
X1921311Y1177309D01*
X1920478Y1177866D01*
X1919494Y1178061D01*
D02*
G37*
G36*
X1883571D02*
X1881071D01*
X1880088Y1177866D01*
X1879255Y1177309D01*
X1877768D01*
X1876935Y1177866D01*
X1875951Y1178061D01*
X1873451D01*
X1872468Y1177866D01*
X1871635Y1177309D01*
X1871078Y1176475D01*
X1870882Y1175492D01*
Y1172992D01*
X1871078Y1172009D01*
X1871635Y1171175D01*
Y1170959D01*
X1871078Y1170125D01*
X1870882Y1169142D01*
Y1166642D01*
X1871078Y1165659D01*
X1871635Y1164825D01*
X1872468Y1164268D01*
X1873451Y1164073D01*
X1875951D01*
X1876935Y1164268D01*
X1877768Y1164825D01*
X1879255D01*
X1880088Y1164268D01*
X1881071Y1164073D01*
X1883571D01*
X1884555Y1164268D01*
X1885388Y1164825D01*
X1885945Y1165659D01*
X1886141Y1166642D01*
Y1169142D01*
X1885945Y1170125D01*
X1885446Y1171067D01*
X1885945Y1172009D01*
X1886141Y1172992D01*
Y1175492D01*
X1885945Y1176475D01*
X1885388Y1177309D01*
X1884555Y1177866D01*
X1883571Y1178061D01*
D02*
G37*
G36*
X1847649D02*
X1845149D01*
X1844165Y1177866D01*
X1843332Y1177309D01*
X1841845D01*
X1841012Y1177866D01*
X1840029Y1178061D01*
X1837529D01*
X1836545Y1177866D01*
X1835712Y1177309D01*
X1835155Y1176475D01*
X1834959Y1175492D01*
Y1172992D01*
X1835155Y1172009D01*
X1835712Y1171175D01*
Y1170959D01*
X1835155Y1170125D01*
X1834959Y1169142D01*
Y1166642D01*
X1835155Y1165659D01*
X1835712Y1164825D01*
X1836545Y1164268D01*
X1837529Y1164073D01*
X1840029D01*
X1841012Y1164268D01*
X1841845Y1164825D01*
X1843332D01*
X1844165Y1164268D01*
X1845149Y1164073D01*
X1847649D01*
X1848632Y1164268D01*
X1849465Y1164825D01*
X1850022Y1165659D01*
X1850218Y1166642D01*
Y1169142D01*
X1850022Y1170125D01*
X1849523Y1171067D01*
X1850022Y1172009D01*
X1850218Y1172992D01*
Y1175492D01*
X1850022Y1176475D01*
X1849465Y1177309D01*
X1848632Y1177866D01*
X1847649Y1178061D01*
D02*
G37*
G36*
X1811726D02*
X1809226D01*
X1808242Y1177866D01*
X1807409Y1177309D01*
X1805923D01*
X1805089Y1177866D01*
X1804106Y1178061D01*
X1801606D01*
X1800622Y1177866D01*
X1799789Y1177309D01*
X1799232Y1176475D01*
X1799036Y1175492D01*
Y1172992D01*
X1799232Y1172009D01*
X1799731Y1171067D01*
X1799232Y1170125D01*
X1799036Y1169142D01*
Y1166642D01*
X1799232Y1165659D01*
X1799789Y1164825D01*
X1800622Y1164268D01*
X1801606Y1164073D01*
X1804106D01*
X1805089Y1164268D01*
X1805923Y1164825D01*
X1807409D01*
X1808242Y1164268D01*
X1809226Y1164073D01*
X1811726D01*
X1812709Y1164268D01*
X1813542Y1164825D01*
X1814099Y1165659D01*
X1814295Y1166642D01*
Y1169142D01*
X1814099Y1170125D01*
X1813600Y1171067D01*
X1814099Y1172009D01*
X1814295Y1172992D01*
Y1175492D01*
X1814099Y1176475D01*
X1813542Y1177309D01*
X1812709Y1177866D01*
X1811726Y1178061D01*
D02*
G37*
G36*
X1775803D02*
X1773303D01*
X1772320Y1177866D01*
X1771486Y1177309D01*
X1770000D01*
X1769166Y1177866D01*
X1768183Y1178061D01*
X1765683D01*
X1764700Y1177866D01*
X1763866Y1177309D01*
X1763309Y1176475D01*
X1763114Y1175492D01*
Y1172992D01*
X1763309Y1172009D01*
X1763866Y1171175D01*
Y1170959D01*
X1763309Y1170125D01*
X1763114Y1169142D01*
Y1166642D01*
X1763309Y1165659D01*
X1763866Y1164825D01*
X1764700Y1164268D01*
X1765683Y1164073D01*
X1768183D01*
X1769166Y1164268D01*
X1770000Y1164825D01*
X1771486D01*
X1772320Y1164268D01*
X1773303Y1164073D01*
X1775803D01*
X1776786Y1164268D01*
X1777620Y1164825D01*
X1778177Y1165659D01*
X1778372Y1166642D01*
Y1169142D01*
X1778177Y1170125D01*
X1777677Y1171067D01*
X1778177Y1172009D01*
X1778372Y1172992D01*
Y1175492D01*
X1778177Y1176475D01*
X1777620Y1177309D01*
X1776786Y1177866D01*
X1775803Y1178061D01*
D02*
G37*
G36*
X1739880D02*
X1737380D01*
X1736397Y1177866D01*
X1735563Y1177309D01*
X1734077D01*
X1733243Y1177866D01*
X1732260Y1178061D01*
X1729760D01*
X1728777Y1177866D01*
X1727943Y1177309D01*
X1727386Y1176475D01*
X1727191Y1175492D01*
Y1172992D01*
X1727386Y1172009D01*
X1727943Y1171175D01*
Y1170959D01*
X1727386Y1170125D01*
X1727191Y1169142D01*
Y1166642D01*
X1727386Y1165659D01*
X1727943Y1164825D01*
X1728777Y1164268D01*
X1729760Y1164073D01*
X1732260D01*
X1733243Y1164268D01*
X1734077Y1164825D01*
X1735563D01*
X1736397Y1164268D01*
X1737380Y1164073D01*
X1739880D01*
X1740863Y1164268D01*
X1741697Y1164825D01*
X1742254Y1165659D01*
X1742449Y1166642D01*
Y1169142D01*
X1742254Y1170125D01*
X1741754Y1171067D01*
X1742254Y1172009D01*
X1742449Y1172992D01*
Y1175492D01*
X1742254Y1176475D01*
X1741697Y1177309D01*
X1740863Y1177866D01*
X1739880Y1178061D01*
D02*
G37*
G36*
X1247120D02*
X1244620D01*
X1243637Y1177866D01*
X1242803Y1177309D01*
X1241317D01*
X1240483Y1177866D01*
X1239500Y1178061D01*
X1237000D01*
X1236017Y1177866D01*
X1235183Y1177309D01*
X1234626Y1176475D01*
X1234431Y1175492D01*
Y1172992D01*
X1234626Y1172009D01*
X1235183Y1171175D01*
Y1170959D01*
X1234626Y1170125D01*
X1234431Y1169142D01*
Y1166642D01*
X1234626Y1165659D01*
X1235183Y1164825D01*
X1236017Y1164268D01*
X1237000Y1164073D01*
X1239500D01*
X1240483Y1164268D01*
X1241317Y1164825D01*
X1242803D01*
X1243637Y1164268D01*
X1244620Y1164073D01*
X1247120D01*
X1248103Y1164268D01*
X1248937Y1164825D01*
X1249494Y1165659D01*
X1249689Y1166642D01*
Y1169142D01*
X1249494Y1170125D01*
X1248937Y1170959D01*
Y1171175D01*
X1249494Y1172009D01*
X1249689Y1172992D01*
Y1175492D01*
X1249494Y1176475D01*
X1248937Y1177309D01*
X1248103Y1177866D01*
X1247120Y1178061D01*
D02*
G37*
G36*
X1211197D02*
X1208697D01*
X1207714Y1177866D01*
X1206880Y1177309D01*
X1205394D01*
X1204560Y1177866D01*
X1203577Y1178061D01*
X1201077D01*
X1200094Y1177866D01*
X1199260Y1177309D01*
X1198703Y1176475D01*
X1198508Y1175492D01*
Y1172992D01*
X1198703Y1172009D01*
X1199203Y1171067D01*
X1198703Y1170125D01*
X1198508Y1169142D01*
Y1166642D01*
X1198703Y1165659D01*
X1199260Y1164825D01*
X1200094Y1164268D01*
X1201077Y1164073D01*
X1203577D01*
X1204560Y1164268D01*
X1205394Y1164825D01*
X1206880D01*
X1207714Y1164268D01*
X1208697Y1164073D01*
X1211197D01*
X1212180Y1164268D01*
X1213014Y1164825D01*
X1213571Y1165659D01*
X1213766Y1166642D01*
Y1169142D01*
X1213571Y1170125D01*
X1213014Y1170959D01*
Y1171175D01*
X1213571Y1172009D01*
X1213766Y1172992D01*
Y1175492D01*
X1213571Y1176475D01*
X1213014Y1177309D01*
X1212180Y1177866D01*
X1211197Y1178061D01*
D02*
G37*
G36*
X1175274D02*
X1172774D01*
X1171791Y1177866D01*
X1170957Y1177309D01*
X1169471D01*
X1168638Y1177866D01*
X1167654Y1178061D01*
X1165154D01*
X1164171Y1177866D01*
X1163337Y1177309D01*
X1162781Y1176475D01*
X1162585Y1175492D01*
Y1172992D01*
X1162781Y1172009D01*
X1163337Y1171175D01*
Y1170959D01*
X1162781Y1170125D01*
X1162585Y1169142D01*
Y1166642D01*
X1162781Y1165659D01*
X1163337Y1164825D01*
X1164171Y1164268D01*
X1165154Y1164073D01*
X1167654D01*
X1168638Y1164268D01*
X1169471Y1164825D01*
X1170957D01*
X1171791Y1164268D01*
X1172774Y1164073D01*
X1175274D01*
X1176258Y1164268D01*
X1177091Y1164825D01*
X1177648Y1165659D01*
X1177844Y1166642D01*
Y1169142D01*
X1177648Y1170125D01*
X1177091Y1170959D01*
Y1171175D01*
X1177648Y1172009D01*
X1177844Y1172992D01*
Y1175492D01*
X1177648Y1176475D01*
X1177091Y1177309D01*
X1176258Y1177866D01*
X1175274Y1178061D01*
D02*
G37*
G36*
X1139351D02*
X1136851D01*
X1135868Y1177866D01*
X1135035Y1177309D01*
X1133548D01*
X1132715Y1177866D01*
X1131731Y1178061D01*
X1129231D01*
X1128248Y1177866D01*
X1127415Y1177309D01*
X1126858Y1176475D01*
X1126662Y1175492D01*
Y1172992D01*
X1126858Y1172009D01*
X1127415Y1171175D01*
Y1170959D01*
X1126858Y1170125D01*
X1126662Y1169142D01*
Y1166642D01*
X1126858Y1165659D01*
X1127415Y1164825D01*
X1128248Y1164268D01*
X1129231Y1164073D01*
X1131731D01*
X1132715Y1164268D01*
X1133548Y1164825D01*
X1135035D01*
X1135868Y1164268D01*
X1136851Y1164073D01*
X1139351D01*
X1140335Y1164268D01*
X1141168Y1164825D01*
X1141725Y1165659D01*
X1141921Y1166642D01*
Y1169142D01*
X1141725Y1170125D01*
X1141226Y1171067D01*
X1141725Y1172009D01*
X1141921Y1172992D01*
Y1175492D01*
X1141725Y1176475D01*
X1141168Y1177309D01*
X1140335Y1177866D01*
X1139351Y1178061D01*
D02*
G37*
G36*
X1103429D02*
X1100929D01*
X1099945Y1177866D01*
X1099112Y1177309D01*
X1097625D01*
X1096792Y1177866D01*
X1095809Y1178061D01*
X1093309D01*
X1092325Y1177866D01*
X1091492Y1177309D01*
X1090935Y1176475D01*
X1090739Y1175492D01*
Y1172992D01*
X1090935Y1172009D01*
X1091492Y1171175D01*
Y1170959D01*
X1090935Y1170125D01*
X1090739Y1169142D01*
Y1166642D01*
X1090935Y1165659D01*
X1091492Y1164825D01*
X1092325Y1164268D01*
X1093309Y1164073D01*
X1095809D01*
X1096792Y1164268D01*
X1097625Y1164825D01*
X1099112D01*
X1099945Y1164268D01*
X1100929Y1164073D01*
X1103429D01*
X1104412Y1164268D01*
X1105245Y1164825D01*
X1105802Y1165659D01*
X1105998Y1166642D01*
Y1169142D01*
X1105802Y1170125D01*
X1105245Y1170959D01*
Y1171175D01*
X1105802Y1172009D01*
X1105998Y1172992D01*
Y1175492D01*
X1105802Y1176475D01*
X1105245Y1177309D01*
X1104412Y1177866D01*
X1103429Y1178061D01*
D02*
G37*
G36*
X1067506D02*
X1065006D01*
X1064022Y1177866D01*
X1063189Y1177309D01*
X1061702D01*
X1060869Y1177866D01*
X1059886Y1178061D01*
X1057386D01*
X1056402Y1177866D01*
X1055569Y1177309D01*
X1055012Y1176475D01*
X1054816Y1175492D01*
Y1172992D01*
X1055012Y1172009D01*
X1055569Y1171175D01*
Y1170959D01*
X1055012Y1170125D01*
X1054816Y1169142D01*
Y1166642D01*
X1055012Y1165659D01*
X1055569Y1164825D01*
X1056402Y1164268D01*
X1057386Y1164073D01*
X1059886D01*
X1060869Y1164268D01*
X1061702Y1164825D01*
X1063189D01*
X1064022Y1164268D01*
X1065006Y1164073D01*
X1067506D01*
X1068489Y1164268D01*
X1069323Y1164825D01*
X1069880Y1165659D01*
X1070075Y1166642D01*
Y1169142D01*
X1069880Y1170125D01*
X1069323Y1170959D01*
Y1171175D01*
X1069880Y1172009D01*
X1070075Y1172992D01*
Y1175492D01*
X1069880Y1176475D01*
X1069323Y1177309D01*
X1068489Y1177866D01*
X1067506Y1178061D01*
D02*
G37*
G36*
X1031583D02*
X1029083D01*
X1028100Y1177866D01*
X1027266Y1177309D01*
X1025780D01*
X1024946Y1177866D01*
X1023963Y1178061D01*
X1021463D01*
X1020480Y1177866D01*
X1019646Y1177309D01*
X1019089Y1176475D01*
X1018894Y1175492D01*
Y1172992D01*
X1019089Y1172009D01*
X1019589Y1171067D01*
X1019089Y1170125D01*
X1018894Y1169142D01*
Y1166642D01*
X1019089Y1165659D01*
X1019646Y1164825D01*
X1020480Y1164268D01*
X1021463Y1164073D01*
X1023963D01*
X1024946Y1164268D01*
X1025780Y1164825D01*
X1027266D01*
X1028100Y1164268D01*
X1029083Y1164073D01*
X1031583D01*
X1032566Y1164268D01*
X1033400Y1164825D01*
X1033957Y1165659D01*
X1034152Y1166642D01*
Y1169142D01*
X1033957Y1170125D01*
X1033400Y1170959D01*
Y1171175D01*
X1033957Y1172009D01*
X1034152Y1172992D01*
Y1175492D01*
X1033957Y1176475D01*
X1033400Y1177309D01*
X1032566Y1177866D01*
X1031583Y1178061D01*
D02*
G37*
G36*
X995660D02*
X993160D01*
X992177Y1177866D01*
X991343Y1177309D01*
X989857D01*
X989023Y1177866D01*
X988040Y1178061D01*
X985540D01*
X984557Y1177866D01*
X983723Y1177309D01*
X983166Y1176475D01*
X982971Y1175492D01*
Y1172992D01*
X983166Y1172009D01*
X983723Y1171175D01*
Y1170959D01*
X983166Y1170125D01*
X982971Y1169142D01*
Y1166642D01*
X983166Y1165659D01*
X983723Y1164825D01*
X984557Y1164268D01*
X985540Y1164073D01*
X988040D01*
X989023Y1164268D01*
X989857Y1164825D01*
X991343D01*
X992177Y1164268D01*
X993160Y1164073D01*
X995660D01*
X996643Y1164268D01*
X997477Y1164825D01*
X998034Y1165659D01*
X998229Y1166642D01*
Y1169142D01*
X998034Y1170125D01*
X997477Y1170959D01*
Y1171175D01*
X998034Y1172009D01*
X998229Y1172992D01*
Y1175492D01*
X998034Y1176475D01*
X997477Y1177309D01*
X996643Y1177866D01*
X995660Y1178061D01*
D02*
G37*
G36*
X514330Y1178061D02*
X511830D01*
X510847Y1177866D01*
X510013Y1177309D01*
X508527D01*
X507693Y1177866D01*
X506710Y1178061D01*
X504210D01*
X503227Y1177866D01*
X502393Y1177309D01*
X501836Y1176475D01*
X501641Y1175492D01*
Y1172992D01*
X501836Y1172009D01*
X502336Y1171067D01*
X501836Y1170125D01*
X501641Y1169142D01*
Y1166642D01*
X501836Y1165659D01*
X502393Y1164825D01*
X503227Y1164268D01*
X504210Y1164073D01*
X506710D01*
X507693Y1164268D01*
X508527Y1164825D01*
X510013Y1164825D01*
X510847Y1164268D01*
X511830Y1164073D01*
X514330D01*
X515313Y1164268D01*
X516147Y1164825D01*
X516704Y1165659D01*
X516899Y1166642D01*
Y1169142D01*
X516704Y1170125D01*
X516204Y1171067D01*
X516704Y1172009D01*
X516899Y1172992D01*
Y1175492D01*
X516704Y1176475D01*
X516147Y1177309D01*
X515313Y1177866D01*
X514330Y1178061D01*
D02*
G37*
G36*
X478407D02*
X475907D01*
X474924Y1177866D01*
X474090Y1177309D01*
X472604D01*
X471771Y1177866D01*
X470787Y1178061D01*
X468287D01*
X467304Y1177866D01*
X466470Y1177309D01*
X465913Y1176475D01*
X465718Y1175492D01*
Y1172992D01*
X465913Y1172009D01*
X466413Y1171067D01*
X465913Y1170125D01*
X465718Y1169142D01*
Y1166642D01*
X465913Y1165659D01*
X466470Y1164825D01*
X467304Y1164268D01*
X468287Y1164073D01*
X470787D01*
X471771Y1164268D01*
X472604Y1164825D01*
X474090D01*
X474924Y1164268D01*
X475907Y1164073D01*
X478407D01*
X479390Y1164268D01*
X480224Y1164825D01*
X480781Y1165659D01*
X480977Y1166642D01*
Y1169142D01*
X480781Y1170125D01*
X480281Y1171067D01*
X480781Y1172009D01*
X480977Y1172992D01*
Y1175492D01*
X480781Y1176475D01*
X480224Y1177309D01*
X479390Y1177866D01*
X478407Y1178061D01*
D02*
G37*
G36*
X442484D02*
X439984D01*
X439001Y1177866D01*
X438167Y1177309D01*
X436681D01*
X435848Y1177866D01*
X434864Y1178061D01*
X432364D01*
X431381Y1177866D01*
X430547Y1177309D01*
X429991Y1176475D01*
X429795Y1175492D01*
Y1172992D01*
X429991Y1172009D01*
X430490Y1171067D01*
X429991Y1170125D01*
X429795Y1169142D01*
Y1166642D01*
X429991Y1165659D01*
X430547Y1164825D01*
X431381Y1164268D01*
X432364Y1164073D01*
X434864D01*
X435848Y1164268D01*
X436681Y1164825D01*
X438167D01*
X439001Y1164268D01*
X439984Y1164073D01*
X442484D01*
X443468Y1164268D01*
X444301Y1164825D01*
X444858Y1165659D01*
X445054Y1166642D01*
Y1169142D01*
X444858Y1170125D01*
X444358Y1171067D01*
X444858Y1172009D01*
X445054Y1172992D01*
Y1175492D01*
X444858Y1176475D01*
X444301Y1177309D01*
X443468Y1177866D01*
X442484Y1178061D01*
D02*
G37*
G36*
X406562D02*
X404061D01*
X403078Y1177866D01*
X402245Y1177309D01*
X400758D01*
X399925Y1177866D01*
X398941Y1178061D01*
X396441D01*
X395458Y1177866D01*
X394625Y1177309D01*
X394068Y1176475D01*
X393872Y1175492D01*
Y1172992D01*
X394068Y1172009D01*
X394567Y1171067D01*
X394068Y1170125D01*
X393872Y1169142D01*
Y1166642D01*
X394068Y1165659D01*
X394625Y1164825D01*
X395458Y1164268D01*
X396441Y1164073D01*
X398941D01*
X399925Y1164268D01*
X400758Y1164825D01*
X402245D01*
X403078Y1164268D01*
X404061Y1164073D01*
X406562D01*
X407545Y1164268D01*
X408378Y1164825D01*
X408935Y1165659D01*
X409131Y1166642D01*
Y1169142D01*
X408935Y1170125D01*
X408436Y1171067D01*
X408935Y1172009D01*
X409131Y1172992D01*
Y1175492D01*
X408935Y1176475D01*
X408378Y1177309D01*
X407545Y1177866D01*
X406562Y1178061D01*
D02*
G37*
G36*
X370639D02*
X368139D01*
X367155Y1177866D01*
X366322Y1177309D01*
X364835D01*
X364002Y1177866D01*
X363019Y1178061D01*
X360519D01*
X359535Y1177866D01*
X358702Y1177309D01*
X358145Y1176475D01*
X357949Y1175492D01*
Y1172992D01*
X358145Y1172009D01*
X358644Y1171067D01*
X358145Y1170125D01*
X357949Y1169142D01*
Y1166642D01*
X358145Y1165659D01*
X358702Y1164825D01*
X359535Y1164268D01*
X360519Y1164073D01*
X363019D01*
X364002Y1164268D01*
X364835Y1164825D01*
X366322D01*
X367155Y1164268D01*
X368139Y1164073D01*
X370639D01*
X371622Y1164268D01*
X372455Y1164825D01*
X373012Y1165659D01*
X373208Y1166642D01*
Y1169142D01*
X373012Y1170125D01*
X372513Y1171067D01*
X373012Y1172009D01*
X373208Y1172992D01*
Y1175492D01*
X373012Y1176475D01*
X372455Y1177309D01*
X371622Y1177866D01*
X370639Y1178061D01*
D02*
G37*
G36*
X334716D02*
X332216D01*
X331232Y1177866D01*
X330399Y1177309D01*
X328913D01*
X328079Y1177866D01*
X327096Y1178061D01*
X324596D01*
X323613Y1177866D01*
X322779Y1177309D01*
X322222Y1176475D01*
X322026Y1175492D01*
Y1172992D01*
X322222Y1172009D01*
X322721Y1171067D01*
X322222Y1170125D01*
X322026Y1169142D01*
Y1166642D01*
X322222Y1165659D01*
X322779Y1164825D01*
X323613Y1164268D01*
X324596Y1164073D01*
X327096D01*
X328079Y1164268D01*
X328913Y1164825D01*
X330399D01*
X331232Y1164268D01*
X332216Y1164073D01*
X334716D01*
X335699Y1164268D01*
X336533Y1164825D01*
X337090Y1165659D01*
X337285Y1166642D01*
Y1169142D01*
X337090Y1170125D01*
X336590Y1171067D01*
X337090Y1172009D01*
X337285Y1172992D01*
Y1175492D01*
X337090Y1176475D01*
X336533Y1177309D01*
X335699Y1177866D01*
X334716Y1178061D01*
D02*
G37*
G36*
X298793D02*
X296293D01*
X295310Y1177866D01*
X294476Y1177309D01*
X292990D01*
X292156Y1177866D01*
X291173Y1178061D01*
X288673D01*
X287690Y1177866D01*
X286856Y1177309D01*
X286299Y1176475D01*
X286103Y1175492D01*
Y1172992D01*
X286299Y1172009D01*
X286799Y1171067D01*
X286299Y1170125D01*
X286103Y1169142D01*
Y1166642D01*
X286299Y1165659D01*
X286856Y1164825D01*
X287690Y1164268D01*
X288673Y1164073D01*
X291173D01*
X292156Y1164268D01*
X292990Y1164825D01*
X294476D01*
X295310Y1164268D01*
X296293Y1164073D01*
X298793D01*
X299776Y1164268D01*
X300610Y1164825D01*
X301167Y1165659D01*
X301362Y1166642D01*
Y1169142D01*
X301167Y1170125D01*
X300667Y1171067D01*
X301167Y1172009D01*
X301362Y1172992D01*
Y1175492D01*
X301167Y1176475D01*
X300610Y1177309D01*
X299776Y1177866D01*
X298793Y1178061D01*
D02*
G37*
G36*
X262870D02*
X260370D01*
X259387Y1177866D01*
X258553Y1177309D01*
X257067D01*
X256233Y1177866D01*
X255250Y1178061D01*
X252750D01*
X251767Y1177866D01*
X250933Y1177309D01*
X250376Y1176475D01*
X250181Y1175492D01*
Y1172992D01*
X250376Y1172009D01*
X250876Y1171067D01*
X250376Y1170125D01*
X250181Y1169142D01*
Y1166642D01*
X250376Y1165659D01*
X250933Y1164825D01*
X251767Y1164268D01*
X252750Y1164073D01*
X255250D01*
X256233Y1164268D01*
X257067Y1164825D01*
X258553D01*
X259387Y1164268D01*
X260370Y1164073D01*
X262870D01*
X263853Y1164268D01*
X264687Y1164825D01*
X265244Y1165659D01*
X265439Y1166642D01*
Y1169142D01*
X265244Y1170125D01*
X264744Y1171067D01*
X265244Y1172009D01*
X265439Y1172992D01*
Y1175492D01*
X265244Y1176475D01*
X264687Y1177309D01*
X263853Y1177866D01*
X262870Y1178061D01*
D02*
G37*
G36*
X1045292Y843551D02*
X1043792D01*
X1042406Y842977D01*
X1041346Y841916D01*
X1040772Y840531D01*
Y839031D01*
X1041346Y837645D01*
X1042406Y836585D01*
X1043792Y836011D01*
X1045292D01*
X1046677Y836585D01*
X1047738Y837645D01*
X1048312Y839031D01*
Y840531D01*
X1047738Y841916D01*
X1046677Y842977D01*
X1045292Y843551D01*
D02*
G37*
G36*
X1154164Y842732D02*
X1152664D01*
X1151279Y842158D01*
X1150218Y841097D01*
X1149644Y839712D01*
Y838212D01*
X1150218Y836826D01*
X1151279Y835766D01*
X1152664Y835192D01*
X1154164D01*
X1155549Y835766D01*
X1156610Y836826D01*
X1157184Y838212D01*
Y839712D01*
X1156610Y841097D01*
X1155549Y842158D01*
X1154164Y842732D01*
D02*
G37*
G36*
X1266822Y823087D02*
X1265558D01*
X1264391Y822604D01*
X1263498Y821711D01*
X1263015Y820544D01*
Y819280D01*
X1263498Y818113D01*
X1264391Y817220D01*
X1265558Y816737D01*
X1266822D01*
X1267989Y817220D01*
X1268882Y818113D01*
X1269365Y819280D01*
Y820544D01*
X1268882Y821711D01*
X1267989Y822604D01*
X1266822Y823087D01*
D02*
G37*
G36*
X1005701Y811109D02*
X1004201D01*
X1002815Y810535D01*
X1001755Y809474D01*
X1001181Y808089D01*
Y806589D01*
X1001755Y805203D01*
X1002815Y804143D01*
X1004201Y803569D01*
X1005701D01*
X1007086Y804143D01*
X1008147Y805203D01*
X1008721Y806589D01*
Y808089D01*
X1008147Y809474D01*
X1007086Y810535D01*
X1005701Y811109D01*
D02*
G37*
G36*
X1111873Y785455D02*
X1110373D01*
X1108988Y784881D01*
X1107927Y783820D01*
X1107353Y782435D01*
Y780935D01*
X1107927Y779549D01*
X1108988Y778489D01*
X1110373Y777915D01*
X1111873D01*
X1113259Y778489D01*
X1114319Y779549D01*
X1114893Y780935D01*
Y782435D01*
X1114319Y783820D01*
X1113259Y784881D01*
X1111873Y785455D01*
D02*
G37*
G36*
X1204964Y777454D02*
X1203464D01*
X1202078Y776880D01*
X1201018Y775819D01*
X1200444Y774434D01*
Y772934D01*
X1201018Y771548D01*
X1202078Y770488D01*
X1203464Y769914D01*
X1204964D01*
X1206349Y770488D01*
X1207410Y771548D01*
X1207984Y772934D01*
Y774434D01*
X1207410Y775819D01*
X1206349Y776880D01*
X1204964Y777454D01*
D02*
G37*
G36*
X1128819Y779145D02*
X1126797D01*
X1124930Y778372D01*
X1123501Y776943D01*
X1122728Y775076D01*
Y773055D01*
X1123501Y771187D01*
X1124930Y769758D01*
X1126797Y768985D01*
X1128819D01*
X1130686Y769758D01*
X1132115Y771187D01*
X1132888Y773055D01*
Y775076D01*
X1132115Y776943D01*
X1130686Y778372D01*
X1128819Y779145D01*
D02*
G37*
G36*
X1154677Y779780D02*
X1152151D01*
X1149817Y778813D01*
X1148031Y777027D01*
X1147064Y774693D01*
Y772167D01*
X1148031Y769833D01*
X1149817Y768047D01*
X1152151Y767080D01*
X1154677D01*
X1157011Y768047D01*
X1158797Y769833D01*
X1159764Y772167D01*
Y774693D01*
X1158797Y777027D01*
X1157011Y778813D01*
X1154677Y779780D01*
D02*
G37*
G36*
X1295394Y776478D02*
X1293374D01*
X1291506Y775705D01*
X1290077Y774276D01*
X1289304Y772409D01*
Y770387D01*
X1290077Y768520D01*
X1291506Y767091D01*
X1293374Y766318D01*
X1295394D01*
X1297262Y767091D01*
X1298691Y768520D01*
X1299464Y770387D01*
Y772409D01*
X1298691Y774276D01*
X1297262Y775705D01*
X1295394Y776478D01*
D02*
G37*
G36*
X315456Y844764D02*
X313956D01*
X312570Y844190D01*
X311510Y843130D01*
X310936Y841744D01*
Y840244D01*
X311510Y838858D01*
X312570Y837798D01*
X313956Y837224D01*
X315456D01*
X316842Y837798D01*
X317902Y838858D01*
X318476Y840244D01*
Y841744D01*
X317902Y843130D01*
X316842Y844190D01*
X315456Y844764D01*
D02*
G37*
G36*
X423914Y843240D02*
X422414D01*
X421029Y842666D01*
X419968Y841606D01*
X419394Y840220D01*
Y838720D01*
X419968Y837335D01*
X421029Y836274D01*
X422414Y835700D01*
X423914D01*
X425299Y836274D01*
X426360Y837335D01*
X426934Y838720D01*
Y840220D01*
X426360Y841606D01*
X425299Y842666D01*
X423914Y843240D01*
D02*
G37*
G36*
X536572Y823087D02*
X535308D01*
X534142Y822604D01*
X533248Y821711D01*
X532765Y820544D01*
Y819280D01*
X533248Y818113D01*
X534142Y817220D01*
X535308Y816737D01*
X536572D01*
X537738Y817220D01*
X538632Y818113D01*
X539115Y819280D01*
Y820544D01*
X538632Y821711D01*
X537738Y822604D01*
X536572Y823087D01*
D02*
G37*
G36*
X275324Y810982D02*
X273824D01*
X272439Y810408D01*
X271378Y809348D01*
X270804Y807962D01*
Y806462D01*
X271378Y805077D01*
X272439Y804016D01*
X273824Y803442D01*
X275324D01*
X276709Y804016D01*
X277770Y805077D01*
X278344Y806462D01*
Y807962D01*
X277770Y809348D01*
X276709Y810408D01*
X275324Y810982D01*
D02*
G37*
G36*
X381496Y786852D02*
X379996D01*
X378610Y786278D01*
X377550Y785218D01*
X376976Y783832D01*
Y782332D01*
X377550Y780947D01*
X378610Y779886D01*
X379996Y779312D01*
X381496D01*
X382882Y779886D01*
X383942Y780947D01*
X384516Y782332D01*
Y783832D01*
X383942Y785218D01*
X382882Y786278D01*
X381496Y786852D01*
D02*
G37*
G36*
X474714Y779232D02*
X473214D01*
X471828Y778658D01*
X470768Y777598D01*
X470194Y776212D01*
Y774712D01*
X470768Y773326D01*
X471828Y772266D01*
X473214Y771692D01*
X474714D01*
X476100Y772266D01*
X477160Y773326D01*
X477734Y774712D01*
Y776212D01*
X477160Y777598D01*
X476100Y778658D01*
X474714Y779232D01*
D02*
G37*
G36*
X424108Y779907D02*
X422339D01*
X420706Y779230D01*
X419455Y777980D01*
X418778Y776346D01*
Y774578D01*
X419455Y772944D01*
X420706Y771694D01*
X422339Y771017D01*
X424108D01*
X425741Y771694D01*
X426992Y772944D01*
X427668Y774578D01*
Y776346D01*
X426992Y777980D01*
X425741Y779230D01*
X424108Y779907D01*
D02*
G37*
G36*
X401060Y780034D02*
X399039D01*
X397172Y779261D01*
X395743Y777832D01*
X394970Y775965D01*
Y773943D01*
X395743Y772076D01*
X397172Y770647D01*
X399039Y769874D01*
X401060D01*
X402928Y770647D01*
X404357Y772076D01*
X405130Y773943D01*
Y775965D01*
X404357Y777832D01*
X402928Y779261D01*
X401060Y780034D01*
D02*
G37*
G36*
X565145Y774446D02*
X563124D01*
X561256Y773673D01*
X559827Y772244D01*
X559054Y770377D01*
Y768355D01*
X559827Y766488D01*
X561256Y765059D01*
X563124Y764286D01*
X565145D01*
X567012Y765059D01*
X568441Y766488D01*
X569214Y768355D01*
Y770377D01*
X568441Y772244D01*
X567012Y773673D01*
X565145Y774446D01*
D02*
G37*
G36*
X1776394Y844764D02*
X1774894D01*
X1773508Y844190D01*
X1772448Y843130D01*
X1771874Y841744D01*
Y840244D01*
X1772448Y838858D01*
X1773508Y837798D01*
X1774894Y837224D01*
X1776394D01*
X1777779Y837798D01*
X1778840Y838858D01*
X1779414Y840244D01*
Y841744D01*
X1778840Y843130D01*
X1777779Y844190D01*
X1776394Y844764D01*
D02*
G37*
G36*
X1884922Y843494D02*
X1883422D01*
X1882036Y842920D01*
X1880976Y841860D01*
X1880402Y840474D01*
Y838974D01*
X1880976Y837589D01*
X1882036Y836528D01*
X1883422Y835954D01*
X1884922D01*
X1886308Y836528D01*
X1887368Y837589D01*
X1887942Y838974D01*
Y840474D01*
X1887368Y841860D01*
X1886308Y842920D01*
X1884922Y843494D01*
D02*
G37*
G36*
X1997579Y823087D02*
X1996317D01*
X1995150Y822604D01*
X1994256Y821711D01*
X1993773Y820544D01*
Y819280D01*
X1994256Y818113D01*
X1995150Y817220D01*
X1996317Y816737D01*
X1997579D01*
X1998746Y817220D01*
X1999640Y818113D01*
X2000123Y819280D01*
Y820544D01*
X1999640Y821711D01*
X1998746Y822604D01*
X1997579Y823087D01*
D02*
G37*
G36*
X1736078Y810982D02*
X1734578D01*
X1733192Y810408D01*
X1732132Y809348D01*
X1731558Y807962D01*
Y806462D01*
X1732132Y805077D01*
X1733192Y804016D01*
X1734578Y803442D01*
X1736078D01*
X1737463Y804016D01*
X1738524Y805077D01*
X1739098Y806462D01*
Y807962D01*
X1738524Y809348D01*
X1737463Y810408D01*
X1736078Y810982D01*
D02*
G37*
G36*
X1842434Y785328D02*
X1840934D01*
X1839548Y784754D01*
X1838488Y783693D01*
X1837914Y782308D01*
Y780808D01*
X1838488Y779423D01*
X1839548Y778362D01*
X1840934Y777788D01*
X1842434D01*
X1843819Y778362D01*
X1844880Y779423D01*
X1845454Y780808D01*
Y782308D01*
X1844880Y783693D01*
X1843819Y784754D01*
X1842434Y785328D01*
D02*
G37*
G36*
X1885045Y779907D02*
X1883277D01*
X1881643Y779230D01*
X1880393Y777980D01*
X1879716Y776346D01*
Y774578D01*
X1880393Y772944D01*
X1881643Y771694D01*
X1883277Y771017D01*
X1885045D01*
X1886679Y771694D01*
X1887930Y772944D01*
X1888606Y774578D01*
Y776346D01*
X1887930Y777980D01*
X1886679Y779230D01*
X1885045Y779907D01*
D02*
G37*
G36*
X1935722Y777454D02*
X1934222D01*
X1932836Y776880D01*
X1931776Y775819D01*
X1931202Y774434D01*
Y772934D01*
X1931776Y771548D01*
X1932836Y770488D01*
X1934222Y769914D01*
X1935722D01*
X1937108Y770488D01*
X1938168Y771548D01*
X1938742Y772934D01*
Y774434D01*
X1938168Y775819D01*
X1937108Y776880D01*
X1935722Y777454D01*
D02*
G37*
G36*
X1859021Y778764D02*
X1857000D01*
X1855132Y777991D01*
X1853703Y776562D01*
X1852930Y774695D01*
Y772673D01*
X1853703Y770806D01*
X1855132Y769377D01*
X1857000Y768604D01*
X1859021D01*
X1860888Y769377D01*
X1862317Y770806D01*
X1863090Y772673D01*
Y774695D01*
X1862317Y776562D01*
X1860888Y777991D01*
X1859021Y778764D01*
D02*
G37*
G36*
X2026152Y774446D02*
X2024131D01*
X2022264Y773673D01*
X2020835Y772244D01*
X2020062Y770377D01*
Y768355D01*
X2020835Y766488D01*
X2022264Y765059D01*
X2024131Y764286D01*
X2026152D01*
X2028020Y765059D01*
X2029449Y766488D01*
X2030222Y768355D01*
Y770377D01*
X2029449Y772244D01*
X2028020Y773673D01*
X2026152Y774446D01*
D02*
G37*
G36*
X706120Y649045D02*
X704633Y648749D01*
X703373Y647907D01*
X702531Y646647D01*
X702235Y645160D01*
X702531Y643673D01*
X703373Y642413D01*
X704633Y641571D01*
X706120Y641275D01*
X707607Y641571D01*
X708867Y642413D01*
X709709Y643673D01*
X710005Y645160D01*
X709709Y646647D01*
X708867Y647907D01*
X707607Y648749D01*
X706120Y649045D01*
D02*
G37*
G36*
X751840Y618565D02*
X750353Y618269D01*
X749093Y617427D01*
X748251Y616167D01*
X747955Y614680D01*
X748251Y613193D01*
X749093Y611933D01*
X750353Y611091D01*
X751840Y610795D01*
X753327Y611091D01*
X754587Y611933D01*
X755429Y613193D01*
X755725Y614680D01*
X755429Y616167D01*
X754587Y617427D01*
X753327Y618269D01*
X751840Y618565D01*
D02*
G37*
G36*
X736600D02*
X735113Y618269D01*
X733853Y617427D01*
X733011Y616167D01*
X732715Y614680D01*
X733011Y613193D01*
X733853Y611933D01*
X735113Y611091D01*
X736600Y610795D01*
X738087Y611091D01*
X739347Y611933D01*
X740189Y613193D01*
X740485Y614680D01*
X740189Y616167D01*
X739347Y617427D01*
X738087Y618269D01*
X736600Y618565D01*
D02*
G37*
G36*
X304101Y655955D02*
X300419D01*
X297815Y653351D01*
Y649669D01*
X300419Y647065D01*
X304101D01*
X306705Y649669D01*
Y653351D01*
X304101Y655955D01*
D02*
G37*
G36*
X68444Y661142D02*
X61096D01*
X55900Y655946D01*
Y648598D01*
X61096Y643402D01*
X68444D01*
X73640Y648598D01*
Y655946D01*
X68444Y661142D01*
D02*
G37*
G36*
X1075236Y630428D02*
X1072080D01*
X1069848Y628196D01*
Y625040D01*
X1072080Y622808D01*
X1075236D01*
X1077468Y625040D01*
Y628196D01*
X1075236Y630428D01*
D02*
G37*
G36*
X68444Y610342D02*
X61096D01*
X55900Y605146D01*
Y597798D01*
X61096Y592602D01*
X68444D01*
X73640Y597798D01*
Y605146D01*
X68444Y610342D01*
D02*
G37*
G36*
X956128Y586486D02*
X951920D01*
X948944Y583510D01*
Y579302D01*
X951920Y576326D01*
X956128D01*
X959104Y579302D01*
Y583510D01*
X956128Y586486D01*
D02*
G37*
G36*
X226168Y584962D02*
X221960D01*
X218984Y581986D01*
Y577778D01*
X221960Y574802D01*
X226168D01*
X229144Y577778D01*
Y581986D01*
X226168Y584962D01*
D02*
G37*
G36*
X1688410Y584200D02*
X1684202D01*
X1681226Y581224D01*
Y577016D01*
X1684202Y574040D01*
X1688410D01*
X1691386Y577016D01*
Y581224D01*
X1688410Y584200D01*
D02*
G37*
G36*
X1248077Y582664D02*
X1240190D01*
X1234613Y577088D01*
Y569201D01*
X1240190Y563624D01*
X1248077D01*
X1253653Y569201D01*
Y577088D01*
X1248077Y582664D01*
D02*
G37*
G36*
X1978638Y582537D02*
X1970751D01*
X1965174Y576961D01*
Y569074D01*
X1970751Y563497D01*
X1978638D01*
X1984214Y569074D01*
Y576961D01*
X1978638Y582537D01*
D02*
G37*
G36*
X538678Y579282D02*
X530792D01*
X525215Y573705D01*
Y565818D01*
X530792Y560242D01*
X538678D01*
X544255Y565818D01*
Y573705D01*
X538678Y579282D01*
D02*
G37*
G36*
X68570Y559960D02*
X60970D01*
X57090Y558352D01*
X55482Y554472D01*
Y546872D01*
X57090Y542992D01*
X60970Y541384D01*
X68570D01*
X72450Y542992D01*
X74058Y546872D01*
Y554472D01*
X72450Y558352D01*
X68570Y559960D01*
D02*
G37*
G36*
X1271145Y558535D02*
X1258742Y546133D01*
X1271145Y533730D01*
X1283548Y546133D01*
X1271145Y558535D01*
D02*
G37*
G36*
X2001706Y558408D02*
X1989303Y546006D01*
X2001706Y533603D01*
X2014108Y546006D01*
X2001706Y558408D01*
D02*
G37*
G36*
X561746Y555153D02*
X549344Y542750D01*
X561746Y530347D01*
X574149Y542750D01*
X561746Y555153D01*
D02*
G37*
G36*
X2137666Y517398D02*
X2133457D01*
X2130482Y514422D01*
Y510214D01*
X2133457Y507238D01*
X2137666D01*
X2140642Y510214D01*
Y514422D01*
X2137666Y517398D01*
D02*
G37*
G36*
X555053Y514985D02*
X551371D01*
X548767Y512381D01*
Y508699D01*
X551371Y506095D01*
X555053D01*
X557657Y508699D01*
Y512381D01*
X555053Y514985D01*
D02*
G37*
G36*
X1405708Y515366D02*
X1401500D01*
X1398524Y512390D01*
Y508182D01*
X1401500Y505206D01*
X1405708D01*
X1408684Y508182D01*
Y512390D01*
X1405708Y515366D01*
D02*
G37*
G36*
X675712Y515112D02*
X671504D01*
X668528Y512136D01*
Y507928D01*
X671504Y504952D01*
X675712D01*
X678688Y507928D01*
Y512136D01*
X675712Y515112D01*
D02*
G37*
G36*
X462080Y504444D02*
X458924D01*
X456692Y502212D01*
Y499056D01*
X458924Y496824D01*
X462080D01*
X464312Y499056D01*
Y502212D01*
X462080Y504444D01*
D02*
G37*
G36*
X1171257Y501777D02*
X1167575D01*
X1164971Y499173D01*
Y495491D01*
X1167575Y492887D01*
X1171257D01*
X1173861Y495491D01*
Y499173D01*
X1171257Y501777D01*
D02*
G37*
G36*
X1566133Y536350D02*
X1547907D01*
X1535020Y523463D01*
Y505237D01*
X1547907Y492350D01*
X1566133D01*
X1579020Y505237D01*
Y523463D01*
X1566133Y536350D01*
D02*
G37*
G36*
X805403Y535080D02*
X787177D01*
X774290Y522193D01*
Y503967D01*
X787177Y491080D01*
X805403D01*
X818290Y503967D01*
Y522193D01*
X805403Y535080D01*
D02*
G37*
G36*
X1154484Y492252D02*
X1151328D01*
X1149096Y490020D01*
Y486864D01*
X1151328Y484632D01*
X1154484D01*
X1156716Y486864D01*
Y490020D01*
X1154484Y492252D01*
D02*
G37*
G36*
X2021776Y477774D02*
X2018094D01*
X2015490Y475170D01*
Y471488D01*
X2018094Y468884D01*
X2021776D01*
X2024380Y471488D01*
Y475170D01*
X2021776Y477774D01*
D02*
G37*
G36*
X1183694Y462534D02*
X1180538D01*
X1178306Y460302D01*
Y457146D01*
X1180538Y454914D01*
X1183694D01*
X1185926Y457146D01*
Y460302D01*
X1183694Y462534D01*
D02*
G37*
G36*
X1149388Y448778D02*
X1146264D01*
X1144056Y446570D01*
Y443446D01*
X1146264Y441238D01*
X1149388D01*
X1151596Y443446D01*
Y446570D01*
X1149388Y448778D01*
D02*
G37*
G36*
X622617Y447167D02*
X618935D01*
X616331Y444563D01*
Y440881D01*
X618935Y438277D01*
X622617D01*
X625221Y440881D01*
Y444563D01*
X622617Y447167D01*
D02*
G37*
G36*
X269330Y441198D02*
X264070D01*
X260350Y437478D01*
Y432218D01*
X264070Y428498D01*
X269330D01*
X273050Y432218D01*
Y437478D01*
X269330Y441198D01*
D02*
G37*
G36*
X1216206Y429260D02*
X1213050D01*
X1210818Y427028D01*
Y423872D01*
X1213050Y421640D01*
X1216206D01*
X1218438Y423872D01*
Y427028D01*
X1216206Y429260D01*
D02*
G37*
G36*
X606098Y419100D02*
X602942D01*
X600710Y416868D01*
Y413712D01*
X602942Y411480D01*
X606098D01*
X608330Y413712D01*
Y416868D01*
X606098Y419100D01*
D02*
G37*
G36*
X563934Y418846D02*
X560778D01*
X558546Y416614D01*
Y413458D01*
X560778Y411226D01*
X563934D01*
X566166Y413458D01*
Y416614D01*
X563934Y418846D01*
D02*
G37*
G36*
X507554Y400686D02*
X503871D01*
X501268Y398083D01*
Y394400D01*
X503871Y391796D01*
X507554D01*
X510158Y394400D01*
Y398083D01*
X507554Y400686D01*
D02*
G37*
G36*
X416115Y400685D02*
X412433D01*
X409829Y398081D01*
Y394399D01*
X412433Y391795D01*
X416115D01*
X418719Y394399D01*
Y398081D01*
X416115Y400685D01*
D02*
G37*
G36*
X1153731Y388493D02*
X1150049D01*
X1147445Y385889D01*
Y382207D01*
X1150049Y379603D01*
X1153731D01*
X1156335Y382207D01*
Y385889D01*
X1153731Y388493D01*
D02*
G37*
G36*
X1101407D02*
X1097725D01*
X1095121Y385889D01*
Y382207D01*
X1097725Y379603D01*
X1101407D01*
X1104011Y382207D01*
Y385889D01*
X1101407Y388493D01*
D02*
G37*
G36*
X1809051Y387985D02*
X1805369D01*
X1802765Y385381D01*
Y381699D01*
X1805369Y379095D01*
X1809051D01*
X1811655Y381699D01*
Y385381D01*
X1809051Y387985D01*
D02*
G37*
G36*
X1737677D02*
X1733995D01*
X1731391Y385381D01*
Y381699D01*
X1733995Y379095D01*
X1737677D01*
X1740281Y381699D01*
Y385381D01*
X1737677Y387985D01*
D02*
G37*
G36*
X640905Y387731D02*
X637223D01*
X634619Y385127D01*
Y381445D01*
X637223Y378841D01*
X640905D01*
X643509Y381445D01*
Y385127D01*
X640905Y387731D01*
D02*
G37*
G36*
X598741D02*
X595059D01*
X592455Y385127D01*
Y381445D01*
X595059Y378841D01*
X598741D01*
X601345Y381445D01*
Y385127D01*
X598741Y387731D01*
D02*
G37*
G36*
X1063561Y370459D02*
X1059879D01*
X1057275Y367855D01*
Y364173D01*
X1059879Y361569D01*
X1063561D01*
X1066165Y364173D01*
Y367855D01*
X1063561Y370459D01*
D02*
G37*
G36*
X702627Y366903D02*
X698945D01*
X696341Y364299D01*
Y360617D01*
X698945Y358013D01*
X702627D01*
X705231Y360617D01*
Y364299D01*
X702627Y366903D01*
D02*
G37*
G36*
X484949Y364109D02*
X481267D01*
X478663Y361505D01*
Y357823D01*
X481267Y355219D01*
X484949D01*
X487553Y357823D01*
Y361505D01*
X484949Y364109D01*
D02*
G37*
G36*
X1017079Y360553D02*
X1013397D01*
X1010793Y357949D01*
Y354267D01*
X1013397Y351663D01*
X1017079D01*
X1019683Y354267D01*
Y357949D01*
X1017079Y360553D01*
D02*
G37*
G36*
X1701863Y359537D02*
X1698181D01*
X1695577Y356933D01*
Y353251D01*
X1698181Y350647D01*
X1701863D01*
X1704467Y353251D01*
Y356933D01*
X1701863Y359537D01*
D02*
G37*
G36*
X1193355D02*
X1189673D01*
X1187069Y356933D01*
Y353251D01*
X1189673Y350647D01*
X1193355D01*
X1195959Y353251D01*
Y356933D01*
X1193355Y359537D01*
D02*
G37*
G36*
X1689671Y341249D02*
X1685989D01*
X1683385Y338645D01*
Y334963D01*
X1685989Y332359D01*
X1689671D01*
X1692275Y334963D01*
Y338645D01*
X1689671Y341249D01*
D02*
G37*
G36*
X1749869Y340487D02*
X1746187D01*
X1743583Y337883D01*
Y334201D01*
X1746187Y331597D01*
X1749869D01*
X1752473Y334201D01*
Y337883D01*
X1749869Y340487D01*
D02*
G37*
G36*
X352615Y329565D02*
X348933D01*
X346329Y326961D01*
Y323279D01*
X348933Y320675D01*
X352615D01*
X355219Y323279D01*
Y326961D01*
X352615Y329565D01*
D02*
G37*
G36*
X577913Y329311D02*
X574231D01*
X571627Y326707D01*
Y323025D01*
X574231Y320421D01*
X577913D01*
X580517Y323025D01*
Y326707D01*
X577913Y329311D01*
D02*
G37*
G36*
X523811D02*
X520129D01*
X517525Y326707D01*
Y323025D01*
X520129Y320421D01*
X523811D01*
X526415Y323025D01*
Y326707D01*
X523811Y329311D01*
D02*
G37*
G36*
X394779D02*
X391097D01*
X388493Y326707D01*
Y323025D01*
X391097Y320421D01*
X394779D01*
X397383Y323025D01*
Y326707D01*
X394779Y329311D01*
D02*
G37*
G36*
X945197Y329057D02*
X941515D01*
X938911Y326453D01*
Y322771D01*
X941515Y320167D01*
X945197D01*
X947801Y322771D01*
Y326453D01*
X945197Y329057D01*
D02*
G37*
G36*
X1149896Y316190D02*
X1146772D01*
X1144564Y313982D01*
Y310858D01*
X1146772Y308650D01*
X1149896D01*
X1152104Y310858D01*
Y313982D01*
X1149896Y316190D01*
D02*
G37*
G36*
X96469Y286000D02*
X89203D01*
X84066Y280863D01*
Y273597D01*
X89203Y268460D01*
X96469D01*
X101606Y273597D01*
Y280863D01*
X96469Y286000D01*
D02*
G37*
G36*
X1296708Y249388D02*
X1293584D01*
X1291376Y247180D01*
Y244056D01*
X1293584Y241848D01*
X1296708D01*
X1298916Y244056D01*
Y247180D01*
X1296708Y249388D01*
D02*
G37*
G36*
X55444Y248920D02*
X51236D01*
X48260Y245944D01*
Y241736D01*
X51236Y238760D01*
X55444D01*
X58420Y241736D01*
Y245944D01*
X55444Y248920D01*
D02*
G37*
G36*
X96586Y235614D02*
X89086D01*
X85244Y234022D01*
X83652Y230180D01*
Y222680D01*
X85244Y218838D01*
X89086Y217246D01*
X96586D01*
X100428Y218838D01*
X102020Y222680D01*
Y230180D01*
X100428Y234022D01*
X96586Y235614D01*
D02*
G37*
G36*
X1568673Y260506D02*
X1550447D01*
X1537560Y247619D01*
Y229393D01*
X1550447Y216506D01*
X1568673D01*
X1581560Y229393D01*
Y247619D01*
X1568673Y260506D01*
D02*
G37*
G36*
X805403D02*
X787177D01*
X774290Y247619D01*
Y229393D01*
X787177Y216506D01*
X805403D01*
X818290Y229393D01*
Y247619D01*
X805403Y260506D01*
D02*
G37*
G36*
X1268863Y227960D02*
X1260977D01*
X1255400Y222383D01*
Y214497D01*
X1260977Y208920D01*
X1268863D01*
X1274440Y214497D01*
Y222383D01*
X1268863Y227960D01*
D02*
G37*
G36*
X1243463D02*
X1235577D01*
X1230000Y222383D01*
Y214497D01*
X1235577Y208920D01*
X1243463D01*
X1249040Y214497D01*
Y222383D01*
X1243463Y227960D01*
D02*
G37*
G36*
X1192663D02*
X1184777D01*
X1179200Y222383D01*
Y214497D01*
X1184777Y208920D01*
X1192663D01*
X1198240Y214497D01*
Y222383D01*
X1192663Y227960D01*
D02*
G37*
G36*
X1141863D02*
X1133977D01*
X1128400Y222383D01*
Y214497D01*
X1133977Y208920D01*
X1141863D01*
X1147440Y214497D01*
Y222383D01*
X1141863Y227960D01*
D02*
G37*
G36*
X1116463D02*
X1108577D01*
X1103000Y222383D01*
Y214497D01*
X1108577Y208920D01*
X1116463D01*
X1122040Y214497D01*
Y222383D01*
X1116463Y227960D01*
D02*
G37*
G36*
X1091063D02*
X1083177D01*
X1077600Y222383D01*
Y214497D01*
X1083177Y208920D01*
X1091063D01*
X1096640Y214497D01*
Y222383D01*
X1091063Y227960D01*
D02*
G37*
G36*
X1065663D02*
X1057777D01*
X1052200Y222383D01*
Y214497D01*
X1057777Y208920D01*
X1065663D01*
X1071240Y214497D01*
Y222383D01*
X1065663Y227960D01*
D02*
G37*
G36*
X1040263D02*
X1032377D01*
X1026800Y222383D01*
Y214497D01*
X1032377Y208920D01*
X1040263D01*
X1045840Y214497D01*
Y222383D01*
X1040263Y227960D01*
D02*
G37*
G36*
X1014863D02*
X1006977D01*
X1001400Y222383D01*
Y214497D01*
X1006977Y208920D01*
X1014863D01*
X1020440Y214497D01*
Y222383D01*
X1014863Y227960D01*
D02*
G37*
G36*
X989463D02*
X981577D01*
X976000Y222383D01*
Y214497D01*
X981577Y208920D01*
X989463D01*
X995040Y214497D01*
Y222383D01*
X989463Y227960D01*
D02*
G37*
G36*
X1294445Y228405D02*
X1286195D01*
X1282066Y226694D01*
X1280356Y222565D01*
Y214315D01*
X1282066Y210186D01*
X1286195Y208475D01*
X1294445D01*
X1298574Y210186D01*
X1300284Y214315D01*
Y222565D01*
X1298574Y226694D01*
X1294445Y228405D01*
D02*
G37*
G36*
X1294263Y202560D02*
X1286377D01*
X1280800Y196983D01*
Y189097D01*
X1286377Y183520D01*
X1294263D01*
X1299840Y189097D01*
Y196983D01*
X1294263Y202560D01*
D02*
G37*
G36*
X1268863D02*
X1260977D01*
X1255400Y196983D01*
Y189097D01*
X1260977Y183520D01*
X1268863D01*
X1274440Y189097D01*
Y196983D01*
X1268863Y202560D01*
D02*
G37*
G36*
X1243463D02*
X1235577D01*
X1230000Y196983D01*
Y189097D01*
X1235577Y183520D01*
X1243463D01*
X1249040Y189097D01*
Y196983D01*
X1243463Y202560D01*
D02*
G37*
G36*
X1218063D02*
X1210177D01*
X1204600Y196983D01*
Y189097D01*
X1210177Y183520D01*
X1218063D01*
X1223640Y189097D01*
Y196983D01*
X1218063Y202560D01*
D02*
G37*
G36*
X1192663D02*
X1184777D01*
X1179200Y196983D01*
Y189097D01*
X1184777Y183520D01*
X1192663D01*
X1198240Y189097D01*
Y196983D01*
X1192663Y202560D01*
D02*
G37*
G36*
X1167263D02*
X1159377D01*
X1153800Y196983D01*
Y189097D01*
X1159377Y183520D01*
X1167263D01*
X1172840Y189097D01*
Y196983D01*
X1167263Y202560D01*
D02*
G37*
G36*
X1141863D02*
X1133977D01*
X1128400Y196983D01*
Y189097D01*
X1133977Y183520D01*
X1141863D01*
X1147440Y189097D01*
Y196983D01*
X1141863Y202560D01*
D02*
G37*
G36*
X1116463D02*
X1108577D01*
X1103000Y196983D01*
Y189097D01*
X1108577Y183520D01*
X1116463D01*
X1122040Y189097D01*
Y196983D01*
X1116463Y202560D01*
D02*
G37*
G36*
X1091063D02*
X1083177D01*
X1077600Y196983D01*
Y189097D01*
X1083177Y183520D01*
X1091063D01*
X1096640Y189097D01*
Y196983D01*
X1091063Y202560D01*
D02*
G37*
G36*
X1065663D02*
X1057777D01*
X1052200Y196983D01*
Y189097D01*
X1057777Y183520D01*
X1065663D01*
X1071240Y189097D01*
Y196983D01*
X1065663Y202560D01*
D02*
G37*
G36*
X1040263D02*
X1032377D01*
X1026800Y196983D01*
Y189097D01*
X1032377Y183520D01*
X1040263D01*
X1045840Y189097D01*
Y196983D01*
X1040263Y202560D01*
D02*
G37*
G36*
X989463D02*
X981577D01*
X976000Y196983D01*
Y189097D01*
X981577Y183520D01*
X989463D01*
X995040Y189097D01*
Y196983D01*
X989463Y202560D01*
D02*
G37*
G36*
X1346263Y192405D02*
X1342581D01*
X1339977Y189801D01*
Y186119D01*
X1342581Y183515D01*
X1346263D01*
X1348867Y186119D01*
Y189801D01*
X1346263Y192405D01*
D02*
G37*
G36*
X1898071Y175440D02*
X1891609D01*
X1887040Y170871D01*
Y164409D01*
X1891609Y159840D01*
X1898071D01*
X1902640Y164409D01*
Y170871D01*
X1898071Y175440D01*
D02*
G37*
G36*
X1872671D02*
X1866209D01*
X1861640Y170871D01*
Y164409D01*
X1866209Y159840D01*
X1872671D01*
X1877240Y164409D01*
Y170871D01*
X1872671Y175440D01*
D02*
G37*
G36*
X1847271D02*
X1840809D01*
X1836240Y170871D01*
Y164409D01*
X1840809Y159840D01*
X1847271D01*
X1851840Y164409D01*
Y170871D01*
X1847271Y175440D01*
D02*
G37*
G36*
X1821871D02*
X1815409D01*
X1810840Y170871D01*
Y164409D01*
X1815409Y159840D01*
X1821871D01*
X1826440Y164409D01*
Y170871D01*
X1821871Y175440D01*
D02*
G37*
G36*
X1966912Y177344D02*
X1958912D01*
X1954879Y175674D01*
X1953208Y171640D01*
Y163640D01*
X1954879Y159607D01*
X1958912Y157936D01*
X1966912D01*
X1970945Y159607D01*
X1972616Y163640D01*
Y171640D01*
X1970945Y175674D01*
X1966912Y177344D01*
D02*
G37*
G36*
X1598714Y163536D02*
X1595590D01*
X1593382Y161328D01*
Y158204D01*
X1595590Y155996D01*
X1598714D01*
X1600922Y158204D01*
Y161328D01*
X1598714Y163536D01*
D02*
G37*
G36*
X1185710D02*
X1182586D01*
X1180378Y161328D01*
Y158204D01*
X1182586Y155996D01*
X1185710D01*
X1187918Y158204D01*
Y161328D01*
X1185710Y163536D01*
D02*
G37*
G36*
X1599222Y152106D02*
X1596098D01*
X1593890Y149898D01*
Y146774D01*
X1596098Y144566D01*
X1599222D01*
X1601430Y146774D01*
Y149898D01*
X1599222Y152106D01*
D02*
G37*
G36*
X1190282Y151852D02*
X1187158D01*
X1184950Y149644D01*
Y146520D01*
X1187158Y144312D01*
X1190282D01*
X1192490Y146520D01*
Y149644D01*
X1190282Y151852D01*
D02*
G37*
G36*
X1813725Y150025D02*
X1798155D01*
Y134455D01*
X1813725D01*
Y150025D01*
D02*
G37*
G36*
X1885371Y150040D02*
X1878909D01*
X1874340Y145471D01*
Y139009D01*
X1878909Y134440D01*
X1885371D01*
X1889940Y139009D01*
Y145471D01*
X1885371Y150040D01*
D02*
G37*
G36*
X1859971D02*
X1853509D01*
X1848940Y145471D01*
Y139009D01*
X1853509Y134440D01*
X1859971D01*
X1864540Y139009D01*
Y145471D01*
X1859971Y150040D01*
D02*
G37*
G36*
X1834571D02*
X1828109D01*
X1823540Y145471D01*
Y139009D01*
X1828109Y134440D01*
X1834571D01*
X1839140Y139009D01*
Y145471D01*
X1834571Y150040D01*
D02*
G37*
G36*
X1299473Y142875D02*
X1295791D01*
X1293187Y140271D01*
Y136589D01*
X1295791Y133985D01*
X1299473D01*
X1302077Y136589D01*
Y140271D01*
X1299473Y142875D01*
D02*
G37*
G36*
X1253045D02*
X1249363D01*
X1246759Y140271D01*
Y136589D01*
X1249363Y133985D01*
X1253045D01*
X1255649Y136589D01*
Y140271D01*
X1253045Y142875D01*
D02*
G37*
G36*
X1221295D02*
X1217613D01*
X1215009Y140271D01*
Y136589D01*
X1217613Y133985D01*
X1221295D01*
X1223899Y136589D01*
Y140271D01*
X1221295Y142875D01*
D02*
G37*
G36*
X1966752Y151510D02*
X1959072D01*
X1953642Y146080D01*
Y138400D01*
X1959072Y132970D01*
X1966752D01*
X1972182Y138400D01*
Y146080D01*
X1966752Y151510D01*
D02*
G37*
G36*
X370751Y148124D02*
X363485D01*
X358348Y142987D01*
Y135721D01*
X363485Y130584D01*
X370751D01*
X375888Y135721D01*
Y142987D01*
X370751Y148124D01*
D02*
G37*
G36*
X421668Y148538D02*
X414168D01*
X410326Y146946D01*
X408734Y143104D01*
Y135604D01*
X410326Y131762D01*
X414168Y130170D01*
X421668D01*
X425510Y131762D01*
X427102Y135604D01*
Y143104D01*
X425510Y146946D01*
X421668Y148538D01*
D02*
G37*
G36*
X1371155Y131699D02*
X1367473D01*
X1364869Y129095D01*
Y125413D01*
X1367473Y122809D01*
X1371155D01*
X1373759Y125413D01*
Y129095D01*
X1371155Y131699D01*
D02*
G37*
G36*
X1462087Y129413D02*
X1458405D01*
X1455801Y126809D01*
Y123127D01*
X1458405Y120523D01*
X1462087D01*
X1464691Y123127D01*
Y126809D01*
X1462087Y129413D01*
D02*
G37*
G36*
X790511Y121285D02*
X786829D01*
X784225Y118681D01*
Y114999D01*
X786829Y112395D01*
X790511D01*
X793115Y114999D01*
Y118681D01*
X790511Y121285D01*
D02*
G37*
G36*
X1461833Y108331D02*
X1458151D01*
X1455547Y105727D01*
Y102045D01*
X1458151Y99441D01*
X1461833D01*
X1464437Y102045D01*
Y105727D01*
X1461833Y108331D01*
D02*
G37*
G36*
X1371155Y106045D02*
X1367473D01*
X1364869Y103441D01*
Y99759D01*
X1367473Y97155D01*
X1371155D01*
X1373759Y99759D01*
Y103441D01*
X1371155Y106045D01*
D02*
G37*
G36*
X934529Y99695D02*
X930847D01*
X928243Y97091D01*
Y93409D01*
X930847Y90805D01*
X934529D01*
X937133Y93409D01*
Y97091D01*
X934529Y99695D01*
D02*
G37*
G36*
X882967D02*
X879285D01*
X876681Y97091D01*
Y93409D01*
X879285Y90805D01*
X882967D01*
X885571Y93409D01*
Y97091D01*
X882967Y99695D01*
D02*
G37*
G36*
X2219507Y106538D02*
X2212241D01*
X2207104Y101401D01*
Y94135D01*
X2212241Y88998D01*
X2219507D01*
X2224644Y94135D01*
Y101401D01*
X2219507Y106538D01*
D02*
G37*
G36*
X2270424Y106952D02*
X2262924D01*
X2259082Y105360D01*
X2257490Y101518D01*
Y94018D01*
X2259082Y90176D01*
X2262924Y88584D01*
X2270424D01*
X2274266Y90176D01*
X2275858Y94018D01*
Y101518D01*
X2274266Y105360D01*
X2270424Y106952D01*
D02*
G37*
G36*
X2065496Y110176D02*
X2061496D01*
X2053636Y106920D01*
X2050380Y99060D01*
X2053636Y91200D01*
X2061496Y87944D01*
X2065496D01*
X2073356Y91200D01*
X2076612Y99060D01*
X2073356Y106920D01*
X2065496Y110176D01*
D02*
G37*
G36*
X773214Y86066D02*
X770090D01*
X767882Y83858D01*
Y80734D01*
X770090Y78526D01*
X773214D01*
X775422Y80734D01*
Y83858D01*
X773214Y86066D01*
D02*
G37*
G36*
X754418D02*
X751294D01*
X749086Y83858D01*
Y80734D01*
X751294Y78526D01*
X754418D01*
X756626Y80734D01*
Y83858D01*
X754418Y86066D01*
D02*
G37*
G36*
X1914271Y94990D02*
X1900809D01*
X1891290Y85471D01*
Y72009D01*
X1900809Y62490D01*
X1914271D01*
X1923790Y72009D01*
Y85471D01*
X1914271Y94990D01*
D02*
G37*
G36*
X1799971D02*
X1786509D01*
X1776990Y85471D01*
Y72009D01*
X1786509Y62490D01*
X1799971D01*
X1809490Y72009D01*
Y85471D01*
X1799971Y94990D01*
D02*
G37*
G36*
X1281432Y71960D02*
X1271268D01*
X1264080Y64772D01*
Y54608D01*
X1271268Y47420D01*
X1281432D01*
X1288620Y54608D01*
Y64772D01*
X1281432Y71960D01*
D02*
G37*
G36*
X1243332D02*
X1233168D01*
X1225980Y64772D01*
Y54608D01*
X1233168Y47420D01*
X1243332D01*
X1250520Y54608D01*
Y64772D01*
X1243332Y71960D01*
D02*
G37*
G36*
X1205232D02*
X1195068D01*
X1187880Y64772D01*
Y54608D01*
X1195068Y47420D01*
X1205232D01*
X1212420Y54608D01*
Y64772D01*
X1205232Y71960D01*
D02*
G37*
G36*
X1167132D02*
X1156968D01*
X1149780Y64772D01*
Y54608D01*
X1156968Y47420D01*
X1167132D01*
X1174320Y54608D01*
Y64772D01*
X1167132Y71960D01*
D02*
G37*
G36*
X1099822D02*
X1089658D01*
X1082470Y64772D01*
Y54608D01*
X1089658Y47420D01*
X1099822D01*
X1107010Y54608D01*
Y64772D01*
X1099822Y71960D01*
D02*
G37*
G36*
X1061722D02*
X1051558D01*
X1044370Y64772D01*
Y54608D01*
X1051558Y47420D01*
X1061722D01*
X1068910Y54608D01*
Y64772D01*
X1061722Y71960D01*
D02*
G37*
G36*
X916942D02*
X906778D01*
X899590Y64772D01*
Y54608D01*
X906778Y47420D01*
X916942D01*
X924130Y54608D01*
Y64772D01*
X916942Y71960D01*
D02*
G37*
G36*
X767082D02*
X756918D01*
X749730Y64772D01*
Y54608D01*
X756918Y47420D01*
X767082D01*
X774270Y54608D01*
Y64772D01*
X767082Y71960D01*
D02*
G37*
G36*
X1444790Y51014D02*
X1441666D01*
X1439458Y48806D01*
Y45682D01*
X1441666Y43474D01*
X1444790D01*
X1446998Y45682D01*
Y48806D01*
X1444790Y51014D01*
D02*
G37*
G36*
X2075766Y58530D02*
X2051226D01*
Y37990D01*
X2075766D01*
Y58530D01*
D02*
G37*
G36*
X1369098Y17700D02*
X1365974D01*
X1363766Y15492D01*
Y12368D01*
X1365974Y10160D01*
X1369098D01*
X1371306Y12368D01*
Y15492D01*
X1369098Y17700D01*
D02*
G37*
%LPD*%
D77*
X561746Y542750D02*
D03*
X2001706Y546006D02*
D03*
X1271145Y546133D02*
D03*
D78*
X548241Y556256D02*
D03*
X534735Y569762D02*
D03*
X391830Y1287780D02*
D03*
X1540386D02*
D03*
X851253D02*
D03*
X1770098D02*
D03*
X1999809D02*
D03*
X2229520D02*
D03*
X621541D02*
D03*
X1080964D02*
D03*
X1310675D02*
D03*
X1988200Y559512D02*
D03*
X1974694Y573017D02*
D03*
X1257639Y559639D02*
D03*
X1244134Y573144D02*
D03*
X1087120Y218440D02*
D03*
X1061720D02*
D03*
X1036320D02*
D03*
X985520Y193040D02*
D03*
X1010920D02*
D03*
X985520Y218440D02*
D03*
X1010920D02*
D03*
X1036320Y193040D02*
D03*
X1087120D02*
D03*
X1137920D02*
D03*
Y218440D02*
D03*
X1214120Y193040D02*
D03*
Y218440D02*
D03*
X1239520Y193040D02*
D03*
Y218440D02*
D03*
X1290320Y193040D02*
D03*
X1264920Y218440D02*
D03*
Y193040D02*
D03*
X1188720Y218440D02*
D03*
Y193040D02*
D03*
X1163320Y218440D02*
D03*
Y193040D02*
D03*
X1112520Y218440D02*
D03*
Y193040D02*
D03*
X1061720D02*
D03*
D79*
X632245Y766153D02*
D03*
X630307Y753949D02*
D03*
X675223Y709033D02*
D03*
X758138Y640260D02*
D03*
X734563Y643584D02*
D03*
X745933Y638323D02*
D03*
X725137Y653009D02*
D03*
X701018Y683238D02*
D03*
X706279Y671868D02*
D03*
X715705Y662442D02*
D03*
X702955Y695443D02*
D03*
X687427Y710971D02*
D03*
X663852Y714294D02*
D03*
X654427Y723720D02*
D03*
X644994Y733153D02*
D03*
X635568Y742578D02*
D03*
X698105Y731915D02*
D03*
X692844Y743286D02*
D03*
X683418Y752711D02*
D03*
X673985Y762144D02*
D03*
X664560Y771570D02*
D03*
X653189Y776831D02*
D03*
X640985Y774893D02*
D03*
X723900Y706120D02*
D03*
X735270Y700859D02*
D03*
X744696Y691433D02*
D03*
X754129Y682001D02*
D03*
X763555Y672575D02*
D03*
X768815Y661205D02*
D03*
X766878Y649000D02*
D03*
X711695Y704183D02*
D03*
X696167Y719711D02*
D03*
X2072204Y769409D02*
D03*
X2070267Y757205D02*
D03*
X2115182Y712289D02*
D03*
X2198098Y643516D02*
D03*
X2174523Y646839D02*
D03*
X2185893Y641578D02*
D03*
X2165097Y656265D02*
D03*
X2140978Y686494D02*
D03*
X2146239Y675124D02*
D03*
X2155664Y665698D02*
D03*
X2142915Y698699D02*
D03*
X2127387Y714227D02*
D03*
X2103812Y717550D02*
D03*
X2094386Y726976D02*
D03*
X2084953Y736408D02*
D03*
X2075528Y745834D02*
D03*
X2138064Y735171D02*
D03*
X2132803Y746541D02*
D03*
X2123378Y755967D02*
D03*
X2113945Y765400D02*
D03*
X2104519Y774826D02*
D03*
X2093149Y780086D02*
D03*
X2080944Y778149D02*
D03*
X2163860Y709376D02*
D03*
X2175230Y704115D02*
D03*
X2184656Y694689D02*
D03*
X2194088Y685256D02*
D03*
X2203514Y675831D02*
D03*
X2208775Y664460D02*
D03*
X2206837Y652256D02*
D03*
X2151655Y707438D02*
D03*
X2136127Y722966D02*
D03*
X1341644Y769536D02*
D03*
X1339706Y757331D02*
D03*
X1384621Y712416D02*
D03*
X1467537Y643643D02*
D03*
X1443962Y646966D02*
D03*
X1455332Y641705D02*
D03*
X1434536Y656392D02*
D03*
X1410417Y686621D02*
D03*
X1415678Y675250D02*
D03*
X1425103Y665825D02*
D03*
X1412354Y698826D02*
D03*
X1396826Y714353D02*
D03*
X1373251Y717677D02*
D03*
X1363826Y727103D02*
D03*
X1354393Y736535D02*
D03*
X1344967Y745961D02*
D03*
X1407504Y735298D02*
D03*
X1402243Y746668D02*
D03*
X1392817Y756094D02*
D03*
X1383384Y765527D02*
D03*
X1373958Y774953D02*
D03*
X1362588Y780213D02*
D03*
X1350383Y778276D02*
D03*
X1433299Y709503D02*
D03*
X1444669Y704242D02*
D03*
X1454095Y694816D02*
D03*
X1463528Y685383D02*
D03*
X1472953Y675958D02*
D03*
X1478214Y664587D02*
D03*
X1476277Y652383D02*
D03*
X1421094Y707565D02*
D03*
X1405566Y723093D02*
D03*
D81*
X316830Y1287780D02*
D03*
X1465386D02*
D03*
X776253D02*
D03*
X1695098D02*
D03*
X1924809D02*
D03*
X2154520D02*
D03*
X546541D02*
D03*
X1005964D02*
D03*
X1235675D02*
D03*
X1290320Y218440D02*
D03*
D82*
X1805940Y142240D02*
D03*
D83*
X1818640Y167640D02*
D03*
X1831340Y142240D02*
D03*
X1844040Y167640D02*
D03*
X1856740Y142240D02*
D03*
X1869440Y167640D02*
D03*
X1882140Y142240D02*
D03*
X1894840Y167640D02*
D03*
D84*
X1793240Y78740D02*
D03*
X1907540D02*
D03*
D85*
X1769140Y48240D02*
D03*
X1931640D02*
D03*
D86*
X200406Y1155446D02*
D03*
X189992D02*
D03*
Y1145540D02*
D03*
X200406D02*
D03*
X189992Y1136650D02*
D03*
X200406D02*
D03*
X189992Y1127760D02*
D03*
X200406D02*
D03*
X189992Y1118870D02*
D03*
X200406D02*
D03*
X189992Y1109980D02*
D03*
X200406D02*
D03*
X189992Y1101090D02*
D03*
X200406D02*
D03*
X1820171Y828548D02*
D03*
X1854501D02*
D03*
X1863083D02*
D03*
X1845918D02*
D03*
X1828753D02*
D03*
X1837336D02*
D03*
X1794423Y828802D02*
D03*
X1803006D02*
D03*
X1130855D02*
D03*
X1122272D02*
D03*
X1811588D02*
D03*
X1139437D02*
D03*
X1105107D02*
D03*
X1096525D02*
D03*
X1113690D02*
D03*
X1987141Y829056D02*
D03*
X1909904D02*
D03*
X1918486D02*
D03*
X1969980D02*
D03*
X1978560D02*
D03*
X1927069D02*
D03*
X1952816D02*
D03*
X1961399D02*
D03*
X1935651D02*
D03*
X1944234D02*
D03*
X1231204D02*
D03*
X1248365D02*
D03*
X1214039D02*
D03*
X1222621D02*
D03*
X1239785D02*
D03*
X1481494D02*
D03*
X1498655D02*
D03*
X1490074D02*
D03*
X1256946D02*
D03*
X1205456D02*
D03*
X1079360D02*
D03*
X1087942D02*
D03*
X1062195D02*
D03*
X1070777D02*
D03*
X1196874D02*
D03*
X1188291D02*
D03*
X1179709D02*
D03*
X1446896Y829310D02*
D03*
X1438314D02*
D03*
X1472644D02*
D03*
X1386840D02*
D03*
X1455479D02*
D03*
X1464061D02*
D03*
X1343640Y829437D02*
D03*
X1352222D02*
D03*
X1360805D02*
D03*
X1335058D02*
D03*
X1377967D02*
D03*
X1369386D02*
D03*
X1326475D02*
D03*
X358655Y829056D02*
D03*
X367237D02*
D03*
X491466D02*
D03*
X482883D02*
D03*
X474301D02*
D03*
X500048D02*
D03*
X508629D02*
D03*
X517210D02*
D03*
X525791D02*
D03*
X392985D02*
D03*
X384402D02*
D03*
X375820D02*
D03*
X401567D02*
D03*
X465718D02*
D03*
X457136D02*
D03*
X448553D02*
D03*
X637993Y829310D02*
D03*
X734511D02*
D03*
X708763D02*
D03*
X717346D02*
D03*
X725928D02*
D03*
X332907D02*
D03*
X743093D02*
D03*
X760255D02*
D03*
X751674D02*
D03*
X341490D02*
D03*
X350072D02*
D03*
X768836D02*
D03*
X595082D02*
D03*
X629412D02*
D03*
X646573D02*
D03*
X612247D02*
D03*
X603664D02*
D03*
X620829D02*
D03*
X655154D02*
D03*
X2168026Y831596D02*
D03*
X2228099D02*
D03*
X2116339D02*
D03*
X2090596D02*
D03*
X2099177D02*
D03*
X2107758D02*
D03*
X2082014D02*
D03*
X2056266D02*
D03*
X2064849D02*
D03*
X2073431D02*
D03*
X2219518D02*
D03*
X2185191D02*
D03*
X2176609D02*
D03*
X2210937D02*
D03*
X2202356D02*
D03*
X2193774D02*
D03*
X1863267Y837438D02*
D03*
X1811782D02*
D03*
X1803201D02*
D03*
X1794620D02*
D03*
X1846105D02*
D03*
X1820363D02*
D03*
X1828944D02*
D03*
X1854686D02*
D03*
X1837524D02*
D03*
X1122459Y837692D02*
D03*
X1105298D02*
D03*
X1070974D02*
D03*
X1062394D02*
D03*
X1113878D02*
D03*
X1079555D02*
D03*
X1139621D02*
D03*
X1088136D02*
D03*
X1096717D02*
D03*
X1131040D02*
D03*
X1239951Y837946D02*
D03*
X1918661D02*
D03*
X1910080D02*
D03*
X1231370D02*
D03*
X1179885D02*
D03*
X1961565D02*
D03*
X1188466D02*
D03*
X1978726D02*
D03*
X1987307D02*
D03*
X1248531D02*
D03*
X1970146D02*
D03*
X1257112D02*
D03*
X1498600Y838200D02*
D03*
X1490019D02*
D03*
X1214208D02*
D03*
X1205628D02*
D03*
X1197047D02*
D03*
X1481438D02*
D03*
X1326554D02*
D03*
X1335134D02*
D03*
X1472858D02*
D03*
X1352296D02*
D03*
X1343715D02*
D03*
X1222789D02*
D03*
X1378204D02*
D03*
X1369568D02*
D03*
X1446894D02*
D03*
X1360932D02*
D03*
X1438314D02*
D03*
X1386840D02*
D03*
X1952984D02*
D03*
X1455475D02*
D03*
X1464056D02*
D03*
X1927242D02*
D03*
X1935822D02*
D03*
X1944403D02*
D03*
X358847Y837946D02*
D03*
X367428D02*
D03*
X350266D02*
D03*
X393170D02*
D03*
X401751D02*
D03*
X333104D02*
D03*
X376008D02*
D03*
X341685D02*
D03*
X457310D02*
D03*
X448730D02*
D03*
X508795D02*
D03*
X500214D02*
D03*
X525957D02*
D03*
X517376D02*
D03*
X384589D02*
D03*
X760421Y838200D02*
D03*
X751840D02*
D03*
X655320D02*
D03*
X769002D02*
D03*
X646739D02*
D03*
X629578D02*
D03*
X474472D02*
D03*
X638158D02*
D03*
X491634D02*
D03*
X743259D02*
D03*
X483053D02*
D03*
X465891D02*
D03*
X717517Y838454D02*
D03*
X708936D02*
D03*
X734678D02*
D03*
X726098D02*
D03*
X603835D02*
D03*
X595255D02*
D03*
X620997D02*
D03*
X612416D02*
D03*
X2099343Y840486D02*
D03*
X2090762D02*
D03*
X2116505D02*
D03*
X2107924D02*
D03*
X2211103D02*
D03*
X2202522D02*
D03*
X2228265D02*
D03*
X2219684D02*
D03*
X2193942Y840740D02*
D03*
X2185361D02*
D03*
X2073601D02*
D03*
X2082182D02*
D03*
X2056439D02*
D03*
X2065020D02*
D03*
X2176780D02*
D03*
X2168199D02*
D03*
X2178904Y856740D02*
D03*
X2170175D02*
D03*
X2115916D02*
D03*
X2107188D02*
D03*
X2161447D02*
D03*
X2205089D02*
D03*
X2196361D02*
D03*
X2152719D02*
D03*
X2213817D02*
D03*
X2124483D02*
D03*
X2046089D02*
D03*
X2037361D02*
D03*
X2063546D02*
D03*
X2054818D02*
D03*
X2098459D02*
D03*
X2072274D02*
D03*
X2133373D02*
D03*
X2089731D02*
D03*
X2081003D02*
D03*
X2187632D02*
D03*
X2231274D02*
D03*
X2222546D02*
D03*
X2248731D02*
D03*
X2239841D02*
D03*
X761608Y856740D02*
D03*
X646250D02*
D03*
X778903D02*
D03*
X770336D02*
D03*
X654978D02*
D03*
X611336D02*
D03*
X620065D02*
D03*
X663545D02*
D03*
X672435D02*
D03*
X700509D02*
D03*
X691781D02*
D03*
X717966D02*
D03*
X709238D02*
D03*
X752879D02*
D03*
X726694D02*
D03*
X787793D02*
D03*
X744151D02*
D03*
X735423D02*
D03*
X585151D02*
D03*
X593880D02*
D03*
X602608D02*
D03*
X628793D02*
D03*
X637522D02*
D03*
X576423D02*
D03*
X1422158Y856867D02*
D03*
X1483257D02*
D03*
X1491985D02*
D03*
X1393922D02*
D03*
X1385355D02*
D03*
X1376627D02*
D03*
X1518170D02*
D03*
X1500713D02*
D03*
X1509280D02*
D03*
X1474528D02*
D03*
X1465800D02*
D03*
X1457071D02*
D03*
X1332985D02*
D03*
X1324257D02*
D03*
X1315528D02*
D03*
X1430886D02*
D03*
X1439615D02*
D03*
X1448343D02*
D03*
X1350442D02*
D03*
X1341714D02*
D03*
X1402812D02*
D03*
X1306800D02*
D03*
X1367899D02*
D03*
X1359170D02*
D03*
X2133373Y866138D02*
D03*
X2072274D02*
D03*
X2081003D02*
D03*
X2231274D02*
D03*
X2240002D02*
D03*
X2222546D02*
D03*
X2063546D02*
D03*
X2046089D02*
D03*
X2054818D02*
D03*
X2089731D02*
D03*
X2098459D02*
D03*
X2037361D02*
D03*
X2178904D02*
D03*
X2170175D02*
D03*
X2161447D02*
D03*
X2124644D02*
D03*
X2115916D02*
D03*
X2107188D02*
D03*
X2196361D02*
D03*
X2187632D02*
D03*
X2248731D02*
D03*
X2152719D02*
D03*
X2213817D02*
D03*
X2205089D02*
D03*
X672435Y866138D02*
D03*
X611336D02*
D03*
X620065D02*
D03*
X646250D02*
D03*
X654978D02*
D03*
X663707D02*
D03*
X585151D02*
D03*
X593880D02*
D03*
X602608D02*
D03*
X628793D02*
D03*
X637522D02*
D03*
X576423D02*
D03*
X735423D02*
D03*
X726694D02*
D03*
X752879D02*
D03*
X744151D02*
D03*
X770336D02*
D03*
X761608D02*
D03*
X787793D02*
D03*
X779064D02*
D03*
X691781D02*
D03*
X717966D02*
D03*
X709238D02*
D03*
X700509D02*
D03*
X1422158Y866265D02*
D03*
X1483257D02*
D03*
X1474528D02*
D03*
X1448343D02*
D03*
X1439615D02*
D03*
X1430886D02*
D03*
X1509442D02*
D03*
X1518170D02*
D03*
X1457071D02*
D03*
X1465800D02*
D03*
X1491985D02*
D03*
X1500713D02*
D03*
X1402812D02*
D03*
X1341714D02*
D03*
X1350442D02*
D03*
X1376627D02*
D03*
X1385355D02*
D03*
X1394084D02*
D03*
X1315528D02*
D03*
X1324257D02*
D03*
X1332985D02*
D03*
X1306800D02*
D03*
X1367899D02*
D03*
X1359170D02*
D03*
X2196361Y875536D02*
D03*
X2205089D02*
D03*
X2187632D02*
D03*
X2240002D02*
D03*
X2248731D02*
D03*
X2170175D02*
D03*
X2178904D02*
D03*
X2161447D02*
D03*
X2213817D02*
D03*
X2152719D02*
D03*
X2107188D02*
D03*
X2054818D02*
D03*
X2046089D02*
D03*
X2037361D02*
D03*
X2222546D02*
D03*
X2231274D02*
D03*
X2063546D02*
D03*
X2098459D02*
D03*
X2133373D02*
D03*
X2072274D02*
D03*
X2115916D02*
D03*
X2124644D02*
D03*
X2089731D02*
D03*
X2081003D02*
D03*
X593880Y875536D02*
D03*
X654978D02*
D03*
X585151D02*
D03*
X646250D02*
D03*
X602608D02*
D03*
X611336D02*
D03*
X620065D02*
D03*
X663707D02*
D03*
X672435D02*
D03*
X787793D02*
D03*
X779064D02*
D03*
X735423D02*
D03*
X726694D02*
D03*
X770336D02*
D03*
X637522D02*
D03*
X628793D02*
D03*
X761608D02*
D03*
X576423D02*
D03*
X744151D02*
D03*
X691781D02*
D03*
X709238D02*
D03*
X700509D02*
D03*
X717966D02*
D03*
X752879D02*
D03*
X1448343Y875663D02*
D03*
X1385355D02*
D03*
X1376627D02*
D03*
X1341714D02*
D03*
X1483257D02*
D03*
X1402812D02*
D03*
X1394084D02*
D03*
X1474528D02*
D03*
X1457071D02*
D03*
X1500713D02*
D03*
X1518170D02*
D03*
X1509442D02*
D03*
X1491985D02*
D03*
X1430886D02*
D03*
X1439615D02*
D03*
X1465800D02*
D03*
X1422158D02*
D03*
X1306800D02*
D03*
X1367899D02*
D03*
X1359170D02*
D03*
X1332985D02*
D03*
X1324257D02*
D03*
X1315528D02*
D03*
X1350442D02*
D03*
X2240002Y884934D02*
D03*
X2248731D02*
D03*
X2231274D02*
D03*
X2063546D02*
D03*
X2222546D02*
D03*
X2213817D02*
D03*
X2152719D02*
D03*
X2205089D02*
D03*
X2187632D02*
D03*
X2196361D02*
D03*
X2054818D02*
D03*
X2133373D02*
D03*
X2072274D02*
D03*
X2124644D02*
D03*
X2107188D02*
D03*
X2115916D02*
D03*
X2037361D02*
D03*
X2046089D02*
D03*
X2098459D02*
D03*
X2081003D02*
D03*
X2089731D02*
D03*
X2170175D02*
D03*
X2178904D02*
D03*
X2161447D02*
D03*
X779064Y884934D02*
D03*
X770336D02*
D03*
X620065D02*
D03*
X726694D02*
D03*
X628793D02*
D03*
X787793D02*
D03*
X654978D02*
D03*
X672435D02*
D03*
X663707D02*
D03*
X761608D02*
D03*
X611336D02*
D03*
X646250D02*
D03*
X691781D02*
D03*
X576423D02*
D03*
X752879D02*
D03*
X593880D02*
D03*
X585151D02*
D03*
X602608D02*
D03*
X700509D02*
D03*
X709238D02*
D03*
X717966D02*
D03*
X744151D02*
D03*
X637522D02*
D03*
X735423D02*
D03*
X1500713Y885061D02*
D03*
X1509442D02*
D03*
X1332985D02*
D03*
X1491985D02*
D03*
X1518170D02*
D03*
X1474528D02*
D03*
X1483257D02*
D03*
X1457071D02*
D03*
X1465800D02*
D03*
X1324257D02*
D03*
X1402812D02*
D03*
X1341714D02*
D03*
X1385355D02*
D03*
X1394084D02*
D03*
X1350442D02*
D03*
X1306800D02*
D03*
X1315528D02*
D03*
X1359170D02*
D03*
X1367899D02*
D03*
X1430886D02*
D03*
X1439615D02*
D03*
X1448343D02*
D03*
X1422158D02*
D03*
X1376627D02*
D03*
X473202Y889000D02*
D03*
X481838D02*
D03*
X498602D02*
D03*
X490220D02*
D03*
X448056D02*
D03*
X456438D02*
D03*
X464820D02*
D03*
X1195578Y889254D02*
D03*
X1910080D02*
D03*
X1918716D02*
D03*
X1969516D02*
D03*
X1961134D02*
D03*
X1952498D02*
D03*
X1178814D02*
D03*
X1187196D02*
D03*
X1977898D02*
D03*
X1944116D02*
D03*
X1927352D02*
D03*
X1935734D02*
D03*
X1206208Y889381D02*
D03*
X1214844D02*
D03*
X1231608D02*
D03*
X1223226D02*
D03*
X2107188Y894332D02*
D03*
X2115916D02*
D03*
X2046089D02*
D03*
X2054818D02*
D03*
X2063546D02*
D03*
X2081003D02*
D03*
X2089731D02*
D03*
X2098459D02*
D03*
X2124644D02*
D03*
X2133373D02*
D03*
X2072274D02*
D03*
X2152719D02*
D03*
X2222546D02*
D03*
X2231274D02*
D03*
X2178904D02*
D03*
X2170175D02*
D03*
X2161447D02*
D03*
X2240002D02*
D03*
X2037361D02*
D03*
X2213817D02*
D03*
X2205089D02*
D03*
X2248731D02*
D03*
X2187632D02*
D03*
X2196361D02*
D03*
X654978Y894332D02*
D03*
X646250D02*
D03*
X663707D02*
D03*
X611336D02*
D03*
X672435D02*
D03*
X735423D02*
D03*
X744151D02*
D03*
X787793D02*
D03*
X726694D02*
D03*
X752879D02*
D03*
X709238D02*
D03*
X717966D02*
D03*
X691781D02*
D03*
X700509D02*
D03*
X779064D02*
D03*
X637522D02*
D03*
X576423D02*
D03*
X620065D02*
D03*
X628793D02*
D03*
X585151D02*
D03*
X761608D02*
D03*
X770336D02*
D03*
X593880D02*
D03*
X602608D02*
D03*
X1465800Y894459D02*
D03*
X1474528D02*
D03*
X1439615D02*
D03*
X1448343D02*
D03*
X1315528D02*
D03*
X1306800D02*
D03*
X1332985D02*
D03*
X1324257D02*
D03*
X1491985D02*
D03*
X1500713D02*
D03*
X1422158D02*
D03*
X1483257D02*
D03*
X1457071D02*
D03*
X1430886D02*
D03*
X1509442D02*
D03*
X1518170D02*
D03*
X1394084D02*
D03*
X1402812D02*
D03*
X1376627D02*
D03*
X1385355D02*
D03*
X1359170D02*
D03*
X1367899D02*
D03*
X1341714D02*
D03*
X1350442D02*
D03*
X2046089Y903730D02*
D03*
X2037361D02*
D03*
X2063546D02*
D03*
X2054818D02*
D03*
X2098459D02*
D03*
X2213817D02*
D03*
X2205089D02*
D03*
X2107188D02*
D03*
X2115916D02*
D03*
X2124644D02*
D03*
X2187632D02*
D03*
X2248731D02*
D03*
X2240002D02*
D03*
X2196361D02*
D03*
X2152719D02*
D03*
X2222546D02*
D03*
X2231274D02*
D03*
X2089731D02*
D03*
X2081003D02*
D03*
X2072274D02*
D03*
X2170175D02*
D03*
X2161447D02*
D03*
X2133373D02*
D03*
X2178904D02*
D03*
X602608Y903730D02*
D03*
X585151D02*
D03*
X593880D02*
D03*
X761608D02*
D03*
X770336D02*
D03*
X779064D02*
D03*
X576423D02*
D03*
X744151D02*
D03*
X752879D02*
D03*
X726694D02*
D03*
X735423D02*
D03*
X709238D02*
D03*
X717966D02*
D03*
X691781D02*
D03*
X700509D02*
D03*
X787793D02*
D03*
X620065D02*
D03*
X611336D02*
D03*
X637522D02*
D03*
X628793D02*
D03*
X654978D02*
D03*
X646250D02*
D03*
X672435D02*
D03*
X663707D02*
D03*
X1500713Y903857D02*
D03*
X1491985D02*
D03*
X1402812D02*
D03*
X1341714D02*
D03*
X1350442D02*
D03*
X1376627D02*
D03*
X1385355D02*
D03*
X1394084D02*
D03*
X1315528D02*
D03*
X1324257D02*
D03*
X1332985D02*
D03*
X1359170D02*
D03*
X1367899D02*
D03*
X1306800D02*
D03*
X1509442D02*
D03*
X1422158D02*
D03*
X1483257D02*
D03*
X1430886D02*
D03*
X1448343D02*
D03*
X1439615D02*
D03*
X1457071D02*
D03*
X1518170D02*
D03*
X1465800D02*
D03*
X1474528D02*
D03*
X2213817Y913128D02*
D03*
X2205089D02*
D03*
X2152719D02*
D03*
X2178904D02*
D03*
X2046089D02*
D03*
X2161447D02*
D03*
X2170175D02*
D03*
X2231274D02*
D03*
X2054818D02*
D03*
X2063546D02*
D03*
X2222546D02*
D03*
X2187632D02*
D03*
X2196361D02*
D03*
X2240002D02*
D03*
X2248731D02*
D03*
X2037361D02*
D03*
X2124644D02*
D03*
X2133373D02*
D03*
X2107188D02*
D03*
X2115916D02*
D03*
X2089731D02*
D03*
X2098459D02*
D03*
X2072274D02*
D03*
X2081003D02*
D03*
X700509Y913128D02*
D03*
X752879D02*
D03*
X691781D02*
D03*
X602608D02*
D03*
X717966D02*
D03*
X709238D02*
D03*
X744151D02*
D03*
X779064D02*
D03*
X770336D02*
D03*
X761608D02*
D03*
X735423D02*
D03*
X726694D02*
D03*
X787793D02*
D03*
X611336D02*
D03*
X620065D02*
D03*
X628793D02*
D03*
X672435D02*
D03*
X663707D02*
D03*
X654978D02*
D03*
X637522D02*
D03*
X585151D02*
D03*
X593880D02*
D03*
X646250D02*
D03*
X576423D02*
D03*
X1439615Y913255D02*
D03*
X1448343D02*
D03*
X1430886D02*
D03*
X1341714D02*
D03*
X1350442D02*
D03*
X1359170D02*
D03*
X1376627D02*
D03*
X1394084D02*
D03*
X1402812D02*
D03*
X1324257D02*
D03*
X1332985D02*
D03*
X1491985D02*
D03*
X1367899D02*
D03*
X1306800D02*
D03*
X1315528D02*
D03*
X1518170D02*
D03*
X1457071D02*
D03*
X1500713D02*
D03*
X1509442D02*
D03*
X1483257D02*
D03*
X1422158D02*
D03*
X1465800D02*
D03*
X1474528D02*
D03*
X1384808Y914146D02*
D03*
X2205089Y922526D02*
D03*
X2213817D02*
D03*
X2187632D02*
D03*
X2196361D02*
D03*
X2098459D02*
D03*
X2178904D02*
D03*
X2170175D02*
D03*
X2152719D02*
D03*
X2161447D02*
D03*
X2248731D02*
D03*
X2063546D02*
D03*
X2054818D02*
D03*
X2046089D02*
D03*
X2133373D02*
D03*
X2089731D02*
D03*
X2081003D02*
D03*
X2072274D02*
D03*
X2222546D02*
D03*
X2231274D02*
D03*
X2240002D02*
D03*
X2107188D02*
D03*
X2037361D02*
D03*
X2124644D02*
D03*
X2115916D02*
D03*
X691781Y922526D02*
D03*
X752879D02*
D03*
X744151D02*
D03*
X717966D02*
D03*
X709238D02*
D03*
X700509D02*
D03*
X779064D02*
D03*
X770336D02*
D03*
X761608D02*
D03*
X735423D02*
D03*
X726694D02*
D03*
X787793D02*
D03*
X576423D02*
D03*
X637522D02*
D03*
X628793D02*
D03*
X602608D02*
D03*
X593880D02*
D03*
X585151D02*
D03*
X620065D02*
D03*
X654978D02*
D03*
X646250D02*
D03*
X663707D02*
D03*
X611336D02*
D03*
X672435D02*
D03*
X1332985Y922653D02*
D03*
X1324257D02*
D03*
X1439615D02*
D03*
X1448343D02*
D03*
X1315528D02*
D03*
X1359170D02*
D03*
X1350442D02*
D03*
X1306800D02*
D03*
X1367899D02*
D03*
X1430886D02*
D03*
X1509442D02*
D03*
X1518170D02*
D03*
X1491985D02*
D03*
X1500713D02*
D03*
X1457071D02*
D03*
X1483257D02*
D03*
X1422158D02*
D03*
X1465800D02*
D03*
X1474528D02*
D03*
X1385355D02*
D03*
X1376627D02*
D03*
X1394084D02*
D03*
X1341714D02*
D03*
X1402812D02*
D03*
X1836604Y929894D02*
D03*
X1819147D02*
D03*
X1810419D02*
D03*
X1870276D02*
D03*
X1861548D02*
D03*
X1887733D02*
D03*
X1879004D02*
D03*
X1827875D02*
D03*
X1792962D02*
D03*
X1749320D02*
D03*
X1801690D02*
D03*
X1740592D02*
D03*
X1758049D02*
D03*
X1766777D02*
D03*
X1784234D02*
D03*
X1775505D02*
D03*
X1922646D02*
D03*
X1948831D02*
D03*
X1940103D02*
D03*
X1931375D02*
D03*
X1957560D02*
D03*
X1905189D02*
D03*
X1913918D02*
D03*
X1896461D02*
D03*
X461708Y929894D02*
D03*
X452980D02*
D03*
X444251D02*
D03*
X400610D02*
D03*
X409338D02*
D03*
X418066D02*
D03*
X479165D02*
D03*
X426795D02*
D03*
X470436D02*
D03*
X435523D02*
D03*
X496622D02*
D03*
X487893D02*
D03*
X323296D02*
D03*
X314567D02*
D03*
X340752D02*
D03*
X332024D02*
D03*
X358209D02*
D03*
X349481D02*
D03*
X375666D02*
D03*
X366937D02*
D03*
X288382D02*
D03*
X297111D02*
D03*
X305839D02*
D03*
X279654D02*
D03*
X1071130Y930021D02*
D03*
X1044944D02*
D03*
X1062401D02*
D03*
X1226999D02*
D03*
X1200814D02*
D03*
X1018759D02*
D03*
X1218270D02*
D03*
X1010031D02*
D03*
X1097315D02*
D03*
X1088586D02*
D03*
X1053673D02*
D03*
X1079858D02*
D03*
X1027488D02*
D03*
X1036216D02*
D03*
X1183357D02*
D03*
X1130987D02*
D03*
X1106043D02*
D03*
X1209542D02*
D03*
X1165900D02*
D03*
X1157172D02*
D03*
X1148444D02*
D03*
X1139715D02*
D03*
X1192085D02*
D03*
X1174629D02*
D03*
X2081003Y931924D02*
D03*
X2089731D02*
D03*
X2178904D02*
D03*
X2161447D02*
D03*
X2170175D02*
D03*
X2054818D02*
D03*
X2063546D02*
D03*
X2046089D02*
D03*
X2098459D02*
D03*
X2037361D02*
D03*
X2222546D02*
D03*
X2107188D02*
D03*
X2115916D02*
D03*
X2231274D02*
D03*
X2187632D02*
D03*
X2248731D02*
D03*
X2240002D02*
D03*
X2124644D02*
D03*
X2133373D02*
D03*
X2072274D02*
D03*
X2152719D02*
D03*
X2196361D02*
D03*
X2205089D02*
D03*
X2213817D02*
D03*
X672435Y931924D02*
D03*
X611336D02*
D03*
X620065D02*
D03*
X646250D02*
D03*
X654978D02*
D03*
X663707D02*
D03*
X585151D02*
D03*
X593880D02*
D03*
X602608D02*
D03*
X628793D02*
D03*
X637522D02*
D03*
X576423D02*
D03*
X787793D02*
D03*
X726694D02*
D03*
X735423D02*
D03*
X761608D02*
D03*
X770336D02*
D03*
X779064D02*
D03*
X700509D02*
D03*
X709238D02*
D03*
X717966D02*
D03*
X744151D02*
D03*
X752879D02*
D03*
X691781D02*
D03*
X1439615Y932051D02*
D03*
X1430886D02*
D03*
X1422158D02*
D03*
X1491985D02*
D03*
X1500713D02*
D03*
X1448343D02*
D03*
X1457071D02*
D03*
X1518170D02*
D03*
X1509442D02*
D03*
X1483257D02*
D03*
X1474528D02*
D03*
X1465800D02*
D03*
X1402812D02*
D03*
X1341714D02*
D03*
X1350442D02*
D03*
X1376627D02*
D03*
X1385355D02*
D03*
X1394084D02*
D03*
X1315528D02*
D03*
X1324257D02*
D03*
X1332985D02*
D03*
X1359170D02*
D03*
X1367899D02*
D03*
X1306800D02*
D03*
X1810419Y939292D02*
D03*
X1896461D02*
D03*
X1905189D02*
D03*
X1957560D02*
D03*
X1940103D02*
D03*
X1948831D02*
D03*
X1913918D02*
D03*
X1879004D02*
D03*
X1887733D02*
D03*
X1870276D02*
D03*
X1922646D02*
D03*
X1861548D02*
D03*
X1931375D02*
D03*
X1775505D02*
D03*
X1784234D02*
D03*
X1836604D02*
D03*
X1819147D02*
D03*
X1827875D02*
D03*
X1792962D02*
D03*
X1758049D02*
D03*
X1766777D02*
D03*
X1749320D02*
D03*
X1801690D02*
D03*
X1740592D02*
D03*
X279654Y939292D02*
D03*
X340752D02*
D03*
X332024D02*
D03*
X305839D02*
D03*
X297111D02*
D03*
X288382D02*
D03*
X366937D02*
D03*
X358209D02*
D03*
X349481D02*
D03*
X323296D02*
D03*
X314567D02*
D03*
X375666D02*
D03*
X496622D02*
D03*
X435523D02*
D03*
X444251D02*
D03*
X470436D02*
D03*
X479165D02*
D03*
X487893D02*
D03*
X409338D02*
D03*
X418066D02*
D03*
X426795D02*
D03*
X452980D02*
D03*
X461708D02*
D03*
X400610D02*
D03*
X1226999Y939419D02*
D03*
X1010031D02*
D03*
X1018759D02*
D03*
X1183357D02*
D03*
X1200814D02*
D03*
X1209542D02*
D03*
X1062401D02*
D03*
X1097315D02*
D03*
X1088586D02*
D03*
X1071130D02*
D03*
X1079858D02*
D03*
X1106043D02*
D03*
X1053673D02*
D03*
X1192085D02*
D03*
X1218270D02*
D03*
X1036216D02*
D03*
X1044944D02*
D03*
X1027488D02*
D03*
X1157172D02*
D03*
X1165900D02*
D03*
X1174629D02*
D03*
X1130987D02*
D03*
X1139715D02*
D03*
X1148444D02*
D03*
X1913918Y948690D02*
D03*
X1905189D02*
D03*
X1922646D02*
D03*
X1870276D02*
D03*
X1861548D02*
D03*
X1940103D02*
D03*
X1931375D02*
D03*
X1948831D02*
D03*
X1896461D02*
D03*
X1957560D02*
D03*
X1758049D02*
D03*
X1749320D02*
D03*
X1766777D02*
D03*
X1810419D02*
D03*
X1819147D02*
D03*
X1887733D02*
D03*
X1879004D02*
D03*
X1792962D02*
D03*
X1740592D02*
D03*
X1801690D02*
D03*
X1775505D02*
D03*
X1836604D02*
D03*
X1827875D02*
D03*
X1784234D02*
D03*
X279654Y948690D02*
D03*
X288382D02*
D03*
X444251D02*
D03*
X496622D02*
D03*
X435523D02*
D03*
X452980D02*
D03*
X409338D02*
D03*
X418066D02*
D03*
X426795D02*
D03*
X340752D02*
D03*
X461708D02*
D03*
X400610D02*
D03*
X323296D02*
D03*
X332024D02*
D03*
X470436D02*
D03*
X366937D02*
D03*
X375666D02*
D03*
X314567D02*
D03*
X487893D02*
D03*
X305839D02*
D03*
X297111D02*
D03*
X479165D02*
D03*
X349481D02*
D03*
X358209D02*
D03*
X1218270Y948817D02*
D03*
X1200814D02*
D03*
X1174629D02*
D03*
X1209542D02*
D03*
X1088586D02*
D03*
X1097315D02*
D03*
X1106043D02*
D03*
X1036216D02*
D03*
X1044944D02*
D03*
X1018759D02*
D03*
X1010031D02*
D03*
X1062401D02*
D03*
X1071130D02*
D03*
X1079858D02*
D03*
X1157172D02*
D03*
X1165900D02*
D03*
X1148444D02*
D03*
X1130987D02*
D03*
X1139715D02*
D03*
X1027488D02*
D03*
X1053673D02*
D03*
X1226999D02*
D03*
X1183357D02*
D03*
X1192085D02*
D03*
X1775505Y958088D02*
D03*
X1801690D02*
D03*
X1792962D02*
D03*
X1784234D02*
D03*
X1948831D02*
D03*
X1940103D02*
D03*
X1957560D02*
D03*
X1905189D02*
D03*
X1896461D02*
D03*
X1827875D02*
D03*
X1836604D02*
D03*
X1819147D02*
D03*
X1810419D02*
D03*
X1931375D02*
D03*
X1870276D02*
D03*
X1861548D02*
D03*
X1887733D02*
D03*
X1879004D02*
D03*
X1922646D02*
D03*
X1758049D02*
D03*
X1766777D02*
D03*
X1913918D02*
D03*
X1749320D02*
D03*
X1740592D02*
D03*
X470436Y958088D02*
D03*
X479165D02*
D03*
X487893D02*
D03*
X323296D02*
D03*
X314567D02*
D03*
X426795D02*
D03*
X418066D02*
D03*
X461708D02*
D03*
X400610D02*
D03*
X409338D02*
D03*
X452980D02*
D03*
X496622D02*
D03*
X435523D02*
D03*
X444251D02*
D03*
X349481D02*
D03*
X279654D02*
D03*
X288382D02*
D03*
X375666D02*
D03*
X366937D02*
D03*
X358209D02*
D03*
X297111D02*
D03*
X332024D02*
D03*
X340752D02*
D03*
X305839D02*
D03*
X1062401Y958215D02*
D03*
X1088586D02*
D03*
X1079858D02*
D03*
X1106043D02*
D03*
X1097315D02*
D03*
X1071130D02*
D03*
X1192085D02*
D03*
X1200814D02*
D03*
X1044944D02*
D03*
X1130987D02*
D03*
X1209542D02*
D03*
X1027488D02*
D03*
X1053673D02*
D03*
X1218270D02*
D03*
X1226999D02*
D03*
X1183357D02*
D03*
X1174629D02*
D03*
X1036216D02*
D03*
X1010031D02*
D03*
X1018759D02*
D03*
X1139715D02*
D03*
X1148444D02*
D03*
X1165900D02*
D03*
X1157172D02*
D03*
X1766777Y967486D02*
D03*
X1819147D02*
D03*
X1758049D02*
D03*
X1740592D02*
D03*
X1749320D02*
D03*
X1810419D02*
D03*
X1870276D02*
D03*
X1879004D02*
D03*
X1887733D02*
D03*
X1913918D02*
D03*
X1922646D02*
D03*
X1861548D02*
D03*
X1896461D02*
D03*
X1957560D02*
D03*
X1948831D02*
D03*
X1827875D02*
D03*
X1836604D02*
D03*
X1905189D02*
D03*
X1784234D02*
D03*
X1792962D02*
D03*
X1801690D02*
D03*
X1931375D02*
D03*
X1940103D02*
D03*
X1775505D02*
D03*
X461708Y967486D02*
D03*
X487893D02*
D03*
X479165D02*
D03*
X470436D02*
D03*
X496622D02*
D03*
X452980D02*
D03*
X444251D02*
D03*
X435523D02*
D03*
X426795D02*
D03*
X305839D02*
D03*
X297111D02*
D03*
X366937D02*
D03*
X409338D02*
D03*
X418066D02*
D03*
X288382D02*
D03*
X332024D02*
D03*
X340752D02*
D03*
X279654D02*
D03*
X375666D02*
D03*
X314567D02*
D03*
X323296D02*
D03*
X400610D02*
D03*
X349481D02*
D03*
X358209D02*
D03*
X1209542Y967613D02*
D03*
X1226999D02*
D03*
X1174629D02*
D03*
X1183357D02*
D03*
X1192085D02*
D03*
X1053673D02*
D03*
X1010031D02*
D03*
X1036216D02*
D03*
X1062401D02*
D03*
X1018759D02*
D03*
X1044944D02*
D03*
X1097315D02*
D03*
X1106043D02*
D03*
X1139715D02*
D03*
X1079858D02*
D03*
X1071130D02*
D03*
X1027488D02*
D03*
X1088586D02*
D03*
X1148444D02*
D03*
X1157172D02*
D03*
X1165900D02*
D03*
X1130987D02*
D03*
X1218270D02*
D03*
X1200814D02*
D03*
X1957560Y976884D02*
D03*
X1896461D02*
D03*
X1905189D02*
D03*
X1931375D02*
D03*
X1940103D02*
D03*
X1948831D02*
D03*
X1870276D02*
D03*
X1879004D02*
D03*
X1887733D02*
D03*
X1913918D02*
D03*
X1922646D02*
D03*
X1861548D02*
D03*
X1836604D02*
D03*
X1775505D02*
D03*
X1784234D02*
D03*
X1810419D02*
D03*
X1819147D02*
D03*
X1827875D02*
D03*
X1749320D02*
D03*
X1758049D02*
D03*
X1766777D02*
D03*
X1792962D02*
D03*
X1801690D02*
D03*
X1740592D02*
D03*
X279654Y976884D02*
D03*
X340752D02*
D03*
X332024D02*
D03*
X305839D02*
D03*
X297111D02*
D03*
X288382D02*
D03*
X366937D02*
D03*
X358209D02*
D03*
X349481D02*
D03*
X323296D02*
D03*
X314567D02*
D03*
X375666D02*
D03*
X496622D02*
D03*
X435523D02*
D03*
X444251D02*
D03*
X470436D02*
D03*
X479165D02*
D03*
X487893D02*
D03*
X409338D02*
D03*
X418066D02*
D03*
X426795D02*
D03*
X452980D02*
D03*
X461708D02*
D03*
X400610D02*
D03*
X1053673Y977011D02*
D03*
X1044944D02*
D03*
X1062401D02*
D03*
X1106043D02*
D03*
X1130987D02*
D03*
X1209542D02*
D03*
X1139715D02*
D03*
X1148444D02*
D03*
X1079858D02*
D03*
X1010031D02*
D03*
X1088586D02*
D03*
X1097315D02*
D03*
X1036216D02*
D03*
X1071130D02*
D03*
X1018759D02*
D03*
X1027488D02*
D03*
X1200814D02*
D03*
X1157172D02*
D03*
X1165900D02*
D03*
X1192085D02*
D03*
X1174629D02*
D03*
X1226999D02*
D03*
X1218270D02*
D03*
X1183357D02*
D03*
X1905189Y986282D02*
D03*
X1896461D02*
D03*
X1922646D02*
D03*
X1913918D02*
D03*
X1784234D02*
D03*
X1792962D02*
D03*
X1775505D02*
D03*
X1827875D02*
D03*
X1836604D02*
D03*
X1758049D02*
D03*
X1766777D02*
D03*
X1749320D02*
D03*
X1801690D02*
D03*
X1740592D02*
D03*
X1819147D02*
D03*
X1931375D02*
D03*
X1810419D02*
D03*
X1940103D02*
D03*
X1957560D02*
D03*
X1948831D02*
D03*
X1887733D02*
D03*
X1879004D02*
D03*
X1870276D02*
D03*
X1861548D02*
D03*
X496622Y986282D02*
D03*
X479165D02*
D03*
X487893D02*
D03*
X409338D02*
D03*
X400610D02*
D03*
X426795D02*
D03*
X418066D02*
D03*
X444251D02*
D03*
X435523D02*
D03*
X461708D02*
D03*
X452980D02*
D03*
X470436D02*
D03*
X314567D02*
D03*
X323296D02*
D03*
X366937D02*
D03*
X375666D02*
D03*
X332024D02*
D03*
X288382D02*
D03*
X297111D02*
D03*
X340752D02*
D03*
X279654D02*
D03*
X358209D02*
D03*
X305839D02*
D03*
X349481D02*
D03*
X1226999Y986409D02*
D03*
X1157172D02*
D03*
X1106043D02*
D03*
X1010031D02*
D03*
X1200814D02*
D03*
X1218270D02*
D03*
X1062401D02*
D03*
X1071130D02*
D03*
X1088586D02*
D03*
X1192085D02*
D03*
X1097315D02*
D03*
X1036216D02*
D03*
X1018759D02*
D03*
X1139715D02*
D03*
X1130987D02*
D03*
X1209542D02*
D03*
X1053673D02*
D03*
X1044944D02*
D03*
X1148444D02*
D03*
X1079858D02*
D03*
X1174629D02*
D03*
X1183357D02*
D03*
X1165900D02*
D03*
X1027488D02*
D03*
X1784234Y995680D02*
D03*
X1792962D02*
D03*
X1775505D02*
D03*
X1827875D02*
D03*
X1836604D02*
D03*
X1801690D02*
D03*
X1766777D02*
D03*
X1879004D02*
D03*
X1758049D02*
D03*
X1740592D02*
D03*
X1749320D02*
D03*
X1819147D02*
D03*
X1957560D02*
D03*
X1896461D02*
D03*
X1905189D02*
D03*
X1931375D02*
D03*
X1940103D02*
D03*
X1948831D02*
D03*
X1861548D02*
D03*
X1870276D02*
D03*
X1810419D02*
D03*
X1913918D02*
D03*
X1887733D02*
D03*
X1922646D02*
D03*
X366937Y995680D02*
D03*
X358209D02*
D03*
X375666D02*
D03*
X314567D02*
D03*
X349481D02*
D03*
X487893D02*
D03*
X479165D02*
D03*
X470436D02*
D03*
X288382D02*
D03*
X297111D02*
D03*
X305839D02*
D03*
X279654D02*
D03*
X323296D02*
D03*
X332024D02*
D03*
X340752D02*
D03*
X409338D02*
D03*
X400610D02*
D03*
X426795D02*
D03*
X418066D02*
D03*
X461708D02*
D03*
X444251D02*
D03*
X452980D02*
D03*
X496622D02*
D03*
X435523D02*
D03*
X1157172Y995807D02*
D03*
X1165900D02*
D03*
X1148444D02*
D03*
X1062401D02*
D03*
X1106043D02*
D03*
X1071130D02*
D03*
X1174629D02*
D03*
X1053673D02*
D03*
X1044944D02*
D03*
X1139715D02*
D03*
X1130987D02*
D03*
X1183357D02*
D03*
X1192085D02*
D03*
X1018759D02*
D03*
X1010031D02*
D03*
X1218270D02*
D03*
X1226999D02*
D03*
X1200814D02*
D03*
X1088586D02*
D03*
X1209542D02*
D03*
X1079858D02*
D03*
X1027488D02*
D03*
X1036216D02*
D03*
X1097315D02*
D03*
X1749482Y1005078D02*
D03*
X1740592D02*
D03*
X1801690D02*
D03*
X1758049D02*
D03*
X1940103D02*
D03*
X1931375D02*
D03*
X1766777D02*
D03*
X1827875D02*
D03*
X1819147D02*
D03*
X1810419D02*
D03*
X1836604D02*
D03*
X1792962D02*
D03*
X1784234D02*
D03*
X1775505D02*
D03*
X1948831D02*
D03*
X1861548D02*
D03*
X1922646D02*
D03*
X1913918D02*
D03*
X1887733D02*
D03*
X1879004D02*
D03*
X1870438D02*
D03*
X1957560D02*
D03*
X1896461D02*
D03*
X1905189D02*
D03*
X470436Y1005078D02*
D03*
X349481D02*
D03*
X358209D02*
D03*
X435523D02*
D03*
X444251D02*
D03*
X496622D02*
D03*
X479165D02*
D03*
X487893D02*
D03*
X288544D02*
D03*
X297111D02*
D03*
X314567D02*
D03*
X279654D02*
D03*
X323296D02*
D03*
X340752D02*
D03*
X366937D02*
D03*
X332024D02*
D03*
X375666D02*
D03*
X409500D02*
D03*
X418066D02*
D03*
X426795D02*
D03*
X400610D02*
D03*
X452980D02*
D03*
X305839D02*
D03*
X461708D02*
D03*
X1079858Y1005205D02*
D03*
X1157172D02*
D03*
X1097315D02*
D03*
X1088586D02*
D03*
X1071130D02*
D03*
X1183357D02*
D03*
X1174629D02*
D03*
X1165900D02*
D03*
X1062401D02*
D03*
X1106043D02*
D03*
X1053673D02*
D03*
X1044944D02*
D03*
X1218270D02*
D03*
X1209542D02*
D03*
X1226999D02*
D03*
X1130987D02*
D03*
X1148444D02*
D03*
X1192085D02*
D03*
X1139877D02*
D03*
X1018921D02*
D03*
X1010031D02*
D03*
X1027488D02*
D03*
X1200814D02*
D03*
X1036216D02*
D03*
X1495552Y1250950D02*
D03*
X1485138D02*
D03*
X1434154D02*
D03*
X1444568D02*
D03*
X1895418Y1252220D02*
D03*
X296926D02*
D03*
X1725422D02*
D03*
X796982D02*
D03*
X756920D02*
D03*
X745744D02*
D03*
X286512D02*
D03*
X1905832D02*
D03*
X2185162D02*
D03*
X807396D02*
D03*
X1205300D02*
D03*
X1664024D02*
D03*
X1215714D02*
D03*
X1266698D02*
D03*
X1256284D02*
D03*
X1037012D02*
D03*
X975614D02*
D03*
X1715008D02*
D03*
X986028D02*
D03*
X1026598D02*
D03*
X1674438D02*
D03*
X1946402D02*
D03*
X518668D02*
D03*
X347910D02*
D03*
X580066D02*
D03*
X2174748D02*
D03*
X529082D02*
D03*
X1956816D02*
D03*
X2123764D02*
D03*
X569652D02*
D03*
X337496D02*
D03*
X2134178D02*
D03*
X1444568Y1259840D02*
D03*
X1434154D02*
D03*
X1495552D02*
D03*
X1485138D02*
D03*
X529082Y1261110D02*
D03*
X1037012D02*
D03*
X986028D02*
D03*
X1674438D02*
D03*
X1266698D02*
D03*
X347910D02*
D03*
X1026598D02*
D03*
X2174748D02*
D03*
X1205300D02*
D03*
X2134178D02*
D03*
X1215714D02*
D03*
X518668D02*
D03*
X1664024D02*
D03*
X1256284D02*
D03*
X2123764D02*
D03*
X807396D02*
D03*
X1895418D02*
D03*
X296926D02*
D03*
X580066D02*
D03*
X1905832D02*
D03*
X569652D02*
D03*
X1946402D02*
D03*
X1725422D02*
D03*
X286512D02*
D03*
X1956816D02*
D03*
X2185162D02*
D03*
X975614D02*
D03*
X796982D02*
D03*
X337496D02*
D03*
X1715008D02*
D03*
X745744Y1261364D02*
D03*
X756920D02*
D03*
X1434154Y1268730D02*
D03*
X1444568D02*
D03*
X1495552D02*
D03*
X1485138D02*
D03*
X975614Y1270000D02*
D03*
X1037012D02*
D03*
X518668D02*
D03*
X1026598D02*
D03*
X347910D02*
D03*
X986028D02*
D03*
X1266698D02*
D03*
X337496D02*
D03*
X580066D02*
D03*
X296926D02*
D03*
X796982D02*
D03*
X1205300D02*
D03*
X569652D02*
D03*
X1256284D02*
D03*
X529082D02*
D03*
X1215714D02*
D03*
X807396D02*
D03*
X1946402D02*
D03*
X1664024D02*
D03*
X1956816D02*
D03*
X2134178D02*
D03*
X2123764D02*
D03*
X1725422D02*
D03*
X1715008D02*
D03*
X1895418D02*
D03*
X1905832D02*
D03*
X1674438D02*
D03*
X286512D02*
D03*
X2185162D02*
D03*
X2174748D02*
D03*
X745744Y1270508D02*
D03*
X756920D02*
D03*
X1495552Y1304290D02*
D03*
X1434154D02*
D03*
X1485138D02*
D03*
X1444568D02*
D03*
X756158Y1305560D02*
D03*
X337496D02*
D03*
X286512D02*
D03*
X975614D02*
D03*
X296926D02*
D03*
X1715008D02*
D03*
X807396D02*
D03*
X1895418D02*
D03*
X796982D02*
D03*
X1725422D02*
D03*
X2134178D02*
D03*
X2123764D02*
D03*
X1956816D02*
D03*
X347910D02*
D03*
X518668D02*
D03*
X2174748D02*
D03*
X529082D02*
D03*
X1946402D02*
D03*
X745744D02*
D03*
X1905832D02*
D03*
X569652D02*
D03*
X580066D02*
D03*
X2185162D02*
D03*
X1664024D02*
D03*
X1674438D02*
D03*
X1037012D02*
D03*
X1205300D02*
D03*
X1215714D02*
D03*
X1256284D02*
D03*
X1266698D02*
D03*
X1026598D02*
D03*
X986028D02*
D03*
X1444568Y1313180D02*
D03*
X1434154D02*
D03*
X1495552D02*
D03*
X1485138D02*
D03*
X580066Y1314450D02*
D03*
X1905832D02*
D03*
X1256284D02*
D03*
X518668D02*
D03*
X745744D02*
D03*
X337496D02*
D03*
X2123764D02*
D03*
X1266698D02*
D03*
X1946402D02*
D03*
X347910D02*
D03*
X807396D02*
D03*
X1956816D02*
D03*
X529082D02*
D03*
X569652D02*
D03*
X2174748D02*
D03*
X1205300D02*
D03*
X975614D02*
D03*
X1725422D02*
D03*
X1715008D02*
D03*
X296926D02*
D03*
X1215714D02*
D03*
X286512D02*
D03*
X1895418D02*
D03*
X796982D02*
D03*
X986028D02*
D03*
X1026598D02*
D03*
X1674438D02*
D03*
X2134178D02*
D03*
X2185162D02*
D03*
X1037012D02*
D03*
X756158D02*
D03*
X1664024D02*
D03*
X1434154Y1322070D02*
D03*
X1444568D02*
D03*
X1495552D02*
D03*
X1485138D02*
D03*
X2134178Y1323340D02*
D03*
X518668D02*
D03*
X1215714D02*
D03*
X347910D02*
D03*
X1266698D02*
D03*
X337496D02*
D03*
X286512D02*
D03*
X296926D02*
D03*
X1256284D02*
D03*
X1715008D02*
D03*
X2174748D02*
D03*
X2185162D02*
D03*
X1674438D02*
D03*
X580066D02*
D03*
X1205300D02*
D03*
X1037012D02*
D03*
X807396D02*
D03*
X986028D02*
D03*
X569652D02*
D03*
X1946402D02*
D03*
X1725422D02*
D03*
X1026598D02*
D03*
X1895418D02*
D03*
X796982D02*
D03*
X756158D02*
D03*
X745744D02*
D03*
X1905832D02*
D03*
X1664024D02*
D03*
X529082D02*
D03*
X2123764D02*
D03*
X975614D02*
D03*
X1956816D02*
D03*
D87*
X1962912Y142240D02*
D03*
D88*
Y167640D02*
D03*
D90*
X64770Y601472D02*
D03*
Y576072D02*
D03*
Y626872D02*
D03*
Y652272D02*
D03*
D91*
Y550672D02*
D03*
D92*
X2063496Y99060D02*
D03*
Y73660D02*
D03*
D93*
Y48260D02*
D03*
D94*
X2215874Y97768D02*
D03*
X2241274D02*
D03*
X92836Y251830D02*
D03*
Y277230D02*
D03*
X392518Y139354D02*
D03*
X367118D02*
D03*
D95*
X2266674Y97768D02*
D03*
X417918Y139354D02*
D03*
D96*
X1056640Y59690D02*
D03*
X1018540D02*
D03*
X1094740D02*
D03*
X949960D02*
D03*
X911860D02*
D03*
X800100D02*
D03*
X762000D02*
D03*
X1314450D02*
D03*
X1276350D02*
D03*
X1238250D02*
D03*
X1200150D02*
D03*
X1162050D02*
D03*
D97*
X92836Y226430D02*
D03*
D98*
X1557528Y695960D02*
D03*
X1582928D02*
D03*
X1608328D02*
D03*
X1633728D02*
D03*
Y721360D02*
D03*
X1608328D02*
D03*
X1582928D02*
D03*
X1557528D02*
D03*
X1532128Y695960D02*
D03*
Y721360D02*
D03*
X1633728Y670560D02*
D03*
X1608328D02*
D03*
X1532128D02*
D03*
X1557528D02*
D03*
X1582928D02*
D03*
X1633728Y772160D02*
D03*
X1608328D02*
D03*
X1532128Y746760D02*
D03*
Y772160D02*
D03*
X1557528D02*
D03*
X1582928D02*
D03*
X1633728Y746760D02*
D03*
X1608328D02*
D03*
X1582928D02*
D03*
X1557528D02*
D03*
X2290318Y695960D02*
D03*
Y721360D02*
D03*
Y746760D02*
D03*
Y772160D02*
D03*
X2264918Y721360D02*
D03*
X2264918Y695960D02*
D03*
Y670560D02*
D03*
X2290318D02*
D03*
X2264918Y746760D02*
D03*
Y772160D02*
D03*
X2366518Y721360D02*
D03*
X2366518Y695960D02*
D03*
Y670560D02*
D03*
Y746760D02*
D03*
Y772160D02*
D03*
X2315718Y670560D02*
D03*
X2341118Y670560D02*
D03*
X2315718Y695960D02*
D03*
Y721360D02*
D03*
Y746760D02*
D03*
Y772160D02*
D03*
X2341118Y772160D02*
D03*
Y746760D02*
D03*
Y721360D02*
D03*
Y695960D02*
D03*
X825500Y746760D02*
D03*
X850900D02*
D03*
X876300D02*
D03*
X901700D02*
D03*
X850900Y772160D02*
D03*
X825500Y772160D02*
D03*
X800100D02*
D03*
Y746760D02*
D03*
X876300Y772160D02*
D03*
X901700D02*
D03*
X850900Y670560D02*
D03*
X825500Y670560D02*
D03*
X800100D02*
D03*
X876300D02*
D03*
X901700D02*
D03*
X800100Y721360D02*
D03*
X800100Y695960D02*
D03*
X825500Y721360D02*
D03*
X850900D02*
D03*
X876300D02*
D03*
X901700D02*
D03*
X901700Y695960D02*
D03*
X876300D02*
D03*
X850900D02*
D03*
X825500D02*
D03*
X86360Y897128D02*
D03*
X111760D02*
D03*
X137160D02*
D03*
X162560D02*
D03*
Y922528D02*
D03*
X137160D02*
D03*
X111760D02*
D03*
X86360D02*
D03*
X60960Y897128D02*
D03*
Y922528D02*
D03*
X162560Y871728D02*
D03*
X137160D02*
D03*
X60960D02*
D03*
X86360D02*
D03*
X111760D02*
D03*
X162560Y973328D02*
D03*
X137160D02*
D03*
X60960Y947928D02*
D03*
Y973328D02*
D03*
X86360D02*
D03*
X111760D02*
D03*
X162560Y947928D02*
D03*
X137160D02*
D03*
X111760D02*
D03*
X86360D02*
D03*
X137160Y1067054D02*
D03*
Y1092454D02*
D03*
Y1117854D02*
D03*
Y1143254D02*
D03*
X111760Y1143254D02*
D03*
Y1117854D02*
D03*
Y1092454D02*
D03*
Y1067054D02*
D03*
X137160Y1041654D02*
D03*
X111760Y1041654D02*
D03*
X162560Y1143254D02*
D03*
Y1117854D02*
D03*
Y1041654D02*
D03*
Y1067054D02*
D03*
X162560Y1092454D02*
D03*
X60960Y1143254D02*
D03*
Y1117854D02*
D03*
X86360Y1041654D02*
D03*
X60960D02*
D03*
Y1067054D02*
D03*
X60960Y1092454D02*
D03*
X86360Y1143254D02*
D03*
Y1117854D02*
D03*
Y1092454D02*
D03*
Y1067054D02*
D03*
D99*
X1178814Y851916D02*
D03*
X327660D02*
D03*
X1120648D02*
D03*
X448310D02*
D03*
X379222Y852170D02*
D03*
X391922D02*
D03*
X1108710D02*
D03*
X1959864D02*
D03*
X498348D02*
D03*
X1229017Y852424D02*
D03*
X1057910Y852424D02*
D03*
X1788816Y852678D02*
D03*
X1909623Y852678D02*
D03*
X1851478D02*
D03*
X1838779D02*
D03*
X1120648Y860552D02*
D03*
X448310D02*
D03*
X327660D02*
D03*
X1178814D02*
D03*
X379222Y860806D02*
D03*
X391922D02*
D03*
X1959864D02*
D03*
X1108710D02*
D03*
X498348D02*
D03*
X1229017Y861060D02*
D03*
X1057910Y861060D02*
D03*
X1788816Y861314D02*
D03*
X1838779Y861314D02*
D03*
X1851478D02*
D03*
X1909623D02*
D03*
X448310Y868934D02*
D03*
X1120648D02*
D03*
X1178814D02*
D03*
X327660D02*
D03*
X1959864Y869188D02*
D03*
X391922D02*
D03*
X498348D02*
D03*
X1108710D02*
D03*
X379222D02*
D03*
X1229017Y869442D02*
D03*
X1057910Y869442D02*
D03*
X1788816Y869696D02*
D03*
X1838779Y869696D02*
D03*
X1851478D02*
D03*
X1909623D02*
D03*
X1120648Y877316D02*
D03*
X1178814D02*
D03*
X327660D02*
D03*
X448310D02*
D03*
X1959864Y877570D02*
D03*
X391922D02*
D03*
X379222D02*
D03*
X1108710D02*
D03*
X498348D02*
D03*
X1229017Y877824D02*
D03*
X1057910Y877824D02*
D03*
X1788816Y878078D02*
D03*
X1909623Y878078D02*
D03*
X1838779D02*
D03*
X1851478D02*
D03*
D100*
X325846Y1167892D02*
D03*
X333466D02*
D03*
X361769D02*
D03*
X297543D02*
D03*
X254000D02*
D03*
X261620D02*
D03*
X289923D02*
D03*
X441234D02*
D03*
X405312D02*
D03*
X397691D02*
D03*
X477157D02*
D03*
X469537D02*
D03*
X513080D02*
D03*
X433614D02*
D03*
X369389D02*
D03*
X1954167Y1167892D02*
D03*
X1838779D02*
D03*
X1946547D02*
D03*
X1810476D02*
D03*
X1022713D02*
D03*
X1094559D02*
D03*
X1130481D02*
D03*
X1138101D02*
D03*
X1066256D02*
D03*
X1102179D02*
D03*
X1058636D02*
D03*
X994410D02*
D03*
X1802856D02*
D03*
X1766933D02*
D03*
X1882321D02*
D03*
X1910624D02*
D03*
X1774553D02*
D03*
X1874701D02*
D03*
X1990090D02*
D03*
X1030333D02*
D03*
X986790D02*
D03*
X1982470D02*
D03*
X1738630D02*
D03*
X1731010D02*
D03*
X1202327D02*
D03*
X1245870D02*
D03*
X1238250D02*
D03*
X505460D02*
D03*
X1209947D02*
D03*
X1174024D02*
D03*
X1166404D02*
D03*
X1918244D02*
D03*
X1846399D02*
D03*
X289923Y1174242D02*
D03*
X297543D02*
D03*
X325846D02*
D03*
X441234D02*
D03*
X361769D02*
D03*
X369389D02*
D03*
X397691D02*
D03*
X333466D02*
D03*
X477157D02*
D03*
X433614D02*
D03*
X505460D02*
D03*
X513080D02*
D03*
X261620D02*
D03*
X405312D02*
D03*
X254000D02*
D03*
X469537D02*
D03*
X1846399Y1174242D02*
D03*
X1882321D02*
D03*
X1838779D02*
D03*
X1874701D02*
D03*
X1810476D02*
D03*
X1910624D02*
D03*
X1066256D02*
D03*
X1058636D02*
D03*
X1130481D02*
D03*
X1030333D02*
D03*
X1102179D02*
D03*
X1094559D02*
D03*
X1138101D02*
D03*
X1209947D02*
D03*
X1238250D02*
D03*
X1245870D02*
D03*
X1166404D02*
D03*
X1174024D02*
D03*
X1202327D02*
D03*
X1731010D02*
D03*
X1990090D02*
D03*
X1766933D02*
D03*
X1738630D02*
D03*
X1946547D02*
D03*
X1918244D02*
D03*
X1982470D02*
D03*
X1954167D02*
D03*
X986790D02*
D03*
X1802856D02*
D03*
X1022713D02*
D03*
X994410D02*
D03*
X1774553D02*
D03*
D101*
X38100Y35560D02*
D03*
Y1355090D02*
D03*
X2461260D02*
D03*
X2460288Y36576D02*
D03*
D102*
X1265682Y898652D02*
D03*
X889000Y508000D02*
D03*
X965200Y50800D02*
D03*
X1003300Y127000D02*
D03*
X965200Y203200D02*
D03*
X1003300Y279400D02*
D03*
X1041400Y50800D02*
D03*
X1079500Y279400D02*
D03*
Y431800D02*
D03*
X1041400Y508000D02*
D03*
X1117600Y50800D02*
D03*
X1155700Y127000D02*
D03*
Y279400D02*
D03*
Y584200D02*
D03*
X1231900Y279400D02*
D03*
Y431800D02*
D03*
X1193800Y508000D02*
D03*
X1231900Y584200D02*
D03*
X1308100Y127000D02*
D03*
Y431800D02*
D03*
Y584200D02*
D03*
X1346200Y50800D02*
D03*
X1384300Y127000D02*
D03*
Y279400D02*
D03*
Y431800D02*
D03*
X1346200Y508000D02*
D03*
X1422400Y50800D02*
D03*
X1460500Y279400D02*
D03*
Y431800D02*
D03*
X1498600Y50800D02*
D03*
X1536700Y127000D02*
D03*
Y279400D02*
D03*
Y431800D02*
D03*
X1498600Y508000D02*
D03*
X1574800Y50800D02*
D03*
X1612900Y127000D02*
D03*
Y279400D02*
D03*
Y431800D02*
D03*
X1651000Y50800D02*
D03*
X1689100Y127000D02*
D03*
X1651000Y203200D02*
D03*
X1689100Y279400D02*
D03*
Y431800D02*
D03*
X1651000Y508000D02*
D03*
X1727200Y50800D02*
D03*
Y203200D02*
D03*
X546100Y127000D02*
D03*
X279400Y355600D02*
D03*
Y508000D02*
D03*
X431800Y203200D02*
D03*
X127000Y50800D02*
D03*
X508000D02*
D03*
X203200Y355600D02*
D03*
X317500Y127000D02*
D03*
X88900Y584200D02*
D03*
X469900Y127000D02*
D03*
X317500Y279400D02*
D03*
Y431800D02*
D03*
X393700Y279400D02*
D03*
X203200Y508000D02*
D03*
X165100Y127000D02*
D03*
X355600Y50800D02*
D03*
X165100Y584200D02*
D03*
X317500D02*
D03*
X127000Y508000D02*
D03*
X393700Y584200D02*
D03*
X469900Y279400D02*
D03*
X203200Y50800D02*
D03*
X355600Y355600D02*
D03*
X241300Y279400D02*
D03*
Y127000D02*
D03*
X127000Y355600D02*
D03*
X279400Y50800D02*
D03*
X165100Y431800D02*
D03*
X431800Y50800D02*
D03*
X546100Y584200D02*
D03*
X393700Y431800D02*
D03*
X355600Y508000D02*
D03*
X584200Y355600D02*
D03*
X241300Y431800D02*
D03*
X127000Y203200D02*
D03*
X622300Y279400D02*
D03*
X546100D02*
D03*
X508000Y203200D02*
D03*
X584200D02*
D03*
X431800Y355600D02*
D03*
X622300Y127000D02*
D03*
X584200Y50800D02*
D03*
X660400D02*
D03*
X698500Y127000D02*
D03*
X660400Y203200D02*
D03*
X698500Y279400D02*
D03*
X660400Y355600D02*
D03*
X698500Y431800D02*
D03*
X660400Y508000D02*
D03*
X736600Y50800D02*
D03*
X774700Y127000D02*
D03*
X736600Y203200D02*
D03*
X774700Y279400D02*
D03*
Y431800D02*
D03*
X736600Y508000D02*
D03*
X812800Y50800D02*
D03*
X850900Y127000D02*
D03*
Y279400D02*
D03*
Y431800D02*
D03*
X889000Y50800D02*
D03*
X927100Y127000D02*
D03*
X889000Y203200D02*
D03*
X927100Y279400D02*
D03*
Y431800D02*
D03*
X50800Y508000D02*
D03*
X1597660Y148336D02*
D03*
X1597152Y159766D02*
D03*
X1208151Y580771D02*
D03*
X1223645Y581025D02*
D03*
X1108202Y673100D02*
D03*
X1107694Y652272D02*
D03*
X800100Y34544D02*
D03*
X949960Y37338D02*
D03*
X1018540Y33274D02*
D03*
X1226058Y90678D02*
D03*
X1271016D02*
D03*
X2241274Y80268D02*
D03*
X2266696Y177038D02*
D03*
X1840230Y673354D02*
D03*
X1840992Y652526D02*
D03*
X1954276Y578358D02*
D03*
X1938782Y581152D02*
D03*
X2146300Y467868D02*
D03*
X1964182Y489712D02*
D03*
X1978660Y515112D02*
D03*
X1958848Y530352D02*
D03*
X1926336Y515874D02*
D03*
X1233170Y492506D02*
D03*
X1228852Y529336D02*
D03*
X1192784Y520446D02*
D03*
X1249680Y509524D02*
D03*
X522732Y487934D02*
D03*
X517652Y525526D02*
D03*
X539750Y504698D02*
D03*
X482854Y517398D02*
D03*
X493268Y587248D02*
D03*
X477774D02*
D03*
X1833302Y570484D02*
D03*
X1878006Y571754D02*
D03*
X1102741Y570611D02*
D03*
X1147445Y571881D02*
D03*
X417068Y571754D02*
D03*
X372364Y570484D02*
D03*
X169164Y225552D02*
D03*
X417830Y212344D02*
D03*
X392518Y111854D02*
D03*
X377698Y652526D02*
D03*
X377952Y673608D02*
D03*
X189992Y604266D02*
D03*
X94234Y626872D02*
D03*
X96266Y576326D02*
D03*
X130302Y69850D02*
D03*
X106934Y68834D02*
D03*
X73406Y70612D02*
D03*
X1188720Y148082D02*
D03*
X1184148Y159766D02*
D03*
X1147826Y445008D02*
D03*
X1295146Y245618D02*
D03*
X1148334Y312420D02*
D03*
X1367536Y13930D02*
D03*
X1443228Y47244D02*
D03*
X1204214Y773684D02*
D03*
X1884172Y839724D02*
D03*
X1934972Y773684D02*
D03*
X1996694Y897128D02*
D03*
X771652Y82296D02*
D03*
X752856D02*
D03*
X473964Y775462D02*
D03*
X1841684Y781558D02*
D03*
X1111123Y781685D02*
D03*
X380746Y783082D02*
D03*
X1735328Y807212D02*
D03*
X274574D02*
D03*
X1004951Y807339D02*
D03*
X1153414Y838962D02*
D03*
X423164Y839470D02*
D03*
X1044542Y839781D02*
D03*
X1775644Y840994D02*
D03*
X314706D02*
D03*
X535686Y898144D02*
D03*
X1276005Y968088D02*
D03*
X2006854Y968248D02*
D03*
X545592Y968502D02*
D03*
X1765300Y279400D02*
D03*
X1727200Y508000D02*
D03*
X1765300Y584200D02*
D03*
X1803400Y50800D02*
D03*
Y203200D02*
D03*
X1841500Y279400D02*
D03*
Y431800D02*
D03*
Y584200D02*
D03*
X1879600Y50800D02*
D03*
X1917700Y127000D02*
D03*
X1879600Y203200D02*
D03*
X1917700Y279400D02*
D03*
X1879600Y508000D02*
D03*
X1993900Y127000D02*
D03*
X1955800Y203200D02*
D03*
X1993900Y279400D02*
D03*
X1955800Y355600D02*
D03*
X1993900Y431800D02*
D03*
Y584200D02*
D03*
X2070100Y127000D02*
D03*
X2032000Y203200D02*
D03*
X2070100Y279400D02*
D03*
X2032000Y355600D02*
D03*
Y508000D02*
D03*
X2108200Y50800D02*
D03*
X2146300Y127000D02*
D03*
X2108200Y203200D02*
D03*
X2146300Y279400D02*
D03*
X2108200Y355600D02*
D03*
X2146300Y431800D02*
D03*
X2184400Y50800D02*
D03*
Y203200D02*
D03*
Y355600D02*
D03*
X2222500Y431800D02*
D03*
X2184400Y508000D02*
D03*
X2298700Y127000D02*
D03*
X2260600Y203200D02*
D03*
X2298700Y279400D02*
D03*
X2260600Y355600D02*
D03*
X2298700Y431800D02*
D03*
X2260600Y508000D02*
D03*
X2336800Y50800D02*
D03*
X2374900Y127000D02*
D03*
X2336800Y203200D02*
D03*
X2374900Y279400D02*
D03*
X2336800Y355600D02*
D03*
X2374900Y431800D02*
D03*
X2336800Y508000D02*
D03*
X2451100Y127000D02*
D03*
X2413000Y203200D02*
D03*
X2451100Y279400D02*
D03*
X2413000Y355600D02*
D03*
X2451100Y431800D02*
D03*
X2413000Y508000D02*
D03*
X50800Y355600D02*
D03*
D103*
X2461260Y552196D02*
D03*
X2019935Y473329D02*
D03*
X1044956Y96266D02*
D03*
X1327150Y90932D02*
D03*
X1314450Y38100D02*
D03*
X1735582Y48260D02*
D03*
X1966214Y48514D02*
D03*
X2092452Y73406D02*
D03*
X167386Y242570D02*
D03*
X23368Y87884D02*
D03*
X414274Y396240D02*
D03*
X596900Y383286D02*
D03*
X639064D02*
D03*
X1099566Y384048D02*
D03*
X1151890D02*
D03*
X1735836Y383540D02*
D03*
X1344422Y187960D02*
D03*
X302260Y651510D02*
D03*
X1460246Y124968D02*
D03*
X1369314Y101600D02*
D03*
Y127254D02*
D03*
X1459992Y103886D02*
D03*
X1061720Y366014D02*
D03*
X1687830Y336804D02*
D03*
X1169416Y497332D02*
D03*
X1297632Y138430D02*
D03*
X553212Y510540D02*
D03*
X483108Y359664D02*
D03*
X505713Y396241D02*
D03*
X700786Y362458D02*
D03*
X1191514Y355092D02*
D03*
X1748028Y336042D02*
D03*
X1807210Y383540D02*
D03*
X932688Y95250D02*
D03*
X881126D02*
D03*
X788670Y116840D02*
D03*
X1219454Y138430D02*
D03*
X1251204D02*
D03*
X943356Y324612D02*
D03*
X576072Y324866D02*
D03*
X392938D02*
D03*
X521970D02*
D03*
X350774Y325120D02*
D03*
X1700022Y355092D02*
D03*
X1015238Y356108D02*
D03*
X620776Y442722D02*
D03*
X423223Y775462D02*
D03*
X1884161D02*
D03*
D104*
X1918486Y642018D02*
D03*
X1187925Y642145D02*
D03*
X457548Y642018D02*
D03*
X953933Y605663D02*
D03*
X954024Y581406D02*
D03*
X2030222Y968756D02*
D03*
X53340Y243840D02*
D03*
X569976Y967740D02*
D03*
X673608Y510032D02*
D03*
X658368Y495808D02*
D03*
X1389126Y495300D02*
D03*
X1403604Y510286D02*
D03*
X1686306Y579120D02*
D03*
X1685798Y603250D02*
D03*
X2025142Y769366D02*
D03*
X564134D02*
D03*
X2116766Y497078D02*
D03*
X2135562Y512318D02*
D03*
X224064Y579882D02*
D03*
X224318Y606298D02*
D03*
X1294384Y771398D02*
D03*
X1858010Y773684D02*
D03*
X1127808Y774065D02*
D03*
X400050Y774954D02*
D03*
X2210054Y968502D02*
D03*
X1480312Y969772D02*
D03*
X1302004D02*
D03*
X742442Y970026D02*
D03*
D105*
X562356Y415036D02*
D03*
X1214628Y425450D02*
D03*
X1182116Y458724D02*
D03*
X604520Y415290D02*
D03*
X460502Y500634D02*
D03*
X1152906Y488442D02*
D03*
X1073658Y626618D02*
D03*
X2382520Y797560D02*
D03*
X2390140Y782320D02*
D03*
Y751840D02*
D03*
Y721360D02*
D03*
Y690880D02*
D03*
Y660400D02*
D03*
X2382520Y645160D02*
D03*
X2367280Y797560D02*
D03*
Y645160D02*
D03*
X2374900Y629920D02*
D03*
X2352040Y797560D02*
D03*
Y645160D02*
D03*
X2359660Y629920D02*
D03*
X2352040Y614680D02*
D03*
X2336800Y797560D02*
D03*
Y645160D02*
D03*
X2344420Y629920D02*
D03*
X2336800Y614680D02*
D03*
X2321560Y797560D02*
D03*
Y645160D02*
D03*
X2329180Y629920D02*
D03*
X2321560Y614680D02*
D03*
X2306320Y797560D02*
D03*
Y645160D02*
D03*
X2313940Y629920D02*
D03*
X2306320Y614680D02*
D03*
X2291080Y797560D02*
D03*
Y645160D02*
D03*
X2298700Y629920D02*
D03*
X2291080Y614680D02*
D03*
X2275840Y797560D02*
D03*
Y645160D02*
D03*
X2283460Y629920D02*
D03*
X2275840Y614680D02*
D03*
X2260600Y797560D02*
D03*
Y645160D02*
D03*
X2268220Y629920D02*
D03*
X2260600Y614680D02*
D03*
X2245360Y797560D02*
D03*
Y736600D02*
D03*
Y706120D02*
D03*
Y645160D02*
D03*
X2252980Y629920D02*
D03*
X2245360Y614680D02*
D03*
X2237740Y782320D02*
D03*
X2230120Y767080D02*
D03*
X2237740Y751840D02*
D03*
X2230120Y736600D02*
D03*
X2237740Y721360D02*
D03*
X2230120Y706120D02*
D03*
X2237740Y690880D02*
D03*
X2230120Y675640D02*
D03*
X2237740Y660400D02*
D03*
X2230120Y645160D02*
D03*
X2237740Y629920D02*
D03*
X2230120Y614680D02*
D03*
X2214880Y767080D02*
D03*
X2222500Y751840D02*
D03*
X2214880Y736600D02*
D03*
X2222500Y721360D02*
D03*
X2214880Y706120D02*
D03*
X2222500Y690880D02*
D03*
Y629920D02*
D03*
X2214880Y614680D02*
D03*
X2207260Y751840D02*
D03*
X2199640Y736600D02*
D03*
X2207260Y721360D02*
D03*
X2199640Y706120D02*
D03*
Y614680D02*
D03*
X2184400Y736600D02*
D03*
X2192020Y721360D02*
D03*
X1651000Y797560D02*
D03*
X1658620Y782320D02*
D03*
Y751840D02*
D03*
Y721360D02*
D03*
Y690880D02*
D03*
Y660400D02*
D03*
X1651000Y645160D02*
D03*
X1635760Y797560D02*
D03*
Y645160D02*
D03*
X1643380Y629920D02*
D03*
X1620520Y797560D02*
D03*
Y645160D02*
D03*
X1628140Y629920D02*
D03*
X1620520Y614680D02*
D03*
X1605280Y797560D02*
D03*
Y645160D02*
D03*
X1612900Y629920D02*
D03*
X1605280Y614680D02*
D03*
X1590040Y797560D02*
D03*
Y645160D02*
D03*
X1597660Y629920D02*
D03*
X1590040Y614680D02*
D03*
X1574800Y797560D02*
D03*
Y645160D02*
D03*
X1582420Y629920D02*
D03*
X1574800Y614680D02*
D03*
X1559560Y797560D02*
D03*
Y645160D02*
D03*
X1567180Y629920D02*
D03*
X1559560Y614680D02*
D03*
X1544320Y797560D02*
D03*
Y645160D02*
D03*
X1551940Y629920D02*
D03*
X1544320Y614680D02*
D03*
X1529080Y797560D02*
D03*
Y645160D02*
D03*
X1536700Y629920D02*
D03*
X1529080Y614680D02*
D03*
X1513840Y797560D02*
D03*
Y645160D02*
D03*
X1521460Y629920D02*
D03*
X1513840Y614680D02*
D03*
X1506220Y782320D02*
D03*
X1498600Y767080D02*
D03*
X1506220Y751840D02*
D03*
X1498600Y736600D02*
D03*
X1506220Y721360D02*
D03*
X1498600Y706120D02*
D03*
X1506220Y690880D02*
D03*
X1498600Y675640D02*
D03*
X1506220Y660400D02*
D03*
X1498600Y645160D02*
D03*
X1506220Y629920D02*
D03*
X1498600Y614680D02*
D03*
X1490980Y782320D02*
D03*
X1483360Y767080D02*
D03*
X1490980Y751840D02*
D03*
X1483360Y736600D02*
D03*
X1490980Y721360D02*
D03*
X1483360Y706120D02*
D03*
X1490980Y690880D02*
D03*
Y629920D02*
D03*
X1483360Y614680D02*
D03*
X1475740Y751840D02*
D03*
X1468120Y736600D02*
D03*
X1475740Y721360D02*
D03*
X1468120Y614680D02*
D03*
X1460500Y751840D02*
D03*
X1452880Y736600D02*
D03*
X1460500Y721360D02*
D03*
X942340Y782320D02*
D03*
X934720Y767080D02*
D03*
X942340Y751840D02*
D03*
X934720Y736600D02*
D03*
X942340Y721360D02*
D03*
X934720Y706120D02*
D03*
X942340Y690880D02*
D03*
X934720Y675640D02*
D03*
X942340Y660400D02*
D03*
X919480Y797560D02*
D03*
X927100Y782320D02*
D03*
Y751840D02*
D03*
Y721360D02*
D03*
Y690880D02*
D03*
Y660400D02*
D03*
X919480Y645160D02*
D03*
X904240Y797560D02*
D03*
Y645160D02*
D03*
X911860Y629920D02*
D03*
X889000Y797560D02*
D03*
Y645160D02*
D03*
X896620Y629920D02*
D03*
X889000Y614680D02*
D03*
X873760Y797560D02*
D03*
Y645160D02*
D03*
X881380Y629920D02*
D03*
X873760Y614680D02*
D03*
X858520Y797560D02*
D03*
Y645160D02*
D03*
X866140Y629920D02*
D03*
X858520Y614680D02*
D03*
X843280Y797560D02*
D03*
Y645160D02*
D03*
X850900Y629920D02*
D03*
X843280Y614680D02*
D03*
X828040Y797560D02*
D03*
Y645160D02*
D03*
X835660Y629920D02*
D03*
X828040Y614680D02*
D03*
X812800Y797560D02*
D03*
Y645160D02*
D03*
X820420Y629920D02*
D03*
X812800Y614680D02*
D03*
X797560Y645160D02*
D03*
X805180Y629920D02*
D03*
X797560Y614680D02*
D03*
X789940Y629920D02*
D03*
X782320Y614680D02*
D03*
X774700Y751840D02*
D03*
X767080Y736600D02*
D03*
X774700Y721360D02*
D03*
X767080Y706120D02*
D03*
X774700Y690880D02*
D03*
Y629920D02*
D03*
X767080Y614680D02*
D03*
X759460Y751840D02*
D03*
X751840Y736600D02*
D03*
X759460Y721360D02*
D03*
X751840Y614680D02*
D03*
X744220Y721360D02*
D03*
X736600Y614680D02*
D03*
X706120Y645160D02*
D03*
X713740Y629920D02*
D03*
X683260Y660400D02*
D03*
D106*
X1996948Y819912D02*
D03*
X535940D02*
D03*
X1266190D02*
D03*
D107*
X37850Y13560D02*
D03*
X2460038Y14576D02*
D03*
X53480Y19827D02*
D03*
X22367Y20180D02*
D03*
X2475667Y20843D02*
D03*
X2444554Y21196D02*
D03*
X60100Y35310D02*
D03*
X16100Y35810D02*
D03*
X2482288Y36326D02*
D03*
X2438288Y36826D02*
D03*
X53377Y50935D02*
D03*
X22720Y51293D02*
D03*
X2475564Y51951D02*
D03*
X2444908Y52309D02*
D03*
X38350Y57560D02*
D03*
X2460538Y58576D02*
D03*
X2461010Y1333090D02*
D03*
X37850D02*
D03*
X53480Y1339357D02*
D03*
X2476640D02*
D03*
X2445527Y1339710D02*
D03*
X22367D02*
D03*
X60100Y1354840D02*
D03*
X2483260D02*
D03*
X16100Y1355340D02*
D03*
X2439260D02*
D03*
X53377Y1370465D02*
D03*
X2476537D02*
D03*
X22720Y1370823D02*
D03*
X2445880D02*
D03*
X38350Y1377090D02*
D03*
X2461510D02*
D03*
D108*
X266700Y434848D02*
D03*
X1153414Y773430D02*
D03*
D109*
X664206Y742932D02*
D03*
X734917Y672221D02*
D03*
X2104166Y746188D02*
D03*
X2174876Y675477D02*
D03*
X1373605Y746315D02*
D03*
X1444315Y675604D02*
D03*
D110*
X735603Y672426D02*
D03*
X664838Y743191D02*
D03*
X2175562Y675682D02*
D03*
X2104798Y746447D02*
D03*
X1445001Y675809D02*
D03*
X1374237Y746573D02*
D03*
M02*
