G04*
G04 #@! TF.GenerationSoftware,Altium Limited,Altium Designer,24.5.2 (23)*
G04*
G04 Layer_Color=16711935*
%FSLAX44Y44*%
%MOMM*%
G71*
G04*
G04 #@! TF.SameCoordinates,E8997BAD-2734-4FEF-AB70-E13736D7F9D3*
G04*
G04*
G04 #@! TF.FilePolarity,Negative*
G04*
G01*
G75*
%ADD37R,1.6032X1.4032*%
%ADD38R,1.4032X1.6032*%
G04:AMPARAMS|DCode=39|XSize=1.11mm|YSize=1.16mm|CornerRadius=0mm|HoleSize=0mm|Usage=FLASHONLY|Rotation=45.000|XOffset=0mm|YOffset=0mm|HoleType=Round|Shape=Rectangle|*
%AMROTATEDRECTD39*
4,1,4,0.0177,-0.8026,-0.8026,0.0177,-0.0177,0.8026,0.8026,-0.0177,0.0177,-0.8026,0.0*
%
%ADD39ROTATEDRECTD39*%

%ADD43R,2.7032X1.1032*%
G04:AMPARAMS|DCode=46|XSize=9.271mm|YSize=5.4102mm|CornerRadius=2.6416mm|HoleSize=0mm|Usage=FLASHONLY|Rotation=135.000|XOffset=0mm|YOffset=0mm|HoleType=Round|Shape=RoundedRectangle|*
%AMROUNDEDRECTD46*
21,1,9.2710,0.1270,0,0,135.0*
21,1,3.9878,5.4102,0,0,135.0*
1,1,5.2832,-1.3650,1.4548*
1,1,5.2832,1.4548,-1.3650*
1,1,5.2832,1.3650,-1.4548*
1,1,5.2832,-1.4548,1.3650*
%
%ADD46ROUNDEDRECTD46*%
%ADD47P,2.4087X4X180.0*%
%ADD48C,1.8532*%
%ADD49C,1.2032*%
G04:AMPARAMS|DCode=51|XSize=1.8532mm|YSize=1.8532mm|CornerRadius=0.5141mm|HoleSize=0mm|Usage=FLASHONLY|Rotation=180.000|XOffset=0mm|YOffset=0mm|HoleType=Round|Shape=RoundedRectangle|*
%AMROUNDEDRECTD51*
21,1,1.8532,0.8250,0,0,180.0*
21,1,0.8250,1.8532,0,0,180.0*
1,1,1.0282,-0.4125,0.4125*
1,1,1.0282,0.4125,0.4125*
1,1,1.0282,0.4125,-0.4125*
1,1,1.0282,-0.4125,-0.4125*
%
%ADD51ROUNDEDRECTD51*%
%ADD52R,1.5062X1.5062*%
%ADD53C,1.5092*%
%ADD54C,1.8282*%
%ADD55C,3.0992*%
%ADD56R,1.0032X1.0032*%
%ADD57C,1.8032*%
G04:AMPARAMS|DCode=58|XSize=1.8032mm|YSize=1.8032mm|CornerRadius=0.5016mm|HoleSize=0mm|Usage=FLASHONLY|Rotation=270.000|XOffset=0mm|YOffset=0mm|HoleType=Round|Shape=RoundedRectangle|*
%AMROUNDEDRECTD58*
21,1,1.8032,0.8000,0,0,270.0*
21,1,0.8000,1.8032,0,0,270.0*
1,1,1.0032,-0.4000,-0.4000*
1,1,1.0032,-0.4000,0.4000*
1,1,1.0032,0.4000,0.4000*
1,1,1.0032,0.4000,-0.4000*
%
%ADD58ROUNDEDRECTD58*%
%ADD60C,1.7232*%
G04:AMPARAMS|DCode=61|XSize=1.7232mm|YSize=1.7232mm|CornerRadius=0.4816mm|HoleSize=0mm|Usage=FLASHONLY|Rotation=90.000|XOffset=0mm|YOffset=0mm|HoleType=Round|Shape=RoundedRectangle|*
%AMROUNDEDRECTD61*
21,1,1.7232,0.7600,0,0,90.0*
21,1,0.7600,1.7232,0,0,90.0*
1,1,0.9632,0.3800,0.3800*
1,1,0.9632,0.3800,-0.3800*
1,1,0.9632,-0.3800,-0.3800*
1,1,0.9632,-0.3800,0.3800*
%
%ADD61ROUNDEDRECTD61*%
%ADD62O,2.4032X2.0032*%
%ADD63R,2.4032X2.0032*%
%ADD64C,1.7032*%
G04:AMPARAMS|DCode=65|XSize=1.7032mm|YSize=1.7032mm|CornerRadius=0.4766mm|HoleSize=0mm|Usage=FLASHONLY|Rotation=180.000|XOffset=0mm|YOffset=0mm|HoleType=Round|Shape=RoundedRectangle|*
%AMROUNDEDRECTD65*
21,1,1.7032,0.7500,0,0,180.0*
21,1,0.7500,1.7032,0,0,180.0*
1,1,0.9532,-0.3750,0.3750*
1,1,0.9532,0.3750,0.3750*
1,1,0.9532,0.3750,-0.3750*
1,1,0.9532,-0.3750,-0.3750*
%
%ADD65ROUNDEDRECTD65*%
%ADD66C,2.3000*%
G04:AMPARAMS|DCode=67|XSize=1.7032mm|YSize=1.7032mm|CornerRadius=0.4766mm|HoleSize=0mm|Usage=FLASHONLY|Rotation=90.000|XOffset=0mm|YOffset=0mm|HoleType=Round|Shape=RoundedRectangle|*
%AMROUNDEDRECTD67*
21,1,1.7032,0.7500,0,0,90.0*
21,1,0.7500,1.7032,0,0,90.0*
1,1,0.9532,0.3750,0.3750*
1,1,0.9532,0.3750,-0.3750*
1,1,0.9532,-0.3750,-0.3750*
1,1,0.9532,-0.3750,0.3750*
%
%ADD67ROUNDEDRECTD67*%
%ADD68C,2.0032*%
%ADD69C,5.7032*%
G04:AMPARAMS|DCode=117|XSize=2.2532mm|YSize=3.7032mm|CornerRadius=0mm|HoleSize=0mm|Usage=FLASHONLY|Rotation=135.000|XOffset=0mm|YOffset=0mm|HoleType=Round|Shape=Rectangle|*
%AMROTATEDRECTD117*
4,1,4,2.1059,0.5127,-0.5127,-2.1059,-2.1059,-0.5127,0.5127,2.1059,2.1059,0.5127,0.0*
%
%ADD117ROTATEDRECTD117*%

%ADD118R,2.2532X3.7032*%
G04:AMPARAMS|DCode=119|XSize=1.1032mm|YSize=1.5032mm|CornerRadius=0mm|HoleSize=0mm|Usage=FLASHONLY|Rotation=45.000|XOffset=0mm|YOffset=0mm|HoleType=Round|Shape=Rectangle|*
%AMROTATEDRECTD119*
4,1,4,0.1414,-0.9215,-0.9215,0.1414,-0.1414,0.9215,0.9215,-0.1414,0.1414,-0.9215,0.0*
%
%ADD119ROTATEDRECTD119*%

%ADD120R,1.5032X1.1032*%
%ADD121R,1.4132X0.9232*%
G04:AMPARAMS|DCode=122|XSize=4.5032mm|YSize=1.8532mm|CornerRadius=0.3841mm|HoleSize=0mm|Usage=FLASHONLY|Rotation=135.000|XOffset=0mm|YOffset=0mm|HoleType=Round|Shape=RoundedRectangle|*
%AMROUNDEDRECTD122*
21,1,4.5032,1.0850,0,0,135.0*
21,1,3.7350,1.8532,0,0,135.0*
1,1,0.7682,-0.9369,1.7041*
1,1,0.7682,1.7041,-0.9369*
1,1,0.7682,0.9369,-1.7041*
1,1,0.7682,-1.7041,0.9369*
%
%ADD122ROUNDEDRECTD122*%
%ADD123C,0.2032*%
%ADD124R,1.0032X1.0032*%
G36*
X2308860Y944880D02*
X2015576D01*
X2015232Y945224D01*
X1985677Y915670D01*
X1572260D01*
X1543050Y944880D01*
X1284732D01*
X1253744Y913892D01*
X845312D01*
X814324Y944880D01*
X561594D01*
X539242Y922528D01*
X224028D01*
Y1115822D01*
X2308860D01*
Y944880D01*
D02*
G37*
G36*
X798797Y820674D02*
X542264D01*
X540351Y822716D01*
X531420D01*
X529378Y820674D01*
X275557D01*
Y898652D01*
X524002D01*
X530143Y892511D01*
X543007D01*
X549148Y898652D01*
X798797D01*
Y820674D01*
D02*
G37*
G36*
X2258060Y822960D02*
X2006092D01*
X2001890Y827416D01*
X1994982D01*
X1990526Y822960D01*
X1734820D01*
Y895858D01*
X1989966D01*
X1993685Y892140D01*
X2001612D01*
X2005330Y895858D01*
X2258060D01*
Y822960D01*
D02*
G37*
G36*
X1528616Y820420D02*
X1274572D01*
X1271655Y823337D01*
X1263475D01*
X1260558Y820420D01*
X1005377D01*
Y896180D01*
X1256327D01*
X1262792Y890039D01*
X1271039D01*
X1277180Y896180D01*
X1528616D01*
Y820420D01*
D02*
G37*
%LPC*%
G36*
X744025Y975582D02*
X741754D01*
X739656Y974713D01*
X738051Y973107D01*
X737181Y971009D01*
Y969874D01*
Y968738D01*
X738051Y966640D01*
X739656Y965035D01*
X741754Y964166D01*
X744025D01*
X746123Y965035D01*
X747728Y966640D01*
X748597Y968738D01*
Y969874D01*
Y971009D01*
X747728Y973107D01*
X746123Y974713D01*
X744025Y975582D01*
D02*
G37*
G36*
X1481895Y975328D02*
X1479624D01*
X1477526Y974459D01*
X1475921Y972853D01*
X1475052Y970755D01*
Y969620D01*
Y968484D01*
X1475921Y966386D01*
X1477526Y964781D01*
X1479624Y963912D01*
X1481895D01*
X1483993Y964781D01*
X1485598Y966386D01*
X1486467Y968484D01*
Y969620D01*
Y970755D01*
X1485598Y972853D01*
X1483993Y974459D01*
X1481895Y975328D01*
D02*
G37*
G36*
X1303344Y975571D02*
X1301073D01*
X1298975Y974702D01*
X1297370Y973096D01*
X1296501Y970998D01*
Y969863D01*
Y968727D01*
X1297370Y966629D01*
X1297612Y966386D01*
X1297612Y966386D01*
X1299218Y964781D01*
X1301316Y963912D01*
X1303587D01*
X1305685Y964781D01*
X1307290Y966386D01*
X1308159Y968484D01*
Y969620D01*
Y970755D01*
X1307290Y972853D01*
X1307047Y973096D01*
X1307047Y973096D01*
X1305442Y974702D01*
X1303344Y975571D01*
D02*
G37*
G36*
X2031932Y974185D02*
X2029661D01*
X2027563Y973316D01*
X2025957Y971710D01*
X2025089Y969612D01*
Y968477D01*
Y967341D01*
X2025957Y965243D01*
X2027563Y963638D01*
X2029661Y962769D01*
X2031932D01*
X2034030Y963638D01*
X2035635Y965243D01*
X2036504Y967341D01*
Y968477D01*
Y969612D01*
X2035635Y971710D01*
X2034030Y973316D01*
X2031932Y974185D01*
D02*
G37*
G36*
X2211573Y974121D02*
X2209303D01*
X2207205Y973252D01*
X2205599Y971646D01*
X2204730Y969548D01*
Y968413D01*
Y967278D01*
X2205599Y965180D01*
X2207205Y963574D01*
X2209303Y962705D01*
X2211573D01*
X2213671Y963574D01*
X2215277Y965180D01*
X2216146Y967278D01*
Y968413D01*
Y969548D01*
X2215277Y971646D01*
X2213671Y973252D01*
X2211573Y974121D01*
D02*
G37*
G36*
X547175Y974058D02*
X544904D01*
X542806Y973189D01*
X541200Y971583D01*
X540331Y969485D01*
Y968350D01*
Y967214D01*
X541200Y965116D01*
X542806Y963511D01*
X544904Y962642D01*
X547175D01*
X549273Y963511D01*
X550878Y965116D01*
X551747Y967214D01*
Y968350D01*
Y969485D01*
X550878Y971583D01*
X549273Y973189D01*
X547175Y974058D01*
D02*
G37*
G36*
X2008437Y973804D02*
X2006166D01*
X2004068Y972935D01*
X2002462Y971329D01*
X2001593Y969231D01*
Y968096D01*
Y966960D01*
X2002462Y964862D01*
X2004068Y963257D01*
X2006166Y962388D01*
X2008437D01*
X2010535Y963257D01*
X2012140Y964862D01*
X2013009Y966960D01*
Y968096D01*
Y969231D01*
X2012140Y971329D01*
X2010535Y972935D01*
X2008437Y973804D01*
D02*
G37*
G36*
X1277588Y973644D02*
X1275317D01*
X1273219Y972775D01*
X1271613Y971169D01*
X1270744Y969071D01*
Y967936D01*
Y966800D01*
X1271613Y964702D01*
X1273219Y963097D01*
X1275317Y962228D01*
X1277588D01*
X1279686Y963097D01*
X1281291Y964702D01*
X1282160Y966800D01*
Y967936D01*
Y969071D01*
X1281291Y971169D01*
X1279686Y972775D01*
X1277588Y973644D01*
D02*
G37*
G36*
X571903Y973296D02*
X569632D01*
X567534Y972427D01*
X565928Y970821D01*
X565059Y968723D01*
Y967588D01*
Y966452D01*
X565928Y964354D01*
X567534Y962749D01*
X569632Y961880D01*
X571903D01*
X574000Y962749D01*
X575606Y964354D01*
X576475Y966452D01*
Y967588D01*
Y968723D01*
X575606Y970821D01*
X574000Y972427D01*
X571903Y973296D01*
D02*
G37*
G36*
X316289Y846550D02*
X314018D01*
X311920Y845681D01*
X310315Y844075D01*
X309445Y841977D01*
Y840842D01*
Y839706D01*
X310315Y837608D01*
X311920Y836003D01*
X314018Y835134D01*
X316289D01*
X318387Y836003D01*
X319992Y837608D01*
X320861Y839706D01*
Y840842D01*
Y841977D01*
X319992Y844075D01*
X318387Y845681D01*
X316289Y846550D01*
D02*
G37*
G36*
X424806Y844966D02*
X422536D01*
X420438Y844097D01*
X418832Y842492D01*
X417963Y840394D01*
Y839258D01*
Y838123D01*
X418832Y836025D01*
X420438Y834419D01*
X422536Y833550D01*
X424806D01*
X426904Y834419D01*
X428510Y836025D01*
X429379Y838123D01*
Y839258D01*
Y840394D01*
X428510Y842492D01*
X426904Y844097D01*
X424806Y844966D01*
D02*
G37*
G36*
X1777227Y846550D02*
X1774956D01*
X1772858Y845681D01*
X1771252Y844075D01*
X1770383Y841977D01*
Y840842D01*
Y839706D01*
X1771252Y837608D01*
X1772858Y836003D01*
X1774956Y835134D01*
X1777227D01*
X1779325Y836003D01*
X1780930Y837608D01*
X1781799Y839706D01*
Y840842D01*
Y841977D01*
X1780930Y844075D01*
X1779325Y845681D01*
X1777227Y846550D01*
D02*
G37*
G36*
X1885755Y845280D02*
X1883484D01*
X1881386Y844411D01*
X1879780Y842805D01*
X1878911Y840707D01*
Y839572D01*
Y838436D01*
X1879780Y836338D01*
X1881386Y834733D01*
X1883484Y833864D01*
X1885755D01*
X1887853Y834733D01*
X1889458Y836338D01*
X1890327Y838436D01*
Y839572D01*
Y840707D01*
X1889458Y842805D01*
X1887853Y844411D01*
X1885755Y845280D01*
D02*
G37*
G36*
X1046125Y845336D02*
X1043854D01*
X1041756Y844467D01*
X1040151Y842862D01*
X1039281Y840764D01*
Y839628D01*
Y838493D01*
X1040151Y836395D01*
X1041756Y834789D01*
X1043854Y833920D01*
X1046125D01*
X1048223Y834789D01*
X1049828Y836395D01*
X1050697Y838493D01*
Y839628D01*
Y840764D01*
X1049828Y842862D01*
X1048223Y844467D01*
X1046125Y845336D01*
D02*
G37*
G36*
X1154997Y844518D02*
X1152726D01*
X1150628Y843649D01*
X1149023Y842043D01*
X1148154Y839945D01*
Y838810D01*
Y837674D01*
X1149023Y835576D01*
X1150628Y833971D01*
X1152726Y833102D01*
X1154997D01*
X1157095Y833971D01*
X1158700Y835576D01*
X1159569Y837674D01*
Y838810D01*
Y839945D01*
X1158700Y842043D01*
X1157095Y843649D01*
X1154997Y844518D01*
D02*
G37*
%LPD*%
D37*
X535940Y789338D02*
D03*
Y809338D02*
D03*
X1266317Y789465D02*
D03*
Y809465D02*
D03*
X1996878Y789338D02*
D03*
Y809338D02*
D03*
D38*
X1204305Y809683D02*
D03*
X1224305D02*
D03*
X1091913Y781431D02*
D03*
X1071913D02*
D03*
X1770150Y806958D02*
D03*
X1750150D02*
D03*
X1039589Y807085D02*
D03*
X1019589D02*
D03*
X474378Y810006D02*
D03*
X494378D02*
D03*
X361536Y782828D02*
D03*
X341536D02*
D03*
X1935316Y810006D02*
D03*
X1955316D02*
D03*
X1822474Y781304D02*
D03*
X1802474D02*
D03*
X309212Y806958D02*
D03*
X289212D02*
D03*
X1864196Y790702D02*
D03*
X1884196D02*
D03*
X403258D02*
D03*
X423258D02*
D03*
X1133635Y790829D02*
D03*
X1153635D02*
D03*
D39*
X1983676Y529654D02*
D03*
X1971104Y542226D02*
D03*
X1254696Y528384D02*
D03*
X1242124Y540956D02*
D03*
X540194Y522796D02*
D03*
X527622Y535368D02*
D03*
D43*
X1909572Y811790D02*
D03*
Y780790D02*
D03*
X1179068Y812298D02*
D03*
Y781298D02*
D03*
X449072Y815854D02*
D03*
Y784854D02*
D03*
X990600Y1156722D02*
D03*
Y1125722D02*
D03*
X1770743Y1156722D02*
D03*
Y1125722D02*
D03*
X1242060Y1125722D02*
D03*
Y1156722D02*
D03*
X1950357Y1156722D02*
D03*
Y1125722D02*
D03*
X1206137Y1125722D02*
D03*
Y1156722D02*
D03*
X1986280Y1156722D02*
D03*
Y1125722D02*
D03*
X1098369Y1156722D02*
D03*
Y1125722D02*
D03*
X1170214Y1156722D02*
D03*
Y1125722D02*
D03*
X1842589Y1156722D02*
D03*
Y1125722D02*
D03*
X1062446Y1156722D02*
D03*
Y1125722D02*
D03*
X1914434Y1156722D02*
D03*
Y1125722D02*
D03*
X1806666Y1156722D02*
D03*
Y1125722D02*
D03*
X509270Y1156722D02*
D03*
Y1125722D02*
D03*
X1734820Y1156722D02*
D03*
Y1125722D02*
D03*
X1878512Y1156722D02*
D03*
Y1125722D02*
D03*
X1134292Y1156722D02*
D03*
Y1125722D02*
D03*
X1026523Y1156722D02*
D03*
Y1125722D02*
D03*
X473347Y1156802D02*
D03*
Y1125802D02*
D03*
X365579Y1156802D02*
D03*
Y1125802D02*
D03*
X401502Y1156802D02*
D03*
Y1125802D02*
D03*
X437424Y1156802D02*
D03*
Y1125802D02*
D03*
X329656Y1156802D02*
D03*
Y1125802D02*
D03*
X257810Y1156802D02*
D03*
Y1125802D02*
D03*
X293733Y1156802D02*
D03*
Y1125802D02*
D03*
D46*
X664206Y742932D02*
D03*
X734917Y672221D02*
D03*
X2104166Y746188D02*
D03*
X2174876Y675477D02*
D03*
X1373605Y746315D02*
D03*
X1444315Y675604D02*
D03*
D47*
X561746Y542750D02*
D03*
X2001706Y546006D02*
D03*
X1271145Y546133D02*
D03*
D48*
X548241Y556256D02*
D03*
X534735Y569762D02*
D03*
X391830Y1287780D02*
D03*
X1540386D02*
D03*
X851253D02*
D03*
X1770098D02*
D03*
X1999809D02*
D03*
X2229520D02*
D03*
X621541D02*
D03*
X1080964D02*
D03*
X1310675D02*
D03*
X1988200Y559512D02*
D03*
X1974694Y573017D02*
D03*
X1257639Y559639D02*
D03*
X1244134Y573144D02*
D03*
X1087120Y218440D02*
D03*
X1061720D02*
D03*
X1036320D02*
D03*
X985520Y193040D02*
D03*
X1010920D02*
D03*
X985520Y218440D02*
D03*
X1010920D02*
D03*
X1036320Y193040D02*
D03*
X1087120D02*
D03*
X1137920D02*
D03*
Y218440D02*
D03*
X1214120Y193040D02*
D03*
Y218440D02*
D03*
X1239520Y193040D02*
D03*
Y218440D02*
D03*
X1290320Y193040D02*
D03*
X1264920Y218440D02*
D03*
Y193040D02*
D03*
X1188720Y218440D02*
D03*
Y193040D02*
D03*
X1163320Y218440D02*
D03*
Y193040D02*
D03*
X1112520Y218440D02*
D03*
Y193040D02*
D03*
X1061720D02*
D03*
D49*
X632245Y766153D02*
D03*
X630307Y753949D02*
D03*
X675223Y709033D02*
D03*
X758138Y640260D02*
D03*
X734563Y643584D02*
D03*
X745933Y638323D02*
D03*
X725137Y653009D02*
D03*
X701018Y683238D02*
D03*
X706279Y671868D02*
D03*
X715705Y662442D02*
D03*
X702955Y695443D02*
D03*
X687427Y710971D02*
D03*
X663852Y714294D02*
D03*
X654427Y723720D02*
D03*
X644994Y733153D02*
D03*
X635568Y742578D02*
D03*
X698105Y731915D02*
D03*
X692844Y743286D02*
D03*
X683418Y752711D02*
D03*
X673985Y762144D02*
D03*
X664560Y771570D02*
D03*
X653189Y776831D02*
D03*
X640985Y774893D02*
D03*
X723900Y706120D02*
D03*
X735270Y700859D02*
D03*
X744696Y691433D02*
D03*
X754129Y682001D02*
D03*
X763555Y672575D02*
D03*
X768815Y661205D02*
D03*
X766878Y649000D02*
D03*
X711695Y704183D02*
D03*
X696167Y719711D02*
D03*
X2072204Y769409D02*
D03*
X2070267Y757205D02*
D03*
X2115182Y712289D02*
D03*
X2198098Y643516D02*
D03*
X2174523Y646839D02*
D03*
X2185893Y641578D02*
D03*
X2165097Y656265D02*
D03*
X2140978Y686494D02*
D03*
X2146239Y675124D02*
D03*
X2155664Y665698D02*
D03*
X2142915Y698699D02*
D03*
X2127387Y714227D02*
D03*
X2103812Y717550D02*
D03*
X2094386Y726976D02*
D03*
X2084953Y736408D02*
D03*
X2075528Y745834D02*
D03*
X2138064Y735171D02*
D03*
X2132803Y746541D02*
D03*
X2123378Y755967D02*
D03*
X2113945Y765400D02*
D03*
X2104519Y774826D02*
D03*
X2093149Y780086D02*
D03*
X2080944Y778149D02*
D03*
X2163860Y709376D02*
D03*
X2175230Y704115D02*
D03*
X2184656Y694689D02*
D03*
X2194088Y685256D02*
D03*
X2203514Y675831D02*
D03*
X2208775Y664460D02*
D03*
X2206837Y652256D02*
D03*
X2151655Y707438D02*
D03*
X2136127Y722966D02*
D03*
X1341644Y769536D02*
D03*
X1339706Y757331D02*
D03*
X1384621Y712416D02*
D03*
X1467537Y643643D02*
D03*
X1443962Y646966D02*
D03*
X1455332Y641705D02*
D03*
X1434536Y656392D02*
D03*
X1410417Y686621D02*
D03*
X1415678Y675250D02*
D03*
X1425103Y665825D02*
D03*
X1412354Y698826D02*
D03*
X1396826Y714353D02*
D03*
X1373251Y717677D02*
D03*
X1363826Y727103D02*
D03*
X1354393Y736535D02*
D03*
X1344967Y745961D02*
D03*
X1407504Y735298D02*
D03*
X1402243Y746668D02*
D03*
X1392817Y756094D02*
D03*
X1383384Y765527D02*
D03*
X1373958Y774953D02*
D03*
X1362588Y780213D02*
D03*
X1350383Y778276D02*
D03*
X1433299Y709503D02*
D03*
X1444669Y704242D02*
D03*
X1454095Y694816D02*
D03*
X1463528Y685383D02*
D03*
X1472953Y675958D02*
D03*
X1478214Y664587D02*
D03*
X1476277Y652383D02*
D03*
X1421094Y707565D02*
D03*
X1405566Y723093D02*
D03*
D51*
X316830Y1287780D02*
D03*
X1465386D02*
D03*
X776253D02*
D03*
X1695098D02*
D03*
X1924809D02*
D03*
X2154520D02*
D03*
X546541D02*
D03*
X1005964D02*
D03*
X1235675D02*
D03*
X1290320Y218440D02*
D03*
D52*
X1805940Y142240D02*
D03*
D53*
X1818640Y167640D02*
D03*
X1831340Y142240D02*
D03*
X1844040Y167640D02*
D03*
X1856740Y142240D02*
D03*
X1869440Y167640D02*
D03*
X1882140Y142240D02*
D03*
X1894840Y167640D02*
D03*
D54*
X1793240Y78740D02*
D03*
X1907540D02*
D03*
D55*
X1769140Y48240D02*
D03*
X1931640D02*
D03*
D56*
X200406Y1155446D02*
D03*
X189992D02*
D03*
Y1145540D02*
D03*
X200406D02*
D03*
X189992Y1136650D02*
D03*
X200406D02*
D03*
X189992Y1127760D02*
D03*
X200406D02*
D03*
X189992Y1118870D02*
D03*
X200406D02*
D03*
X189992Y1109980D02*
D03*
X200406D02*
D03*
X189992Y1101090D02*
D03*
X200406D02*
D03*
X1820171Y828548D02*
D03*
X1854501D02*
D03*
X1863083D02*
D03*
X1845918D02*
D03*
X1828753D02*
D03*
X1837336D02*
D03*
X1794423Y828802D02*
D03*
X1803006D02*
D03*
X1130855D02*
D03*
X1122272D02*
D03*
X1811588D02*
D03*
X1139437D02*
D03*
X1105107D02*
D03*
X1096525D02*
D03*
X1113690D02*
D03*
X1987141Y829056D02*
D03*
X1909904D02*
D03*
X1918486D02*
D03*
X1969980D02*
D03*
X1978560D02*
D03*
X1927069D02*
D03*
X1952816D02*
D03*
X1961399D02*
D03*
X1935651D02*
D03*
X1944234D02*
D03*
X1231204D02*
D03*
X1248365D02*
D03*
X1214039D02*
D03*
X1222621D02*
D03*
X1239785D02*
D03*
X1481494D02*
D03*
X1498655D02*
D03*
X1490074D02*
D03*
X1256946D02*
D03*
X1205456D02*
D03*
X1079360D02*
D03*
X1087942D02*
D03*
X1062195D02*
D03*
X1070777D02*
D03*
X1196874D02*
D03*
X1188291D02*
D03*
X1179709D02*
D03*
X1446896Y829310D02*
D03*
X1438314D02*
D03*
X1472644D02*
D03*
X1386840D02*
D03*
X1455479D02*
D03*
X1464061D02*
D03*
X1343640Y829437D02*
D03*
X1352222D02*
D03*
X1360805D02*
D03*
X1335058D02*
D03*
X1377967D02*
D03*
X1369386D02*
D03*
X1326475D02*
D03*
X2168026Y831596D02*
D03*
X2228099D02*
D03*
X2116339D02*
D03*
X2090596D02*
D03*
X2099177D02*
D03*
X2107758D02*
D03*
X2082014D02*
D03*
X2056266D02*
D03*
X2064849D02*
D03*
X2073431D02*
D03*
X2219518D02*
D03*
X2185191D02*
D03*
X2176609D02*
D03*
X2210937D02*
D03*
X2202356D02*
D03*
X2193774D02*
D03*
X1863267Y837438D02*
D03*
X1811782D02*
D03*
X1803201D02*
D03*
X1794620D02*
D03*
X1846105D02*
D03*
X1820363D02*
D03*
X1828944D02*
D03*
X1854686D02*
D03*
X1837524D02*
D03*
X1122459Y837692D02*
D03*
X1105298D02*
D03*
X1070974D02*
D03*
X1062394D02*
D03*
X1113878D02*
D03*
X1079555D02*
D03*
X1139621D02*
D03*
X1088136D02*
D03*
X1096717D02*
D03*
X1131040D02*
D03*
X1239951Y837946D02*
D03*
X1918661D02*
D03*
X1910080D02*
D03*
X1231370D02*
D03*
X1179885D02*
D03*
X1961565D02*
D03*
X1188466D02*
D03*
X1978726D02*
D03*
X1987307D02*
D03*
X1248531D02*
D03*
X1970146D02*
D03*
X1257112D02*
D03*
X1498600Y838200D02*
D03*
X1490019D02*
D03*
X1214208D02*
D03*
X1205628D02*
D03*
X1197047D02*
D03*
X1481438D02*
D03*
X1326554D02*
D03*
X1335134D02*
D03*
X1472858D02*
D03*
X1352296D02*
D03*
X1343715D02*
D03*
X1222789D02*
D03*
X1378204D02*
D03*
X1369568D02*
D03*
X1446894D02*
D03*
X1360932D02*
D03*
X1438314D02*
D03*
X1386840D02*
D03*
X1952984D02*
D03*
X1455475D02*
D03*
X1464056D02*
D03*
X1927242D02*
D03*
X1935822D02*
D03*
X1944403D02*
D03*
X2099343Y840486D02*
D03*
X2090762D02*
D03*
X2116505D02*
D03*
X2107924D02*
D03*
X2211103D02*
D03*
X2202522D02*
D03*
X2228265D02*
D03*
X2219684D02*
D03*
X2193942Y840740D02*
D03*
X2185361D02*
D03*
X2073601D02*
D03*
X2082182D02*
D03*
X2056439D02*
D03*
X2065020D02*
D03*
X2176780D02*
D03*
X2168199D02*
D03*
X2178904Y856740D02*
D03*
X2170175D02*
D03*
X2115916D02*
D03*
X2107188D02*
D03*
X2161447D02*
D03*
X2205089D02*
D03*
X2196361D02*
D03*
X2152719D02*
D03*
X2213817D02*
D03*
X2124483D02*
D03*
X2046089D02*
D03*
X2037361D02*
D03*
X2063546D02*
D03*
X2054818D02*
D03*
X2098459D02*
D03*
X2072274D02*
D03*
X2133373D02*
D03*
X2089731D02*
D03*
X2081003D02*
D03*
X2187632D02*
D03*
X2231274D02*
D03*
X2222546D02*
D03*
X2248731D02*
D03*
X2239841D02*
D03*
X761608Y856740D02*
D03*
X646250D02*
D03*
X778903D02*
D03*
X770336D02*
D03*
X654978D02*
D03*
X611336D02*
D03*
X620065D02*
D03*
X663545D02*
D03*
X672435D02*
D03*
X700509D02*
D03*
X691781D02*
D03*
X717966D02*
D03*
X709238D02*
D03*
X752879D02*
D03*
X726694D02*
D03*
X787793D02*
D03*
X744151D02*
D03*
X735423D02*
D03*
X585151D02*
D03*
X593880D02*
D03*
X602608D02*
D03*
X628793D02*
D03*
X637522D02*
D03*
X576423D02*
D03*
X1422158Y856867D02*
D03*
X1483257D02*
D03*
X1491985D02*
D03*
X1393922D02*
D03*
X1385355D02*
D03*
X1376627D02*
D03*
X1518170D02*
D03*
X1500713D02*
D03*
X1509280D02*
D03*
X1474528D02*
D03*
X1465800D02*
D03*
X1457071D02*
D03*
X1332985D02*
D03*
X1324257D02*
D03*
X1315528D02*
D03*
X1430886D02*
D03*
X1439615D02*
D03*
X1448343D02*
D03*
X1350442D02*
D03*
X1341714D02*
D03*
X1402812D02*
D03*
X1306800D02*
D03*
X1367899D02*
D03*
X1359170D02*
D03*
X2133373Y866138D02*
D03*
X2072274D02*
D03*
X2081003D02*
D03*
X2231274D02*
D03*
X2240002D02*
D03*
X2222546D02*
D03*
X2063546D02*
D03*
X2046089D02*
D03*
X2054818D02*
D03*
X2089731D02*
D03*
X2098459D02*
D03*
X2037361D02*
D03*
X2178904D02*
D03*
X2170175D02*
D03*
X2161447D02*
D03*
X2124644D02*
D03*
X2115916D02*
D03*
X2107188D02*
D03*
X2196361D02*
D03*
X2187632D02*
D03*
X2248731D02*
D03*
X2152719D02*
D03*
X2213817D02*
D03*
X2205089D02*
D03*
X672435Y866138D02*
D03*
X611336D02*
D03*
X620065D02*
D03*
X646250D02*
D03*
X654978D02*
D03*
X663707D02*
D03*
X585151D02*
D03*
X593880D02*
D03*
X602608D02*
D03*
X628793D02*
D03*
X637522D02*
D03*
X576423D02*
D03*
X735423D02*
D03*
X726694D02*
D03*
X752879D02*
D03*
X744151D02*
D03*
X770336D02*
D03*
X761608D02*
D03*
X787793D02*
D03*
X779064D02*
D03*
X691781D02*
D03*
X717966D02*
D03*
X709238D02*
D03*
X700509D02*
D03*
X1422158Y866265D02*
D03*
X1483257D02*
D03*
X1474528D02*
D03*
X1448343D02*
D03*
X1439615D02*
D03*
X1430886D02*
D03*
X1509442D02*
D03*
X1518170D02*
D03*
X1457071D02*
D03*
X1465800D02*
D03*
X1491985D02*
D03*
X1500713D02*
D03*
X1402812D02*
D03*
X1341714D02*
D03*
X1350442D02*
D03*
X1376627D02*
D03*
X1385355D02*
D03*
X1394084D02*
D03*
X1315528D02*
D03*
X1324257D02*
D03*
X1332985D02*
D03*
X1306800D02*
D03*
X1367899D02*
D03*
X1359170D02*
D03*
X2196361Y875536D02*
D03*
X2205089D02*
D03*
X2187632D02*
D03*
X2240002D02*
D03*
X2248731D02*
D03*
X2170175D02*
D03*
X2178904D02*
D03*
X2161447D02*
D03*
X2213817D02*
D03*
X2152719D02*
D03*
X2107188D02*
D03*
X2054818D02*
D03*
X2046089D02*
D03*
X2037361D02*
D03*
X2222546D02*
D03*
X2231274D02*
D03*
X2063546D02*
D03*
X2098459D02*
D03*
X2133373D02*
D03*
X2072274D02*
D03*
X2115916D02*
D03*
X2124644D02*
D03*
X2089731D02*
D03*
X2081003D02*
D03*
X593880Y875536D02*
D03*
X654978D02*
D03*
X585151D02*
D03*
X646250D02*
D03*
X602608D02*
D03*
X611336D02*
D03*
X620065D02*
D03*
X663707D02*
D03*
X672435D02*
D03*
X787793D02*
D03*
X779064D02*
D03*
X735423D02*
D03*
X726694D02*
D03*
X770336D02*
D03*
X637522D02*
D03*
X628793D02*
D03*
X761608D02*
D03*
X576423D02*
D03*
X744151D02*
D03*
X691781D02*
D03*
X709238D02*
D03*
X700509D02*
D03*
X717966D02*
D03*
X752879D02*
D03*
X1448343Y875663D02*
D03*
X1385355D02*
D03*
X1376627D02*
D03*
X1341714D02*
D03*
X1483257D02*
D03*
X1402812D02*
D03*
X1394084D02*
D03*
X1474528D02*
D03*
X1457071D02*
D03*
X1500713D02*
D03*
X1518170D02*
D03*
X1509442D02*
D03*
X1491985D02*
D03*
X1430886D02*
D03*
X1439615D02*
D03*
X1465800D02*
D03*
X1422158D02*
D03*
X1306800D02*
D03*
X1367899D02*
D03*
X1359170D02*
D03*
X1332985D02*
D03*
X1324257D02*
D03*
X1315528D02*
D03*
X1350442D02*
D03*
X2240002Y884934D02*
D03*
X2248731D02*
D03*
X2231274D02*
D03*
X2063546D02*
D03*
X2222546D02*
D03*
X2213817D02*
D03*
X2152719D02*
D03*
X2205089D02*
D03*
X2187632D02*
D03*
X2196361D02*
D03*
X2054818D02*
D03*
X2133373D02*
D03*
X2072274D02*
D03*
X2124644D02*
D03*
X2107188D02*
D03*
X2115916D02*
D03*
X2037361D02*
D03*
X2046089D02*
D03*
X2098459D02*
D03*
X2081003D02*
D03*
X2089731D02*
D03*
X2170175D02*
D03*
X2178904D02*
D03*
X2161447D02*
D03*
X779064Y884934D02*
D03*
X770336D02*
D03*
X620065D02*
D03*
X726694D02*
D03*
X628793D02*
D03*
X787793D02*
D03*
X654978D02*
D03*
X672435D02*
D03*
X663707D02*
D03*
X761608D02*
D03*
X611336D02*
D03*
X646250D02*
D03*
X691781D02*
D03*
X576423D02*
D03*
X752879D02*
D03*
X593880D02*
D03*
X585151D02*
D03*
X602608D02*
D03*
X700509D02*
D03*
X709238D02*
D03*
X717966D02*
D03*
X744151D02*
D03*
X637522D02*
D03*
X735423D02*
D03*
X1500713Y885061D02*
D03*
X1509442D02*
D03*
X1332985D02*
D03*
X1491985D02*
D03*
X1518170D02*
D03*
X1474528D02*
D03*
X1483257D02*
D03*
X1457071D02*
D03*
X1465800D02*
D03*
X1324257D02*
D03*
X1402812D02*
D03*
X1341714D02*
D03*
X1385355D02*
D03*
X1394084D02*
D03*
X1350442D02*
D03*
X1306800D02*
D03*
X1315528D02*
D03*
X1359170D02*
D03*
X1367899D02*
D03*
X1430886D02*
D03*
X1439615D02*
D03*
X1448343D02*
D03*
X1422158D02*
D03*
X1376627D02*
D03*
X473202Y889000D02*
D03*
X481838D02*
D03*
X498602D02*
D03*
X490220D02*
D03*
X448056D02*
D03*
X456438D02*
D03*
X464820D02*
D03*
X1195578Y889254D02*
D03*
X1910080D02*
D03*
X1918716D02*
D03*
X1969516D02*
D03*
X1961134D02*
D03*
X1952498D02*
D03*
X1178814D02*
D03*
X1187196D02*
D03*
X1977898D02*
D03*
X1944116D02*
D03*
X1927352D02*
D03*
X1935734D02*
D03*
X1206208Y889381D02*
D03*
X1214844D02*
D03*
X1231608D02*
D03*
X1223226D02*
D03*
X2107188Y894332D02*
D03*
X2115916D02*
D03*
X2046089D02*
D03*
X2054818D02*
D03*
X2063546D02*
D03*
X2081003D02*
D03*
X2089731D02*
D03*
X2098459D02*
D03*
X2124644D02*
D03*
X2133373D02*
D03*
X2072274D02*
D03*
X2152719D02*
D03*
X2222546D02*
D03*
X2231274D02*
D03*
X2178904D02*
D03*
X2170175D02*
D03*
X2161447D02*
D03*
X2240002D02*
D03*
X2037361D02*
D03*
X2213817D02*
D03*
X2205089D02*
D03*
X2248731D02*
D03*
X2187632D02*
D03*
X2196361D02*
D03*
X654978Y894332D02*
D03*
X646250D02*
D03*
X663707D02*
D03*
X611336D02*
D03*
X672435D02*
D03*
X735423D02*
D03*
X744151D02*
D03*
X787793D02*
D03*
X726694D02*
D03*
X752879D02*
D03*
X709238D02*
D03*
X717966D02*
D03*
X691781D02*
D03*
X700509D02*
D03*
X779064D02*
D03*
X637522D02*
D03*
X576423D02*
D03*
X620065D02*
D03*
X628793D02*
D03*
X585151D02*
D03*
X761608D02*
D03*
X770336D02*
D03*
X593880D02*
D03*
X602608D02*
D03*
X1465800Y894459D02*
D03*
X1474528D02*
D03*
X1439615D02*
D03*
X1448343D02*
D03*
X1315528D02*
D03*
X1306800D02*
D03*
X1332985D02*
D03*
X1324257D02*
D03*
X1491985D02*
D03*
X1500713D02*
D03*
X1422158D02*
D03*
X1483257D02*
D03*
X1457071D02*
D03*
X1430886D02*
D03*
X1509442D02*
D03*
X1518170D02*
D03*
X1394084D02*
D03*
X1402812D02*
D03*
X1376627D02*
D03*
X1385355D02*
D03*
X1359170D02*
D03*
X1367899D02*
D03*
X1341714D02*
D03*
X1350442D02*
D03*
X2046089Y903730D02*
D03*
X2037361D02*
D03*
X2063546D02*
D03*
X2054818D02*
D03*
X2098459D02*
D03*
X2213817D02*
D03*
X2205089D02*
D03*
X2107188D02*
D03*
X2115916D02*
D03*
X2124644D02*
D03*
X2187632D02*
D03*
X2248731D02*
D03*
X2240002D02*
D03*
X2196361D02*
D03*
X2152719D02*
D03*
X2222546D02*
D03*
X2231274D02*
D03*
X2089731D02*
D03*
X2081003D02*
D03*
X2072274D02*
D03*
X2170175D02*
D03*
X2161447D02*
D03*
X2133373D02*
D03*
X2178904D02*
D03*
X602608Y903730D02*
D03*
X585151D02*
D03*
X593880D02*
D03*
X761608D02*
D03*
X770336D02*
D03*
X779064D02*
D03*
X576423D02*
D03*
X744151D02*
D03*
X752879D02*
D03*
X726694D02*
D03*
X735423D02*
D03*
X709238D02*
D03*
X717966D02*
D03*
X691781D02*
D03*
X700509D02*
D03*
X787793D02*
D03*
X620065D02*
D03*
X611336D02*
D03*
X637522D02*
D03*
X628793D02*
D03*
X654978D02*
D03*
X646250D02*
D03*
X672435D02*
D03*
X663707D02*
D03*
X1500713Y903857D02*
D03*
X1491985D02*
D03*
X1402812D02*
D03*
X1341714D02*
D03*
X1350442D02*
D03*
X1376627D02*
D03*
X1385355D02*
D03*
X1394084D02*
D03*
X1315528D02*
D03*
X1324257D02*
D03*
X1332985D02*
D03*
X1359170D02*
D03*
X1367899D02*
D03*
X1306800D02*
D03*
X1509442D02*
D03*
X1422158D02*
D03*
X1483257D02*
D03*
X1430886D02*
D03*
X1448343D02*
D03*
X1439615D02*
D03*
X1457071D02*
D03*
X1518170D02*
D03*
X1465800D02*
D03*
X1474528D02*
D03*
X2213817Y913128D02*
D03*
X2205089D02*
D03*
X2152719D02*
D03*
X2178904D02*
D03*
X2046089D02*
D03*
X2161447D02*
D03*
X2170175D02*
D03*
X2231274D02*
D03*
X2054818D02*
D03*
X2063546D02*
D03*
X2222546D02*
D03*
X2187632D02*
D03*
X2196361D02*
D03*
X2240002D02*
D03*
X2248731D02*
D03*
X2037361D02*
D03*
X2124644D02*
D03*
X2133373D02*
D03*
X2107188D02*
D03*
X2115916D02*
D03*
X2089731D02*
D03*
X2098459D02*
D03*
X2072274D02*
D03*
X2081003D02*
D03*
X700509Y913128D02*
D03*
X752879D02*
D03*
X691781D02*
D03*
X602608D02*
D03*
X717966D02*
D03*
X709238D02*
D03*
X744151D02*
D03*
X779064D02*
D03*
X770336D02*
D03*
X761608D02*
D03*
X735423D02*
D03*
X726694D02*
D03*
X787793D02*
D03*
X611336D02*
D03*
X620065D02*
D03*
X628793D02*
D03*
X672435D02*
D03*
X663707D02*
D03*
X654978D02*
D03*
X637522D02*
D03*
X585151D02*
D03*
X593880D02*
D03*
X646250D02*
D03*
X576423D02*
D03*
X1439615Y913255D02*
D03*
X1448343D02*
D03*
X1430886D02*
D03*
X1341714D02*
D03*
X1350442D02*
D03*
X1359170D02*
D03*
X1376627D02*
D03*
X1394084D02*
D03*
X1402812D02*
D03*
X1324257D02*
D03*
X1332985D02*
D03*
X1491985D02*
D03*
X1367899D02*
D03*
X1306800D02*
D03*
X1315528D02*
D03*
X1518170D02*
D03*
X1457071D02*
D03*
X1500713D02*
D03*
X1509442D02*
D03*
X1483257D02*
D03*
X1422158D02*
D03*
X1465800D02*
D03*
X1474528D02*
D03*
X1384808Y914146D02*
D03*
X2205089Y922526D02*
D03*
X2213817D02*
D03*
X2187632D02*
D03*
X2196361D02*
D03*
X2098459D02*
D03*
X2178904D02*
D03*
X2170175D02*
D03*
X2152719D02*
D03*
X2161447D02*
D03*
X2248731D02*
D03*
X2063546D02*
D03*
X2054818D02*
D03*
X2046089D02*
D03*
X2133373D02*
D03*
X2089731D02*
D03*
X2081003D02*
D03*
X2072274D02*
D03*
X2222546D02*
D03*
X2231274D02*
D03*
X2240002D02*
D03*
X2107188D02*
D03*
X2037361D02*
D03*
X2124644D02*
D03*
X2115916D02*
D03*
X691781Y922526D02*
D03*
X752879D02*
D03*
X744151D02*
D03*
X717966D02*
D03*
X709238D02*
D03*
X700509D02*
D03*
X779064D02*
D03*
X770336D02*
D03*
X761608D02*
D03*
X735423D02*
D03*
X726694D02*
D03*
X787793D02*
D03*
X576423D02*
D03*
X637522D02*
D03*
X628793D02*
D03*
X602608D02*
D03*
X593880D02*
D03*
X585151D02*
D03*
X620065D02*
D03*
X654978D02*
D03*
X646250D02*
D03*
X663707D02*
D03*
X611336D02*
D03*
X672435D02*
D03*
X1332985Y922653D02*
D03*
X1324257D02*
D03*
X1439615D02*
D03*
X1448343D02*
D03*
X1315528D02*
D03*
X1359170D02*
D03*
X1350442D02*
D03*
X1306800D02*
D03*
X1367899D02*
D03*
X1430886D02*
D03*
X1509442D02*
D03*
X1518170D02*
D03*
X1491985D02*
D03*
X1500713D02*
D03*
X1457071D02*
D03*
X1483257D02*
D03*
X1422158D02*
D03*
X1465800D02*
D03*
X1474528D02*
D03*
X1385355D02*
D03*
X1376627D02*
D03*
X1394084D02*
D03*
X1341714D02*
D03*
X1402812D02*
D03*
X1836604Y929894D02*
D03*
X1819147D02*
D03*
X1810419D02*
D03*
X1870276D02*
D03*
X1861548D02*
D03*
X1887733D02*
D03*
X1879004D02*
D03*
X1827875D02*
D03*
X1792962D02*
D03*
X1749320D02*
D03*
X1801690D02*
D03*
X1740592D02*
D03*
X1758049D02*
D03*
X1766777D02*
D03*
X1784234D02*
D03*
X1775505D02*
D03*
X1922646D02*
D03*
X1948831D02*
D03*
X1940103D02*
D03*
X1931375D02*
D03*
X1957560D02*
D03*
X1905189D02*
D03*
X1913918D02*
D03*
X1896461D02*
D03*
X461708Y929894D02*
D03*
X452980D02*
D03*
X444251D02*
D03*
X400610D02*
D03*
X409338D02*
D03*
X418066D02*
D03*
X479165D02*
D03*
X426795D02*
D03*
X470436D02*
D03*
X435523D02*
D03*
X496622D02*
D03*
X487893D02*
D03*
X323296D02*
D03*
X314567D02*
D03*
X340752D02*
D03*
X332024D02*
D03*
X358209D02*
D03*
X349481D02*
D03*
X375666D02*
D03*
X366937D02*
D03*
X288382D02*
D03*
X297111D02*
D03*
X305839D02*
D03*
X279654D02*
D03*
X1071130Y930021D02*
D03*
X1044944D02*
D03*
X1062401D02*
D03*
X1226999D02*
D03*
X1200814D02*
D03*
X1018759D02*
D03*
X1218270D02*
D03*
X1010031D02*
D03*
X1097315D02*
D03*
X1088586D02*
D03*
X1053673D02*
D03*
X1079858D02*
D03*
X1027488D02*
D03*
X1036216D02*
D03*
X1183357D02*
D03*
X1130987D02*
D03*
X1106043D02*
D03*
X1209542D02*
D03*
X1165900D02*
D03*
X1157172D02*
D03*
X1148444D02*
D03*
X1139715D02*
D03*
X1192085D02*
D03*
X1174629D02*
D03*
X2081003Y931924D02*
D03*
X2089731D02*
D03*
X2178904D02*
D03*
X2161447D02*
D03*
X2170175D02*
D03*
X2054818D02*
D03*
X2063546D02*
D03*
X2046089D02*
D03*
X2098459D02*
D03*
X2037361D02*
D03*
X2222546D02*
D03*
X2107188D02*
D03*
X2115916D02*
D03*
X2231274D02*
D03*
X2187632D02*
D03*
X2248731D02*
D03*
X2240002D02*
D03*
X2124644D02*
D03*
X2133373D02*
D03*
X2072274D02*
D03*
X2152719D02*
D03*
X2196361D02*
D03*
X2205089D02*
D03*
X2213817D02*
D03*
X672435Y931924D02*
D03*
X611336D02*
D03*
X620065D02*
D03*
X646250D02*
D03*
X654978D02*
D03*
X663707D02*
D03*
X585151D02*
D03*
X593880D02*
D03*
X602608D02*
D03*
X628793D02*
D03*
X637522D02*
D03*
X576423D02*
D03*
X787793D02*
D03*
X726694D02*
D03*
X735423D02*
D03*
X761608D02*
D03*
X770336D02*
D03*
X779064D02*
D03*
X700509D02*
D03*
X709238D02*
D03*
X717966D02*
D03*
X744151D02*
D03*
X752879D02*
D03*
X691781D02*
D03*
X1439615Y932051D02*
D03*
X1430886D02*
D03*
X1422158D02*
D03*
X1491985D02*
D03*
X1500713D02*
D03*
X1448343D02*
D03*
X1457071D02*
D03*
X1518170D02*
D03*
X1509442D02*
D03*
X1483257D02*
D03*
X1474528D02*
D03*
X1465800D02*
D03*
X1402812D02*
D03*
X1341714D02*
D03*
X1350442D02*
D03*
X1376627D02*
D03*
X1385355D02*
D03*
X1394084D02*
D03*
X1315528D02*
D03*
X1324257D02*
D03*
X1332985D02*
D03*
X1359170D02*
D03*
X1367899D02*
D03*
X1306800D02*
D03*
X1810419Y939292D02*
D03*
X1896461D02*
D03*
X1905189D02*
D03*
X1957560D02*
D03*
X1940103D02*
D03*
X1948831D02*
D03*
X1913918D02*
D03*
X1879004D02*
D03*
X1887733D02*
D03*
X1870276D02*
D03*
X1922646D02*
D03*
X1861548D02*
D03*
X1931375D02*
D03*
X1775505D02*
D03*
X1784234D02*
D03*
X1836604D02*
D03*
X1819147D02*
D03*
X1827875D02*
D03*
X1792962D02*
D03*
X1758049D02*
D03*
X1766777D02*
D03*
X1749320D02*
D03*
X1801690D02*
D03*
X1740592D02*
D03*
X279654Y939292D02*
D03*
X340752D02*
D03*
X332024D02*
D03*
X305839D02*
D03*
X297111D02*
D03*
X288382D02*
D03*
X366937D02*
D03*
X358209D02*
D03*
X349481D02*
D03*
X323296D02*
D03*
X314567D02*
D03*
X375666D02*
D03*
X496622D02*
D03*
X435523D02*
D03*
X444251D02*
D03*
X470436D02*
D03*
X479165D02*
D03*
X487893D02*
D03*
X409338D02*
D03*
X418066D02*
D03*
X426795D02*
D03*
X452980D02*
D03*
X461708D02*
D03*
X400610D02*
D03*
X1226999Y939419D02*
D03*
X1010031D02*
D03*
X1018759D02*
D03*
X1183357D02*
D03*
X1200814D02*
D03*
X1209542D02*
D03*
X1062401D02*
D03*
X1097315D02*
D03*
X1088586D02*
D03*
X1071130D02*
D03*
X1079858D02*
D03*
X1106043D02*
D03*
X1053673D02*
D03*
X1192085D02*
D03*
X1218270D02*
D03*
X1036216D02*
D03*
X1044944D02*
D03*
X1027488D02*
D03*
X1157172D02*
D03*
X1165900D02*
D03*
X1174629D02*
D03*
X1130987D02*
D03*
X1139715D02*
D03*
X1148444D02*
D03*
X1913918Y948690D02*
D03*
X1905189D02*
D03*
X1922646D02*
D03*
X1870276D02*
D03*
X1861548D02*
D03*
X1940103D02*
D03*
X1931375D02*
D03*
X1948831D02*
D03*
X1896461D02*
D03*
X1957560D02*
D03*
X1758049D02*
D03*
X1749320D02*
D03*
X1766777D02*
D03*
X1810419D02*
D03*
X1819147D02*
D03*
X1887733D02*
D03*
X1879004D02*
D03*
X1792962D02*
D03*
X1740592D02*
D03*
X1801690D02*
D03*
X1775505D02*
D03*
X1836604D02*
D03*
X1827875D02*
D03*
X1784234D02*
D03*
X279654Y948690D02*
D03*
X288382D02*
D03*
X444251D02*
D03*
X496622D02*
D03*
X435523D02*
D03*
X452980D02*
D03*
X409338D02*
D03*
X418066D02*
D03*
X426795D02*
D03*
X340752D02*
D03*
X461708D02*
D03*
X400610D02*
D03*
X323296D02*
D03*
X332024D02*
D03*
X470436D02*
D03*
X366937D02*
D03*
X375666D02*
D03*
X314567D02*
D03*
X487893D02*
D03*
X305839D02*
D03*
X297111D02*
D03*
X479165D02*
D03*
X349481D02*
D03*
X358209D02*
D03*
X1218270Y948817D02*
D03*
X1200814D02*
D03*
X1174629D02*
D03*
X1209542D02*
D03*
X1088586D02*
D03*
X1097315D02*
D03*
X1106043D02*
D03*
X1036216D02*
D03*
X1044944D02*
D03*
X1018759D02*
D03*
X1010031D02*
D03*
X1062401D02*
D03*
X1071130D02*
D03*
X1079858D02*
D03*
X1157172D02*
D03*
X1165900D02*
D03*
X1148444D02*
D03*
X1130987D02*
D03*
X1139715D02*
D03*
X1027488D02*
D03*
X1053673D02*
D03*
X1226999D02*
D03*
X1183357D02*
D03*
X1192085D02*
D03*
X1775505Y958088D02*
D03*
X1801690D02*
D03*
X1792962D02*
D03*
X1784234D02*
D03*
X1948831D02*
D03*
X1940103D02*
D03*
X1957560D02*
D03*
X1905189D02*
D03*
X1896461D02*
D03*
X1827875D02*
D03*
X1836604D02*
D03*
X1819147D02*
D03*
X1810419D02*
D03*
X1931375D02*
D03*
X1870276D02*
D03*
X1861548D02*
D03*
X1887733D02*
D03*
X1879004D02*
D03*
X1922646D02*
D03*
X1758049D02*
D03*
X1766777D02*
D03*
X1913918D02*
D03*
X1749320D02*
D03*
X1740592D02*
D03*
X470436Y958088D02*
D03*
X479165D02*
D03*
X487893D02*
D03*
X323296D02*
D03*
X314567D02*
D03*
X426795D02*
D03*
X418066D02*
D03*
X461708D02*
D03*
X400610D02*
D03*
X409338D02*
D03*
X452980D02*
D03*
X496622D02*
D03*
X435523D02*
D03*
X444251D02*
D03*
X349481D02*
D03*
X279654D02*
D03*
X288382D02*
D03*
X375666D02*
D03*
X366937D02*
D03*
X358209D02*
D03*
X297111D02*
D03*
X332024D02*
D03*
X340752D02*
D03*
X305839D02*
D03*
X1062401Y958215D02*
D03*
X1088586D02*
D03*
X1079858D02*
D03*
X1106043D02*
D03*
X1097315D02*
D03*
X1071130D02*
D03*
X1192085D02*
D03*
X1200814D02*
D03*
X1044944D02*
D03*
X1130987D02*
D03*
X1209542D02*
D03*
X1027488D02*
D03*
X1053673D02*
D03*
X1218270D02*
D03*
X1226999D02*
D03*
X1183357D02*
D03*
X1174629D02*
D03*
X1036216D02*
D03*
X1010031D02*
D03*
X1018759D02*
D03*
X1139715D02*
D03*
X1148444D02*
D03*
X1165900D02*
D03*
X1157172D02*
D03*
X1766777Y967486D02*
D03*
X1819147D02*
D03*
X1758049D02*
D03*
X1740592D02*
D03*
X1749320D02*
D03*
X1810419D02*
D03*
X1870276D02*
D03*
X1879004D02*
D03*
X1887733D02*
D03*
X1913918D02*
D03*
X1922646D02*
D03*
X1861548D02*
D03*
X1896461D02*
D03*
X1957560D02*
D03*
X1948831D02*
D03*
X1827875D02*
D03*
X1836604D02*
D03*
X1905189D02*
D03*
X1784234D02*
D03*
X1792962D02*
D03*
X1801690D02*
D03*
X1931375D02*
D03*
X1940103D02*
D03*
X1775505D02*
D03*
X461708Y967486D02*
D03*
X487893D02*
D03*
X479165D02*
D03*
X470436D02*
D03*
X496622D02*
D03*
X452980D02*
D03*
X444251D02*
D03*
X435523D02*
D03*
X426795D02*
D03*
X305839D02*
D03*
X297111D02*
D03*
X366937D02*
D03*
X409338D02*
D03*
X418066D02*
D03*
X288382D02*
D03*
X332024D02*
D03*
X340752D02*
D03*
X279654D02*
D03*
X375666D02*
D03*
X314567D02*
D03*
X323296D02*
D03*
X400610D02*
D03*
X349481D02*
D03*
X358209D02*
D03*
X1209542Y967613D02*
D03*
X1226999D02*
D03*
X1174629D02*
D03*
X1183357D02*
D03*
X1192085D02*
D03*
X1053673D02*
D03*
X1010031D02*
D03*
X1036216D02*
D03*
X1062401D02*
D03*
X1018759D02*
D03*
X1044944D02*
D03*
X1097315D02*
D03*
X1106043D02*
D03*
X1139715D02*
D03*
X1079858D02*
D03*
X1071130D02*
D03*
X1027488D02*
D03*
X1088586D02*
D03*
X1148444D02*
D03*
X1157172D02*
D03*
X1165900D02*
D03*
X1130987D02*
D03*
X1218270D02*
D03*
X1200814D02*
D03*
X1957560Y976884D02*
D03*
X1896461D02*
D03*
X1905189D02*
D03*
X1931375D02*
D03*
X1940103D02*
D03*
X1948831D02*
D03*
X1870276D02*
D03*
X1879004D02*
D03*
X1887733D02*
D03*
X1913918D02*
D03*
X1922646D02*
D03*
X1861548D02*
D03*
X1836604D02*
D03*
X1775505D02*
D03*
X1784234D02*
D03*
X1810419D02*
D03*
X1819147D02*
D03*
X1827875D02*
D03*
X1749320D02*
D03*
X1758049D02*
D03*
X1766777D02*
D03*
X1792962D02*
D03*
X1801690D02*
D03*
X1740592D02*
D03*
X279654Y976884D02*
D03*
X340752D02*
D03*
X332024D02*
D03*
X305839D02*
D03*
X297111D02*
D03*
X288382D02*
D03*
X366937D02*
D03*
X358209D02*
D03*
X349481D02*
D03*
X323296D02*
D03*
X314567D02*
D03*
X375666D02*
D03*
X496622D02*
D03*
X435523D02*
D03*
X444251D02*
D03*
X470436D02*
D03*
X479165D02*
D03*
X487893D02*
D03*
X409338D02*
D03*
X418066D02*
D03*
X426795D02*
D03*
X452980D02*
D03*
X461708D02*
D03*
X400610D02*
D03*
X1053673Y977011D02*
D03*
X1044944D02*
D03*
X1062401D02*
D03*
X1106043D02*
D03*
X1130987D02*
D03*
X1209542D02*
D03*
X1139715D02*
D03*
X1148444D02*
D03*
X1079858D02*
D03*
X1010031D02*
D03*
X1088586D02*
D03*
X1097315D02*
D03*
X1036216D02*
D03*
X1071130D02*
D03*
X1018759D02*
D03*
X1027488D02*
D03*
X1200814D02*
D03*
X1157172D02*
D03*
X1165900D02*
D03*
X1192085D02*
D03*
X1174629D02*
D03*
X1226999D02*
D03*
X1218270D02*
D03*
X1183357D02*
D03*
X1905189Y986282D02*
D03*
X1896461D02*
D03*
X1922646D02*
D03*
X1913918D02*
D03*
X1784234D02*
D03*
X1792962D02*
D03*
X1775505D02*
D03*
X1827875D02*
D03*
X1836604D02*
D03*
X1758049D02*
D03*
X1766777D02*
D03*
X1749320D02*
D03*
X1801690D02*
D03*
X1740592D02*
D03*
X1819147D02*
D03*
X1931375D02*
D03*
X1810419D02*
D03*
X1940103D02*
D03*
X1957560D02*
D03*
X1948831D02*
D03*
X1887733D02*
D03*
X1879004D02*
D03*
X1870276D02*
D03*
X1861548D02*
D03*
X496622Y986282D02*
D03*
X479165D02*
D03*
X487893D02*
D03*
X409338D02*
D03*
X400610D02*
D03*
X426795D02*
D03*
X418066D02*
D03*
X444251D02*
D03*
X435523D02*
D03*
X461708D02*
D03*
X452980D02*
D03*
X470436D02*
D03*
X314567D02*
D03*
X323296D02*
D03*
X366937D02*
D03*
X375666D02*
D03*
X332024D02*
D03*
X288382D02*
D03*
X297111D02*
D03*
X340752D02*
D03*
X279654D02*
D03*
X358209D02*
D03*
X305839D02*
D03*
X349481D02*
D03*
X1226999Y986409D02*
D03*
X1157172D02*
D03*
X1106043D02*
D03*
X1010031D02*
D03*
X1200814D02*
D03*
X1218270D02*
D03*
X1062401D02*
D03*
X1071130D02*
D03*
X1088586D02*
D03*
X1192085D02*
D03*
X1097315D02*
D03*
X1036216D02*
D03*
X1018759D02*
D03*
X1139715D02*
D03*
X1130987D02*
D03*
X1209542D02*
D03*
X1053673D02*
D03*
X1044944D02*
D03*
X1148444D02*
D03*
X1079858D02*
D03*
X1174629D02*
D03*
X1183357D02*
D03*
X1165900D02*
D03*
X1027488D02*
D03*
X1784234Y995680D02*
D03*
X1792962D02*
D03*
X1775505D02*
D03*
X1827875D02*
D03*
X1836604D02*
D03*
X1801690D02*
D03*
X1766777D02*
D03*
X1879004D02*
D03*
X1758049D02*
D03*
X1740592D02*
D03*
X1749320D02*
D03*
X1819147D02*
D03*
X1957560D02*
D03*
X1896461D02*
D03*
X1905189D02*
D03*
X1931375D02*
D03*
X1940103D02*
D03*
X1948831D02*
D03*
X1861548D02*
D03*
X1870276D02*
D03*
X1810419D02*
D03*
X1913918D02*
D03*
X1887733D02*
D03*
X1922646D02*
D03*
X366937Y995680D02*
D03*
X358209D02*
D03*
X375666D02*
D03*
X314567D02*
D03*
X349481D02*
D03*
X487893D02*
D03*
X479165D02*
D03*
X470436D02*
D03*
X288382D02*
D03*
X297111D02*
D03*
X305839D02*
D03*
X279654D02*
D03*
X323296D02*
D03*
X332024D02*
D03*
X340752D02*
D03*
X409338D02*
D03*
X400610D02*
D03*
X426795D02*
D03*
X418066D02*
D03*
X461708D02*
D03*
X444251D02*
D03*
X452980D02*
D03*
X496622D02*
D03*
X435523D02*
D03*
X1157172Y995807D02*
D03*
X1165900D02*
D03*
X1148444D02*
D03*
X1062401D02*
D03*
X1106043D02*
D03*
X1071130D02*
D03*
X1174629D02*
D03*
X1053673D02*
D03*
X1044944D02*
D03*
X1139715D02*
D03*
X1130987D02*
D03*
X1183357D02*
D03*
X1192085D02*
D03*
X1018759D02*
D03*
X1010031D02*
D03*
X1218270D02*
D03*
X1226999D02*
D03*
X1200814D02*
D03*
X1088586D02*
D03*
X1209542D02*
D03*
X1079858D02*
D03*
X1027488D02*
D03*
X1036216D02*
D03*
X1097315D02*
D03*
X1749482Y1005078D02*
D03*
X1740592D02*
D03*
X1801690D02*
D03*
X1758049D02*
D03*
X1940103D02*
D03*
X1931375D02*
D03*
X1766777D02*
D03*
X1827875D02*
D03*
X1819147D02*
D03*
X1810419D02*
D03*
X1836604D02*
D03*
X1792962D02*
D03*
X1784234D02*
D03*
X1775505D02*
D03*
X1948831D02*
D03*
X1861548D02*
D03*
X1922646D02*
D03*
X1913918D02*
D03*
X1887733D02*
D03*
X1879004D02*
D03*
X1870438D02*
D03*
X1957560D02*
D03*
X1896461D02*
D03*
X1905189D02*
D03*
X470436Y1005078D02*
D03*
X349481D02*
D03*
X358209D02*
D03*
X435523D02*
D03*
X444251D02*
D03*
X496622D02*
D03*
X479165D02*
D03*
X487893D02*
D03*
X288544D02*
D03*
X297111D02*
D03*
X314567D02*
D03*
X279654D02*
D03*
X323296D02*
D03*
X340752D02*
D03*
X366937D02*
D03*
X332024D02*
D03*
X375666D02*
D03*
X409500D02*
D03*
X418066D02*
D03*
X426795D02*
D03*
X400610D02*
D03*
X452980D02*
D03*
X305839D02*
D03*
X461708D02*
D03*
X1079858Y1005205D02*
D03*
X1157172D02*
D03*
X1097315D02*
D03*
X1088586D02*
D03*
X1071130D02*
D03*
X1183357D02*
D03*
X1174629D02*
D03*
X1165900D02*
D03*
X1062401D02*
D03*
X1106043D02*
D03*
X1053673D02*
D03*
X1044944D02*
D03*
X1218270D02*
D03*
X1209542D02*
D03*
X1226999D02*
D03*
X1130987D02*
D03*
X1148444D02*
D03*
X1192085D02*
D03*
X1139877D02*
D03*
X1018921D02*
D03*
X1010031D02*
D03*
X1027488D02*
D03*
X1200814D02*
D03*
X1036216D02*
D03*
X1495552Y1250950D02*
D03*
X1485138D02*
D03*
X1434154D02*
D03*
X1444568D02*
D03*
X1895418Y1252220D02*
D03*
X296926D02*
D03*
X1725422D02*
D03*
X796982D02*
D03*
X756920D02*
D03*
X745744D02*
D03*
X286512D02*
D03*
X1905832D02*
D03*
X2185162D02*
D03*
X807396D02*
D03*
X1205300D02*
D03*
X1664024D02*
D03*
X1215714D02*
D03*
X1266698D02*
D03*
X1256284D02*
D03*
X1037012D02*
D03*
X975614D02*
D03*
X1715008D02*
D03*
X986028D02*
D03*
X1026598D02*
D03*
X1674438D02*
D03*
X1946402D02*
D03*
X518668D02*
D03*
X347910D02*
D03*
X580066D02*
D03*
X2174748D02*
D03*
X529082D02*
D03*
X1956816D02*
D03*
X2123764D02*
D03*
X569652D02*
D03*
X337496D02*
D03*
X2134178D02*
D03*
X1444568Y1259840D02*
D03*
X1434154D02*
D03*
X1495552D02*
D03*
X1485138D02*
D03*
X529082Y1261110D02*
D03*
X1037012D02*
D03*
X986028D02*
D03*
X1674438D02*
D03*
X1266698D02*
D03*
X347910D02*
D03*
X1026598D02*
D03*
X2174748D02*
D03*
X1205300D02*
D03*
X2134178D02*
D03*
X1215714D02*
D03*
X518668D02*
D03*
X1664024D02*
D03*
X1256284D02*
D03*
X2123764D02*
D03*
X807396D02*
D03*
X1895418D02*
D03*
X296926D02*
D03*
X580066D02*
D03*
X1905832D02*
D03*
X569652D02*
D03*
X1946402D02*
D03*
X1725422D02*
D03*
X286512D02*
D03*
X1956816D02*
D03*
X2185162D02*
D03*
X975614D02*
D03*
X796982D02*
D03*
X337496D02*
D03*
X1715008D02*
D03*
X745744Y1261364D02*
D03*
X756920D02*
D03*
X1434154Y1268730D02*
D03*
X1444568D02*
D03*
X1495552D02*
D03*
X1485138D02*
D03*
X975614Y1270000D02*
D03*
X1037012D02*
D03*
X518668D02*
D03*
X1026598D02*
D03*
X347910D02*
D03*
X986028D02*
D03*
X1266698D02*
D03*
X337496D02*
D03*
X580066D02*
D03*
X296926D02*
D03*
X796982D02*
D03*
X1205300D02*
D03*
X569652D02*
D03*
X1256284D02*
D03*
X529082D02*
D03*
X1215714D02*
D03*
X807396D02*
D03*
X1946402D02*
D03*
X1664024D02*
D03*
X1956816D02*
D03*
X2134178D02*
D03*
X2123764D02*
D03*
X1725422D02*
D03*
X1715008D02*
D03*
X1895418D02*
D03*
X1905832D02*
D03*
X1674438D02*
D03*
X286512D02*
D03*
X2185162D02*
D03*
X2174748D02*
D03*
X745744Y1270508D02*
D03*
X756920D02*
D03*
X1495552Y1304290D02*
D03*
X1434154D02*
D03*
X1485138D02*
D03*
X1444568D02*
D03*
X756158Y1305560D02*
D03*
X337496D02*
D03*
X286512D02*
D03*
X975614D02*
D03*
X296926D02*
D03*
X1715008D02*
D03*
X807396D02*
D03*
X1895418D02*
D03*
X796982D02*
D03*
X1725422D02*
D03*
X2134178D02*
D03*
X2123764D02*
D03*
X1956816D02*
D03*
X347910D02*
D03*
X518668D02*
D03*
X2174748D02*
D03*
X529082D02*
D03*
X1946402D02*
D03*
X745744D02*
D03*
X1905832D02*
D03*
X569652D02*
D03*
X580066D02*
D03*
X2185162D02*
D03*
X1664024D02*
D03*
X1674438D02*
D03*
X1037012D02*
D03*
X1205300D02*
D03*
X1215714D02*
D03*
X1256284D02*
D03*
X1266698D02*
D03*
X1026598D02*
D03*
X986028D02*
D03*
X1444568Y1313180D02*
D03*
X1434154D02*
D03*
X1495552D02*
D03*
X1485138D02*
D03*
X580066Y1314450D02*
D03*
X1905832D02*
D03*
X1256284D02*
D03*
X518668D02*
D03*
X745744D02*
D03*
X337496D02*
D03*
X2123764D02*
D03*
X1266698D02*
D03*
X1946402D02*
D03*
X347910D02*
D03*
X807396D02*
D03*
X1956816D02*
D03*
X529082D02*
D03*
X569652D02*
D03*
X2174748D02*
D03*
X1205300D02*
D03*
X975614D02*
D03*
X1725422D02*
D03*
X1715008D02*
D03*
X296926D02*
D03*
X1215714D02*
D03*
X286512D02*
D03*
X1895418D02*
D03*
X796982D02*
D03*
X986028D02*
D03*
X1026598D02*
D03*
X1674438D02*
D03*
X2134178D02*
D03*
X2185162D02*
D03*
X1037012D02*
D03*
X756158D02*
D03*
X1664024D02*
D03*
X1434154Y1322070D02*
D03*
X1444568D02*
D03*
X1495552D02*
D03*
X1485138D02*
D03*
X2134178Y1323340D02*
D03*
X518668D02*
D03*
X1215714D02*
D03*
X347910D02*
D03*
X1266698D02*
D03*
X337496D02*
D03*
X286512D02*
D03*
X296926D02*
D03*
X1256284D02*
D03*
X1715008D02*
D03*
X2174748D02*
D03*
X2185162D02*
D03*
X1674438D02*
D03*
X580066D02*
D03*
X1205300D02*
D03*
X1037012D02*
D03*
X807396D02*
D03*
X986028D02*
D03*
X569652D02*
D03*
X1946402D02*
D03*
X1725422D02*
D03*
X1026598D02*
D03*
X1895418D02*
D03*
X796982D02*
D03*
X756158D02*
D03*
X745744D02*
D03*
X1905832D02*
D03*
X1664024D02*
D03*
X529082D02*
D03*
X2123764D02*
D03*
X975614D02*
D03*
X1956816D02*
D03*
D57*
X1962912Y142240D02*
D03*
D58*
Y167640D02*
D03*
D60*
X64770Y601472D02*
D03*
Y576072D02*
D03*
Y626872D02*
D03*
Y652272D02*
D03*
D61*
Y550672D02*
D03*
D62*
X2063496Y99060D02*
D03*
Y73660D02*
D03*
D63*
Y48260D02*
D03*
D64*
X2215874Y97768D02*
D03*
X2241274D02*
D03*
X92836Y251830D02*
D03*
Y277230D02*
D03*
X392518Y139354D02*
D03*
X367118D02*
D03*
D65*
X2266674Y97768D02*
D03*
X417918Y139354D02*
D03*
D66*
X1056640Y59690D02*
D03*
X1018540D02*
D03*
X1094740D02*
D03*
X949960D02*
D03*
X911860D02*
D03*
X800100D02*
D03*
X762000D02*
D03*
X1314450D02*
D03*
X1276350D02*
D03*
X1238250D02*
D03*
X1200150D02*
D03*
X1162050D02*
D03*
D67*
X92836Y226430D02*
D03*
D68*
X1557528Y695960D02*
D03*
X1582928D02*
D03*
X1608328D02*
D03*
X1633728D02*
D03*
Y721360D02*
D03*
X1608328D02*
D03*
X1582928D02*
D03*
X1557528D02*
D03*
X1532128Y695960D02*
D03*
Y721360D02*
D03*
X1633728Y670560D02*
D03*
X1608328D02*
D03*
X1532128D02*
D03*
X1557528D02*
D03*
X1582928D02*
D03*
X1633728Y772160D02*
D03*
X1608328D02*
D03*
X1532128Y746760D02*
D03*
Y772160D02*
D03*
X1557528D02*
D03*
X1582928D02*
D03*
X1633728Y746760D02*
D03*
X1608328D02*
D03*
X1582928D02*
D03*
X1557528D02*
D03*
X2290318Y695960D02*
D03*
Y721360D02*
D03*
Y746760D02*
D03*
Y772160D02*
D03*
X2264918Y721360D02*
D03*
X2264918Y695960D02*
D03*
Y670560D02*
D03*
X2290318D02*
D03*
X2264918Y746760D02*
D03*
Y772160D02*
D03*
X2366518Y721360D02*
D03*
X2366518Y695960D02*
D03*
Y670560D02*
D03*
Y746760D02*
D03*
Y772160D02*
D03*
X2315718Y670560D02*
D03*
X2341118Y670560D02*
D03*
X2315718Y695960D02*
D03*
Y721360D02*
D03*
Y746760D02*
D03*
Y772160D02*
D03*
X2341118Y772160D02*
D03*
Y746760D02*
D03*
Y721360D02*
D03*
Y695960D02*
D03*
X825500Y746760D02*
D03*
X850900D02*
D03*
X876300D02*
D03*
X901700D02*
D03*
X850900Y772160D02*
D03*
X825500Y772160D02*
D03*
X800100D02*
D03*
Y746760D02*
D03*
X876300Y772160D02*
D03*
X901700D02*
D03*
X850900Y670560D02*
D03*
X825500Y670560D02*
D03*
X800100D02*
D03*
X876300D02*
D03*
X901700D02*
D03*
X800100Y721360D02*
D03*
X800100Y695960D02*
D03*
X825500Y721360D02*
D03*
X850900D02*
D03*
X876300D02*
D03*
X901700D02*
D03*
X901700Y695960D02*
D03*
X876300D02*
D03*
X850900D02*
D03*
X825500D02*
D03*
X86360Y897128D02*
D03*
X111760D02*
D03*
X137160D02*
D03*
X162560D02*
D03*
Y922528D02*
D03*
X137160D02*
D03*
X111760D02*
D03*
X86360D02*
D03*
X60960Y897128D02*
D03*
Y922528D02*
D03*
X162560Y871728D02*
D03*
X137160D02*
D03*
X60960D02*
D03*
X86360D02*
D03*
X111760D02*
D03*
X162560Y973328D02*
D03*
X137160D02*
D03*
X60960Y947928D02*
D03*
Y973328D02*
D03*
X86360D02*
D03*
X111760D02*
D03*
X162560Y947928D02*
D03*
X137160D02*
D03*
X111760D02*
D03*
X86360D02*
D03*
X137160Y1067054D02*
D03*
Y1092454D02*
D03*
Y1117854D02*
D03*
Y1143254D02*
D03*
X111760Y1143254D02*
D03*
Y1117854D02*
D03*
Y1092454D02*
D03*
Y1067054D02*
D03*
X137160Y1041654D02*
D03*
X111760Y1041654D02*
D03*
X162560Y1143254D02*
D03*
Y1117854D02*
D03*
Y1041654D02*
D03*
Y1067054D02*
D03*
X162560Y1092454D02*
D03*
X60960Y1143254D02*
D03*
Y1117854D02*
D03*
X86360Y1041654D02*
D03*
X60960D02*
D03*
Y1067054D02*
D03*
X60960Y1092454D02*
D03*
X86360Y1143254D02*
D03*
Y1117854D02*
D03*
Y1092454D02*
D03*
Y1067054D02*
D03*
D69*
X38100Y35560D02*
D03*
Y1355090D02*
D03*
X2461260D02*
D03*
X2460288Y36576D02*
D03*
D117*
X2044051Y498165D02*
D03*
X2063497Y478719D02*
D03*
X583113Y498165D02*
D03*
X602559Y478719D02*
D03*
X1332936Y478846D02*
D03*
X1313490Y498292D02*
D03*
D118*
X239778Y476504D02*
D03*
X267278D02*
D03*
X997655Y476631D02*
D03*
X970155D02*
D03*
X1701656Y477410D02*
D03*
X1729156D02*
D03*
D119*
X2110302Y506870D02*
D03*
X2123737Y520305D02*
D03*
X662800D02*
D03*
X649364Y506870D02*
D03*
X1379742Y506997D02*
D03*
X1393177Y520433D02*
D03*
X2095570Y522872D02*
D03*
X2109005Y536307D02*
D03*
X648067Y536307D02*
D03*
X634632Y522873D02*
D03*
X1365010Y522999D02*
D03*
X1378445Y536435D02*
D03*
D120*
X1726523Y599017D02*
D03*
Y580017D02*
D03*
X1701004Y599644D02*
D03*
Y580644D02*
D03*
X265212Y600304D02*
D03*
Y581304D02*
D03*
X995589Y600431D02*
D03*
Y581431D02*
D03*
X240066Y600558D02*
D03*
Y581558D02*
D03*
X970443Y600685D02*
D03*
Y581685D02*
D03*
D121*
X1934866Y787400D02*
D03*
X1968466D02*
D03*
X507528D02*
D03*
X473928D02*
D03*
X1204305Y787527D02*
D03*
X1237905D02*
D03*
X1822416Y806958D02*
D03*
X1788816D02*
D03*
X361478D02*
D03*
X327878D02*
D03*
X1091855Y807085D02*
D03*
X1058255D02*
D03*
D122*
X735603Y672426D02*
D03*
X664838Y743191D02*
D03*
X2175562Y675682D02*
D03*
X2104798Y746447D02*
D03*
X1445001Y675809D02*
D03*
X1374237Y746573D02*
D03*
D123*
X1557020Y514350D02*
D03*
X1559560Y238506D02*
D03*
X796290D02*
D03*
Y513080D02*
D03*
D124*
X1178814Y851916D02*
D03*
X327660D02*
D03*
X1120648D02*
D03*
X448310D02*
D03*
X379222Y852170D02*
D03*
X391922D02*
D03*
X1108710D02*
D03*
X1959864D02*
D03*
X498348D02*
D03*
X1229017Y852424D02*
D03*
X1057910Y852424D02*
D03*
X1788816Y852678D02*
D03*
X1909623Y852678D02*
D03*
X1851478D02*
D03*
X1838779D02*
D03*
X1120648Y860552D02*
D03*
X448310D02*
D03*
X327660D02*
D03*
X1178814D02*
D03*
X379222Y860806D02*
D03*
X391922D02*
D03*
X1959864D02*
D03*
X1108710D02*
D03*
X498348D02*
D03*
X1229017Y861060D02*
D03*
X1057910Y861060D02*
D03*
X1788816Y861314D02*
D03*
X1838779Y861314D02*
D03*
X1851478D02*
D03*
X1909623D02*
D03*
X448310Y868934D02*
D03*
X1120648D02*
D03*
X1178814D02*
D03*
X327660D02*
D03*
X1959864Y869188D02*
D03*
X391922D02*
D03*
X498348D02*
D03*
X1108710D02*
D03*
X379222D02*
D03*
X1229017Y869442D02*
D03*
X1057910Y869442D02*
D03*
X1788816Y869696D02*
D03*
X1838779Y869696D02*
D03*
X1851478D02*
D03*
X1909623D02*
D03*
X1120648Y877316D02*
D03*
X1178814D02*
D03*
X327660D02*
D03*
X448310D02*
D03*
X1959864Y877570D02*
D03*
X391922D02*
D03*
X379222D02*
D03*
X1108710D02*
D03*
X498348D02*
D03*
X1229017Y877824D02*
D03*
X1057910Y877824D02*
D03*
X1788816Y878078D02*
D03*
X1909623Y878078D02*
D03*
X1838779D02*
D03*
X1851478D02*
D03*
M02*
