G04*
G04 #@! TF.GenerationSoftware,Altium Limited,Altium Designer,24.5.2 (23)*
G04*
G04 Layer_Color=128*
%FSLAX44Y44*%
%MOMM*%
G71*
G04*
G04 #@! TF.SameCoordinates,E8997BAD-2734-4FEF-AB70-E13736D7F9D3*
G04*
G04*
G04 #@! TF.FilePolarity,Positive*
G04*
G01*
G75*
%ADD22R,1.4000X1.2000*%
%ADD23R,1.2000X1.4000*%
G04:AMPARAMS|DCode=24|XSize=0.95mm|YSize=1mm|CornerRadius=0mm|HoleSize=0mm|Usage=FLASHONLY|Rotation=45.000|XOffset=0mm|YOffset=0mm|HoleType=Round|Shape=Rectangle|*
%AMROTATEDRECTD24*
4,1,4,0.0177,-0.6894,-0.6894,0.0177,-0.0177,0.6894,0.6894,-0.0177,0.0177,-0.6894,0.0*
%
%ADD24ROTATEDRECTD24*%

%ADD29R,2.5000X0.9000*%
G04:AMPARAMS|DCode=111|XSize=2.05mm|YSize=3.5mm|CornerRadius=0mm|HoleSize=0mm|Usage=FLASHONLY|Rotation=135.000|XOffset=0mm|YOffset=0mm|HoleType=Round|Shape=Rectangle|*
%AMROTATEDRECTD111*
4,1,4,1.9622,0.5127,-0.5127,-1.9622,-1.9622,-0.5127,0.5127,1.9622,1.9622,0.5127,0.0*
%
%ADD111ROTATEDRECTD111*%

%ADD112R,2.0500X3.5000*%
G04:AMPARAMS|DCode=113|XSize=0.9mm|YSize=1.3mm|CornerRadius=0mm|HoleSize=0mm|Usage=FLASHONLY|Rotation=45.000|XOffset=0mm|YOffset=0mm|HoleType=Round|Shape=Rectangle|*
%AMROTATEDRECTD113*
4,1,4,0.1414,-0.7778,-0.7778,0.1414,-0.1414,0.7778,0.7778,-0.1414,0.1414,-0.7778,0.0*
%
%ADD113ROTATEDRECTD113*%

%ADD114R,1.3000X0.9000*%
%ADD115R,1.2100X0.7200*%
D22*
X535940Y789338D02*
D03*
Y809338D02*
D03*
X1266317Y789465D02*
D03*
Y809465D02*
D03*
X1996878Y789338D02*
D03*
Y809338D02*
D03*
D23*
X1204305Y809683D02*
D03*
X1224305D02*
D03*
X1091913Y781431D02*
D03*
X1071913D02*
D03*
X1770150Y806958D02*
D03*
X1750150D02*
D03*
X1039589Y807085D02*
D03*
X1019589D02*
D03*
X474378Y810006D02*
D03*
X494378D02*
D03*
X361536Y782828D02*
D03*
X341536D02*
D03*
X1935316Y810006D02*
D03*
X1955316D02*
D03*
X1822474Y781304D02*
D03*
X1802474D02*
D03*
X309212Y806958D02*
D03*
X289212D02*
D03*
X1864196Y790702D02*
D03*
X1884196D02*
D03*
X403258D02*
D03*
X423258D02*
D03*
X1133635Y790829D02*
D03*
X1153635D02*
D03*
D24*
X1983676Y529654D02*
D03*
X1971104Y542226D02*
D03*
X1254696Y528384D02*
D03*
X1242124Y540956D02*
D03*
X540194Y522796D02*
D03*
X527622Y535368D02*
D03*
D29*
X1909572Y811790D02*
D03*
Y780790D02*
D03*
X1179068Y812298D02*
D03*
Y781298D02*
D03*
X449072Y815854D02*
D03*
Y784854D02*
D03*
X990600Y1156722D02*
D03*
Y1125722D02*
D03*
X1770743Y1156722D02*
D03*
Y1125722D02*
D03*
X1242060Y1125722D02*
D03*
Y1156722D02*
D03*
X1950357Y1156722D02*
D03*
Y1125722D02*
D03*
X1206137Y1125722D02*
D03*
Y1156722D02*
D03*
X1986280Y1156722D02*
D03*
Y1125722D02*
D03*
X1098369Y1156722D02*
D03*
Y1125722D02*
D03*
X1170214Y1156722D02*
D03*
Y1125722D02*
D03*
X1842589Y1156722D02*
D03*
Y1125722D02*
D03*
X1062446Y1156722D02*
D03*
Y1125722D02*
D03*
X1914434Y1156722D02*
D03*
Y1125722D02*
D03*
X1806666Y1156722D02*
D03*
Y1125722D02*
D03*
X509270Y1156722D02*
D03*
Y1125722D02*
D03*
X1734820Y1156722D02*
D03*
Y1125722D02*
D03*
X1878512Y1156722D02*
D03*
Y1125722D02*
D03*
X1134292Y1156722D02*
D03*
Y1125722D02*
D03*
X1026523Y1156722D02*
D03*
Y1125722D02*
D03*
X473347Y1156802D02*
D03*
Y1125802D02*
D03*
X365579Y1156802D02*
D03*
Y1125802D02*
D03*
X401502Y1156802D02*
D03*
Y1125802D02*
D03*
X437424Y1156802D02*
D03*
Y1125802D02*
D03*
X329656Y1156802D02*
D03*
Y1125802D02*
D03*
X257810Y1156802D02*
D03*
Y1125802D02*
D03*
X293733Y1156802D02*
D03*
Y1125802D02*
D03*
D111*
X2044051Y498165D02*
D03*
X2063497Y478719D02*
D03*
X583113Y498165D02*
D03*
X602559Y478719D02*
D03*
X1332936Y478846D02*
D03*
X1313490Y498292D02*
D03*
D112*
X239778Y476504D02*
D03*
X267278D02*
D03*
X997655Y476631D02*
D03*
X970155D02*
D03*
X1701656Y477410D02*
D03*
X1729156D02*
D03*
D113*
X2110302Y506870D02*
D03*
X2123737Y520305D02*
D03*
X662800D02*
D03*
X649364Y506870D02*
D03*
X1379742Y506997D02*
D03*
X1393177Y520433D02*
D03*
X2095570Y522872D02*
D03*
X2109005Y536307D02*
D03*
X648067Y536307D02*
D03*
X634632Y522873D02*
D03*
X1365010Y522999D02*
D03*
X1378445Y536435D02*
D03*
D114*
X1726523Y599017D02*
D03*
Y580017D02*
D03*
X1701004Y599644D02*
D03*
Y580644D02*
D03*
X265212Y600304D02*
D03*
Y581304D02*
D03*
X995589Y600431D02*
D03*
Y581431D02*
D03*
X240066Y600558D02*
D03*
Y581558D02*
D03*
X970443Y600685D02*
D03*
Y581685D02*
D03*
D115*
X1934866Y787400D02*
D03*
X1968466D02*
D03*
X507528D02*
D03*
X473928D02*
D03*
X1204305Y787527D02*
D03*
X1237905D02*
D03*
X1822416Y806958D02*
D03*
X1788816D02*
D03*
X361478D02*
D03*
X327878D02*
D03*
X1091855Y807085D02*
D03*
X1058255D02*
D03*
M02*
