G04*
G04 #@! TF.GenerationSoftware,Altium Limited,Altium Designer,24.5.2 (23)*
G04*
G04 Layer_Physical_Order=2*
G04 Layer_Color=36540*
%FSLAX44Y44*%
%MOMM*%
G71*
G04*
G04 #@! TF.SameCoordinates,D1B1E3A2-7201-45A1-8B5A-9354847063BF*
G04*
G04*
G04 #@! TF.FilePolarity,Positive*
G04*
G01*
G75*
%ADD13C,0.2540*%
%ADD54C,0.3810*%
G04:AMPARAMS|DCode=56|XSize=1.778mm|YSize=1.778mm|CornerRadius=0mm|HoleSize=0mm|Usage=FLASHONLY|Rotation=270.000|XOffset=0mm|YOffset=0mm|HoleType=Round|Shape=Octagon|*
%AMOCTAGOND56*
4,1,8,-0.4445,-0.8890,0.4445,-0.8890,0.8890,-0.4445,0.8890,0.4445,0.4445,0.8890,-0.4445,0.8890,-0.8890,0.4445,-0.8890,-0.4445,-0.4445,-0.8890,0.0*
%
%ADD56OCTAGOND56*%

%ADD57C,1.7780*%
%ADD58C,1.6000*%
G04:AMPARAMS|DCode=59|XSize=1.6mm|YSize=1.6mm|CornerRadius=0.4mm|HoleSize=0mm|Usage=FLASHONLY|Rotation=90.000|XOffset=0mm|YOffset=0mm|HoleType=Round|Shape=RoundedRectangle|*
%AMROUNDEDRECTD59*
21,1,1.6000,0.8000,0,0,90.0*
21,1,0.8000,1.6000,0,0,90.0*
1,1,0.8000,0.4000,0.4000*
1,1,0.8000,0.4000,-0.4000*
1,1,0.8000,-0.4000,-0.4000*
1,1,0.8000,-0.4000,0.4000*
%
%ADD59ROUNDEDRECTD59*%
%ADD60C,1.5000*%
G04:AMPARAMS|DCode=61|XSize=1.5mm|YSize=1.5mm|CornerRadius=0.375mm|HoleSize=0mm|Usage=FLASHONLY|Rotation=180.000|XOffset=0mm|YOffset=0mm|HoleType=Round|Shape=RoundedRectangle|*
%AMROUNDEDRECTD61*
21,1,1.5000,0.7500,0,0,180.0*
21,1,0.7500,1.5000,0,0,180.0*
1,1,0.7500,-0.3750,0.3750*
1,1,0.7500,0.3750,0.3750*
1,1,0.7500,0.3750,-0.3750*
1,1,0.7500,-0.3750,-0.3750*
%
%ADD61ROUNDEDRECTD61*%
%ADD62C,0.5080*%
%ADD63C,0.5000*%
%ADD64C,3.2000*%
G36*
X888789Y451383D02*
X887724Y450272D01*
X885966Y448149D01*
X885274Y447137D01*
X884705Y446157D01*
X884261Y445210D01*
X883941Y444296D01*
X883745Y443415D01*
X883672Y442566D01*
X883725Y441751D01*
X877361Y448115D01*
X878176Y448063D01*
X879025Y448134D01*
X879906Y448331D01*
X880820Y448651D01*
X881767Y449095D01*
X882747Y449664D01*
X883759Y450356D01*
X884804Y451173D01*
X885882Y452114D01*
X886993Y453179D01*
X888789Y451383D01*
D02*
G37*
G36*
X929327Y611632D02*
X928751Y611629D01*
X926301Y611469D01*
X926178Y611426D01*
X926112Y611377D01*
X926107Y614425D01*
X926174Y614377D01*
X926297Y614334D01*
X926477Y614296D01*
X926713Y614263D01*
X927356Y614212D01*
X929323Y614172D01*
X929327Y611632D01*
D02*
G37*
G36*
X945915Y646647D02*
X945505Y647053D01*
X943660Y648672D01*
X943542Y648729D01*
X943461Y648742D01*
X945617Y650897D01*
X945629Y650816D01*
X945686Y650698D01*
X945786Y650544D01*
X945930Y650353D01*
X946349Y649863D01*
X947711Y648443D01*
X945915Y646647D01*
D02*
G37*
G36*
X1013993Y428201D02*
X1012882Y429266D01*
X1010759Y431024D01*
X1009747Y431716D01*
X1008767Y432285D01*
X1007820Y432729D01*
X1006906Y433049D01*
X1006025Y433246D01*
X1005176Y433317D01*
X1004361Y433265D01*
X1010725Y439629D01*
X1010673Y438814D01*
X1010744Y437965D01*
X1010941Y437084D01*
X1011261Y436170D01*
X1011705Y435223D01*
X1012274Y434243D01*
X1012966Y433231D01*
X1013783Y432186D01*
X1014724Y431108D01*
X1015789Y429997D01*
X1013993Y428201D01*
D02*
G37*
G36*
X975402Y586970D02*
X975811Y586565D01*
X977510Y585061D01*
X977667Y584964D01*
X977787Y584912D01*
X977872Y584905D01*
X975874Y582603D01*
X975857Y582678D01*
X975796Y582790D01*
X975692Y582939D01*
X975545Y583126D01*
X974843Y583909D01*
X973753Y585027D01*
X975402Y586970D01*
D02*
G37*
G36*
X1133008Y609600D02*
X1132431Y609598D01*
X1129982Y609437D01*
X1129858Y609394D01*
X1129792Y609346D01*
Y612394D01*
X1129858Y612346D01*
X1129982Y612303D01*
X1130161Y612265D01*
X1130398Y612231D01*
X1131041Y612181D01*
X1133008Y612140D01*
Y609600D01*
D02*
G37*
G36*
X1140342Y439420D02*
X1139853Y439407D01*
X1139416Y439369D01*
X1139031Y439306D01*
X1138697Y439217D01*
X1138414Y439103D01*
X1138182Y438963D01*
X1138002Y438798D01*
X1137874Y438607D01*
X1137797Y438391D01*
X1137771Y438150D01*
Y443230D01*
X1137797Y442989D01*
X1137874Y442773D01*
X1138002Y442582D01*
X1138182Y442417D01*
X1138414Y442277D01*
X1138697Y442163D01*
X1139031Y442074D01*
X1139416Y442011D01*
X1139853Y441973D01*
X1140342Y441960D01*
Y439420D01*
D02*
G37*
G36*
X1155192Y468080D02*
X1155189Y468656D01*
X1155046Y470918D01*
X1155002Y471096D01*
X1154951Y471217D01*
X1154895Y471282D01*
X1157928Y471587D01*
X1157890Y471522D01*
X1157857Y471401D01*
X1157828Y471222D01*
X1157802Y470987D01*
X1157750Y469938D01*
X1157732Y468376D01*
X1155192Y468080D01*
D02*
G37*
G36*
X1242277Y517887D02*
X1242683Y518297D01*
X1244302Y520142D01*
X1244359Y520260D01*
X1244371Y520341D01*
X1246527Y518186D01*
X1246446Y518173D01*
X1246328Y518116D01*
X1246174Y518016D01*
X1245983Y517872D01*
X1245493Y517453D01*
X1244073Y516091D01*
X1242277Y517887D01*
D02*
G37*
G36*
X1287189Y500823D02*
X1287596Y501233D01*
X1289293Y503172D01*
X1289310Y503247D01*
X1291308Y500945D01*
X1291223Y500938D01*
X1291103Y500886D01*
X1290946Y500789D01*
X1290753Y500649D01*
X1290259Y500236D01*
X1289247Y499285D01*
X1288838Y498880D01*
X1287189Y500823D01*
D02*
G37*
G36*
X1139933Y585761D02*
X1140343Y585355D01*
X1142188Y583736D01*
X1142306Y583679D01*
X1142387Y583666D01*
X1140231Y581511D01*
X1140219Y581592D01*
X1140162Y581710D01*
X1140062Y581864D01*
X1139918Y582055D01*
X1139499Y582545D01*
X1138137Y583965D01*
X1139933Y585761D01*
D02*
G37*
G36*
X1305814Y649986D02*
X1305811Y650297D01*
X1305746Y651253D01*
X1305717Y651420D01*
X1305681Y651558D01*
X1305641Y651668D01*
X1305595Y651749D01*
X1305543Y651801D01*
X1308589Y651907D01*
X1308545Y651854D01*
X1308505Y651770D01*
X1308469Y651655D01*
X1308439Y651509D01*
X1308413Y651332D01*
X1308375Y650886D01*
X1308354Y649986D01*
X1305814D01*
D02*
G37*
G36*
X1327658Y534756D02*
X1327655Y535333D01*
X1327495Y537782D01*
X1327452Y537906D01*
X1327404Y537972D01*
X1330452D01*
X1330404Y537906D01*
X1330361Y537782D01*
X1330323Y537603D01*
X1330289Y537366D01*
X1330239Y536723D01*
X1330198Y534756D01*
X1327658D01*
D02*
G37*
D13*
X1128522Y610870D02*
X1151636D01*
X1051814Y613664D02*
X1054608Y610870D01*
X1098550D01*
X1038510Y621030D02*
X1041049Y623570D01*
X1071880D01*
X1072134Y623316D01*
X1029308Y506730D02*
X1164590D01*
X1012204Y523834D02*
Y523834D01*
Y523834D02*
X1029308Y506730D01*
X995354Y540684D02*
X1012204Y523834D01*
X988060Y538480D02*
X1026922Y499618D01*
X1287780D01*
X1008518Y613664D02*
X1051814D01*
X1023407Y621792D02*
X1024169Y621030D01*
X1008380Y621792D02*
X1023407D01*
X1024169Y621030D02*
X1038510D01*
X949279Y539323D02*
X1009650Y599694D01*
X1046851D01*
X888746Y453136D02*
Y479049D01*
X949020Y539323D01*
X949279D01*
X1046851Y599694D02*
X1047358Y599186D01*
X1047496D01*
X1164590Y506730D02*
X1232916D01*
X1278382Y621284D02*
X1307084Y649986D01*
X1162050Y621284D02*
X1278382D01*
X1232916Y506730D02*
X1246716Y520530D01*
X1287780Y499618D02*
X1291590Y503428D01*
X1328928Y446024D02*
Y540004D01*
X1032764Y411226D02*
X1294130D01*
X1328928Y446024D01*
X1156462Y454660D02*
Y472694D01*
X1142492Y440690D02*
X1156462Y454660D01*
X954532Y639826D02*
X1084072D01*
X1142492Y581406D01*
X1151636Y610870D02*
X1162050Y621284D01*
X1003300Y440690D02*
X1032764Y411226D01*
X1306995Y653885D02*
X1307084Y653796D01*
Y649986D02*
Y653796D01*
X947674Y612902D02*
X977900Y582676D01*
X924052Y612902D02*
X947674D01*
X943102Y651256D02*
X954532Y639826D01*
X1130300Y440690D02*
X1142492D01*
X876300D02*
X888746Y453136D01*
D54*
X723646Y577850D02*
X860806D01*
X716026Y570230D02*
X723646Y577850D01*
D56*
X687578Y687070D02*
D03*
Y619506D02*
D03*
D57*
Y661670D02*
D03*
Y594106D02*
D03*
D58*
X1179322Y710438D02*
D03*
Y685038D02*
D03*
Y634238D02*
D03*
Y659638D02*
D03*
D59*
Y608838D02*
D03*
D60*
X825500Y466090D02*
D03*
X850900D02*
D03*
X825500Y440690D02*
D03*
X850900D02*
D03*
X876300Y466090D02*
D03*
Y440690D02*
D03*
X901700Y466090D02*
D03*
Y440690D02*
D03*
X952500Y466090D02*
D03*
Y440690D02*
D03*
X1003300Y466090D02*
D03*
Y440690D02*
D03*
X1054100Y466090D02*
D03*
Y440690D02*
D03*
X1130300Y466090D02*
D03*
X1104900Y440690D02*
D03*
Y466090D02*
D03*
X1079500Y440690D02*
D03*
Y466090D02*
D03*
X1028700Y440690D02*
D03*
Y466090D02*
D03*
X977900Y440690D02*
D03*
Y466090D02*
D03*
X927100Y440690D02*
D03*
Y466090D02*
D03*
D61*
X1130300Y440690D02*
D03*
D62*
X923955Y602945D02*
D03*
X1091692Y617220D02*
D03*
X1098550Y610870D02*
D03*
X1328928Y540004D02*
D03*
X1111758Y583184D02*
D03*
X1156208Y473456D02*
D03*
X1272032Y601472D02*
D03*
X1142746Y581152D02*
D03*
X1066546Y617220D02*
D03*
X1118616Y652780D02*
D03*
X995354Y540684D02*
D03*
X988060Y538480D02*
D03*
X943102Y651256D02*
D03*
X897464Y588182D02*
D03*
X825500Y632968D02*
D03*
X830580Y640588D02*
D03*
X791464Y640842D02*
D03*
X897382Y643434D02*
D03*
X864967Y633125D02*
D03*
X1004062Y652272D02*
D03*
X1008518Y613664D02*
D03*
X1008380Y621792D02*
D03*
X991362Y593598D02*
D03*
X996442Y599694D02*
D03*
X997458Y612902D02*
D03*
X924078Y612898D02*
D03*
X1002030Y577850D02*
D03*
X978408Y582422D02*
D03*
X959104Y585470D02*
D03*
X931164Y574294D02*
D03*
X945134Y574802D02*
D03*
X1132078Y490728D02*
D03*
X1118870Y492506D02*
D03*
X1164590Y506730D02*
D03*
X1181608Y499618D02*
D03*
X1218946Y446024D02*
D03*
X1282954Y434594D02*
D03*
X1267460Y435102D02*
D03*
X1314958Y446024D02*
D03*
X1291844Y503428D02*
D03*
X1246886Y520700D02*
D03*
X1220216Y523494D02*
D03*
X1047496Y599186D02*
D03*
X1041146Y606298D02*
D03*
X1068070Y630936D02*
D03*
X1072134Y623316D02*
D03*
X1127760Y610870D02*
D03*
X1120140Y623570D02*
D03*
X1281430Y658876D02*
D03*
X1319276Y652526D02*
D03*
X1306995Y653885D02*
D03*
X1207516Y630174D02*
D03*
X1018286Y719836D02*
D03*
X973328Y735076D02*
D03*
X980089Y738983D02*
D03*
X979932Y689980D02*
D03*
X973459Y694493D02*
D03*
X961136Y691896D02*
D03*
X883158Y696214D02*
D03*
X878840Y675894D02*
D03*
X866394Y685292D02*
D03*
X890524Y516458D02*
D03*
X857504Y535569D02*
D03*
X846074Y521716D02*
D03*
X833628Y508762D02*
D03*
X945388Y726186D02*
D03*
X716026Y570230D02*
D03*
X1216914Y597154D02*
D03*
X1005120Y686858D02*
D03*
X827786Y787146D02*
D03*
X633222Y653288D02*
D03*
X860806Y577850D02*
D03*
X1371346Y681228D02*
D03*
X941578Y423164D02*
D03*
D63*
X966724Y653796D02*
D03*
X960882Y611632D02*
D03*
X994918Y631190D02*
D03*
X1409700Y736600D02*
D03*
X1397000Y711200D02*
D03*
X1409700Y685800D02*
D03*
X1397000Y660400D02*
D03*
X1409700Y635000D02*
D03*
X1397000Y609600D02*
D03*
X1409700Y584200D02*
D03*
X1397000Y558800D02*
D03*
X1409700Y533400D02*
D03*
X1397000Y457200D02*
D03*
X1409700Y431800D02*
D03*
X1397000Y406400D02*
D03*
X1371600Y762000D02*
D03*
X1384300Y736600D02*
D03*
X1371600Y711200D02*
D03*
X1384300Y685800D02*
D03*
Y635000D02*
D03*
Y584200D02*
D03*
Y533400D02*
D03*
Y431800D02*
D03*
X1371600Y406400D02*
D03*
X1346200Y762000D02*
D03*
X1358900Y736600D02*
D03*
Y685800D02*
D03*
X1346200Y660400D02*
D03*
X1358900Y533400D02*
D03*
X1346200Y508000D02*
D03*
X1358900Y482600D02*
D03*
X1346200Y457200D02*
D03*
Y406400D02*
D03*
X1320800Y762000D02*
D03*
X1333500Y736600D02*
D03*
Y685800D02*
D03*
X1320800Y508000D02*
D03*
Y457200D02*
D03*
Y406400D02*
D03*
X1295400Y762000D02*
D03*
X1308100Y736600D02*
D03*
X1270000Y762000D02*
D03*
X1282700Y736600D02*
D03*
X1244600Y762000D02*
D03*
X1257300Y736600D02*
D03*
X1244600Y711200D02*
D03*
X1257300Y685800D02*
D03*
Y635000D02*
D03*
X1244600Y609600D02*
D03*
X1257300Y482600D02*
D03*
X1219200Y762000D02*
D03*
X1231900Y736600D02*
D03*
Y685800D02*
D03*
Y635000D02*
D03*
X1206500Y736600D02*
D03*
Y685800D02*
D03*
X1193800Y660400D02*
D03*
X1206500Y584200D02*
D03*
Y533400D02*
D03*
X1193800Y457200D02*
D03*
X1168400Y762000D02*
D03*
X1181100Y584200D02*
D03*
Y482600D02*
D03*
X1143000Y711200D02*
D03*
X1155700Y584200D02*
D03*
X1117600Y762000D02*
D03*
Y711200D02*
D03*
X1092200Y762000D02*
D03*
X1104900Y736600D02*
D03*
X1092200Y711200D02*
D03*
X1104900Y533400D02*
D03*
X1066800Y762000D02*
D03*
X1079500Y736600D02*
D03*
X1066800Y711200D02*
D03*
X1079500Y685800D02*
D03*
X1054100Y736600D02*
D03*
X1041400Y711200D02*
D03*
X1054100Y685800D02*
D03*
X1028700Y736600D02*
D03*
Y482600D02*
D03*
X1003300D02*
D03*
X990600Y457200D02*
D03*
X952500Y736600D02*
D03*
X914400Y711200D02*
D03*
Y558800D02*
D03*
X889000Y762000D02*
D03*
X901700Y736600D02*
D03*
X889000Y711200D02*
D03*
X863600Y558800D02*
D03*
Y457200D02*
D03*
X838200Y558800D02*
D03*
X825500Y685800D02*
D03*
X812800Y508000D02*
D03*
X825500Y482600D02*
D03*
X812800Y457200D02*
D03*
X787400Y711200D02*
D03*
Y508000D02*
D03*
X800100Y482600D02*
D03*
X787400Y457200D02*
D03*
X774700Y736600D02*
D03*
X762000Y711200D02*
D03*
Y609600D02*
D03*
Y457200D02*
D03*
X749300Y736600D02*
D03*
X736600Y711200D02*
D03*
X749300Y635000D02*
D03*
X736600Y609600D02*
D03*
Y558800D02*
D03*
Y508000D02*
D03*
X723900Y736600D02*
D03*
X711200Y711200D02*
D03*
X723900Y635000D02*
D03*
X711200Y609600D02*
D03*
Y406400D02*
D03*
X698500Y736600D02*
D03*
Y635000D02*
D03*
X685800Y558800D02*
D03*
Y508000D02*
D03*
Y457200D02*
D03*
X698500Y431800D02*
D03*
X685800Y406400D02*
D03*
X660400Y762000D02*
D03*
Y660400D02*
D03*
X673100Y635000D02*
D03*
X660400Y609600D02*
D03*
X673100Y584200D02*
D03*
X660400Y558800D02*
D03*
Y508000D02*
D03*
X673100Y482600D02*
D03*
X660400Y457200D02*
D03*
X673100Y431800D02*
D03*
X660400Y406400D02*
D03*
X647700Y635000D02*
D03*
Y584200D02*
D03*
X635000Y457200D02*
D03*
X647700Y431800D02*
D03*
X635000Y406400D02*
D03*
D64*
X1399540Y486156D02*
D03*
X636270D02*
D03*
X1397000Y762000D02*
D03*
X636270Y760730D02*
D03*
M02*
