G04*
G04 #@! TF.GenerationSoftware,Altium Limited,Altium Designer,24.5.2 (23)*
G04*
G04 Layer_Color=128*
%FSLAX44Y44*%
%MOMM*%
G71*
G04*
G04 #@! TF.SameCoordinates,D1B1E3A2-7201-45A1-8B5A-9354847063BF*
G04*
G04*
G04 #@! TF.FilePolarity,Positive*
G04*
G01*
G75*
%ADD22R,0.9500X1.0000*%
%ADD25R,1.0000X0.9500*%
%ADD65R,0.6000X1.3000*%
D22*
X1235202Y446278D02*
D03*
Y464058D02*
D03*
X1307846Y483870D02*
D03*
Y501650D02*
D03*
X1027938Y702056D02*
D03*
Y719836D02*
D03*
X887730Y661162D02*
D03*
X872490Y660908D02*
D03*
X887984Y606552D02*
D03*
X872744D02*
D03*
X872490Y643128D02*
D03*
X887730Y643382D02*
D03*
X887984Y588772D02*
D03*
X872744D02*
D03*
D25*
X1282954Y445770D02*
D03*
X1300734D02*
D03*
X1267460Y446024D02*
D03*
X1249680D02*
D03*
X1080770Y631698D02*
D03*
X1098550D02*
D03*
X941832Y533400D02*
D03*
X924052D02*
D03*
X941832Y517906D02*
D03*
X924052D02*
D03*
Y502920D02*
D03*
X941832D02*
D03*
D65*
X1256030Y520530D02*
D03*
X1268730D02*
D03*
X1281430D02*
D03*
X1294130D02*
D03*
Y467530D02*
D03*
X1281430D02*
D03*
X1268730D02*
D03*
X1256030D02*
D03*
M02*
