G04*
G04 #@! TF.GenerationSoftware,Altium Limited,Altium Designer,24.5.2 (23)*
G04*
G04 Layer_Color=16711935*
%FSLAX44Y44*%
%MOMM*%
G71*
G04*
G04 #@! TF.SameCoordinates,D1B1E3A2-7201-45A1-8B5A-9354847063BF*
G04*
G04*
G04 #@! TF.FilePolarity,Negative*
G04*
G01*
G75*
%ADD36R,1.1100X1.1600*%
%ADD39R,1.1600X1.1100*%
G04:AMPARAMS|DCode=47|XSize=1.878mm|YSize=1.878mm|CornerRadius=0mm|HoleSize=0mm|Usage=FLASHONLY|Rotation=270.000|XOffset=0mm|YOffset=0mm|HoleType=Round|Shape=Octagon|*
%AMOCTAGOND47*
4,1,8,-0.4695,-0.9390,0.4695,-0.9390,0.9390,-0.4695,0.9390,0.4695,0.4695,0.9390,-0.4695,0.9390,-0.9390,0.4695,-0.9390,-0.4695,-0.4695,-0.9390,0.0*
%
%ADD47OCTAGOND47*%

%ADD48C,1.8780*%
%ADD49C,1.8032*%
G04:AMPARAMS|DCode=50|XSize=1.8032mm|YSize=1.8032mm|CornerRadius=0.5016mm|HoleSize=0mm|Usage=FLASHONLY|Rotation=90.000|XOffset=0mm|YOffset=0mm|HoleType=Round|Shape=RoundedRectangle|*
%AMROUNDEDRECTD50*
21,1,1.8032,0.8000,0,0,90.0*
21,1,0.8000,1.8032,0,0,90.0*
1,1,1.0032,0.4000,0.4000*
1,1,1.0032,0.4000,-0.4000*
1,1,1.0032,-0.4000,-0.4000*
1,1,1.0032,-0.4000,0.4000*
%
%ADD50ROUNDEDRECTD50*%
%ADD51C,1.7032*%
G04:AMPARAMS|DCode=52|XSize=1.7032mm|YSize=1.7032mm|CornerRadius=0.4766mm|HoleSize=0mm|Usage=FLASHONLY|Rotation=180.000|XOffset=0mm|YOffset=0mm|HoleType=Round|Shape=RoundedRectangle|*
%AMROUNDEDRECTD52*
21,1,1.7032,0.7500,0,0,180.0*
21,1,0.7500,1.7032,0,0,180.0*
1,1,0.9532,-0.3750,0.3750*
1,1,0.9532,0.3750,0.3750*
1,1,0.9532,0.3750,-0.3750*
1,1,0.9532,-0.3750,-0.3750*
%
%ADD52ROUNDEDRECTD52*%
%ADD53C,3.4032*%
%ADD66R,0.8032X1.5032*%
D36*
X1235202Y446278D02*
D03*
Y464058D02*
D03*
X1307846Y483870D02*
D03*
Y501650D02*
D03*
X1027938Y702056D02*
D03*
Y719836D02*
D03*
X887730Y661162D02*
D03*
X872490Y660908D02*
D03*
X887984Y606552D02*
D03*
X872744D02*
D03*
X872490Y643128D02*
D03*
X887730Y643382D02*
D03*
X887984Y588772D02*
D03*
X872744D02*
D03*
D39*
X1282954Y445770D02*
D03*
X1300734D02*
D03*
X1267460Y446024D02*
D03*
X1249680D02*
D03*
X1080770Y631698D02*
D03*
X1098550D02*
D03*
X941832Y533400D02*
D03*
X924052D02*
D03*
X941832Y517906D02*
D03*
X924052D02*
D03*
Y502920D02*
D03*
X941832D02*
D03*
D47*
X687578Y687070D02*
D03*
Y619506D02*
D03*
D48*
Y661670D02*
D03*
Y594106D02*
D03*
D49*
X1179322Y710438D02*
D03*
Y685038D02*
D03*
Y634238D02*
D03*
Y659638D02*
D03*
D50*
Y608838D02*
D03*
D51*
X825500Y466090D02*
D03*
X850900D02*
D03*
X825500Y440690D02*
D03*
X850900D02*
D03*
X876300Y466090D02*
D03*
Y440690D02*
D03*
X901700Y466090D02*
D03*
Y440690D02*
D03*
X952500Y466090D02*
D03*
Y440690D02*
D03*
X1003300Y466090D02*
D03*
Y440690D02*
D03*
X1054100Y466090D02*
D03*
Y440690D02*
D03*
X1130300Y466090D02*
D03*
X1104900Y440690D02*
D03*
Y466090D02*
D03*
X1079500Y440690D02*
D03*
Y466090D02*
D03*
X1028700Y440690D02*
D03*
Y466090D02*
D03*
X977900Y440690D02*
D03*
Y466090D02*
D03*
X927100Y440690D02*
D03*
Y466090D02*
D03*
D52*
X1130300Y440690D02*
D03*
D53*
X1399540Y486156D02*
D03*
X636270D02*
D03*
X1397000Y762000D02*
D03*
X636270Y760730D02*
D03*
D66*
X1256030Y520530D02*
D03*
X1268730D02*
D03*
X1281430D02*
D03*
X1294130D02*
D03*
Y467530D02*
D03*
X1281430D02*
D03*
X1268730D02*
D03*
X1256030D02*
D03*
M02*
