G04*
G04 #@! TF.GenerationSoftware,Altium Limited,Altium Designer,18.1.9 (240)*
G04*
G04 Layer_Physical_Order=2*
G04 Layer_Color=16711680*
%FSAX25Y25*%
%MOIN*%
G70*
G01*
G75*
%ADD18C,0.01000*%
%ADD19C,0.00800*%
%ADD56C,0.03500*%
%ADD57C,0.02000*%
%ADD62C,0.06000*%
%ADD63C,0.04600*%
G04:AMPARAMS|DCode=64|XSize=61.02mil|YSize=61.02mil|CornerRadius=15.26mil|HoleSize=0mil|Usage=FLASHONLY|Rotation=90.000|XOffset=0mil|YOffset=0mil|HoleType=Round|Shape=RoundedRectangle|*
%AMROUNDEDRECTD64*
21,1,0.06102,0.03051,0,0,90.0*
21,1,0.03051,0.06102,0,0,90.0*
1,1,0.03051,0.01526,0.01526*
1,1,0.03051,0.01526,-0.01526*
1,1,0.03051,-0.01526,-0.01526*
1,1,0.03051,-0.01526,0.01526*
%
%ADD64ROUNDEDRECTD64*%
%ADD65C,0.06102*%
%ADD66C,0.02300*%
%ADD67C,0.02200*%
%ADD68R,0.07480X0.05118*%
%ADD69R,0.05000X0.06300*%
G36*
X0303700Y0339089D02*
X0303700Y0265611D01*
X0302993Y0264904D01*
X0268084Y0264914D01*
X0268069Y0264950D01*
X0268069Y0264950D01*
X0250584Y0264900D01*
X0231860D01*
Y0271243D01*
X0228061D01*
X0227829Y0271353D01*
X0227430Y0271595D01*
X0226982Y0271917D01*
X0225891Y0272849D01*
X0225465Y0273261D01*
X0225119Y0273607D01*
Y0278624D01*
X0225831Y0279208D01*
X0226670Y0279375D01*
X0226677Y0279379D01*
X0227454Y0279812D01*
X0228264Y0279393D01*
X0229103Y0279226D01*
X0229942Y0279393D01*
X0230653Y0279868D01*
X0231128Y0280579D01*
X0231295Y0281418D01*
X0231148Y0282158D01*
X0231181Y0282336D01*
X0231729Y0283158D01*
X0244291Y0283158D01*
Y0325309D01*
X0251909Y0332928D01*
X0258476Y0339494D01*
X0302991Y0339793D01*
X0303700Y0339089D01*
D02*
G37*
G36*
X0225205Y0272094D02*
X0226352Y0271113D01*
X0226868Y0270744D01*
X0227344Y0270455D01*
X0227782Y0270247D01*
X0228180Y0270119D01*
X0228540Y0270072D01*
X0228860Y0270105D01*
X0229142Y0270219D01*
X0223404Y0266843D01*
X0223616Y0267026D01*
X0223729Y0267267D01*
X0223742Y0267566D01*
X0223656Y0267923D01*
X0223471Y0268337D01*
X0223186Y0268810D01*
X0222801Y0269340D01*
X0222317Y0269928D01*
X0221051Y0271278D01*
X0224573Y0272706D01*
X0225205Y0272094D01*
D02*
G37*
G36*
X0230856Y0253746D02*
X0230916Y0253576D01*
X0231017Y0253426D01*
X0231158Y0253296D01*
X0231339Y0253186D01*
X0231560Y0253096D01*
X0231822Y0253026D01*
X0232123Y0252976D01*
X0232466Y0252946D01*
X0232848Y0252936D01*
Y0250936D01*
X0232466Y0250926D01*
X0232123Y0250896D01*
X0231822Y0250846D01*
X0231560Y0250776D01*
X0231339Y0250686D01*
X0231158Y0250576D01*
X0231017Y0250446D01*
X0230916Y0250296D01*
X0230856Y0250126D01*
X0230836Y0249936D01*
Y0250897D01*
X0228436Y0250743D01*
X0228356Y0250698D01*
Y0253174D01*
X0228436Y0253129D01*
X0228581Y0253088D01*
X0228789Y0253053D01*
X0229063Y0253022D01*
X0230269Y0252957D01*
X0230836Y0252951D01*
Y0253936D01*
X0230856Y0253746D01*
D02*
G37*
G36*
X0236110Y0249936D02*
X0236090Y0250126D01*
X0236029Y0250296D01*
X0235929Y0250446D01*
X0235788Y0250576D01*
X0235607Y0250686D01*
X0235385Y0250776D01*
X0235124Y0250846D01*
X0234822Y0250896D01*
X0234480Y0250926D01*
X0234098Y0250936D01*
Y0252936D01*
X0234480Y0252946D01*
X0234822Y0252976D01*
X0235124Y0253026D01*
X0235385Y0253096D01*
X0235607Y0253186D01*
X0235788Y0253296D01*
X0235929Y0253426D01*
X0236029Y0253576D01*
X0236090Y0253746D01*
X0236110Y0253936D01*
Y0249936D01*
D02*
G37*
G36*
X0303200Y0254400D02*
Y0186400D01*
X0246293Y0186400D01*
X0241170Y0191523D01*
Y0233900D01*
X0221741D01*
X0221728Y0247647D01*
X0222728Y0248377D01*
X0231860D01*
Y0249797D01*
X0231885Y0249807D01*
X0232037Y0249848D01*
X0232252Y0249884D01*
X0232401Y0249897D01*
X0234545D01*
X0234694Y0249884D01*
X0234908Y0249848D01*
X0235060Y0249807D01*
X0235086Y0249797D01*
Y0246750D01*
X0250086D01*
Y0248761D01*
X0250111Y0248772D01*
X0250263Y0248812D01*
X0250478Y0248848D01*
X0250627Y0248861D01*
X0251700D01*
X0252480Y0249016D01*
X0253008Y0249369D01*
X0253039Y0249375D01*
X0253700Y0249816D01*
X0254361Y0249375D01*
X0255200Y0249208D01*
X0256039Y0249375D01*
X0256450Y0249649D01*
X0256861Y0249375D01*
X0257700Y0249208D01*
X0258539Y0249375D01*
X0259250Y0249850D01*
X0259725Y0250561D01*
X0259892Y0251400D01*
X0259725Y0252239D01*
X0259250Y0252950D01*
X0258577Y0253400D01*
X0258561Y0253475D01*
X0258791Y0254400D01*
X0303200Y0254400D01*
D02*
G37*
G36*
X0249082Y0252710D02*
X0249142Y0252540D01*
X0249243Y0252390D01*
X0249384Y0252260D01*
X0249565Y0252150D01*
X0249786Y0252060D01*
X0250048Y0251990D01*
X0250349Y0251940D01*
X0250691Y0251910D01*
X0251074Y0251900D01*
Y0249900D01*
X0250691Y0249890D01*
X0250349Y0249860D01*
X0250048Y0249810D01*
X0249786Y0249740D01*
X0249565Y0249650D01*
X0249384Y0249540D01*
X0249243Y0249410D01*
X0249142Y0249260D01*
X0249082Y0249090D01*
X0249062Y0248900D01*
Y0252900D01*
X0249082Y0252710D01*
D02*
G37*
G36*
X0190700Y0359682D02*
Y0185377D01*
X0139509D01*
X0137959Y0183827D01*
X0093468Y0183827D01*
X0093449Y0359582D01*
X0094158Y0360287D01*
X0190700Y0359682D01*
D02*
G37*
%LPC*%
G36*
X0280146Y0309934D02*
X0279102Y0309797D01*
X0278129Y0309394D01*
X0277294Y0308753D01*
X0276652Y0307917D01*
X0276249Y0306944D01*
X0276112Y0305900D01*
X0276249Y0304856D01*
X0276652Y0303883D01*
X0277294Y0303047D01*
X0278129Y0302406D01*
X0279102Y0302003D01*
X0280146Y0301866D01*
X0281191Y0302003D01*
X0282164Y0302406D01*
X0282999Y0303047D01*
X0283640Y0303883D01*
X0284043Y0304856D01*
X0284181Y0305900D01*
X0284043Y0306944D01*
X0283640Y0307917D01*
X0282999Y0308753D01*
X0282164Y0309394D01*
X0281191Y0309797D01*
X0280146Y0309934D01*
D02*
G37*
G36*
X0257200D02*
X0256156Y0309797D01*
X0255183Y0309394D01*
X0254347Y0308753D01*
X0253706Y0307917D01*
X0253303Y0306944D01*
X0253166Y0305900D01*
X0253303Y0304856D01*
X0253706Y0303883D01*
X0254347Y0303047D01*
X0255183Y0302406D01*
X0256156Y0302003D01*
X0257200Y0301866D01*
X0258244Y0302003D01*
X0259217Y0302406D01*
X0260053Y0303047D01*
X0260694Y0303883D01*
X0261097Y0304856D01*
X0261234Y0305900D01*
X0261097Y0306944D01*
X0260694Y0307917D01*
X0260053Y0308753D01*
X0259217Y0309394D01*
X0258244Y0309797D01*
X0257200Y0309934D01*
D02*
G37*
G36*
X0282763Y0223434D02*
X0281719Y0223297D01*
X0280746Y0222894D01*
X0279910Y0222253D01*
X0279269Y0221417D01*
X0278866Y0220444D01*
X0278728Y0219400D01*
X0278866Y0218356D01*
X0279269Y0217383D01*
X0279910Y0216547D01*
X0280746Y0215906D01*
X0281719Y0215503D01*
X0282763Y0215366D01*
X0283807Y0215503D01*
X0284780Y0215906D01*
X0285616Y0216547D01*
X0286257Y0217383D01*
X0286660Y0218356D01*
X0286797Y0219400D01*
X0286660Y0220444D01*
X0286257Y0221417D01*
X0285616Y0222253D01*
X0284780Y0222894D01*
X0283807Y0223297D01*
X0282763Y0223434D01*
D02*
G37*
G36*
X0255700D02*
X0254656Y0223297D01*
X0253683Y0222894D01*
X0252847Y0222253D01*
X0252206Y0221417D01*
X0251803Y0220444D01*
X0251665Y0219400D01*
X0251803Y0218356D01*
X0252206Y0217383D01*
X0252847Y0216547D01*
X0253683Y0215906D01*
X0254656Y0215503D01*
X0255700Y0215366D01*
X0256744Y0215503D01*
X0257717Y0215906D01*
X0258553Y0216547D01*
X0259194Y0217383D01*
X0259597Y0218356D01*
X0259735Y0219400D01*
X0259597Y0220444D01*
X0259194Y0221417D01*
X0258553Y0222253D01*
X0257717Y0222894D01*
X0256744Y0223297D01*
X0255700Y0223434D01*
D02*
G37*
G36*
X0130625Y0326735D02*
X0129568Y0326596D01*
X0128582Y0326187D01*
X0127736Y0325538D01*
X0127087Y0324692D01*
X0126679Y0323706D01*
X0126539Y0322649D01*
X0126679Y0321591D01*
X0127087Y0320606D01*
X0127736Y0319759D01*
X0128582Y0319110D01*
X0129568Y0318702D01*
X0130625Y0318563D01*
X0131683Y0318702D01*
X0132669Y0319110D01*
X0133515Y0319759D01*
X0134164Y0320606D01*
X0134572Y0321591D01*
X0134712Y0322649D01*
X0134572Y0323706D01*
X0134164Y0324692D01*
X0133515Y0325538D01*
X0132669Y0326187D01*
X0131683Y0326596D01*
X0130625Y0326735D01*
D02*
G37*
G36*
X0182197Y0318435D02*
X0181153Y0318297D01*
X0180180Y0317894D01*
X0179345Y0317253D01*
X0178703Y0316417D01*
X0178300Y0315444D01*
X0178163Y0314400D01*
X0178300Y0313356D01*
X0178703Y0312383D01*
X0179345Y0311547D01*
X0180180Y0310906D01*
X0181153Y0310503D01*
X0182197Y0310366D01*
X0183242Y0310503D01*
X0184215Y0310906D01*
X0185050Y0311547D01*
X0185691Y0312383D01*
X0186095Y0313356D01*
X0186232Y0314400D01*
X0186095Y0315444D01*
X0185691Y0316417D01*
X0185050Y0317253D01*
X0184215Y0317894D01*
X0183242Y0318297D01*
X0182197Y0318435D01*
D02*
G37*
G36*
X0157700D02*
X0156656Y0318297D01*
X0155683Y0317894D01*
X0154847Y0317253D01*
X0154206Y0316417D01*
X0153803Y0315444D01*
X0153665Y0314400D01*
X0153803Y0313356D01*
X0154206Y0312383D01*
X0154847Y0311547D01*
X0155683Y0310906D01*
X0156656Y0310503D01*
X0157700Y0310366D01*
X0158744Y0310503D01*
X0159717Y0310906D01*
X0160553Y0311547D01*
X0161194Y0312383D01*
X0161597Y0313356D01*
X0161734Y0314400D01*
X0161597Y0315444D01*
X0161194Y0316417D01*
X0160553Y0317253D01*
X0159717Y0317894D01*
X0158744Y0318297D01*
X0157700Y0318435D01*
D02*
G37*
G36*
X0130625Y0316735D02*
X0129568Y0316596D01*
X0128582Y0316188D01*
X0127736Y0315538D01*
X0127087Y0314692D01*
X0126679Y0313706D01*
X0126539Y0312649D01*
X0126679Y0311591D01*
X0127087Y0310606D01*
X0127736Y0309759D01*
X0128582Y0309110D01*
X0129568Y0308702D01*
X0130625Y0308563D01*
X0131683Y0308702D01*
X0132669Y0309110D01*
X0133515Y0309759D01*
X0134164Y0310606D01*
X0134572Y0311591D01*
X0134712Y0312649D01*
X0134572Y0313706D01*
X0134164Y0314692D01*
X0133515Y0315538D01*
X0132669Y0316188D01*
X0131683Y0316596D01*
X0130625Y0316735D01*
D02*
G37*
G36*
Y0290390D02*
X0129568Y0290251D01*
X0128582Y0289843D01*
X0127736Y0289193D01*
X0127087Y0288347D01*
X0126679Y0287362D01*
X0126539Y0286304D01*
X0126679Y0285246D01*
X0127087Y0284261D01*
X0127736Y0283415D01*
X0128582Y0282765D01*
X0129568Y0282357D01*
X0130625Y0282218D01*
X0131683Y0282357D01*
X0132669Y0282765D01*
X0133515Y0283415D01*
X0134164Y0284261D01*
X0134572Y0285246D01*
X0134712Y0286304D01*
X0134572Y0287362D01*
X0134164Y0288347D01*
X0133515Y0289193D01*
X0132669Y0289843D01*
X0131683Y0290251D01*
X0130625Y0290390D01*
D02*
G37*
G36*
Y0280390D02*
X0129568Y0280251D01*
X0128582Y0279843D01*
X0127736Y0279193D01*
X0127087Y0278347D01*
X0126679Y0277361D01*
X0126539Y0276304D01*
X0126679Y0275246D01*
X0127087Y0274261D01*
X0127736Y0273415D01*
X0128582Y0272765D01*
X0129568Y0272357D01*
X0130625Y0272218D01*
X0131683Y0272357D01*
X0132669Y0272765D01*
X0133515Y0273415D01*
X0134164Y0274261D01*
X0134572Y0275246D01*
X0134712Y0276304D01*
X0134572Y0277361D01*
X0134164Y0278347D01*
X0133515Y0279193D01*
X0132669Y0279843D01*
X0131683Y0280251D01*
X0130625Y0280390D01*
D02*
G37*
G36*
X0130485Y0254045D02*
X0129428Y0253906D01*
X0128442Y0253498D01*
X0127596Y0252849D01*
X0126946Y0252002D01*
X0126538Y0251017D01*
X0126399Y0249959D01*
X0126538Y0248902D01*
X0126946Y0247916D01*
X0127596Y0247070D01*
X0128442Y0246420D01*
X0129428Y0246012D01*
X0130485Y0245873D01*
X0131543Y0246012D01*
X0132528Y0246420D01*
X0133375Y0247070D01*
X0134024Y0247916D01*
X0134432Y0248902D01*
X0134571Y0249959D01*
X0134432Y0251017D01*
X0134024Y0252002D01*
X0133375Y0252849D01*
X0132528Y0253498D01*
X0131543Y0253906D01*
X0130485Y0254045D01*
D02*
G37*
G36*
Y0244045D02*
X0129428Y0243906D01*
X0128442Y0243498D01*
X0127596Y0242848D01*
X0126946Y0242002D01*
X0126538Y0241017D01*
X0126399Y0239959D01*
X0126538Y0238902D01*
X0126946Y0237916D01*
X0127596Y0237070D01*
X0128442Y0236420D01*
X0129428Y0236012D01*
X0130485Y0235873D01*
X0131543Y0236012D01*
X0132528Y0236420D01*
X0133375Y0237070D01*
X0134024Y0237916D01*
X0134432Y0238902D01*
X0134571Y0239959D01*
X0134432Y0241017D01*
X0134024Y0242002D01*
X0133375Y0242848D01*
X0132528Y0243498D01*
X0131543Y0243906D01*
X0130485Y0244045D01*
D02*
G37*
G36*
X0130371Y0217700D02*
X0129314Y0217561D01*
X0128328Y0217153D01*
X0127482Y0216504D01*
X0126832Y0215657D01*
X0126424Y0214672D01*
X0126285Y0213614D01*
X0126424Y0212557D01*
X0126832Y0211571D01*
X0127482Y0210725D01*
X0128328Y0210076D01*
X0129314Y0209667D01*
X0130371Y0209528D01*
X0131429Y0209667D01*
X0132414Y0210076D01*
X0133260Y0210725D01*
X0133910Y0211571D01*
X0134318Y0212557D01*
X0134457Y0213614D01*
X0134318Y0214672D01*
X0133910Y0215657D01*
X0133260Y0216504D01*
X0132414Y0217153D01*
X0131429Y0217561D01*
X0130371Y0217700D01*
D02*
G37*
G36*
Y0207700D02*
X0129314Y0207561D01*
X0128328Y0207153D01*
X0127482Y0206504D01*
X0126832Y0205657D01*
X0126424Y0204672D01*
X0126285Y0203614D01*
X0126424Y0202557D01*
X0126832Y0201571D01*
X0127482Y0200725D01*
X0128328Y0200076D01*
X0129314Y0199667D01*
X0130371Y0199528D01*
X0131429Y0199667D01*
X0132414Y0200076D01*
X0133260Y0200725D01*
X0133910Y0201571D01*
X0134318Y0202557D01*
X0134457Y0203614D01*
X0134318Y0204672D01*
X0133910Y0205657D01*
X0133260Y0206504D01*
X0132414Y0207153D01*
X0131429Y0207561D01*
X0130371Y0207700D01*
D02*
G37*
G36*
X0131897Y0197715D02*
X0128846D01*
X0127860Y0197519D01*
X0127025Y0196961D01*
X0126466Y0196125D01*
X0126270Y0195140D01*
Y0192089D01*
X0126466Y0191103D01*
X0127025Y0190268D01*
X0127860Y0189710D01*
X0128846Y0189514D01*
X0131897D01*
X0132882Y0189710D01*
X0133718Y0190268D01*
X0134276Y0191103D01*
X0134472Y0192089D01*
Y0195140D01*
X0134276Y0196125D01*
X0133718Y0196961D01*
X0132882Y0197519D01*
X0131897Y0197715D01*
D02*
G37*
%LPD*%
G54D18*
X0497200Y0080717D02*
Y0101050D01*
X0413200Y0080717D02*
Y0101050D01*
X0040000Y0080717D02*
X0700200D01*
X0040000Y0060383D02*
X0700000D01*
X0040000Y0040050D02*
X0440500D01*
X0040050Y0101050D02*
X0700200D01*
X0040050Y0040050D02*
Y0101050D01*
Y0040050D02*
X0197600D01*
X0040000D02*
Y0101050D01*
X0286500Y0040050D02*
Y0101050D01*
X0700200Y0040050D02*
Y0101050D01*
X0440500Y0040050D02*
X0700200D01*
X0559400Y0039400D02*
Y0059683D01*
G54D19*
X0126900Y0073549D02*
Y0067551D01*
X0129899D01*
X0130899Y0068550D01*
Y0069550D01*
X0129899Y0070550D01*
X0126900D01*
X0129899D01*
X0130899Y0071549D01*
Y0072549D01*
X0129899Y0073549D01*
X0126900D01*
X0133898Y0067551D02*
X0135897D01*
X0136897Y0068550D01*
Y0070550D01*
X0135897Y0071549D01*
X0133898D01*
X0132898Y0070550D01*
Y0068550D01*
X0133898Y0067551D01*
X0139896Y0072549D02*
Y0071549D01*
X0138896D01*
X0140895D01*
X0139896D01*
Y0068550D01*
X0140895Y0067551D01*
X0144894Y0072549D02*
Y0071549D01*
X0143895D01*
X0145894D01*
X0144894D01*
Y0068550D01*
X0145894Y0067551D01*
X0149893D02*
X0151892D01*
X0152892Y0068550D01*
Y0070550D01*
X0151892Y0071549D01*
X0149893D01*
X0148893Y0070550D01*
Y0068550D01*
X0149893Y0067551D01*
X0154891D02*
Y0071549D01*
X0155891D01*
X0156890Y0070550D01*
Y0067551D01*
Y0070550D01*
X0157890Y0071549D01*
X0158890Y0070550D01*
Y0067551D01*
X0166887Y0073549D02*
Y0067551D01*
X0170886D01*
X0173885Y0071549D02*
X0175884D01*
X0176884Y0070550D01*
Y0067551D01*
X0173885D01*
X0172885Y0068550D01*
X0173885Y0069550D01*
X0176884D01*
X0178883Y0071549D02*
Y0068550D01*
X0179883Y0067551D01*
X0182882D01*
Y0066551D01*
X0181882Y0065551D01*
X0180883D01*
X0182882Y0067551D02*
Y0071549D01*
X0187880Y0067551D02*
X0185881D01*
X0184881Y0068550D01*
Y0070550D01*
X0185881Y0071549D01*
X0187880D01*
X0188880Y0070550D01*
Y0069550D01*
X0184881D01*
X0190879Y0071549D02*
Y0067551D01*
Y0069550D01*
X0191879Y0070550D01*
X0192879Y0071549D01*
X0193878D01*
X0567400Y0087833D02*
Y0093831D01*
X0571399Y0087833D01*
Y0093831D01*
X0574398Y0087833D02*
X0576397D01*
X0577397Y0088833D01*
Y0090832D01*
X0576397Y0091832D01*
X0574398D01*
X0573398Y0090832D01*
Y0088833D01*
X0574398Y0087833D01*
X0580396Y0092832D02*
Y0091832D01*
X0579396D01*
X0581395D01*
X0580396D01*
Y0088833D01*
X0581395Y0087833D01*
X0590393Y0093831D02*
X0592392D01*
X0591392D01*
Y0087833D01*
X0590393D01*
X0592392D01*
X0595391D02*
Y0091832D01*
X0598390D01*
X0599390Y0090832D01*
Y0087833D01*
X0607387Y0093831D02*
Y0089833D01*
X0609386Y0087833D01*
X0611386Y0089833D01*
Y0093831D01*
X0616384Y0087833D02*
X0614385D01*
X0613385Y0088833D01*
Y0090832D01*
X0614385Y0091832D01*
X0616384D01*
X0617384Y0090832D01*
Y0089833D01*
X0613385D01*
X0619383Y0091832D02*
Y0087833D01*
Y0089833D01*
X0620383Y0090832D01*
X0621383Y0091832D01*
X0622382D01*
X0625381Y0087833D02*
X0628380D01*
X0629380Y0088833D01*
X0628380Y0089833D01*
X0626381D01*
X0625381Y0090832D01*
X0626381Y0091832D01*
X0629380D01*
X0631379Y0087833D02*
X0633379D01*
X0632379D01*
Y0091832D01*
X0631379D01*
X0637377Y0087833D02*
X0639377D01*
X0640376Y0088833D01*
Y0090832D01*
X0639377Y0091832D01*
X0637377D01*
X0636378Y0090832D01*
Y0088833D01*
X0637377Y0087833D01*
X0642376D02*
Y0091832D01*
X0645375D01*
X0646374Y0090832D01*
Y0087833D01*
X0652373Y0092832D02*
X0651373Y0093831D01*
X0649373D01*
X0648374Y0092832D01*
Y0088833D01*
X0649373Y0087833D01*
X0651373D01*
X0652373Y0088833D01*
X0655372Y0087833D02*
X0657371D01*
X0658371Y0088833D01*
Y0090832D01*
X0657371Y0091832D01*
X0655372D01*
X0654372Y0090832D01*
Y0088833D01*
X0655372Y0087833D01*
X0660370D02*
Y0091832D01*
X0663369D01*
X0664369Y0090832D01*
Y0087833D01*
X0667368Y0092832D02*
Y0091832D01*
X0666368D01*
X0668367D01*
X0667368D01*
Y0088833D01*
X0668367Y0087833D01*
X0671366Y0091832D02*
Y0087833D01*
Y0089833D01*
X0672366Y0090832D01*
X0673366Y0091832D01*
X0674365D01*
X0678364Y0087833D02*
X0680364D01*
X0681363Y0088833D01*
Y0090832D01*
X0680364Y0091832D01*
X0678364D01*
X0677364Y0090832D01*
Y0088833D01*
X0678364Y0087833D01*
X0683362D02*
X0685362D01*
X0684362D01*
Y0093831D01*
X0683362D01*
X0520799Y0092832D02*
X0519799Y0093831D01*
X0517800D01*
X0516800Y0092832D01*
Y0091832D01*
X0517800Y0090832D01*
X0519799D01*
X0520799Y0089833D01*
Y0088833D01*
X0519799Y0087833D01*
X0517800D01*
X0516800Y0088833D01*
X0522798Y0093831D02*
Y0089833D01*
X0524797Y0087833D01*
X0526797Y0089833D01*
Y0093831D01*
X0528796Y0087833D02*
Y0093831D01*
X0532795Y0087833D01*
Y0093831D01*
X0540792Y0087833D02*
Y0093831D01*
X0543791D01*
X0544791Y0092832D01*
Y0090832D01*
X0543791Y0089833D01*
X0540792D01*
X0542792D02*
X0544791Y0087833D01*
X0550789Y0093831D02*
X0546790D01*
Y0087833D01*
X0550789D01*
X0546790Y0090832D02*
X0548790D01*
X0552788Y0093831D02*
Y0089833D01*
X0554788Y0087833D01*
X0556787Y0089833D01*
Y0093831D01*
X0558786Y0091832D02*
X0559786D01*
Y0090832D01*
X0558786D01*
Y0091832D01*
Y0088833D02*
X0559786D01*
Y0087833D01*
X0558786D01*
Y0088833D01*
X0433000Y0087833D02*
Y0093831D01*
X0435999D01*
X0436999Y0092832D01*
Y0090832D01*
X0435999Y0089833D01*
X0433000D01*
X0434999D02*
X0436999Y0087833D01*
X0442997Y0093831D02*
X0438998D01*
Y0087833D01*
X0442997D01*
X0438998Y0090832D02*
X0440997D01*
X0444996Y0093831D02*
Y0089833D01*
X0446995Y0087833D01*
X0448995Y0089833D01*
Y0093831D01*
X0450994Y0091832D02*
X0451994D01*
Y0090832D01*
X0450994D01*
Y0091832D01*
Y0088833D02*
X0451994D01*
Y0087833D01*
X0450994D01*
Y0088833D01*
X0130899Y0051965D02*
X0129899Y0052965D01*
X0127900D01*
X0126900Y0051965D01*
Y0050965D01*
X0127900Y0049966D01*
X0129899D01*
X0130899Y0048966D01*
Y0047966D01*
X0129899Y0046966D01*
X0127900D01*
X0126900Y0047966D01*
X0132898Y0052965D02*
Y0048966D01*
X0134897Y0046966D01*
X0136897Y0048966D01*
Y0052965D01*
X0142895D02*
X0140895Y0051965D01*
X0138896Y0049966D01*
Y0047966D01*
X0139896Y0046966D01*
X0141895D01*
X0142895Y0047966D01*
Y0048966D01*
X0141895Y0049966D01*
X0138896D01*
X0144894Y0051965D02*
X0145894Y0052965D01*
X0147893D01*
X0148893Y0051965D01*
Y0047966D01*
X0147893Y0046966D01*
X0145894D01*
X0144894Y0047966D01*
Y0051965D01*
X0150892Y0046966D02*
X0152892D01*
X0151892D01*
Y0052965D01*
X0150892Y0051965D01*
X0159889Y0046966D02*
X0155891D01*
X0159889Y0050965D01*
Y0051965D01*
X0158890Y0052965D01*
X0156890D01*
X0155891Y0051965D01*
X0161889D02*
X0162888Y0052965D01*
X0164888D01*
X0165887Y0051965D01*
Y0050965D01*
X0164888Y0049966D01*
X0165887Y0048966D01*
Y0047966D01*
X0164888Y0046966D01*
X0162888D01*
X0161889Y0047966D01*
Y0048966D01*
X0162888Y0049966D01*
X0161889Y0050965D01*
Y0051965D01*
X0162888Y0049966D02*
X0164888D01*
X0171885Y0052965D02*
X0169886Y0051965D01*
X0167887Y0049966D01*
Y0047966D01*
X0168886Y0046966D01*
X0170886D01*
X0171885Y0047966D01*
Y0048966D01*
X0170886Y0049966D01*
X0167887D01*
X0177884Y0051965D02*
X0176884Y0052965D01*
X0174884D01*
X0173885Y0051965D01*
Y0047966D01*
X0174884Y0046966D01*
X0176884D01*
X0177884Y0047966D01*
Y0049966D01*
X0175884D01*
X0179883Y0046966D02*
Y0047966D01*
X0180883D01*
Y0046966D01*
X0179883D01*
X0188880Y0051965D02*
X0187880Y0052965D01*
X0185881D01*
X0184881Y0051965D01*
Y0047966D01*
X0185881Y0046966D01*
X0187880D01*
X0188880Y0047966D01*
Y0049966D01*
X0186881D01*
X0190879Y0052965D02*
Y0046966D01*
X0193878D01*
X0194878Y0047966D01*
Y0048966D01*
X0193878Y0049966D01*
X0190879D01*
X0193878D01*
X0194878Y0050965D01*
Y0051965D01*
X0193878Y0052965D01*
X0190879D01*
X0196877D02*
Y0046966D01*
X0200876D01*
X0385149Y0052965D02*
X0381150D01*
Y0049966D01*
X0383149Y0050965D01*
X0384149D01*
X0385149Y0049966D01*
Y0047966D01*
X0384149Y0046966D01*
X0382150D01*
X0381150Y0047966D01*
X0387148Y0046966D02*
X0391147Y0050965D01*
X0393146Y0046966D02*
X0395146D01*
X0394146D01*
Y0052965D01*
X0393146Y0051965D01*
X0398145Y0047966D02*
X0399144Y0046966D01*
X0401144D01*
X0402143Y0047966D01*
Y0051965D01*
X0401144Y0052965D01*
X0399144D01*
X0398145Y0051965D01*
Y0050965D01*
X0399144Y0049966D01*
X0402143D01*
X0404143Y0046966D02*
X0408141Y0050965D01*
X0414139Y0046966D02*
X0410141D01*
X0414139Y0050965D01*
Y0051965D01*
X0413140Y0052965D01*
X0411140D01*
X0410141Y0051965D01*
X0416139D02*
X0417138Y0052965D01*
X0419138D01*
X0420137Y0051965D01*
Y0047966D01*
X0419138Y0046966D01*
X0417138D01*
X0416139Y0047966D01*
Y0051965D01*
X0426135Y0046966D02*
X0422137D01*
X0426135Y0050965D01*
Y0051965D01*
X0425136Y0052965D01*
X0423136D01*
X0422137Y0051965D01*
X0428135Y0046966D02*
X0430134D01*
X0429135D01*
Y0052965D01*
X0428135Y0051965D01*
X0298199D02*
X0297199Y0052965D01*
X0295200D01*
X0294200Y0051965D01*
Y0047966D01*
X0295200Y0046966D01*
X0297199D01*
X0298199Y0047966D01*
Y0049966D01*
X0296199D01*
X0304197Y0052965D02*
X0300198D01*
Y0046966D01*
X0304197D01*
X0300198Y0049966D02*
X0302197D01*
X0306196Y0046966D02*
Y0052965D01*
X0310195Y0046966D01*
Y0052965D01*
X0316193D02*
X0312194D01*
Y0046966D01*
X0316193D01*
X0312194Y0049966D02*
X0314194D01*
X0318192Y0046966D02*
Y0052965D01*
X0321191D01*
X0322191Y0051965D01*
Y0049966D01*
X0321191Y0048966D01*
X0318192D01*
X0320192D02*
X0322191Y0046966D01*
X0324190D02*
Y0050965D01*
X0326190Y0052965D01*
X0328189Y0050965D01*
Y0046966D01*
Y0049966D01*
X0324190D01*
X0330188Y0052965D02*
X0334187D01*
X0332188D01*
Y0046966D01*
X0340185Y0052965D02*
X0336186D01*
Y0046966D01*
X0340185D01*
X0336186Y0049966D02*
X0338186D01*
X0342184Y0052965D02*
Y0046966D01*
X0345183D01*
X0346183Y0047966D01*
Y0051965D01*
X0345183Y0052965D01*
X0342184D01*
X0372175Y0050965D02*
X0373175D01*
Y0049966D01*
X0372175D01*
Y0050965D01*
Y0047966D02*
X0373175D01*
Y0046966D01*
X0372175D01*
Y0047966D01*
X0046350Y0087833D02*
Y0091832D01*
X0048349Y0093831D01*
X0050349Y0091832D01*
Y0087833D01*
Y0090832D01*
X0046350D01*
X0052348Y0093831D02*
Y0087833D01*
X0056347D01*
X0058346Y0093831D02*
Y0087833D01*
X0062345D01*
X0070342D02*
Y0091832D01*
X0072342Y0093831D01*
X0074341Y0091832D01*
Y0087833D01*
Y0090832D01*
X0070342D01*
X0076340Y0087833D02*
Y0093831D01*
X0079339D01*
X0080339Y0092832D01*
Y0090832D01*
X0079339Y0089833D01*
X0076340D01*
X0078340D02*
X0080339Y0087833D01*
X0082338Y0093831D02*
X0086337D01*
X0084338D01*
Y0087833D01*
X0088336Y0093831D02*
Y0087833D01*
X0090336Y0089833D01*
X0092335Y0087833D01*
Y0093831D01*
X0097334D02*
X0095334D01*
X0094335Y0092832D01*
Y0088833D01*
X0095334Y0087833D01*
X0097334D01*
X0098333Y0088833D01*
Y0092832D01*
X0097334Y0093831D01*
X0100332Y0087833D02*
Y0093831D01*
X0103332D01*
X0104331Y0092832D01*
Y0090832D01*
X0103332Y0089833D01*
X0100332D01*
X0102332D02*
X0104331Y0087833D01*
X0106331Y0093831D02*
Y0087833D01*
Y0089833D01*
X0110329Y0093831D01*
X0107330Y0090832D01*
X0110329Y0087833D01*
X0118327Y0093831D02*
Y0089833D01*
X0120326Y0087833D01*
X0122325Y0089833D01*
Y0093831D01*
X0124325D02*
X0126324D01*
X0125324D01*
Y0087833D01*
X0124325D01*
X0126324D01*
X0133322Y0093831D02*
X0129323D01*
Y0087833D01*
X0133322D01*
X0129323Y0090832D02*
X0131323D01*
X0135321Y0093831D02*
Y0087833D01*
X0137321Y0089833D01*
X0139320Y0087833D01*
Y0093831D01*
X0145318D02*
X0141319D01*
Y0087833D01*
X0145318D01*
X0141319Y0090832D02*
X0143319D01*
X0147317Y0093831D02*
Y0087833D01*
X0150316D01*
X0151316Y0088833D01*
Y0092832D01*
X0150316Y0093831D01*
X0147317D01*
X0163312D02*
X0159313D01*
Y0090832D01*
X0161313D01*
X0159313D01*
Y0087833D01*
X0165312D02*
Y0093831D01*
X0168310D01*
X0169310Y0092832D01*
Y0090832D01*
X0168310Y0089833D01*
X0165312D01*
X0167311D02*
X0169310Y0087833D01*
X0174309Y0093831D02*
X0172309D01*
X0171310Y0092832D01*
Y0088833D01*
X0172309Y0087833D01*
X0174309D01*
X0175308Y0088833D01*
Y0092832D01*
X0174309Y0093831D01*
X0177308Y0087833D02*
Y0093831D01*
X0179307Y0091832D01*
X0181306Y0093831D01*
Y0087833D01*
X0189304Y0093831D02*
X0193303D01*
X0191303D01*
Y0087833D01*
X0198301Y0093831D02*
X0196301D01*
X0195302Y0092832D01*
Y0088833D01*
X0196301Y0087833D01*
X0198301D01*
X0199301Y0088833D01*
Y0092832D01*
X0198301Y0093831D01*
X0201300Y0087833D02*
Y0093831D01*
X0204299D01*
X0205299Y0092832D01*
Y0090832D01*
X0204299Y0089833D01*
X0201300D01*
X0217295Y0092832D02*
X0216295Y0093831D01*
X0214296D01*
X0213296Y0092832D01*
Y0091832D01*
X0214296Y0090832D01*
X0216295D01*
X0217295Y0089833D01*
Y0088833D01*
X0216295Y0087833D01*
X0214296D01*
X0213296Y0088833D01*
X0219294Y0093831D02*
X0221293D01*
X0220294D01*
Y0087833D01*
X0219294D01*
X0221293D01*
X0224292Y0093831D02*
Y0087833D01*
X0227291D01*
X0228291Y0088833D01*
Y0092832D01*
X0227291Y0093831D01*
X0224292D01*
X0234289D02*
X0230291D01*
Y0087833D01*
X0234289D01*
X0230291Y0090832D02*
X0232290D01*
X0466149Y0092832D02*
X0465149Y0093831D01*
X0463150D01*
X0462150Y0092832D01*
Y0088833D01*
X0463150Y0087833D01*
X0465149D01*
X0466149Y0088833D01*
Y0090832D01*
X0464149D01*
X0352549Y0092832D02*
X0351549Y0093831D01*
X0349550D01*
X0348550Y0092832D01*
Y0091832D01*
X0349550Y0090832D01*
X0351549D01*
X0352549Y0089833D01*
Y0088833D01*
X0351549Y0087833D01*
X0349550D01*
X0348550Y0088833D01*
X0354548Y0093831D02*
Y0089833D01*
X0356547Y0087833D01*
X0358547Y0089833D01*
Y0093831D01*
X0364545D02*
X0362545Y0092832D01*
X0360546Y0090832D01*
Y0088833D01*
X0361546Y0087833D01*
X0363545D01*
X0364545Y0088833D01*
Y0089833D01*
X0363545Y0090832D01*
X0360546D01*
X0366544Y0092832D02*
X0367544Y0093831D01*
X0369543D01*
X0370543Y0092832D01*
Y0088833D01*
X0369543Y0087833D01*
X0367544D01*
X0366544Y0088833D01*
Y0092832D01*
X0372542Y0087833D02*
X0374542D01*
X0373542D01*
Y0093831D01*
X0372542Y0092832D01*
X0381539Y0087833D02*
X0377541D01*
X0381539Y0091832D01*
Y0092832D01*
X0380540Y0093831D01*
X0378540D01*
X0377541Y0092832D01*
X0383539D02*
X0384538Y0093831D01*
X0386538D01*
X0387537Y0092832D01*
Y0091832D01*
X0386538Y0090832D01*
X0387537Y0089833D01*
Y0088833D01*
X0386538Y0087833D01*
X0384538D01*
X0383539Y0088833D01*
Y0089833D01*
X0384538Y0090832D01*
X0383539Y0091832D01*
Y0092832D01*
X0384538Y0090832D02*
X0386538D01*
X0393535Y0093831D02*
X0391536Y0092832D01*
X0389537Y0090832D01*
Y0088833D01*
X0390536Y0087833D01*
X0392536D01*
X0393535Y0088833D01*
Y0089833D01*
X0392536Y0090832D01*
X0389537D01*
X0294000Y0093831D02*
Y0087833D01*
X0296999D01*
X0297999Y0088833D01*
Y0089833D01*
X0296999Y0090832D01*
X0294000D01*
X0296999D01*
X0297999Y0091832D01*
Y0092832D01*
X0296999Y0093831D01*
X0294000D01*
X0302997D02*
X0300998D01*
X0299998Y0092832D01*
Y0088833D01*
X0300998Y0087833D01*
X0302997D01*
X0303997Y0088833D01*
Y0092832D01*
X0302997Y0093831D01*
X0305996Y0087833D02*
Y0091832D01*
X0307996Y0093831D01*
X0309995Y0091832D01*
Y0087833D01*
Y0090832D01*
X0305996D01*
X0311994Y0087833D02*
Y0093831D01*
X0314993D01*
X0315993Y0092832D01*
Y0090832D01*
X0314993Y0089833D01*
X0311994D01*
X0313994D02*
X0315993Y0087833D01*
X0317992Y0093831D02*
Y0087833D01*
X0320991D01*
X0321991Y0088833D01*
Y0092832D01*
X0320991Y0093831D01*
X0317992D01*
X0330988Y0087833D02*
Y0093831D01*
X0332987D02*
Y0087833D01*
X0329988Y0091832D02*
X0332987D01*
X0333987D01*
X0329988Y0089833D02*
X0333987D01*
X0335986Y0091832D02*
X0336986D01*
Y0090832D01*
X0335986D01*
Y0091832D01*
Y0088833D02*
X0336986D01*
Y0087833D01*
X0335986D01*
Y0088833D01*
X0046350Y0073549D02*
Y0067551D01*
X0050349D01*
X0052348D02*
Y0071549D01*
X0054347Y0073549D01*
X0056347Y0071549D01*
Y0067551D01*
Y0070550D01*
X0052348D01*
X0058346Y0073549D02*
Y0072549D01*
X0060346Y0070550D01*
X0062345Y0072549D01*
Y0073549D01*
X0060346Y0070550D02*
Y0067551D01*
X0068343Y0073549D02*
X0064344D01*
Y0067551D01*
X0068343D01*
X0064344Y0070550D02*
X0066343D01*
X0070342Y0067551D02*
Y0073549D01*
X0073341D01*
X0074341Y0072549D01*
Y0070550D01*
X0073341Y0069550D01*
X0070342D01*
X0072342D02*
X0074341Y0067551D01*
X0082338D02*
Y0073549D01*
X0086337Y0067551D01*
Y0073549D01*
X0088336Y0067551D02*
Y0071549D01*
X0090336Y0073549D01*
X0092335Y0071549D01*
Y0067551D01*
Y0070550D01*
X0088336D01*
X0094335Y0067551D02*
Y0073549D01*
X0096334Y0071549D01*
X0098333Y0073549D01*
Y0067551D01*
X0104331Y0073549D02*
X0100332D01*
Y0067551D01*
X0104331D01*
X0100332Y0070550D02*
X0102332D01*
X0112329Y0069550D02*
X0116327D01*
X0112329Y0071549D02*
X0116327D01*
X0046350Y0046966D02*
Y0052965D01*
X0049349D01*
X0050349Y0051965D01*
Y0049966D01*
X0049349Y0048966D01*
X0046350D01*
X0052348Y0052965D02*
Y0046966D01*
X0056347D01*
X0061345Y0052965D02*
X0059346D01*
X0058346Y0051965D01*
Y0047966D01*
X0059346Y0046966D01*
X0061345D01*
X0062345Y0047966D01*
Y0051965D01*
X0061345Y0052965D01*
X0064344D02*
X0068343D01*
X0066343D01*
Y0046966D01*
X0076340D02*
Y0052965D01*
X0080339Y0046966D01*
Y0052965D01*
X0082338Y0046966D02*
Y0050965D01*
X0084338Y0052965D01*
X0086337Y0050965D01*
Y0046966D01*
Y0049966D01*
X0082338D01*
X0088336Y0046966D02*
Y0052965D01*
X0090336Y0050965D01*
X0092335Y0052965D01*
Y0046966D01*
X0098333Y0052965D02*
X0094335D01*
Y0046966D01*
X0098333D01*
X0094335Y0049966D02*
X0096334D01*
X0106331Y0048966D02*
X0110329D01*
X0106331Y0050965D02*
X0110329D01*
X0454050Y0046966D02*
X0456049D01*
X0455050D01*
Y0052965D01*
X0454050Y0051965D01*
X0459048Y0046966D02*
X0461048D01*
X0460048D01*
Y0052965D01*
X0459048Y0051965D01*
X0464047Y0050965D02*
X0465046D01*
Y0049966D01*
X0464047D01*
Y0050965D01*
Y0047966D02*
X0465046D01*
Y0046966D01*
X0464047D01*
Y0047966D01*
X0472044Y0046966D02*
Y0052965D01*
X0469045Y0049966D01*
X0473044D01*
X0479042Y0052965D02*
X0475043D01*
Y0049966D01*
X0477043Y0050965D01*
X0478042D01*
X0479042Y0049966D01*
Y0047966D01*
X0478042Y0046966D01*
X0476043D01*
X0475043Y0047966D01*
X0481041Y0050965D02*
X0482041D01*
Y0049966D01*
X0481041D01*
Y0050965D01*
Y0047966D02*
X0482041D01*
Y0046966D01*
X0481041D01*
Y0047966D01*
X0486040Y0046966D02*
X0488039D01*
X0487039D01*
Y0052965D01*
X0486040Y0051965D01*
X0495037Y0046966D02*
X0491038D01*
X0495037Y0050965D01*
Y0051965D01*
X0494037Y0052965D01*
X0492038D01*
X0491038Y0051965D01*
X0503034Y0046966D02*
Y0050965D01*
X0505033Y0052965D01*
X0507033Y0050965D01*
Y0046966D01*
Y0049966D01*
X0503034D01*
X0509032Y0046966D02*
Y0052965D01*
X0511031Y0050965D01*
X0513031Y0052965D01*
Y0046966D01*
X0580500Y0052965D02*
X0584499D01*
X0582499D01*
Y0046966D01*
X0590497Y0052965D02*
X0586498D01*
Y0046966D01*
X0590497D01*
X0586498Y0049966D02*
X0588497D01*
X0592496Y0052965D02*
X0596495Y0046966D01*
Y0052965D02*
X0592496Y0046966D01*
X0598494D02*
Y0050965D01*
X0600493Y0052965D01*
X0602493Y0050965D01*
Y0046966D01*
Y0049966D01*
X0598494D01*
X0608491Y0051965D02*
X0607491Y0052965D01*
X0605492D01*
X0604492Y0051965D01*
Y0050965D01*
X0605492Y0049966D01*
X0607491D01*
X0608491Y0048966D01*
Y0047966D01*
X0607491Y0046966D01*
X0605492D01*
X0604492Y0047966D01*
X0616488Y0052965D02*
X0618488D01*
X0617488D01*
Y0046966D01*
X0616488D01*
X0618488D01*
X0621487D02*
Y0052965D01*
X0625486Y0046966D01*
Y0052965D01*
X0631484Y0051965D02*
X0630484Y0052965D01*
X0628484D01*
X0627485Y0051965D01*
Y0050965D01*
X0628484Y0049966D01*
X0630484D01*
X0631484Y0048966D01*
Y0047966D01*
X0630484Y0046966D01*
X0628484D01*
X0627485Y0047966D01*
X0633483Y0052965D02*
X0637482D01*
X0635482D01*
Y0046966D01*
X0639481D02*
Y0052965D01*
X0642480D01*
X0643480Y0051965D01*
Y0049966D01*
X0642480Y0048966D01*
X0639481D01*
X0641480D02*
X0643480Y0046966D01*
X0645479Y0052965D02*
Y0047966D01*
X0646479Y0046966D01*
X0648478D01*
X0649478Y0047966D01*
Y0052965D01*
X0651477Y0046966D02*
Y0052965D01*
X0653476Y0050965D01*
X0655476Y0052965D01*
Y0046966D01*
X0661474Y0052965D02*
X0657475D01*
Y0046966D01*
X0661474D01*
X0657475Y0049966D02*
X0659474D01*
X0663473Y0046966D02*
Y0052965D01*
X0667472Y0046966D01*
Y0052965D01*
X0669471D02*
X0673470D01*
X0671471D01*
Y0046966D01*
X0679468Y0051965D02*
X0678468Y0052965D01*
X0676469D01*
X0675469Y0051965D01*
Y0050965D01*
X0676469Y0049966D01*
X0678468D01*
X0679468Y0048966D01*
Y0047966D01*
X0678468Y0046966D01*
X0676469D01*
X0675469Y0047966D01*
X0294000Y0073498D02*
X0297999D01*
X0295999D01*
Y0067500D01*
X0299998Y0073498D02*
X0301997D01*
X0300998D01*
Y0067500D01*
X0299998D01*
X0301997D01*
X0304996Y0073498D02*
Y0067500D01*
X0307996D01*
X0308995Y0068500D01*
Y0072498D01*
X0307996Y0073498D01*
X0304996D01*
X0317992Y0067500D02*
Y0073498D01*
X0319992D02*
Y0067500D01*
X0316993Y0071499D02*
X0319992D01*
X0320991D01*
X0316993Y0069499D02*
X0320991D01*
X0322991Y0071499D02*
X0323990D01*
Y0070499D01*
X0322991D01*
Y0071499D01*
Y0068500D02*
X0323990D01*
Y0067500D01*
X0322991D01*
Y0068500D01*
X0348550Y0067500D02*
Y0073498D01*
X0352549Y0067500D01*
Y0073498D01*
X0354548Y0067500D02*
X0358547Y0071499D01*
X0360546Y0067500D02*
Y0071499D01*
X0362545Y0073498D01*
X0364545Y0071499D01*
Y0067500D01*
Y0070499D01*
X0360546D01*
G54D56*
X0222346Y0272573D02*
Y0281400D01*
X0222288Y0272516D02*
X0222346Y0272573D01*
X0222288Y0272516D02*
X0227120Y0267684D01*
Y0251936D02*
X0227746Y0251310D01*
G54D57*
X0251700Y0250900D02*
X0252200Y0251400D01*
X0246586Y0250900D02*
X0251700D01*
X0237550Y0251936D02*
X0238586Y0250900D01*
X0227120Y0251936D02*
X0237550D01*
G54D62*
X0282763Y0219400D02*
D03*
X0280146Y0305900D02*
D03*
X0257200D02*
D03*
X0157700Y0314400D02*
D03*
X0182197D02*
D03*
X0255700Y0219400D02*
D03*
G54D63*
X0282763Y0199400D02*
D03*
X0280146Y0325900D02*
D03*
X0257200D02*
D03*
X0157700Y0334400D02*
D03*
X0182197D02*
D03*
X0255700Y0199400D02*
D03*
G54D64*
X0130485Y0229959D02*
D03*
X0130625Y0302649D02*
D03*
Y0266304D02*
D03*
X0130371Y0193614D02*
D03*
G54D65*
X0130485Y0239959D02*
D03*
Y0249959D02*
D03*
X0130625Y0312649D02*
D03*
Y0322649D02*
D03*
Y0276304D02*
D03*
Y0286304D02*
D03*
X0130371Y0203614D02*
D03*
Y0213614D02*
D03*
G54D66*
X0169330Y0245059D02*
D03*
X0177632Y0211272D02*
D03*
X0163700Y0250144D02*
D03*
X0149700Y0241720D02*
D03*
X0159158Y0355400D02*
D03*
X0165200Y0275424D02*
D03*
X0173257Y0275579D02*
D03*
X0169328Y0238632D02*
D03*
X0182372Y0289729D02*
D03*
X0182350Y0293721D02*
D03*
X0181502Y0262080D02*
D03*
X0113419Y0302973D02*
D03*
X0165383Y0262354D02*
D03*
X0154700Y0221417D02*
D03*
X0113700Y0196829D02*
D03*
X0115200Y0247254D02*
D03*
X0252200Y0251400D02*
D03*
X0255200D02*
D03*
X0257700D02*
D03*
X0289200Y0196400D02*
D03*
Y0199150D02*
D03*
X0225831Y0281400D02*
D03*
X0222346D02*
D03*
X0281200Y0230818D02*
D03*
X0272420Y0222400D02*
D03*
X0273957Y0225400D02*
D03*
X0229103Y0281418D02*
D03*
X0244200Y0232900D02*
D03*
X0247754D02*
D03*
X0270649Y0225400D02*
D03*
X0233064Y0237646D02*
D03*
X0229828D02*
D03*
X0226593D02*
D03*
X0223358D02*
D03*
X0281200Y0234676D02*
D03*
X0289200Y0201900D02*
D03*
X0263700Y0193310D02*
D03*
X0271700D02*
D03*
X0267700D02*
D03*
X0281200Y0226960D02*
D03*
G54D67*
X0264200Y0326400D02*
D03*
X0270200D02*
D03*
X0234627Y0266400D02*
D03*
X0237389D02*
D03*
X0240152D02*
D03*
X0282688D02*
D03*
X0267200Y0326400D02*
D03*
X0279952Y0266400D02*
D03*
X0277216D02*
D03*
X0274480D02*
D03*
G54D68*
X0227120Y0267684D02*
D03*
Y0251936D02*
D03*
G54D69*
X0238586Y0250900D02*
D03*
X0246586D02*
D03*
M02*
