G04*
G04 #@! TF.GenerationSoftware,Altium Limited,Altium Designer,18.1.9 (240)*
G04*
G04 Layer_Color=128*
%FSAX25Y25*%
%MOIN*%
G70*
G01*
G75*
%ADD18C,0.01000*%
%ADD19C,0.00800*%
%ADD72C,0.00500*%
G54D18*
X0497200Y0080717D02*
Y0101050D01*
X0413200Y0080717D02*
Y0101050D01*
X0040000Y0080717D02*
X0700200D01*
X0040000Y0060383D02*
X0700000D01*
X0040000Y0040050D02*
X0440500D01*
X0040050Y0101050D02*
X0700200D01*
X0040050Y0040050D02*
Y0101050D01*
Y0040050D02*
X0197600D01*
X0040000D02*
Y0101050D01*
X0286500Y0040050D02*
Y0101050D01*
X0700200Y0040050D02*
Y0101050D01*
X0440500Y0040050D02*
X0700200D01*
X0559400Y0039400D02*
Y0059683D01*
G54D19*
X0567400Y0087833D02*
Y0093831D01*
X0571399Y0087833D01*
Y0093831D01*
X0574398Y0087833D02*
X0576397D01*
X0577397Y0088833D01*
Y0090832D01*
X0576397Y0091832D01*
X0574398D01*
X0573398Y0090832D01*
Y0088833D01*
X0574398Y0087833D01*
X0580396Y0092832D02*
Y0091832D01*
X0579396D01*
X0581395D01*
X0580396D01*
Y0088833D01*
X0581395Y0087833D01*
X0590393Y0093831D02*
X0592392D01*
X0591392D01*
Y0087833D01*
X0590393D01*
X0592392D01*
X0595391D02*
Y0091832D01*
X0598390D01*
X0599390Y0090832D01*
Y0087833D01*
X0607387Y0093831D02*
Y0089833D01*
X0609386Y0087833D01*
X0611386Y0089833D01*
Y0093831D01*
X0616384Y0087833D02*
X0614385D01*
X0613385Y0088833D01*
Y0090832D01*
X0614385Y0091832D01*
X0616384D01*
X0617384Y0090832D01*
Y0089833D01*
X0613385D01*
X0619383Y0091832D02*
Y0087833D01*
Y0089833D01*
X0620383Y0090832D01*
X0621383Y0091832D01*
X0622382D01*
X0625381Y0087833D02*
X0628380D01*
X0629380Y0088833D01*
X0628380Y0089833D01*
X0626381D01*
X0625381Y0090832D01*
X0626381Y0091832D01*
X0629380D01*
X0631379Y0087833D02*
X0633379D01*
X0632379D01*
Y0091832D01*
X0631379D01*
X0637377Y0087833D02*
X0639377D01*
X0640376Y0088833D01*
Y0090832D01*
X0639377Y0091832D01*
X0637377D01*
X0636378Y0090832D01*
Y0088833D01*
X0637377Y0087833D01*
X0642376D02*
Y0091832D01*
X0645375D01*
X0646374Y0090832D01*
Y0087833D01*
X0652373Y0092832D02*
X0651373Y0093831D01*
X0649373D01*
X0648374Y0092832D01*
Y0088833D01*
X0649373Y0087833D01*
X0651373D01*
X0652373Y0088833D01*
X0655372Y0087833D02*
X0657371D01*
X0658371Y0088833D01*
Y0090832D01*
X0657371Y0091832D01*
X0655372D01*
X0654372Y0090832D01*
Y0088833D01*
X0655372Y0087833D01*
X0660370D02*
Y0091832D01*
X0663369D01*
X0664369Y0090832D01*
Y0087833D01*
X0667368Y0092832D02*
Y0091832D01*
X0666368D01*
X0668367D01*
X0667368D01*
Y0088833D01*
X0668367Y0087833D01*
X0671366Y0091832D02*
Y0087833D01*
Y0089833D01*
X0672366Y0090832D01*
X0673366Y0091832D01*
X0674365D01*
X0678364Y0087833D02*
X0680364D01*
X0681363Y0088833D01*
Y0090832D01*
X0680364Y0091832D01*
X0678364D01*
X0677364Y0090832D01*
Y0088833D01*
X0678364Y0087833D01*
X0683362D02*
X0685362D01*
X0684362D01*
Y0093831D01*
X0683362D01*
X0520799Y0092832D02*
X0519799Y0093831D01*
X0517800D01*
X0516800Y0092832D01*
Y0091832D01*
X0517800Y0090832D01*
X0519799D01*
X0520799Y0089833D01*
Y0088833D01*
X0519799Y0087833D01*
X0517800D01*
X0516800Y0088833D01*
X0522798Y0093831D02*
Y0089833D01*
X0524797Y0087833D01*
X0526797Y0089833D01*
Y0093831D01*
X0528796Y0087833D02*
Y0093831D01*
X0532795Y0087833D01*
Y0093831D01*
X0540792Y0087833D02*
Y0093831D01*
X0543791D01*
X0544791Y0092832D01*
Y0090832D01*
X0543791Y0089833D01*
X0540792D01*
X0542792D02*
X0544791Y0087833D01*
X0550789Y0093831D02*
X0546790D01*
Y0087833D01*
X0550789D01*
X0546790Y0090832D02*
X0548790D01*
X0552788Y0093831D02*
Y0089833D01*
X0554788Y0087833D01*
X0556787Y0089833D01*
Y0093831D01*
X0558786Y0091832D02*
X0559786D01*
Y0090832D01*
X0558786D01*
Y0091832D01*
Y0088833D02*
X0559786D01*
Y0087833D01*
X0558786D01*
Y0088833D01*
X0433000Y0087833D02*
Y0093831D01*
X0435999D01*
X0436999Y0092832D01*
Y0090832D01*
X0435999Y0089833D01*
X0433000D01*
X0434999D02*
X0436999Y0087833D01*
X0442997Y0093831D02*
X0438998D01*
Y0087833D01*
X0442997D01*
X0438998Y0090832D02*
X0440997D01*
X0444996Y0093831D02*
Y0089833D01*
X0446995Y0087833D01*
X0448995Y0089833D01*
Y0093831D01*
X0450994Y0091832D02*
X0451994D01*
Y0090832D01*
X0450994D01*
Y0091832D01*
Y0088833D02*
X0451994D01*
Y0087833D01*
X0450994D01*
Y0088833D01*
X0130899Y0051965D02*
X0129899Y0052965D01*
X0127900D01*
X0126900Y0051965D01*
Y0050965D01*
X0127900Y0049966D01*
X0129899D01*
X0130899Y0048966D01*
Y0047966D01*
X0129899Y0046966D01*
X0127900D01*
X0126900Y0047966D01*
X0132898Y0052965D02*
Y0048966D01*
X0134897Y0046966D01*
X0136897Y0048966D01*
Y0052965D01*
X0142895D02*
X0140895Y0051965D01*
X0138896Y0049966D01*
Y0047966D01*
X0139896Y0046966D01*
X0141895D01*
X0142895Y0047966D01*
Y0048966D01*
X0141895Y0049966D01*
X0138896D01*
X0144894Y0051965D02*
X0145894Y0052965D01*
X0147893D01*
X0148893Y0051965D01*
Y0047966D01*
X0147893Y0046966D01*
X0145894D01*
X0144894Y0047966D01*
Y0051965D01*
X0150892Y0046966D02*
X0152892D01*
X0151892D01*
Y0052965D01*
X0150892Y0051965D01*
X0159889Y0046966D02*
X0155891D01*
X0159889Y0050965D01*
Y0051965D01*
X0158890Y0052965D01*
X0156890D01*
X0155891Y0051965D01*
X0161889D02*
X0162888Y0052965D01*
X0164888D01*
X0165887Y0051965D01*
Y0050965D01*
X0164888Y0049966D01*
X0165887Y0048966D01*
Y0047966D01*
X0164888Y0046966D01*
X0162888D01*
X0161889Y0047966D01*
Y0048966D01*
X0162888Y0049966D01*
X0161889Y0050965D01*
Y0051965D01*
X0162888Y0049966D02*
X0164888D01*
X0171885Y0052965D02*
X0169886Y0051965D01*
X0167887Y0049966D01*
Y0047966D01*
X0168886Y0046966D01*
X0170886D01*
X0171885Y0047966D01*
Y0048966D01*
X0170886Y0049966D01*
X0167887D01*
X0177884Y0051965D02*
X0176884Y0052965D01*
X0174884D01*
X0173885Y0051965D01*
Y0047966D01*
X0174884Y0046966D01*
X0176884D01*
X0177884Y0047966D01*
Y0049966D01*
X0175884D01*
X0179883Y0046966D02*
Y0047966D01*
X0180883D01*
Y0046966D01*
X0179883D01*
X0188880Y0051965D02*
X0187880Y0052965D01*
X0185881D01*
X0184881Y0051965D01*
Y0047966D01*
X0185881Y0046966D01*
X0187880D01*
X0188880Y0047966D01*
Y0049966D01*
X0186881D01*
X0194878Y0051965D02*
X0193878Y0052965D01*
X0191879D01*
X0190879Y0051965D01*
Y0047966D01*
X0191879Y0046966D01*
X0193878D01*
X0194878Y0047966D01*
Y0049966D01*
X0192879D01*
X0196877Y0046966D02*
X0198877D01*
X0197877D01*
Y0052965D01*
X0196877Y0051965D01*
X0385149Y0052965D02*
X0381150D01*
Y0049966D01*
X0383149Y0050965D01*
X0384149D01*
X0385149Y0049966D01*
Y0047966D01*
X0384149Y0046966D01*
X0382150D01*
X0381150Y0047966D01*
X0387148Y0046966D02*
X0391147Y0050965D01*
X0393146Y0046966D02*
X0395146D01*
X0394146D01*
Y0052965D01*
X0393146Y0051965D01*
X0398145Y0047966D02*
X0399144Y0046966D01*
X0401144D01*
X0402143Y0047966D01*
Y0051965D01*
X0401144Y0052965D01*
X0399144D01*
X0398145Y0051965D01*
Y0050965D01*
X0399144Y0049966D01*
X0402143D01*
X0404143Y0046966D02*
X0408141Y0050965D01*
X0414139Y0046966D02*
X0410141D01*
X0414139Y0050965D01*
Y0051965D01*
X0413140Y0052965D01*
X0411140D01*
X0410141Y0051965D01*
X0416139D02*
X0417138Y0052965D01*
X0419138D01*
X0420137Y0051965D01*
Y0047966D01*
X0419138Y0046966D01*
X0417138D01*
X0416139Y0047966D01*
Y0051965D01*
X0426135Y0046966D02*
X0422137D01*
X0426135Y0050965D01*
Y0051965D01*
X0425136Y0052965D01*
X0423136D01*
X0422137Y0051965D01*
X0428135Y0046966D02*
X0430134D01*
X0429135D01*
Y0052965D01*
X0428135Y0051965D01*
X0298199D02*
X0297199Y0052965D01*
X0295200D01*
X0294200Y0051965D01*
Y0047966D01*
X0295200Y0046966D01*
X0297199D01*
X0298199Y0047966D01*
Y0049966D01*
X0296199D01*
X0304197Y0052965D02*
X0300198D01*
Y0046966D01*
X0304197D01*
X0300198Y0049966D02*
X0302197D01*
X0306196Y0046966D02*
Y0052965D01*
X0310195Y0046966D01*
Y0052965D01*
X0316193D02*
X0312194D01*
Y0046966D01*
X0316193D01*
X0312194Y0049966D02*
X0314194D01*
X0318192Y0046966D02*
Y0052965D01*
X0321191D01*
X0322191Y0051965D01*
Y0049966D01*
X0321191Y0048966D01*
X0318192D01*
X0320192D02*
X0322191Y0046966D01*
X0324190D02*
Y0050965D01*
X0326190Y0052965D01*
X0328189Y0050965D01*
Y0046966D01*
Y0049966D01*
X0324190D01*
X0330188Y0052965D02*
X0334187D01*
X0332188D01*
Y0046966D01*
X0340185Y0052965D02*
X0336186D01*
Y0046966D01*
X0340185D01*
X0336186Y0049966D02*
X0338186D01*
X0342184Y0052965D02*
Y0046966D01*
X0345183D01*
X0346183Y0047966D01*
Y0051965D01*
X0345183Y0052965D01*
X0342184D01*
X0372175Y0050965D02*
X0373175D01*
Y0049966D01*
X0372175D01*
Y0050965D01*
Y0047966D02*
X0373175D01*
Y0046966D01*
X0372175D01*
Y0047966D01*
X0046350Y0087833D02*
Y0091832D01*
X0048349Y0093831D01*
X0050349Y0091832D01*
Y0087833D01*
Y0090832D01*
X0046350D01*
X0052348Y0093831D02*
Y0087833D01*
X0056347D01*
X0058346Y0093831D02*
Y0087833D01*
X0062345D01*
X0070342D02*
Y0091832D01*
X0072342Y0093831D01*
X0074341Y0091832D01*
Y0087833D01*
Y0090832D01*
X0070342D01*
X0076340Y0087833D02*
Y0093831D01*
X0079339D01*
X0080339Y0092832D01*
Y0090832D01*
X0079339Y0089833D01*
X0076340D01*
X0078340D02*
X0080339Y0087833D01*
X0082338Y0093831D02*
X0086337D01*
X0084338D01*
Y0087833D01*
X0088336Y0093831D02*
Y0087833D01*
X0090336Y0089833D01*
X0092335Y0087833D01*
Y0093831D01*
X0097334D02*
X0095334D01*
X0094335Y0092832D01*
Y0088833D01*
X0095334Y0087833D01*
X0097334D01*
X0098333Y0088833D01*
Y0092832D01*
X0097334Y0093831D01*
X0100332Y0087833D02*
Y0093831D01*
X0103332D01*
X0104331Y0092832D01*
Y0090832D01*
X0103332Y0089833D01*
X0100332D01*
X0102332D02*
X0104331Y0087833D01*
X0106331Y0093831D02*
Y0087833D01*
Y0089833D01*
X0110329Y0093831D01*
X0107330Y0090832D01*
X0110329Y0087833D01*
X0118327Y0093831D02*
Y0089833D01*
X0120326Y0087833D01*
X0122325Y0089833D01*
Y0093831D01*
X0124325D02*
X0126324D01*
X0125324D01*
Y0087833D01*
X0124325D01*
X0126324D01*
X0133322Y0093831D02*
X0129323D01*
Y0087833D01*
X0133322D01*
X0129323Y0090832D02*
X0131323D01*
X0135321Y0093831D02*
Y0087833D01*
X0137321Y0089833D01*
X0139320Y0087833D01*
Y0093831D01*
X0145318D02*
X0141319D01*
Y0087833D01*
X0145318D01*
X0141319Y0090832D02*
X0143319D01*
X0147317Y0093831D02*
Y0087833D01*
X0150316D01*
X0151316Y0088833D01*
Y0092832D01*
X0150316Y0093831D01*
X0147317D01*
X0163312D02*
X0159313D01*
Y0090832D01*
X0161313D01*
X0159313D01*
Y0087833D01*
X0165312D02*
Y0093831D01*
X0168310D01*
X0169310Y0092832D01*
Y0090832D01*
X0168310Y0089833D01*
X0165312D01*
X0167311D02*
X0169310Y0087833D01*
X0174309Y0093831D02*
X0172309D01*
X0171310Y0092832D01*
Y0088833D01*
X0172309Y0087833D01*
X0174309D01*
X0175308Y0088833D01*
Y0092832D01*
X0174309Y0093831D01*
X0177308Y0087833D02*
Y0093831D01*
X0179307Y0091832D01*
X0181306Y0093831D01*
Y0087833D01*
X0189304Y0093831D02*
X0193303D01*
X0191303D01*
Y0087833D01*
X0198301Y0093831D02*
X0196301D01*
X0195302Y0092832D01*
Y0088833D01*
X0196301Y0087833D01*
X0198301D01*
X0199301Y0088833D01*
Y0092832D01*
X0198301Y0093831D01*
X0201300Y0087833D02*
Y0093831D01*
X0204299D01*
X0205299Y0092832D01*
Y0090832D01*
X0204299Y0089833D01*
X0201300D01*
X0217295Y0092832D02*
X0216295Y0093831D01*
X0214296D01*
X0213296Y0092832D01*
Y0091832D01*
X0214296Y0090832D01*
X0216295D01*
X0217295Y0089833D01*
Y0088833D01*
X0216295Y0087833D01*
X0214296D01*
X0213296Y0088833D01*
X0219294Y0093831D02*
X0221293D01*
X0220294D01*
Y0087833D01*
X0219294D01*
X0221293D01*
X0224292Y0093831D02*
Y0087833D01*
X0227291D01*
X0228291Y0088833D01*
Y0092832D01*
X0227291Y0093831D01*
X0224292D01*
X0234289D02*
X0230291D01*
Y0087833D01*
X0234289D01*
X0230291Y0090832D02*
X0232290D01*
X0466149Y0092832D02*
X0465149Y0093831D01*
X0463150D01*
X0462150Y0092832D01*
Y0088833D01*
X0463150Y0087833D01*
X0465149D01*
X0466149Y0088833D01*
Y0090832D01*
X0464149D01*
X0352549Y0092832D02*
X0351549Y0093831D01*
X0349550D01*
X0348550Y0092832D01*
Y0091832D01*
X0349550Y0090832D01*
X0351549D01*
X0352549Y0089833D01*
Y0088833D01*
X0351549Y0087833D01*
X0349550D01*
X0348550Y0088833D01*
X0354548Y0093831D02*
Y0089833D01*
X0356547Y0087833D01*
X0358547Y0089833D01*
Y0093831D01*
X0364545D02*
X0362545Y0092832D01*
X0360546Y0090832D01*
Y0088833D01*
X0361546Y0087833D01*
X0363545D01*
X0364545Y0088833D01*
Y0089833D01*
X0363545Y0090832D01*
X0360546D01*
X0366544Y0092832D02*
X0367544Y0093831D01*
X0369543D01*
X0370543Y0092832D01*
Y0088833D01*
X0369543Y0087833D01*
X0367544D01*
X0366544Y0088833D01*
Y0092832D01*
X0372542Y0087833D02*
X0374542D01*
X0373542D01*
Y0093831D01*
X0372542Y0092832D01*
X0381539Y0087833D02*
X0377541D01*
X0381539Y0091832D01*
Y0092832D01*
X0380540Y0093831D01*
X0378540D01*
X0377541Y0092832D01*
X0383539D02*
X0384538Y0093831D01*
X0386538D01*
X0387537Y0092832D01*
Y0091832D01*
X0386538Y0090832D01*
X0387537Y0089833D01*
Y0088833D01*
X0386538Y0087833D01*
X0384538D01*
X0383539Y0088833D01*
Y0089833D01*
X0384538Y0090832D01*
X0383539Y0091832D01*
Y0092832D01*
X0384538Y0090832D02*
X0386538D01*
X0393535Y0093831D02*
X0391536Y0092832D01*
X0389537Y0090832D01*
Y0088833D01*
X0390536Y0087833D01*
X0392536D01*
X0393535Y0088833D01*
Y0089833D01*
X0392536Y0090832D01*
X0389537D01*
X0294000Y0093831D02*
Y0087833D01*
X0296999D01*
X0297999Y0088833D01*
Y0089833D01*
X0296999Y0090832D01*
X0294000D01*
X0296999D01*
X0297999Y0091832D01*
Y0092832D01*
X0296999Y0093831D01*
X0294000D01*
X0302997D02*
X0300998D01*
X0299998Y0092832D01*
Y0088833D01*
X0300998Y0087833D01*
X0302997D01*
X0303997Y0088833D01*
Y0092832D01*
X0302997Y0093831D01*
X0305996Y0087833D02*
Y0091832D01*
X0307996Y0093831D01*
X0309995Y0091832D01*
Y0087833D01*
Y0090832D01*
X0305996D01*
X0311994Y0087833D02*
Y0093831D01*
X0314993D01*
X0315993Y0092832D01*
Y0090832D01*
X0314993Y0089833D01*
X0311994D01*
X0313994D02*
X0315993Y0087833D01*
X0317992Y0093831D02*
Y0087833D01*
X0320991D01*
X0321991Y0088833D01*
Y0092832D01*
X0320991Y0093831D01*
X0317992D01*
X0330988Y0087833D02*
Y0093831D01*
X0332987D02*
Y0087833D01*
X0329988Y0091832D02*
X0332987D01*
X0333987D01*
X0329988Y0089833D02*
X0333987D01*
X0335986Y0091832D02*
X0336986D01*
Y0090832D01*
X0335986D01*
Y0091832D01*
Y0088833D02*
X0336986D01*
Y0087833D01*
X0335986D01*
Y0088833D01*
X0046350Y0073549D02*
Y0067551D01*
X0050349D01*
X0052348D02*
Y0071549D01*
X0054347Y0073549D01*
X0056347Y0071549D01*
Y0067551D01*
Y0070550D01*
X0052348D01*
X0058346Y0073549D02*
Y0072549D01*
X0060346Y0070550D01*
X0062345Y0072549D01*
Y0073549D01*
X0060346Y0070550D02*
Y0067551D01*
X0068343Y0073549D02*
X0064344D01*
Y0067551D01*
X0068343D01*
X0064344Y0070550D02*
X0066343D01*
X0070342Y0067551D02*
Y0073549D01*
X0073341D01*
X0074341Y0072549D01*
Y0070550D01*
X0073341Y0069550D01*
X0070342D01*
X0072342D02*
X0074341Y0067551D01*
X0082338D02*
Y0073549D01*
X0086337Y0067551D01*
Y0073549D01*
X0088336Y0067551D02*
Y0071549D01*
X0090336Y0073549D01*
X0092335Y0071549D01*
Y0067551D01*
Y0070550D01*
X0088336D01*
X0094335Y0067551D02*
Y0073549D01*
X0096334Y0071549D01*
X0098333Y0073549D01*
Y0067551D01*
X0104331Y0073549D02*
X0100332D01*
Y0067551D01*
X0104331D01*
X0100332Y0070550D02*
X0102332D01*
X0112329Y0069550D02*
X0116327D01*
X0112329Y0071549D02*
X0116327D01*
X0046350Y0046966D02*
Y0052965D01*
X0049349D01*
X0050349Y0051965D01*
Y0049966D01*
X0049349Y0048966D01*
X0046350D01*
X0052348Y0052965D02*
Y0046966D01*
X0056347D01*
X0061345Y0052965D02*
X0059346D01*
X0058346Y0051965D01*
Y0047966D01*
X0059346Y0046966D01*
X0061345D01*
X0062345Y0047966D01*
Y0051965D01*
X0061345Y0052965D01*
X0064344D02*
X0068343D01*
X0066343D01*
Y0046966D01*
X0076340D02*
Y0052965D01*
X0080339Y0046966D01*
Y0052965D01*
X0082338Y0046966D02*
Y0050965D01*
X0084338Y0052965D01*
X0086337Y0050965D01*
Y0046966D01*
Y0049966D01*
X0082338D01*
X0088336Y0046966D02*
Y0052965D01*
X0090336Y0050965D01*
X0092335Y0052965D01*
Y0046966D01*
X0098333Y0052965D02*
X0094335D01*
Y0046966D01*
X0098333D01*
X0094335Y0049966D02*
X0096334D01*
X0106331Y0048966D02*
X0110329D01*
X0106331Y0050965D02*
X0110329D01*
X0454050Y0046966D02*
X0456049D01*
X0455050D01*
Y0052965D01*
X0454050Y0051965D01*
X0459048Y0046966D02*
X0461048D01*
X0460048D01*
Y0052965D01*
X0459048Y0051965D01*
X0464047Y0050965D02*
X0465046D01*
Y0049966D01*
X0464047D01*
Y0050965D01*
Y0047966D02*
X0465046D01*
Y0046966D01*
X0464047D01*
Y0047966D01*
X0472044Y0046966D02*
Y0052965D01*
X0469045Y0049966D01*
X0473044D01*
X0479042Y0052965D02*
X0475043D01*
Y0049966D01*
X0477043Y0050965D01*
X0478042D01*
X0479042Y0049966D01*
Y0047966D01*
X0478042Y0046966D01*
X0476043D01*
X0475043Y0047966D01*
X0481041Y0050965D02*
X0482041D01*
Y0049966D01*
X0481041D01*
Y0050965D01*
Y0047966D02*
X0482041D01*
Y0046966D01*
X0481041D01*
Y0047966D01*
X0486040Y0046966D02*
X0488039D01*
X0487039D01*
Y0052965D01*
X0486040Y0051965D01*
X0491038D02*
X0492038Y0052965D01*
X0494037D01*
X0495037Y0051965D01*
Y0050965D01*
X0494037Y0049966D01*
X0493037D01*
X0494037D01*
X0495037Y0048966D01*
Y0047966D01*
X0494037Y0046966D01*
X0492038D01*
X0491038Y0047966D01*
X0503034Y0046966D02*
Y0050965D01*
X0505033Y0052965D01*
X0507033Y0050965D01*
Y0046966D01*
Y0049966D01*
X0503034D01*
X0509032Y0046966D02*
Y0052965D01*
X0511031Y0050965D01*
X0513031Y0052965D01*
Y0046966D01*
X0580500Y0052965D02*
X0584499D01*
X0582499D01*
Y0046966D01*
X0590497Y0052965D02*
X0586498D01*
Y0046966D01*
X0590497D01*
X0586498Y0049966D02*
X0588497D01*
X0592496Y0052965D02*
X0596495Y0046966D01*
Y0052965D02*
X0592496Y0046966D01*
X0598494D02*
Y0050965D01*
X0600493Y0052965D01*
X0602493Y0050965D01*
Y0046966D01*
Y0049966D01*
X0598494D01*
X0608491Y0051965D02*
X0607491Y0052965D01*
X0605492D01*
X0604492Y0051965D01*
Y0050965D01*
X0605492Y0049966D01*
X0607491D01*
X0608491Y0048966D01*
Y0047966D01*
X0607491Y0046966D01*
X0605492D01*
X0604492Y0047966D01*
X0616488Y0052965D02*
X0618488D01*
X0617488D01*
Y0046966D01*
X0616488D01*
X0618488D01*
X0621487D02*
Y0052965D01*
X0625486Y0046966D01*
Y0052965D01*
X0631484Y0051965D02*
X0630484Y0052965D01*
X0628484D01*
X0627485Y0051965D01*
Y0050965D01*
X0628484Y0049966D01*
X0630484D01*
X0631484Y0048966D01*
Y0047966D01*
X0630484Y0046966D01*
X0628484D01*
X0627485Y0047966D01*
X0633483Y0052965D02*
X0637482D01*
X0635482D01*
Y0046966D01*
X0639481D02*
Y0052965D01*
X0642480D01*
X0643480Y0051965D01*
Y0049966D01*
X0642480Y0048966D01*
X0639481D01*
X0641480D02*
X0643480Y0046966D01*
X0645479Y0052965D02*
Y0047966D01*
X0646479Y0046966D01*
X0648478D01*
X0649478Y0047966D01*
Y0052965D01*
X0651477Y0046966D02*
Y0052965D01*
X0653476Y0050965D01*
X0655476Y0052965D01*
Y0046966D01*
X0661474Y0052965D02*
X0657475D01*
Y0046966D01*
X0661474D01*
X0657475Y0049966D02*
X0659474D01*
X0663473Y0046966D02*
Y0052965D01*
X0667472Y0046966D01*
Y0052965D01*
X0669471D02*
X0673470D01*
X0671471D01*
Y0046966D01*
X0679468Y0051965D02*
X0678468Y0052965D01*
X0676469D01*
X0675469Y0051965D01*
Y0050965D01*
X0676469Y0049966D01*
X0678468D01*
X0679468Y0048966D01*
Y0047966D01*
X0678468Y0046966D01*
X0676469D01*
X0675469Y0047966D01*
X0294000Y0073498D02*
X0297999D01*
X0295999D01*
Y0067500D01*
X0299998Y0073498D02*
X0301997D01*
X0300998D01*
Y0067500D01*
X0299998D01*
X0301997D01*
X0304996Y0073498D02*
Y0067500D01*
X0307996D01*
X0308995Y0068500D01*
Y0072498D01*
X0307996Y0073498D01*
X0304996D01*
X0317992Y0067500D02*
Y0073498D01*
X0319992D02*
Y0067500D01*
X0316993Y0071499D02*
X0319992D01*
X0320991D01*
X0316993Y0069499D02*
X0320991D01*
X0322991Y0071499D02*
X0323990D01*
Y0070499D01*
X0322991D01*
Y0071499D01*
Y0068500D02*
X0323990D01*
Y0067500D01*
X0322991D01*
Y0068500D01*
X0348550Y0067500D02*
Y0073498D01*
X0352549Y0067500D01*
Y0073498D01*
X0354548Y0067500D02*
X0358547Y0071499D01*
X0360546Y0067500D02*
Y0071499D01*
X0362545Y0073498D01*
X0364545Y0071499D01*
Y0067500D01*
Y0070499D01*
X0360546D01*
X0126900Y0073549D02*
Y0067551D01*
X0129899D01*
X0130899Y0068550D01*
Y0072549D01*
X0129899Y0073549D01*
X0126900D01*
X0132898Y0071549D02*
Y0067551D01*
Y0069550D01*
X0133898Y0070550D01*
X0134897Y0071549D01*
X0135897D01*
X0138896Y0067551D02*
X0140895D01*
X0139896D01*
Y0071549D01*
X0138896D01*
X0143895Y0067551D02*
X0145894D01*
X0144894D01*
Y0073549D01*
X0143895D01*
X0148893Y0067551D02*
X0150892D01*
X0149893D01*
Y0073549D01*
X0148893D01*
X0163888Y0072549D02*
X0162888Y0073549D01*
X0160889D01*
X0159889Y0072549D01*
Y0068550D01*
X0160889Y0067551D01*
X0162888D01*
X0163888Y0068550D01*
Y0070550D01*
X0161889D01*
X0165887Y0071549D02*
Y0068550D01*
X0166887Y0067551D01*
X0169886D01*
Y0071549D01*
X0171885Y0067551D02*
X0173885D01*
X0172885D01*
Y0071549D01*
X0171885D01*
X0180883Y0073549D02*
Y0067551D01*
X0177884D01*
X0176884Y0068550D01*
Y0070550D01*
X0177884Y0071549D01*
X0180883D01*
X0185881Y0067551D02*
X0183882D01*
X0182882Y0068550D01*
Y0070550D01*
X0183882Y0071549D01*
X0185881D01*
X0186881Y0070550D01*
Y0069550D01*
X0182882D01*
G54D72*
X0280663Y0219400D02*
X0284863D01*
X0282763Y0217300D02*
Y0221500D01*
X0281163Y0199400D02*
X0284363D01*
X0282763Y0197800D02*
Y0201000D01*
X0128477Y0229959D02*
X0132493D01*
X0130485Y0227951D02*
Y0231967D01*
X0128477Y0239959D02*
X0132493D01*
X0130485Y0237951D02*
Y0241967D01*
X0128477Y0249959D02*
X0132493D01*
X0130485Y0247951D02*
Y0251967D01*
X0128618Y0302649D02*
X0132633D01*
X0130625Y0300641D02*
Y0304657D01*
X0128618Y0312649D02*
X0132633D01*
X0130625Y0310641D02*
Y0314657D01*
X0128618Y0322649D02*
X0132633D01*
X0130625Y0320641D02*
Y0324657D01*
X0128618Y0266304D02*
X0132633D01*
X0130625Y0264296D02*
Y0268312D01*
X0128618Y0276304D02*
X0132633D01*
X0130625Y0274296D02*
Y0278312D01*
X0128618Y0286304D02*
X0132633D01*
X0130625Y0284296D02*
Y0288312D01*
X0128363Y0193614D02*
X0132379D01*
X0130371Y0191606D02*
Y0195622D01*
X0128363Y0203614D02*
X0132379D01*
X0130371Y0201606D02*
Y0205622D01*
X0128363Y0213614D02*
X0132379D01*
X0130371Y0211606D02*
Y0215622D01*
X0278046Y0305900D02*
X0282246D01*
X0280146Y0303800D02*
Y0308000D01*
X0278546Y0325900D02*
X0281746D01*
X0280146Y0324300D02*
Y0327500D01*
X0255100Y0305900D02*
X0259300D01*
X0257200Y0303800D02*
Y0308000D01*
X0255600Y0325900D02*
X0258800D01*
X0257200Y0324300D02*
Y0327500D01*
X0155600Y0314400D02*
X0159800D01*
X0157700Y0312300D02*
Y0316500D01*
X0156100Y0334400D02*
X0159300D01*
X0157700Y0332800D02*
Y0336000D01*
X0180097Y0314400D02*
X0184298D01*
X0182197Y0312300D02*
Y0316500D01*
X0180597Y0334400D02*
X0183798D01*
X0182197Y0332800D02*
Y0336000D01*
X0253600Y0219400D02*
X0257800D01*
X0255700Y0217300D02*
Y0221500D01*
X0254100Y0199400D02*
X0257300D01*
X0255700Y0197800D02*
Y0201000D01*
X0168730Y0245059D02*
X0169930D01*
X0169330Y0244459D02*
Y0245659D01*
X0177032Y0211272D02*
X0178232D01*
X0177632Y0210672D02*
Y0211872D01*
X0163100Y0250144D02*
X0164300D01*
X0163700Y0249544D02*
Y0250744D01*
X0149100Y0241720D02*
X0150300D01*
X0149700Y0241120D02*
Y0242320D01*
X0158558Y0355400D02*
X0159758D01*
X0159158Y0354800D02*
Y0356000D01*
X0164600Y0275424D02*
X0165800D01*
X0165200Y0274824D02*
Y0276024D01*
X0172657Y0275579D02*
X0173857D01*
X0173257Y0274979D02*
Y0276179D01*
X0168728Y0238632D02*
X0169928D01*
X0169328Y0238032D02*
Y0239232D01*
X0181772Y0289729D02*
X0182972D01*
X0182372Y0289129D02*
Y0290329D01*
X0181750Y0293721D02*
X0182950D01*
X0182350Y0293121D02*
Y0294321D01*
X0180902Y0262080D02*
X0182102D01*
X0181502Y0261480D02*
Y0262680D01*
X0112819Y0302973D02*
X0114019D01*
X0113419Y0302373D02*
Y0303573D01*
X0164783Y0262354D02*
X0165983D01*
X0165383Y0261754D02*
Y0262954D01*
X0154100Y0221417D02*
X0155300D01*
X0154700Y0220817D02*
Y0222017D01*
X0113100Y0196829D02*
X0114300D01*
X0113700Y0196229D02*
Y0197429D01*
X0114600Y0247254D02*
X0115800D01*
X0115200Y0246654D02*
Y0247854D01*
X0251600Y0251400D02*
X0252800D01*
X0252200Y0250800D02*
Y0252000D01*
X0254600Y0251400D02*
X0255800D01*
X0255200Y0250800D02*
Y0252000D01*
X0257100Y0251400D02*
X0258300D01*
X0257700Y0250800D02*
Y0252000D01*
X0288600Y0196400D02*
X0289800D01*
X0289200Y0195800D02*
Y0197000D01*
X0288600Y0199150D02*
X0289800D01*
X0289200Y0198550D02*
Y0199750D01*
X0225231Y0281400D02*
X0226431D01*
X0225831Y0280800D02*
Y0282000D01*
X0221746Y0281400D02*
X0222946D01*
X0222346Y0280800D02*
Y0282000D01*
X0280600Y0230818D02*
X0281800D01*
X0281200Y0230218D02*
Y0231418D01*
X0271820Y0222400D02*
X0273020D01*
X0272420Y0221800D02*
Y0223000D01*
X0273357Y0225400D02*
X0274557D01*
X0273957Y0224800D02*
Y0226000D01*
X0263600Y0326400D02*
X0264800D01*
X0264200Y0325800D02*
Y0327000D01*
X0269600Y0326400D02*
X0270800D01*
X0270200Y0325800D02*
Y0327000D01*
X0228503Y0281418D02*
X0229703D01*
X0229103Y0280818D02*
Y0282018D01*
X0234027Y0266400D02*
X0235226D01*
X0234627Y0265800D02*
Y0267000D01*
X0236789Y0266400D02*
X0237989D01*
X0237389Y0265800D02*
Y0267000D01*
X0239552Y0266400D02*
X0240752D01*
X0240152Y0265800D02*
Y0267000D01*
X0282088Y0266400D02*
X0283288D01*
X0282688Y0265800D02*
Y0267000D01*
X0243600Y0232900D02*
X0244800D01*
X0244200Y0232300D02*
Y0233500D01*
X0247154Y0232900D02*
X0248354D01*
X0247754Y0232300D02*
Y0233500D01*
X0270049Y0225400D02*
X0271249D01*
X0270649Y0224800D02*
Y0226000D01*
X0232464Y0237646D02*
X0233664D01*
X0233064Y0237046D02*
Y0238246D01*
X0229228Y0237646D02*
X0230428D01*
X0229828Y0237046D02*
Y0238246D01*
X0225993Y0237646D02*
X0227193D01*
X0226593Y0237046D02*
Y0238246D01*
X0222758Y0237646D02*
X0223958D01*
X0223358Y0237046D02*
Y0238246D01*
X0280600Y0234676D02*
X0281800D01*
X0281200Y0234076D02*
Y0235276D01*
X0288600Y0201900D02*
X0289800D01*
X0289200Y0201300D02*
Y0202500D01*
X0263100Y0193310D02*
X0264300D01*
X0263700Y0192710D02*
Y0193910D01*
X0271100Y0193310D02*
X0272300D01*
X0271700Y0192710D02*
Y0193910D01*
X0267100Y0193310D02*
X0268300D01*
X0267700Y0192710D02*
Y0193910D01*
X0266600Y0326400D02*
X0267800D01*
X0267200Y0325800D02*
Y0327000D01*
X0279352Y0266400D02*
X0280552D01*
X0279952Y0265800D02*
Y0267000D01*
X0276616Y0266400D02*
X0277816D01*
X0277216Y0265800D02*
Y0267000D01*
X0273880Y0266400D02*
X0275080D01*
X0274480Y0265800D02*
Y0267000D01*
X0280600Y0226960D02*
X0281800D01*
X0281200Y0226360D02*
Y0227560D01*
M02*
