M48
;Layer_Color=9474304
;FILE_FORMAT=2:5
INCH
;TYPE=PLATED
T1F00S00C0.01200
T2F00S00C0.03200
T3F00S00C0.04016
T4F00S00C0.04200
%
T01
X0177632Y0211272
X0169328Y0238632
X0169330Y0245059
X0163700Y0250144
X0165383Y0262354
X0165200Y0275424
X0173257Y0275579
X0181502Y0262080
X0182372Y0289729
X0182350Y0293721
X0222346Y0281400
X0225831
X0229103Y0281418
X0234627Y0266400
X0237389
X0240152
X0252200Y0251400
X0255200
X0257700
X0247754Y0232900
X0244200
X0233064Y0237646
X0229828
X0226593
X0223358
X0270649Y0225400
X0273957
X0272420Y0222400
X0281200Y0226960
Y0230818
Y0234676
X0279952Y0266400
X0282688
X0277216
X0274480
X0271700Y0193310
X0267700
X0263700
X0289200Y0196400
Y0199150
Y0201900
X0154700Y0221417
X0149700Y0241720
X0115200Y0247254
X0113700Y0196829
X0113419Y0302973
X0159158Y0355400
X0264200Y0326400
X0267200
X0270200
T02
X0255700Y0199400
X0282763
X0280146Y0325900
X0257200
X0182197Y0334400
X0157700
T03
X0130371Y0193614
Y0203614
Y0213614
X0130485Y0229959
Y0239959
Y0249959
X0130625Y0266304
Y0276304
Y0286304
Y0302649
Y0312649
Y0322649
T04
X0255700Y0219400
X0282763
X0280146Y0305900
X0257200
X0182197Y0314400
X0157700
M30
