G04*
G04 #@! TF.GenerationSoftware,Altium Limited,Altium Designer,18.1.9 (240)*
G04*
G04 Layer_Physical_Order=1*
G04 Layer_Color=255*
%FSAX25Y25*%
%MOIN*%
G70*
G01*
G75*
%ADD18C,0.01000*%
%ADD19C,0.00800*%
%ADD21R,0.05118X0.07480*%
%ADD22R,0.07874X0.07480*%
%ADD23R,0.04331X0.07874*%
%ADD24R,0.03150X0.03150*%
%ADD25R,0.07992X0.14961*%
%ADD26C,0.03937*%
G04:AMPARAMS|DCode=27|XSize=64.96mil|YSize=23.62mil|CornerRadius=2.01mil|HoleSize=0mil|Usage=FLASHONLY|Rotation=0.000|XOffset=0mil|YOffset=0mil|HoleType=Round|Shape=RoundedRectangle|*
%AMROUNDEDRECTD27*
21,1,0.06496,0.01961,0,0,0.0*
21,1,0.06095,0.02362,0,0,0.0*
1,1,0.00402,0.03047,-0.00980*
1,1,0.00402,-0.03047,-0.00980*
1,1,0.00402,-0.03047,0.00980*
1,1,0.00402,0.03047,0.00980*
%
%ADD27ROUNDEDRECTD27*%
%ADD28R,0.06890X0.04331*%
%ADD29R,0.06299X0.04331*%
G04:AMPARAMS|DCode=30|XSize=39.37mil|YSize=49.21mil|CornerRadius=1.97mil|HoleSize=0mil|Usage=FLASHONLY|Rotation=0.000|XOffset=0mil|YOffset=0mil|HoleType=Round|Shape=RoundedRectangle|*
%AMROUNDEDRECTD30*
21,1,0.03937,0.04528,0,0,0.0*
21,1,0.03543,0.04921,0,0,0.0*
1,1,0.00394,0.01772,-0.02264*
1,1,0.00394,-0.01772,-0.02264*
1,1,0.00394,-0.01772,0.02264*
1,1,0.00394,0.01772,0.02264*
%
%ADD30ROUNDEDRECTD30*%
%ADD31R,0.06300X0.05000*%
%ADD32R,0.03347X0.03150*%
%ADD33R,0.03000X0.03000*%
G04:AMPARAMS|DCode=34|XSize=39.37mil|YSize=49.21mil|CornerRadius=1.97mil|HoleSize=0mil|Usage=FLASHONLY|Rotation=270.000|XOffset=0mil|YOffset=0mil|HoleType=Round|Shape=RoundedRectangle|*
%AMROUNDEDRECTD34*
21,1,0.03937,0.04528,0,0,270.0*
21,1,0.03543,0.04921,0,0,270.0*
1,1,0.00394,-0.02264,-0.01772*
1,1,0.00394,-0.02264,0.01772*
1,1,0.00394,0.02264,0.01772*
1,1,0.00394,0.02264,-0.01772*
%
%ADD34ROUNDEDRECTD34*%
%ADD35R,0.03150X0.03347*%
%ADD36R,0.14961X0.07992*%
%ADD56C,0.03500*%
%ADD57C,0.02000*%
%ADD58C,0.02500*%
%ADD59C,0.04000*%
%ADD60C,0.03000*%
%ADD61C,0.01500*%
%ADD62C,0.06000*%
%ADD63C,0.04600*%
G04:AMPARAMS|DCode=64|XSize=61.02mil|YSize=61.02mil|CornerRadius=15.26mil|HoleSize=0mil|Usage=FLASHONLY|Rotation=90.000|XOffset=0mil|YOffset=0mil|HoleType=Round|Shape=RoundedRectangle|*
%AMROUNDEDRECTD64*
21,1,0.06102,0.03051,0,0,90.0*
21,1,0.03051,0.06102,0,0,90.0*
1,1,0.03051,0.01526,0.01526*
1,1,0.03051,0.01526,-0.01526*
1,1,0.03051,-0.01526,-0.01526*
1,1,0.03051,-0.01526,0.01526*
%
%ADD64ROUNDEDRECTD64*%
%ADD65C,0.06102*%
%ADD66C,0.02300*%
%ADD67C,0.02200*%
G36*
X0150676Y0357210D02*
X0150737Y0357040D01*
X0150837Y0356890D01*
X0150978Y0356760D01*
X0151159Y0356650D01*
X0151381Y0356560D01*
X0151642Y0356490D01*
X0151944Y0356440D01*
X0152286Y0356410D01*
X0152668Y0356400D01*
Y0354400D01*
X0152286Y0354390D01*
X0151944Y0354360D01*
X0151642Y0354310D01*
X0151381Y0354240D01*
X0151159Y0354150D01*
X0150978Y0354040D01*
X0150837Y0353910D01*
X0150737Y0353760D01*
X0150676Y0353590D01*
X0150656Y0353400D01*
Y0357400D01*
X0150676Y0357210D01*
D02*
G37*
G36*
X0280249Y0338983D02*
X0280324Y0338913D01*
X0280449Y0338851D01*
X0280624Y0338798D01*
X0280849Y0338753D01*
X0281124Y0338716D01*
X0281824Y0338666D01*
X0282724Y0338650D01*
Y0336150D01*
X0282249Y0336146D01*
X0280849Y0336047D01*
X0280624Y0336002D01*
X0280449Y0335948D01*
X0280324Y0335887D01*
X0280249Y0335817D01*
X0280224Y0335739D01*
Y0339061D01*
X0280249Y0338983D01*
D02*
G37*
G36*
X0291134Y0328928D02*
X0291292Y0328743D01*
X0291519Y0328440D01*
X0291712Y0328146D01*
X0291870Y0327860D01*
X0291995Y0327584D01*
X0292090Y0327316D01*
X0292155Y0327057D01*
X0292194Y0326803D01*
X0292204Y0326613D01*
Y0317626D01*
X0301771D01*
X0302771Y0316864D01*
Y0309625D01*
X0302196Y0308863D01*
X0301771Y0308863D01*
X0292204D01*
Y0308367D01*
X0291683Y0307939D01*
X0284488D01*
X0284390Y0307951D01*
X0284209Y0307989D01*
X0284034Y0308041D01*
X0283862Y0308108D01*
X0283693Y0308192D01*
X0283524Y0308293D01*
X0283355Y0308413D01*
X0283186Y0308553D01*
X0283061Y0308673D01*
X0282999Y0308753D01*
X0282164Y0309394D01*
X0281191Y0309797D01*
X0280146Y0309934D01*
X0279102Y0309797D01*
X0278129Y0309394D01*
X0277294Y0308753D01*
X0276652Y0307917D01*
X0276249Y0306944D01*
X0276112Y0305900D01*
X0276249Y0304856D01*
X0276652Y0303883D01*
X0277294Y0303047D01*
X0277374Y0302986D01*
X0277493Y0302860D01*
X0277633Y0302692D01*
X0277753Y0302523D01*
X0277854Y0302354D01*
X0277938Y0302184D01*
X0278006Y0302012D01*
X0278058Y0301837D01*
X0278095Y0301656D01*
X0278107Y0301559D01*
Y0286026D01*
X0277889Y0285117D01*
X0270046D01*
X0270008Y0285124D01*
X0269970Y0285117D01*
X0268999D01*
Y0285117D01*
X0268471Y0285044D01*
X0268471Y0285043D01*
X0267497D01*
X0267459Y0285051D01*
X0267421Y0285043D01*
X0264372D01*
X0264334Y0285051D01*
X0264296Y0285043D01*
X0263322D01*
Y0285043D01*
X0262327Y0284532D01*
X0262306Y0284533D01*
X0262178Y0284548D01*
X0262135Y0284555D01*
X0262080Y0284594D01*
X0262070Y0284596D01*
X0261994Y0284647D01*
X0261527Y0284739D01*
X0257984D01*
X0257517Y0284647D01*
X0257121Y0284382D01*
X0256857Y0283986D01*
X0256764Y0283519D01*
Y0278992D01*
X0256857Y0278525D01*
X0257114Y0278139D01*
X0257121Y0278125D01*
Y0277036D01*
X0257114Y0277022D01*
X0256857Y0276636D01*
X0256764Y0276169D01*
Y0271642D01*
X0256857Y0271175D01*
X0257121Y0270779D01*
X0257517Y0270514D01*
X0257984Y0270422D01*
X0261527D01*
X0261731Y0270462D01*
X0262731Y0270051D01*
Y0270051D01*
X0269062D01*
Y0278786D01*
X0276831D01*
X0277651Y0278350D01*
Y0273201D01*
X0282997D01*
Y0277300D01*
X0283005Y0277339D01*
X0282997Y0277377D01*
Y0278350D01*
X0282491D01*
X0282471Y0278594D01*
Y0279054D01*
X0282316Y0279834D01*
X0282186Y0280029D01*
Y0301559D01*
X0282197Y0301656D01*
X0282235Y0301837D01*
X0282287Y0302012D01*
X0282355Y0302184D01*
X0282438Y0302354D01*
X0282540Y0302523D01*
X0282660Y0302692D01*
X0282800Y0302860D01*
X0282919Y0302986D01*
X0282999Y0303047D01*
X0283061Y0303127D01*
X0283186Y0303247D01*
X0283355Y0303387D01*
X0283524Y0303507D01*
X0283693Y0303608D01*
X0283862Y0303692D01*
X0284034Y0303759D01*
X0284209Y0303812D01*
X0284390Y0303849D01*
X0284488Y0303861D01*
X0290838D01*
X0291402Y0303297D01*
X0291519Y0303159D01*
X0291694Y0302927D01*
X0291841Y0302703D01*
X0291960Y0302488D01*
X0292053Y0302282D01*
X0292123Y0302086D01*
X0292170Y0301898D01*
X0292198Y0301716D01*
X0292204Y0301599D01*
Y0291902D01*
X0301771D01*
X0302771Y0291141D01*
Y0265612D01*
X0302064Y0264905D01*
X0268084Y0264914D01*
X0268069Y0264950D01*
X0268069Y0264950D01*
X0250584Y0264900D01*
X0220413D01*
Y0270031D01*
X0221413Y0270334D01*
X0221480Y0270234D01*
X0221877Y0269968D01*
X0222346Y0269875D01*
X0228440D01*
X0228909Y0269968D01*
X0229306Y0270234D01*
X0229571Y0270631D01*
X0229596Y0270758D01*
X0229619Y0270799D01*
X0229632Y0270923D01*
X0229662Y0271043D01*
X0229667Y0271117D01*
X0229671Y0271141D01*
X0229680Y0271176D01*
X0229697Y0271222D01*
X0229725Y0271280D01*
X0229765Y0271350D01*
X0229811Y0271418D01*
X0229941Y0271578D01*
X0232258Y0273895D01*
X0248890D01*
Y0271642D01*
X0248983Y0271175D01*
X0249247Y0270779D01*
X0249643Y0270514D01*
X0250110Y0270422D01*
X0253653D01*
X0254120Y0270514D01*
X0254516Y0270779D01*
X0254781Y0271175D01*
X0254873Y0271642D01*
Y0276169D01*
X0254781Y0276636D01*
X0254645Y0276840D01*
X0254571Y0276972D01*
X0254540Y0276996D01*
X0254539Y0276998D01*
X0254485Y0277143D01*
X0254479Y0277164D01*
X0254430Y0277580D01*
X0254479Y0277997D01*
X0254485Y0278018D01*
X0254539Y0278163D01*
X0254540Y0278165D01*
X0254571Y0278189D01*
X0254645Y0278321D01*
X0254781Y0278525D01*
X0254873Y0278992D01*
Y0283519D01*
X0254781Y0283986D01*
X0254701Y0284105D01*
X0254682Y0284162D01*
X0254596Y0284263D01*
X0254558Y0284320D01*
X0254541Y0284390D01*
X0254431Y0285869D01*
Y0299526D01*
X0256330Y0301426D01*
X0256446Y0301519D01*
X0256609Y0301636D01*
X0256756Y0301728D01*
X0256882Y0301796D01*
X0256987Y0301840D01*
X0257068Y0301865D01*
X0257123Y0301876D01*
X0257200Y0301866D01*
X0258244Y0302003D01*
X0259217Y0302406D01*
X0260053Y0303047D01*
X0260694Y0303883D01*
X0261097Y0304856D01*
X0261234Y0305900D01*
X0261097Y0306944D01*
X0260694Y0307917D01*
X0260053Y0308753D01*
X0259217Y0309394D01*
X0258244Y0309797D01*
X0257200Y0309934D01*
X0256156Y0309797D01*
X0255183Y0309394D01*
X0254347Y0308753D01*
X0253706Y0307917D01*
X0253303Y0306944D01*
X0253166Y0305900D01*
X0253176Y0305823D01*
X0253165Y0305768D01*
X0253140Y0305687D01*
X0253096Y0305582D01*
X0253028Y0305456D01*
X0252936Y0305309D01*
X0252826Y0305156D01*
X0252686Y0304991D01*
X0250079Y0302384D01*
X0249974Y0302226D01*
X0248974Y0302530D01*
Y0322751D01*
X0260849Y0334626D01*
X0273149D01*
X0273867Y0334721D01*
X0273882Y0334727D01*
X0275086D01*
X0275724Y0334727D01*
Y0334727D01*
X0276086D01*
Y0334727D01*
X0280186D01*
X0280224Y0334719D01*
X0280262Y0334727D01*
X0280273Y0334727D01*
X0280309Y0334723D01*
X0281236Y0334727D01*
X0282126Y0335106D01*
X0284957D01*
X0291134Y0328928D01*
D02*
G37*
G36*
X0291475Y0333617D02*
X0291535Y0333608D01*
X0291629Y0333600D01*
X0292336Y0333580D01*
X0293216Y0333575D01*
X0293228Y0326555D01*
X0293210Y0326907D01*
X0293156Y0327259D01*
X0293067Y0327612D01*
X0292942Y0327965D01*
X0292781Y0328319D01*
X0292586Y0328672D01*
X0292355Y0329026D01*
X0292088Y0329381D01*
X0291786Y0329736D01*
X0291448Y0330091D01*
Y0333626D01*
X0291475Y0333617D01*
D02*
G37*
G36*
X0107257Y0323220D02*
X0107245Y0323188D01*
X0107234Y0323134D01*
X0107225Y0323058D01*
X0107211Y0322842D01*
X0107200Y0322149D01*
X0105200D01*
X0105199Y0322355D01*
X0105143Y0323220D01*
X0105130Y0323231D01*
X0107270D01*
X0107257Y0323220D01*
D02*
G37*
G36*
X0134666Y0315275D02*
X0134475Y0315068D01*
X0134304Y0314849D01*
X0134154Y0314619D01*
X0134025Y0314377D01*
X0133916Y0314123D01*
X0133827Y0313858D01*
X0133759Y0313581D01*
X0133711Y0313292D01*
X0133684Y0312992D01*
X0133677Y0312679D01*
X0130656Y0315700D01*
X0130968Y0315707D01*
X0131269Y0315734D01*
X0131558Y0315782D01*
X0131835Y0315850D01*
X0132100Y0315939D01*
X0132354Y0316048D01*
X0132596Y0316178D01*
X0132826Y0316328D01*
X0133044Y0316498D01*
X0133251Y0316689D01*
X0134666Y0315275D01*
D02*
G37*
G36*
X0156868Y0311518D02*
X0156764Y0311535D01*
X0156652Y0311530D01*
X0156529Y0311503D01*
X0156397Y0311454D01*
X0156256Y0311383D01*
X0156105Y0311289D01*
X0155945Y0311173D01*
X0155775Y0311035D01*
X0155407Y0310693D01*
X0153993Y0312107D01*
X0154175Y0312296D01*
X0154473Y0312645D01*
X0154589Y0312805D01*
X0154683Y0312956D01*
X0154754Y0313097D01*
X0154803Y0313229D01*
X0154830Y0313352D01*
X0154835Y0313464D01*
X0154818Y0313568D01*
X0156868Y0311518D01*
D02*
G37*
G36*
X0128446Y0310513D02*
X0128221Y0310729D01*
X0127989Y0310922D01*
X0127751Y0311092D01*
X0127507Y0311240D01*
X0127256Y0311365D01*
X0127000Y0311467D01*
X0126737Y0311547D01*
X0126468Y0311603D01*
X0126193Y0311637D01*
X0125912Y0311649D01*
Y0313649D01*
X0126193Y0313660D01*
X0126468Y0313694D01*
X0126737Y0313751D01*
X0127000Y0313830D01*
X0127256Y0313933D01*
X0127507Y0314058D01*
X0127751Y0314205D01*
X0127989Y0314376D01*
X0128221Y0314569D01*
X0128446Y0314785D01*
Y0310513D01*
D02*
G37*
G36*
X0182167Y0311400D02*
X0181865Y0311393D01*
X0181573Y0311366D01*
X0181292Y0311318D01*
X0181023Y0311251D01*
X0180763Y0311163D01*
X0180515Y0311055D01*
X0180278Y0310926D01*
X0180052Y0310778D01*
X0179836Y0310609D01*
X0179632Y0310420D01*
X0178218Y0311834D01*
X0178407Y0312039D01*
X0178575Y0312254D01*
X0178724Y0312481D01*
X0178852Y0312718D01*
X0178960Y0312966D01*
X0179048Y0313225D01*
X0179116Y0313495D01*
X0179163Y0313776D01*
X0179191Y0314067D01*
X0179198Y0314370D01*
X0182167Y0311400D01*
D02*
G37*
G36*
X0134720Y0360032D02*
Y0350404D01*
X0151680D01*
Y0353261D01*
X0151706Y0353272D01*
X0151858Y0353312D01*
X0152072Y0353348D01*
X0152221Y0353361D01*
X0158389D01*
X0159158Y0353208D01*
X0159997Y0353375D01*
X0160708Y0353850D01*
X0161183Y0354561D01*
X0161350Y0355400D01*
X0161183Y0356239D01*
X0160708Y0356950D01*
X0159997Y0357425D01*
X0159158Y0357592D01*
X0158389Y0357439D01*
X0152221D01*
X0152072Y0357452D01*
X0151858Y0357488D01*
X0151706Y0357528D01*
X0151680Y0357539D01*
Y0359217D01*
X0152390Y0359922D01*
X0190200Y0359684D01*
Y0292479D01*
X0189873Y0291615D01*
X0185577D01*
X0185539Y0291622D01*
X0185501Y0291615D01*
X0184730D01*
X0184070Y0292425D01*
X0184375Y0292882D01*
X0184542Y0293721D01*
X0184375Y0294560D01*
X0183900Y0295271D01*
X0183189Y0295746D01*
X0182350Y0295913D01*
X0181637Y0295772D01*
X0180654Y0295731D01*
X0180654Y0295731D01*
X0179680D01*
X0179642Y0295738D01*
X0179604Y0295731D01*
X0175739D01*
Y0305058D01*
X0180570Y0309889D01*
X0180647Y0309949D01*
X0180801Y0310050D01*
X0180962Y0310137D01*
X0181132Y0310211D01*
X0181311Y0310272D01*
X0181502Y0310320D01*
X0181706Y0310354D01*
X0181924Y0310375D01*
X0182097Y0310379D01*
X0182197Y0310366D01*
X0183242Y0310503D01*
X0184215Y0310906D01*
X0185050Y0311547D01*
X0185691Y0312383D01*
X0186095Y0313356D01*
X0186232Y0314400D01*
X0186095Y0315444D01*
X0185691Y0316417D01*
X0185050Y0317253D01*
X0184215Y0317894D01*
X0183242Y0318297D01*
X0182197Y0318435D01*
X0181153Y0318297D01*
X0180180Y0317894D01*
X0179345Y0317253D01*
X0178703Y0316417D01*
X0178300Y0315444D01*
X0178163Y0314400D01*
X0178176Y0314300D01*
X0178172Y0314127D01*
X0178152Y0313908D01*
X0178117Y0313704D01*
X0178069Y0313513D01*
X0178009Y0313334D01*
X0177935Y0313165D01*
X0177848Y0313004D01*
X0177746Y0312849D01*
X0177686Y0312772D01*
X0173171Y0308258D01*
X0172171Y0308672D01*
Y0312468D01*
X0172016Y0313248D01*
X0171574Y0313910D01*
X0161642Y0323842D01*
X0160980Y0324284D01*
X0160200Y0324439D01*
X0140377D01*
X0139596Y0324284D01*
X0138935Y0323842D01*
X0132315Y0317222D01*
X0132233Y0317158D01*
X0132076Y0317056D01*
X0131911Y0316968D01*
X0131736Y0316893D01*
X0131551Y0316830D01*
X0131352Y0316782D01*
X0131139Y0316746D01*
X0130910Y0316725D01*
X0130729Y0316721D01*
X0130625Y0316735D01*
X0129568Y0316596D01*
X0128582Y0316188D01*
X0127736Y0315538D01*
X0127673Y0315455D01*
X0127541Y0315330D01*
X0127365Y0315183D01*
X0127190Y0315057D01*
X0127015Y0314952D01*
X0126839Y0314864D01*
X0126663Y0314794D01*
X0126484Y0314740D01*
X0126300Y0314701D01*
X0126197Y0314688D01*
X0116545D01*
X0109949Y0321283D01*
X0110332Y0322207D01*
X0111196D01*
Y0339168D01*
X0101204D01*
Y0322207D01*
X0104161D01*
Y0322149D01*
X0104316Y0321369D01*
X0104758Y0320707D01*
X0114258Y0311207D01*
X0114920Y0310765D01*
X0115700Y0310610D01*
X0126197D01*
X0126300Y0310597D01*
X0126484Y0310558D01*
X0126663Y0310504D01*
X0126839Y0310434D01*
X0127014Y0310346D01*
X0127189Y0310240D01*
X0127365Y0310114D01*
X0127541Y0309968D01*
X0127673Y0309842D01*
X0127736Y0309759D01*
X0128582Y0309110D01*
X0129568Y0308702D01*
X0130625Y0308563D01*
X0131683Y0308702D01*
X0132669Y0309110D01*
X0133515Y0309759D01*
X0134164Y0310606D01*
X0134572Y0311591D01*
X0134712Y0312649D01*
X0134698Y0312752D01*
X0134702Y0312934D01*
X0134723Y0313162D01*
X0134758Y0313375D01*
X0134807Y0313574D01*
X0134869Y0313760D01*
X0134944Y0313934D01*
X0135033Y0314099D01*
X0135135Y0314257D01*
X0135199Y0314338D01*
X0141221Y0320361D01*
X0159355D01*
X0168093Y0311623D01*
Y0296273D01*
X0168080Y0296124D01*
X0168044Y0295910D01*
X0168004Y0295758D01*
X0167993Y0295731D01*
X0167027D01*
Y0290581D01*
X0167027Y0290581D01*
Y0290219D01*
X0167027D01*
X0167027Y0289581D01*
Y0285069D01*
X0171323D01*
X0171361Y0285062D01*
X0171399Y0285069D01*
X0172373D01*
Y0285567D01*
X0172453Y0285579D01*
X0172819Y0285605D01*
X0174930D01*
X0174976Y0285603D01*
X0175215Y0285581D01*
X0175308Y0285567D01*
Y0285069D01*
X0176281D01*
X0176320Y0285062D01*
X0176358Y0285069D01*
X0177419D01*
X0177759Y0284665D01*
X0177294Y0283665D01*
X0176358D01*
X0176320Y0283673D01*
X0176281Y0283665D01*
X0175308D01*
Y0283033D01*
X0175197Y0283011D01*
X0174792Y0282975D01*
X0172371D01*
X0172325Y0282977D01*
X0172085Y0282999D01*
X0171993Y0283013D01*
Y0283511D01*
X0171019D01*
X0170981Y0283518D01*
X0170943Y0283511D01*
X0167697D01*
X0167659Y0283518D01*
X0167621Y0283511D01*
X0166647D01*
Y0283013D01*
X0166567Y0283001D01*
X0166201Y0282975D01*
X0160126D01*
X0159346Y0282820D01*
X0158684Y0282378D01*
X0157739Y0281433D01*
X0156739Y0281847D01*
Y0309483D01*
X0157700Y0310366D01*
X0158744Y0310503D01*
X0159717Y0310906D01*
X0160553Y0311547D01*
X0161194Y0312383D01*
X0161597Y0313356D01*
X0161734Y0314400D01*
X0161597Y0315444D01*
X0161194Y0316417D01*
X0160553Y0317253D01*
X0159717Y0317894D01*
X0158744Y0318297D01*
X0157700Y0318435D01*
X0156656Y0318297D01*
X0155683Y0317894D01*
X0154847Y0317253D01*
X0154206Y0316417D01*
X0153803Y0315444D01*
X0153665Y0314400D01*
X0153790Y0313452D01*
X0153742Y0313373D01*
X0153671Y0313276D01*
X0153551Y0313135D01*
X0153258Y0312842D01*
X0152816Y0312180D01*
X0152661Y0311400D01*
Y0279939D01*
X0148369D01*
Y0278820D01*
X0148303Y0278780D01*
X0148161Y0278722D01*
X0147944Y0278664D01*
X0147656Y0278616D01*
X0147449Y0278598D01*
X0134808D01*
X0134767Y0278602D01*
X0134559Y0278635D01*
X0134369Y0278679D01*
X0134197Y0278734D01*
X0134040Y0278799D01*
X0133898Y0278872D01*
X0133767Y0278956D01*
X0133646Y0279049D01*
X0133574Y0279117D01*
X0133515Y0279193D01*
X0132669Y0279843D01*
X0131683Y0280251D01*
X0130625Y0280390D01*
X0129568Y0280251D01*
X0128582Y0279843D01*
X0127736Y0279193D01*
X0127087Y0278347D01*
X0126679Y0277361D01*
X0126539Y0276304D01*
X0126552Y0276208D01*
X0126549Y0276110D01*
X0126529Y0275958D01*
X0126496Y0275806D01*
X0126447Y0275654D01*
X0126382Y0275497D01*
X0126299Y0275336D01*
X0126196Y0275171D01*
X0126072Y0275000D01*
X0126046Y0274969D01*
X0125445Y0274368D01*
X0112118D01*
X0111913Y0274386D01*
X0111626Y0274434D01*
X0111411Y0274492D01*
X0111271Y0274549D01*
X0111208Y0274588D01*
X0111198Y0274681D01*
X0111196Y0274687D01*
Y0283739D01*
X0101204D01*
Y0266778D01*
X0111196D01*
Y0269461D01*
X0111198Y0269467D01*
X0111208Y0269560D01*
X0111271Y0269599D01*
X0111411Y0269656D01*
X0111626Y0269714D01*
X0111913Y0269762D01*
X0112118Y0269780D01*
X0126163D01*
X0126723Y0268825D01*
X0126723Y0268818D01*
X0126721Y0268815D01*
X0126525Y0267830D01*
Y0264778D01*
X0126721Y0263793D01*
X0127279Y0262958D01*
X0128114Y0262399D01*
X0129100Y0262203D01*
X0132151D01*
X0133136Y0262399D01*
X0133972Y0262958D01*
X0134530Y0263793D01*
X0134726Y0264778D01*
Y0267830D01*
X0134530Y0268815D01*
X0133972Y0269650D01*
X0133136Y0270209D01*
X0132151Y0270405D01*
X0129419D01*
X0129247Y0270584D01*
X0128989Y0271095D01*
X0128944Y0271378D01*
X0129291Y0271725D01*
X0129322Y0271751D01*
X0129492Y0271874D01*
X0129658Y0271977D01*
X0129819Y0272060D01*
X0129975Y0272125D01*
X0130128Y0272174D01*
X0130279Y0272208D01*
X0130431Y0272227D01*
X0130530Y0272230D01*
X0130625Y0272218D01*
X0131683Y0272357D01*
X0132669Y0272765D01*
X0133515Y0273415D01*
X0133574Y0273491D01*
X0133646Y0273559D01*
X0133767Y0273652D01*
X0133898Y0273735D01*
X0134040Y0273809D01*
X0134197Y0273874D01*
X0134369Y0273929D01*
X0134559Y0273973D01*
X0134767Y0274006D01*
X0134808Y0274010D01*
X0149983D01*
X0150861Y0274184D01*
X0151471Y0274592D01*
X0153519D01*
X0153519Y0274592D01*
X0153881D01*
Y0274592D01*
X0154519Y0274592D01*
X0159031D01*
Y0275935D01*
X0159038Y0275964D01*
X0159031Y0276007D01*
Y0276767D01*
X0159063Y0276825D01*
X0159235Y0277072D01*
X0159719Y0277644D01*
X0160971Y0278897D01*
X0165983D01*
X0166034Y0278815D01*
X0165657Y0277532D01*
X0165647Y0277527D01*
X0165200Y0277616D01*
X0164361Y0277449D01*
X0163650Y0276974D01*
X0163175Y0276263D01*
X0163008Y0275424D01*
X0163175Y0274585D01*
X0163650Y0273874D01*
X0164361Y0273399D01*
X0165200Y0273232D01*
X0165200D01*
D01*
X0165305Y0273253D01*
X0165647Y0273321D01*
X0166647Y0272849D01*
Y0272849D01*
X0167621D01*
X0167659Y0272842D01*
X0167697Y0272849D01*
X0171993D01*
Y0272849D01*
X0172207Y0273048D01*
X0179649Y0272502D01*
X0179649Y0271272D01*
X0179656Y0271147D01*
X0179699Y0270893D01*
X0179769Y0270635D01*
X0179868Y0270374D01*
X0179996Y0270110D01*
X0180151Y0269843D01*
X0180238Y0269714D01*
X0190200D01*
Y0266614D01*
X0189486Y0265913D01*
X0183815Y0266019D01*
Y0265955D01*
X0183785Y0265979D01*
X0183717Y0266000D01*
X0183609Y0266019D01*
X0183562Y0266024D01*
X0180654Y0266078D01*
Y0266898D01*
X0180128D01*
X0180108Y0266858D01*
X0180067Y0266898D01*
X0175308D01*
Y0266898D01*
Y0265243D01*
X0174315Y0264588D01*
X0173794Y0264702D01*
X0173529Y0265097D01*
X0173134Y0265362D01*
X0172667Y0265455D01*
X0168139D01*
X0167672Y0265362D01*
X0167276Y0265097D01*
X0167127Y0264874D01*
X0167069Y0264788D01*
X0167012Y0264702D01*
X0166045Y0264415D01*
X0165383Y0264547D01*
X0164544Y0264380D01*
X0163833Y0263905D01*
X0163358Y0263193D01*
X0163191Y0262354D01*
X0163358Y0261516D01*
X0163833Y0260804D01*
X0164544Y0260329D01*
X0165383Y0260162D01*
X0166152Y0260315D01*
X0166375D01*
X0166459Y0260309D01*
X0166662Y0260279D01*
X0166823Y0260242D01*
X0166942Y0260203D01*
X0167018Y0260168D01*
X0167056Y0260144D01*
X0167061Y0260139D01*
X0167095Y0260074D01*
X0167188Y0259961D01*
X0167276Y0259828D01*
X0167317Y0259801D01*
X0167346Y0259766D01*
X0167474Y0259696D01*
X0167672Y0259564D01*
X0168139Y0259471D01*
X0172667D01*
X0173134Y0259564D01*
X0173331Y0259696D01*
X0173459Y0259766D01*
X0173488Y0259801D01*
X0173529Y0259828D01*
X0173618Y0259961D01*
X0173710Y0260074D01*
X0174659Y0260001D01*
X0174848Y0259897D01*
X0175153Y0259647D01*
Y0257390D01*
X0170628D01*
X0170503Y0257400D01*
X0170281Y0257432D01*
X0170123Y0257469D01*
Y0258231D01*
X0169149D01*
X0169111Y0258238D01*
X0169073Y0258231D01*
X0168991D01*
X0168988Y0258231D01*
X0168988Y0258231D01*
X0165827D01*
X0165789Y0258238D01*
X0165751Y0258231D01*
X0164777D01*
Y0257733D01*
X0164697Y0257721D01*
X0164331Y0257695D01*
X0157311D01*
X0156530Y0257540D01*
X0155869Y0257098D01*
X0155571Y0256800D01*
X0152855Y0256800D01*
X0152455Y0256800D01*
X0150913D01*
X0150888Y0256814D01*
X0150638Y0256989D01*
X0150059Y0257479D01*
X0148697Y0258842D01*
X0148035Y0259284D01*
X0147255Y0259439D01*
X0123700D01*
X0122920Y0259284D01*
X0122258Y0258842D01*
X0120258Y0256842D01*
X0119816Y0256180D01*
X0119661Y0255400D01*
Y0237358D01*
X0119634Y0237120D01*
X0119579Y0236829D01*
X0119502Y0236550D01*
X0119404Y0236281D01*
X0119283Y0236022D01*
X0119141Y0235771D01*
X0118974Y0235525D01*
X0118825Y0235339D01*
X0111621Y0228135D01*
X0111196Y0228311D01*
Y0228311D01*
X0101204D01*
Y0211350D01*
X0111196D01*
Y0220910D01*
X0111202Y0220935D01*
X0111214Y0221167D01*
X0111242Y0221352D01*
X0111289Y0221542D01*
X0111358Y0221739D01*
X0111451Y0221944D01*
X0111568Y0222159D01*
X0111713Y0222381D01*
X0111886Y0222612D01*
X0112003Y0222749D01*
X0121708Y0232455D01*
X0121895Y0232604D01*
X0122140Y0232771D01*
X0122392Y0232914D01*
X0122651Y0233034D01*
X0122919Y0233132D01*
X0123198Y0233209D01*
X0123490Y0233265D01*
X0123727Y0233291D01*
X0125856D01*
X0125937Y0233307D01*
X0126581Y0232470D01*
X0126384Y0231485D01*
Y0228434D01*
X0126581Y0227448D01*
X0127139Y0226613D01*
X0127974Y0226055D01*
X0128960Y0225858D01*
X0132011D01*
X0132996Y0226055D01*
X0133832Y0226613D01*
X0134390Y0227448D01*
X0134586Y0228434D01*
Y0231485D01*
X0134390Y0232470D01*
X0133832Y0233306D01*
X0132996Y0233864D01*
X0132011Y0234060D01*
X0128960D01*
X0128865Y0234041D01*
X0128373Y0234963D01*
X0128796Y0235386D01*
X0128877Y0235450D01*
X0129035Y0235552D01*
X0129200Y0235640D01*
X0129374Y0235715D01*
X0129560Y0235777D01*
X0129759Y0235826D01*
X0129972Y0235862D01*
X0130200Y0235882D01*
X0130382Y0235887D01*
X0130485Y0235873D01*
X0131543Y0236012D01*
X0132528Y0236420D01*
X0133375Y0237070D01*
X0134024Y0237916D01*
X0134432Y0238902D01*
X0134571Y0239959D01*
X0134432Y0241017D01*
X0134024Y0242002D01*
X0133375Y0242848D01*
X0132528Y0243498D01*
X0131543Y0243906D01*
X0130485Y0244045D01*
X0129428Y0243906D01*
X0128442Y0243498D01*
X0127596Y0242848D01*
X0126946Y0242002D01*
X0126538Y0241017D01*
X0126399Y0239959D01*
X0126413Y0239856D01*
X0126409Y0239674D01*
X0126388Y0239446D01*
X0126352Y0239233D01*
X0126304Y0239034D01*
X0126241Y0238848D01*
X0126166Y0238674D01*
X0126078Y0238509D01*
X0125976Y0238351D01*
X0125912Y0238269D01*
X0125012Y0237369D01*
X0124412D01*
X0124231Y0237401D01*
X0124086Y0237450D01*
X0123990Y0237502D01*
X0123925Y0237555D01*
X0123871Y0237620D01*
X0123819Y0237716D01*
X0123771Y0237861D01*
X0123739Y0238042D01*
Y0254555D01*
X0124545Y0255361D01*
X0146410D01*
X0147083Y0254688D01*
X0147418Y0254327D01*
X0147658Y0254028D01*
X0147840Y0253767D01*
X0147855Y0253742D01*
Y0251800D01*
X0152455D01*
X0153455Y0251800D01*
X0153855Y0251800D01*
X0158455D01*
Y0253516D01*
X0158483Y0253527D01*
X0158635Y0253568D01*
X0158849Y0253604D01*
X0158997Y0253617D01*
X0164113D01*
X0164156Y0253548D01*
X0163791Y0252368D01*
X0163737Y0252329D01*
X0163700Y0252336D01*
X0162861Y0252169D01*
X0162150Y0251694D01*
X0161675Y0250983D01*
X0161508Y0250144D01*
X0161675Y0249305D01*
X0162150Y0248594D01*
X0162861Y0248119D01*
X0163700Y0247952D01*
X0163777Y0247967D01*
X0164777Y0247569D01*
Y0247569D01*
X0165751D01*
X0165789Y0247562D01*
X0165827Y0247569D01*
X0167417D01*
X0167707Y0246803D01*
X0167753Y0246569D01*
X0167305Y0245898D01*
X0167138Y0245059D01*
X0167305Y0244220D01*
X0167780Y0243509D01*
X0168491Y0243034D01*
X0169330Y0242867D01*
X0169643Y0242929D01*
X0169646D01*
X0170308Y0242386D01*
X0170294Y0241260D01*
X0169797Y0240880D01*
X0169537D01*
X0168757Y0240725D01*
X0168726Y0240704D01*
X0168489Y0240657D01*
X0167778Y0240182D01*
X0167303Y0239471D01*
X0167136Y0238632D01*
X0167303Y0237793D01*
X0167778Y0237082D01*
X0168489Y0236607D01*
X0169328Y0236440D01*
X0169625Y0236499D01*
X0170625Y0236168D01*
Y0235463D01*
X0170625Y0235168D01*
Y0231167D01*
X0170618Y0231129D01*
X0170625Y0231090D01*
Y0230117D01*
X0171239D01*
X0171261Y0230027D01*
X0171300Y0229785D01*
X0171336Y0229295D01*
Y0215110D01*
X0162104Y0205878D01*
X0161180Y0206261D01*
Y0207396D01*
X0144220D01*
Y0204915D01*
X0144156Y0204876D01*
X0144014Y0204818D01*
X0143797Y0204760D01*
X0143508Y0204712D01*
X0143301Y0204694D01*
X0134868D01*
X0134806Y0204701D01*
X0134637Y0204735D01*
X0134503Y0204776D01*
X0134404Y0204820D01*
X0134332Y0204863D01*
X0134281Y0204906D01*
X0134241Y0204949D01*
X0134207Y0205003D01*
X0134145Y0205136D01*
X0134101Y0205196D01*
X0133910Y0205657D01*
X0133260Y0206504D01*
X0132414Y0207153D01*
X0131429Y0207561D01*
X0130371Y0207700D01*
X0129314Y0207561D01*
X0128328Y0207153D01*
X0127494Y0206513D01*
X0127434Y0206521D01*
X0126494Y0206859D01*
Y0217403D01*
X0127697Y0218606D01*
X0138289D01*
X0140288Y0216607D01*
X0140507Y0216357D01*
X0140795Y0215993D01*
X0141017Y0215667D01*
X0141177Y0215386D01*
X0141220Y0215288D01*
Y0210620D01*
X0148338D01*
Y0220101D01*
X0143462D01*
X0143237Y0220261D01*
X0142431Y0220952D01*
X0140861Y0222522D01*
X0140117Y0223020D01*
X0139239Y0223194D01*
X0126746D01*
X0125869Y0223020D01*
X0125124Y0222522D01*
X0122578Y0219976D01*
X0122081Y0219231D01*
X0121906Y0218354D01*
Y0199785D01*
X0122081Y0198907D01*
X0122578Y0198163D01*
X0125271Y0195470D01*
X0125700Y0195008D01*
X0126011Y0194621D01*
X0126250Y0194278D01*
X0126270Y0194242D01*
Y0192089D01*
X0126466Y0191103D01*
X0127025Y0190268D01*
X0127860Y0189710D01*
X0128846Y0189514D01*
X0131897D01*
X0132882Y0189710D01*
X0133718Y0190268D01*
X0134276Y0191103D01*
X0134472Y0192089D01*
Y0195140D01*
X0134276Y0196125D01*
X0133718Y0196961D01*
X0132882Y0197519D01*
X0131897Y0197715D01*
X0129743D01*
X0129707Y0197736D01*
X0129376Y0197967D01*
X0128636Y0198594D01*
X0128172Y0199058D01*
X0128738Y0199906D01*
X0129314Y0199667D01*
X0130371Y0199528D01*
X0131429Y0199667D01*
X0131802Y0199822D01*
X0131883Y0199835D01*
X0132039Y0199893D01*
X0132172Y0199935D01*
X0132542Y0200020D01*
X0132707Y0200047D01*
X0133461Y0200106D01*
X0143301D01*
X0143508Y0200088D01*
X0143797Y0200040D01*
X0144014Y0199982D01*
X0144156Y0199924D01*
X0144220Y0199885D01*
Y0197404D01*
X0161180D01*
Y0200090D01*
X0161362Y0200106D01*
X0161871D01*
X0162748Y0200280D01*
X0163493Y0200778D01*
X0168228Y0205513D01*
X0169151Y0205130D01*
Y0197404D01*
X0186112D01*
Y0207396D01*
X0179774D01*
X0179760Y0207431D01*
X0179719Y0207581D01*
X0179684Y0207793D01*
X0179671Y0207940D01*
Y0210504D01*
X0179824Y0211272D01*
X0179657Y0212111D01*
X0179182Y0212823D01*
X0178471Y0213298D01*
X0177632Y0213465D01*
X0176793Y0213298D01*
X0176769Y0213282D01*
X0175869Y0213883D01*
X0175924Y0214160D01*
Y0229205D01*
X0176137Y0230117D01*
X0176924Y0230117D01*
X0181287D01*
Y0234413D01*
X0181294Y0234451D01*
X0181287Y0234489D01*
Y0235463D01*
X0181287D01*
X0181287Y0236168D01*
X0181287Y0236168D01*
Y0237142D01*
X0181294Y0237180D01*
X0181287Y0237218D01*
Y0240464D01*
X0181294Y0240502D01*
X0181287Y0240540D01*
Y0241514D01*
X0181287D01*
X0181287Y0242295D01*
X0181287Y0242295D01*
Y0243269D01*
X0181294Y0243307D01*
X0181287Y0243345D01*
Y0244477D01*
X0181313Y0244523D01*
X0181486Y0244771D01*
X0181937Y0245303D01*
X0181987Y0245322D01*
X0182090Y0245333D01*
X0183094Y0245234D01*
X0183491Y0244968D01*
X0183960Y0244875D01*
X0190054D01*
X0190200Y0244756D01*
Y0185377D01*
X0139450D01*
X0137900Y0183827D01*
X0111196Y0183827D01*
Y0193853D01*
X0111204Y0193869D01*
X0111261Y0193962D01*
X0111339Y0194073D01*
X0111916Y0194732D01*
X0111974Y0194790D01*
X0112931D01*
X0113700Y0194637D01*
X0114539Y0194804D01*
X0115250Y0195279D01*
X0115725Y0195990D01*
X0115892Y0196829D01*
X0115725Y0197668D01*
X0115250Y0198379D01*
X0114539Y0198854D01*
X0113700Y0199021D01*
X0112931Y0198868D01*
X0111196D01*
Y0200380D01*
X0101204D01*
Y0183827D01*
X0093968Y0183827D01*
X0093949Y0359578D01*
X0094658Y0360283D01*
X0134720Y0360032D01*
D02*
G37*
G36*
X0293228Y0301538D02*
X0293214Y0301819D01*
X0293171Y0302100D01*
X0293100Y0302382D01*
X0293000Y0302664D01*
X0292871Y0302947D01*
X0292715Y0303230D01*
X0292529Y0303513D01*
X0292315Y0303797D01*
X0292073Y0304082D01*
X0291802Y0304367D01*
X0292390Y0306607D01*
X0292549Y0306462D01*
X0292692Y0306362D01*
X0292817Y0306308D01*
X0292926Y0306299D01*
X0293018Y0306335D01*
X0293094Y0306417D01*
X0293152Y0306543D01*
X0293194Y0306715D01*
X0293220Y0306933D01*
X0293228Y0307195D01*
Y0301538D01*
D02*
G37*
G36*
X0282508Y0307791D02*
X0282733Y0307604D01*
X0282965Y0307439D01*
X0283204Y0307296D01*
X0283449Y0307175D01*
X0283701Y0307076D01*
X0283960Y0306999D01*
X0284225Y0306944D01*
X0284497Y0306911D01*
X0284775Y0306900D01*
Y0304900D01*
X0284497Y0304889D01*
X0284225Y0304856D01*
X0283960Y0304801D01*
X0283701Y0304724D01*
X0283449Y0304625D01*
X0283204Y0304504D01*
X0282965Y0304361D01*
X0282733Y0304196D01*
X0282508Y0304009D01*
X0282289Y0303800D01*
Y0308000D01*
X0282508Y0307791D01*
D02*
G37*
G36*
X0257170Y0302900D02*
X0256999Y0302890D01*
X0256820Y0302856D01*
X0256635Y0302798D01*
X0256444Y0302717D01*
X0256245Y0302612D01*
X0256040Y0302483D01*
X0255828Y0302330D01*
X0255609Y0302154D01*
X0255151Y0301729D01*
X0253029Y0303851D01*
X0253253Y0304083D01*
X0253630Y0304528D01*
X0253783Y0304740D01*
X0253912Y0304945D01*
X0254017Y0305144D01*
X0254098Y0305335D01*
X0254156Y0305520D01*
X0254190Y0305699D01*
X0254200Y0305870D01*
X0257170Y0302900D01*
D02*
G37*
G36*
X0282037Y0303539D02*
X0281850Y0303313D01*
X0281685Y0303081D01*
X0281542Y0302842D01*
X0281421Y0302597D01*
X0281322Y0302345D01*
X0281245Y0302087D01*
X0281190Y0301821D01*
X0281157Y0301550D01*
X0281146Y0301272D01*
X0279146D01*
X0279135Y0301550D01*
X0279102Y0301821D01*
X0279047Y0302087D01*
X0278970Y0302345D01*
X0278871Y0302597D01*
X0278750Y0302842D01*
X0278607Y0303081D01*
X0278442Y0303313D01*
X0278255Y0303539D01*
X0278046Y0303758D01*
X0282246D01*
X0282037Y0303539D01*
D02*
G37*
G36*
X0171135Y0296339D02*
X0171215Y0295039D01*
X0171245Y0294899D01*
X0171279Y0294799D01*
X0171318Y0294739D01*
X0171361Y0294719D01*
X0168132Y0294707D01*
X0168322Y0294727D01*
X0168492Y0294788D01*
X0168642Y0294889D01*
X0168772Y0295030D01*
X0168882Y0295212D01*
X0168972Y0295433D01*
X0169042Y0295694D01*
X0169092Y0295996D01*
X0169122Y0296337D01*
X0169132Y0296719D01*
X0171132D01*
X0171135Y0296339D01*
D02*
G37*
G36*
X0179662Y0294612D02*
X0179722Y0294516D01*
X0179822Y0294432D01*
X0179962Y0294358D01*
X0180142Y0294297D01*
X0180362Y0294246D01*
X0180622Y0294207D01*
X0180922Y0294178D01*
X0181642Y0294156D01*
Y0292156D01*
X0181262Y0292150D01*
X0180622Y0292105D01*
X0180362Y0292066D01*
X0180142Y0292015D01*
X0179962Y0291953D01*
X0179822Y0291880D01*
X0179722Y0291796D01*
X0179662Y0291700D01*
X0179642Y0291593D01*
Y0294719D01*
X0179662Y0294612D01*
D02*
G37*
G36*
X0174720Y0290264D02*
X0174780Y0289924D01*
X0174880Y0289624D01*
X0175020Y0289364D01*
X0175200Y0289144D01*
X0175420Y0288964D01*
X0175680Y0288824D01*
X0175807Y0288782D01*
X0175820Y0288785D01*
X0175999Y0288847D01*
X0176140Y0288920D01*
X0176240Y0289004D01*
X0176300Y0289100D01*
X0176320Y0289207D01*
Y0288664D01*
X0176320Y0288664D01*
X0176700Y0288644D01*
X0176320Y0288390D01*
Y0286081D01*
X0176300Y0286188D01*
X0176240Y0286284D01*
X0176140Y0286368D01*
X0175999Y0286441D01*
X0175820Y0286503D01*
X0175600Y0286554D01*
X0175340Y0286593D01*
X0175040Y0286622D01*
X0174320Y0286644D01*
Y0287057D01*
X0173700Y0286644D01*
X0173361Y0286870D01*
Y0286644D01*
X0172981Y0286638D01*
X0172341Y0286593D01*
X0172081Y0286554D01*
X0171861Y0286503D01*
X0171681Y0286441D01*
X0171541Y0286368D01*
X0171441Y0286284D01*
X0171381Y0286188D01*
X0171361Y0286081D01*
Y0288203D01*
X0170700Y0288644D01*
X0171080Y0288664D01*
X0171361Y0288714D01*
Y0289207D01*
X0171381Y0289100D01*
X0171441Y0289004D01*
X0171541Y0288920D01*
X0171681Y0288847D01*
X0171730Y0288830D01*
X0171980Y0288964D01*
X0172200Y0289144D01*
X0172380Y0289364D01*
X0172520Y0289624D01*
X0172620Y0289924D01*
X0172680Y0290264D01*
X0172700Y0290644D01*
X0174700D01*
X0174720Y0290264D01*
D02*
G37*
G36*
X0185539Y0287477D02*
X0185519Y0287584D01*
X0185459Y0287680D01*
X0185359Y0287764D01*
X0185219Y0287837D01*
X0185039Y0287899D01*
X0184819Y0287950D01*
X0184559Y0287989D01*
X0184259Y0288018D01*
X0183539Y0288040D01*
Y0290040D01*
X0183919Y0290046D01*
X0184559Y0290091D01*
X0184819Y0290130D01*
X0185039Y0290181D01*
X0185219Y0290243D01*
X0185359Y0290316D01*
X0185459Y0290400D01*
X0185519Y0290496D01*
X0185539Y0290603D01*
Y0287477D01*
D02*
G37*
G36*
X0179526Y0288924D02*
X0179477Y0288735D01*
X0179482Y0288519D01*
X0179543Y0288276D01*
X0179658Y0288007D01*
X0179828Y0287711D01*
X0180053Y0287388D01*
X0180333Y0287038D01*
X0181056Y0286258D01*
X0179819Y0284667D01*
X0179400Y0285072D01*
X0178652Y0285707D01*
X0178324Y0285938D01*
X0178026Y0286109D01*
X0177758Y0286223D01*
X0177521Y0286278D01*
X0177314Y0286275D01*
X0177137Y0286213D01*
X0176990Y0286093D01*
X0179630Y0289087D01*
X0179526Y0288924D01*
D02*
G37*
G36*
X0270023Y0280469D02*
X0270002Y0280659D01*
X0269941Y0280829D01*
X0269841Y0280979D01*
X0269700Y0281109D01*
X0269518Y0281219D01*
X0269297Y0281309D01*
X0269036Y0281379D01*
X0268734Y0281429D01*
X0268670Y0281434D01*
X0268439Y0281418D01*
X0268179Y0281379D01*
X0267959Y0281328D01*
X0267779Y0281266D01*
X0267639Y0281193D01*
X0267539Y0281108D01*
X0267479Y0281013D01*
X0267459Y0280906D01*
Y0284031D01*
X0267479Y0283925D01*
X0267539Y0283829D01*
X0267639Y0283744D01*
X0267779Y0283671D01*
X0267959Y0283609D01*
X0268179Y0283559D01*
X0268439Y0283519D01*
X0268673Y0283497D01*
X0269031Y0283526D01*
X0269291Y0283570D01*
X0269511Y0283628D01*
X0269691Y0283698D01*
X0269831Y0283780D01*
X0269931Y0283876D01*
X0269991Y0283984D01*
X0270011Y0284105D01*
X0270023Y0280469D01*
D02*
G37*
G36*
X0264334Y0280906D02*
X0264314Y0281013D01*
X0264254Y0281108D01*
X0264154Y0281193D01*
X0264014Y0281266D01*
X0263834Y0281328D01*
X0263614Y0281379D01*
X0263354Y0281418D01*
X0263124Y0281440D01*
X0262998Y0281429D01*
X0262695Y0281379D01*
X0262433Y0281309D01*
X0262211Y0281219D01*
X0262030Y0281109D01*
X0261890Y0280979D01*
X0261791Y0280829D01*
X0261733Y0280659D01*
X0261715Y0280469D01*
X0261669Y0283661D01*
X0261704Y0283624D01*
X0261776Y0283592D01*
X0261887Y0283563D01*
X0262036Y0283538D01*
X0262223Y0283517D01*
X0262856Y0283484D01*
X0263354Y0283519D01*
X0263614Y0283559D01*
X0263834Y0283609D01*
X0264014Y0283671D01*
X0264154Y0283744D01*
X0264254Y0283829D01*
X0264314Y0283925D01*
X0264334Y0284031D01*
Y0280906D01*
D02*
G37*
G36*
X0247954Y0284747D02*
X0248104Y0282472D01*
X0248160Y0282227D01*
X0248224Y0282052D01*
X0248297Y0281947D01*
X0248379Y0281912D01*
X0242700Y0281900D01*
X0243033Y0281936D01*
X0243330Y0282042D01*
X0243593Y0282218D01*
X0243820Y0282464D01*
X0244012Y0282780D01*
X0244170Y0283166D01*
X0244292Y0283623D01*
X0244380Y0284149D01*
X0244432Y0284746D01*
X0244450Y0285412D01*
X0247950D01*
X0247954Y0284747D01*
D02*
G37*
G36*
X0242103Y0281194D02*
X0242344Y0281182D01*
X0243009Y0281174D01*
Y0277674D01*
X0242344Y0277667D01*
X0242103Y0277650D01*
Y0276936D01*
X0242068Y0277076D01*
X0241963Y0277202D01*
X0241788Y0277312D01*
X0241543Y0277408D01*
X0241228Y0277490D01*
X0240843Y0277556D01*
X0240815Y0277559D01*
X0240769Y0277556D01*
X0240384Y0277490D01*
X0240069Y0277408D01*
X0239824Y0277312D01*
X0239649Y0277202D01*
X0239544Y0277076D01*
X0239509Y0276936D01*
Y0277654D01*
X0239268Y0277667D01*
X0238603Y0277674D01*
Y0281174D01*
X0239268Y0281182D01*
X0239509Y0281198D01*
Y0281912D01*
X0239544Y0281772D01*
X0239649Y0281646D01*
X0239824Y0281536D01*
X0240069Y0281440D01*
X0240384Y0281359D01*
X0240769Y0281292D01*
X0240797Y0281289D01*
X0240843Y0281292D01*
X0241228Y0281359D01*
X0241543Y0281440D01*
X0241788Y0281536D01*
X0241963Y0281646D01*
X0242068Y0281772D01*
X0242103Y0281912D01*
Y0281194D01*
D02*
G37*
G36*
X0176320Y0279528D02*
X0176300Y0279605D01*
X0176240Y0279675D01*
X0176140Y0279736D01*
X0175999Y0279789D01*
X0175820Y0279834D01*
X0175600Y0279871D01*
X0175340Y0279899D01*
X0174699Y0279932D01*
X0174320Y0279936D01*
Y0281936D01*
X0174699Y0281943D01*
X0175340Y0282000D01*
X0175600Y0282051D01*
X0175820Y0282115D01*
X0175999Y0282194D01*
X0176140Y0282288D01*
X0176240Y0282395D01*
X0176300Y0282517D01*
X0176320Y0282653D01*
Y0279528D01*
D02*
G37*
G36*
X0171001Y0282392D02*
X0171061Y0282296D01*
X0171161Y0282212D01*
X0171301Y0282138D01*
X0171481Y0282077D01*
X0171701Y0282026D01*
X0171961Y0281986D01*
X0172261Y0281958D01*
X0172981Y0281936D01*
Y0279936D01*
X0172601Y0279930D01*
X0171961Y0279885D01*
X0171701Y0279846D01*
X0171481Y0279795D01*
X0171301Y0279733D01*
X0171161Y0279660D01*
X0171061Y0279576D01*
X0171001Y0279480D01*
X0170981Y0279373D01*
Y0282499D01*
X0171001Y0282392D01*
D02*
G37*
G36*
X0167659Y0279373D02*
X0167639Y0279480D01*
X0167579Y0279576D01*
X0167479Y0279660D01*
X0167339Y0279733D01*
X0167159Y0279795D01*
X0166939Y0279846D01*
X0166679Y0279885D01*
X0166379Y0279913D01*
X0165659Y0279936D01*
Y0281936D01*
X0166039Y0281942D01*
X0166679Y0281986D01*
X0166939Y0282026D01*
X0167159Y0282077D01*
X0167339Y0282138D01*
X0167479Y0282212D01*
X0167579Y0282296D01*
X0167639Y0282392D01*
X0167659Y0282499D01*
Y0279373D01*
D02*
G37*
G36*
X0159433Y0278828D02*
X0159041Y0278423D01*
X0158425Y0277693D01*
X0158200Y0277369D01*
X0158031Y0277073D01*
X0157917Y0276804D01*
X0157859Y0276562D01*
X0157857Y0276347D01*
X0157910Y0276160D01*
X0158019Y0276000D01*
X0155289Y0278927D01*
X0155440Y0278809D01*
X0155620Y0278749D01*
X0155830Y0278747D01*
X0156069Y0278802D01*
X0156337Y0278914D01*
X0156634Y0279085D01*
X0156961Y0279312D01*
X0157317Y0279598D01*
X0158117Y0280341D01*
X0159433Y0278828D01*
D02*
G37*
G36*
X0185539Y0281965D02*
X0188861D01*
X0188736Y0281945D01*
X0188623Y0281885D01*
X0188524Y0281785D01*
X0188438Y0281645D01*
X0188365Y0281465D01*
X0188306Y0281245D01*
X0188259Y0280985D01*
X0188226Y0280685D01*
X0188205Y0280090D01*
X0188210Y0279882D01*
X0188240Y0279540D01*
X0188290Y0279238D01*
X0188360Y0278977D01*
X0188450Y0278755D01*
X0188560Y0278574D01*
X0188690Y0278433D01*
X0188840Y0278333D01*
X0189010Y0278273D01*
X0189200Y0278252D01*
X0185200D01*
X0185390Y0278273D01*
X0185560Y0278333D01*
X0185710Y0278433D01*
X0185840Y0278574D01*
X0185950Y0278755D01*
X0186040Y0278977D01*
X0186110Y0279238D01*
X0186160Y0279540D01*
X0186190Y0279882D01*
X0186197Y0280145D01*
X0186193Y0280345D01*
X0186141Y0280985D01*
X0186094Y0281245D01*
X0186035Y0281465D01*
X0185962Y0281645D01*
X0185876Y0281785D01*
X0185777Y0281885D01*
X0185664Y0281945D01*
X0185539Y0281965D01*
X0185519Y0282072D01*
X0185459Y0282168D01*
X0185359Y0282252D01*
X0185219Y0282326D01*
X0185039Y0282387D01*
X0184819Y0282438D01*
X0184559Y0282477D01*
X0184259Y0282506D01*
X0183539Y0282528D01*
Y0284528D01*
X0183919Y0284534D01*
X0184559Y0284579D01*
X0184819Y0284618D01*
X0185039Y0284669D01*
X0185219Y0284731D01*
X0185359Y0284804D01*
X0185459Y0284888D01*
X0185519Y0284984D01*
X0185539Y0285091D01*
Y0281965D01*
D02*
G37*
G36*
X0179656Y0282403D02*
X0179699Y0282149D01*
X0179769Y0281891D01*
X0179868Y0281630D01*
X0179996Y0281366D01*
X0180151Y0281098D01*
X0180335Y0280827D01*
X0180547Y0280553D01*
X0180788Y0280275D01*
X0181056Y0279994D01*
X0180108Y0278114D01*
X0179680Y0278528D01*
X0178920Y0279176D01*
X0178588Y0279409D01*
X0178289Y0279582D01*
X0178023Y0279694D01*
X0177788Y0279746D01*
X0177586Y0279738D01*
X0177417Y0279669D01*
X0177280Y0279540D01*
X0179642Y0282653D01*
X0179656Y0282403D01*
D02*
G37*
G36*
X0230459Y0283150D02*
X0231518Y0283055D01*
X0231973Y0282967D01*
X0232358Y0282854D01*
X0232673Y0282716D01*
X0232918Y0282553D01*
X0233093Y0282364D01*
X0233198Y0282151D01*
X0233233Y0281912D01*
Y0277918D01*
X0233198Y0278250D01*
X0233093Y0278548D01*
X0232918Y0278810D01*
X0232673Y0279038D01*
X0232358Y0279230D01*
X0231973Y0279388D01*
X0231518Y0279510D01*
X0230993Y0279598D01*
X0230459Y0279645D01*
Y0276421D01*
X0230221Y0276183D01*
X0220413D01*
Y0279054D01*
Y0279633D01*
X0220639Y0280770D01*
X0221083Y0281841D01*
X0221727Y0282805D01*
X0222137Y0283215D01*
X0222137Y0283215D01*
X0230459D01*
Y0283150D01*
D02*
G37*
G36*
X0281437Y0278728D02*
X0281482Y0278179D01*
X0281520Y0277956D01*
X0281570Y0277767D01*
X0281631Y0277613D01*
X0281703Y0277493D01*
X0281786Y0277407D01*
X0281880Y0277356D01*
X0281985Y0277339D01*
X0278717D01*
X0278853Y0277356D01*
X0278974Y0277407D01*
X0279081Y0277493D01*
X0279174Y0277613D01*
X0279253Y0277767D01*
X0279317Y0277956D01*
X0279367Y0278179D01*
X0279403Y0278436D01*
X0279425Y0278728D01*
X0279432Y0279054D01*
X0281432D01*
X0281437Y0278728D01*
D02*
G37*
G36*
X0263755Y0272988D02*
X0263735Y0273178D01*
X0263675Y0273348D01*
X0263574Y0273498D01*
X0263433Y0273628D01*
X0263252Y0273738D01*
X0263031Y0273828D01*
X0262769Y0273898D01*
X0262732Y0273904D01*
X0262695Y0273898D01*
X0262433Y0273828D01*
X0262211Y0273738D01*
X0262031Y0273628D01*
X0261891Y0273498D01*
X0261791Y0273348D01*
X0261733Y0273178D01*
X0261715Y0272988D01*
X0261669Y0276311D01*
X0261713Y0276250D01*
X0261794Y0276195D01*
X0261910Y0276146D01*
X0262062Y0276104D01*
X0262250Y0276069D01*
X0262474Y0276040D01*
X0262519Y0276037D01*
X0262769Y0276078D01*
X0263031Y0276148D01*
X0263252Y0276238D01*
X0263433Y0276348D01*
X0263574Y0276478D01*
X0263675Y0276628D01*
X0263735Y0276798D01*
X0263755Y0276988D01*
Y0272988D01*
D02*
G37*
G36*
X0149381Y0275604D02*
X0149356Y0275500D01*
X0149281Y0275406D01*
X0149156Y0275324D01*
X0148981Y0275252D01*
X0148756Y0275192D01*
X0148481Y0275142D01*
X0148156Y0275103D01*
X0147356Y0275060D01*
X0146881Y0275054D01*
Y0277554D01*
X0147358Y0277567D01*
X0147784Y0277604D01*
X0148160Y0277666D01*
X0148487Y0277754D01*
X0148763Y0277867D01*
X0148989Y0278004D01*
X0149165Y0278167D01*
X0149291Y0278354D01*
X0149367Y0278567D01*
X0149393Y0278804D01*
X0149381Y0275604D01*
D02*
G37*
G36*
X0132985Y0278272D02*
X0133180Y0278121D01*
X0133388Y0277988D01*
X0133611Y0277873D01*
X0133847Y0277775D01*
X0134098Y0277696D01*
X0134362Y0277634D01*
X0134641Y0277589D01*
X0134933Y0277563D01*
X0135240Y0277554D01*
Y0275054D01*
X0134933Y0275045D01*
X0134641Y0275019D01*
X0134362Y0274974D01*
X0134098Y0274912D01*
X0133847Y0274833D01*
X0133611Y0274735D01*
X0133388Y0274620D01*
X0133180Y0274487D01*
X0132985Y0274337D01*
X0132805Y0274168D01*
Y0278440D01*
X0132985Y0278272D01*
D02*
G37*
G36*
X0176320Y0274016D02*
X0176300Y0274123D01*
X0176240Y0274219D01*
X0176140Y0274303D01*
X0175999Y0274376D01*
X0175820Y0274438D01*
X0175600Y0274489D01*
X0175340Y0274528D01*
X0175040Y0274556D01*
X0174320Y0274579D01*
Y0276579D01*
X0174699Y0276585D01*
X0175340Y0276629D01*
X0175600Y0276669D01*
X0175820Y0276720D01*
X0175999Y0276782D01*
X0176140Y0276855D01*
X0176240Y0276939D01*
X0176300Y0277035D01*
X0176320Y0277142D01*
Y0274016D01*
D02*
G37*
G36*
X0167659Y0273861D02*
X0167639Y0273968D01*
X0167579Y0274064D01*
X0167479Y0274148D01*
X0167339Y0274221D01*
X0167159Y0274283D01*
X0166939Y0274334D01*
X0166679Y0274373D01*
X0166379Y0274402D01*
X0165659Y0274424D01*
Y0276424D01*
X0166039Y0276430D01*
X0166679Y0276475D01*
X0166939Y0276514D01*
X0167159Y0276565D01*
X0167339Y0276627D01*
X0167479Y0276700D01*
X0167579Y0276784D01*
X0167639Y0276880D01*
X0167659Y0276987D01*
Y0273861D01*
D02*
G37*
G36*
X0229352Y0272444D02*
X0229217Y0272303D01*
X0228991Y0272026D01*
X0228899Y0271889D01*
X0228821Y0271754D01*
X0228758Y0271620D01*
X0228708Y0271488D01*
X0228673Y0271357D01*
X0228652Y0271228D01*
X0228644Y0271099D01*
X0228440Y0273264D01*
X0228489Y0273253D01*
X0228547Y0273257D01*
X0228614Y0273276D01*
X0228690Y0273310D01*
X0228774Y0273360D01*
X0228867Y0273424D01*
X0228968Y0273503D01*
X0229197Y0273707D01*
X0229325Y0273832D01*
X0229352Y0272444D01*
D02*
G37*
G36*
X0130595Y0273253D02*
X0130348Y0273244D01*
X0130104Y0273213D01*
X0129863Y0273160D01*
X0129624Y0273084D01*
X0129388Y0272985D01*
X0129154Y0272865D01*
X0128923Y0272721D01*
X0128695Y0272556D01*
X0128470Y0272368D01*
X0128247Y0272157D01*
X0126479Y0273925D01*
X0126689Y0274148D01*
X0126877Y0274374D01*
X0127043Y0274602D01*
X0127186Y0274833D01*
X0127307Y0275066D01*
X0127405Y0275302D01*
X0127481Y0275541D01*
X0127535Y0275783D01*
X0127566Y0276027D01*
X0127575Y0276273D01*
X0130595Y0273253D01*
D02*
G37*
G36*
X0253386Y0286169D02*
X0253530Y0284232D01*
X0253584Y0284008D01*
X0253646Y0283838D01*
X0253681Y0283780D01*
X0253699D01*
X0253710Y0283753D01*
X0253747Y0283698D01*
X0253795Y0283661D01*
X0253784D01*
X0253792Y0283652D01*
X0253816Y0283610D01*
X0253854Y0283419D01*
Y0279092D01*
X0253820Y0278922D01*
X0253797Y0278888D01*
X0253781Y0278850D01*
X0253795D01*
X0253772Y0278838D01*
X0253754Y0278818D01*
X0253722Y0278760D01*
X0253691Y0278729D01*
X0253690Y0278727D01*
X0253675Y0278691D01*
X0253650Y0278662D01*
X0253626Y0278588D01*
X0253584Y0278520D01*
X0253530Y0278376D01*
X0253523Y0278334D01*
X0253504Y0278296D01*
X0253498Y0278275D01*
X0253491Y0278193D01*
X0253466Y0278115D01*
X0253418Y0277698D01*
X0253427Y0277580D01*
X0253418Y0277463D01*
X0253466Y0277046D01*
X0253491Y0276968D01*
X0253498Y0276886D01*
X0253504Y0276865D01*
X0253523Y0276827D01*
X0253530Y0276785D01*
X0253584Y0276641D01*
X0253626Y0276573D01*
X0253650Y0276499D01*
X0253675Y0276470D01*
X0253690Y0276434D01*
X0253691Y0276432D01*
X0253722Y0276401D01*
X0253754Y0276343D01*
X0253772Y0276323D01*
X0253795Y0276311D01*
X0253781D01*
X0253797Y0276273D01*
X0253820Y0276239D01*
X0253854Y0276069D01*
Y0271742D01*
X0253820Y0271573D01*
X0253781Y0271514D01*
X0253722Y0271475D01*
X0253553Y0271441D01*
X0250210D01*
X0250041Y0271475D01*
X0249982Y0271514D01*
X0249943Y0271573D01*
X0249909Y0271742D01*
Y0273895D01*
X0249894Y0273973D01*
Y0274580D01*
X0249885Y0274604D01*
X0249836Y0274679D01*
X0249766Y0274744D01*
X0249675Y0274799D01*
X0249564Y0274844D01*
X0249431Y0274879D01*
X0249278Y0274904D01*
X0249104Y0274919D01*
X0248910Y0274924D01*
Y0275924D01*
X0249082Y0275928D01*
X0249382Y0275959D01*
X0249511Y0275986D01*
X0249624Y0276021D01*
X0249722Y0276063D01*
X0249806Y0276114D01*
X0249875Y0276172D01*
X0249894Y0276194D01*
Y0283402D01*
X0249998Y0283661D01*
X0249969D01*
X0250012Y0283695D01*
X0250047Y0283780D01*
X0250082D01*
X0250117Y0283838D01*
X0250179Y0284008D01*
X0250233Y0284232D01*
X0250278Y0284511D01*
X0250344Y0285231D01*
X0250377Y0286169D01*
X0250382Y0286719D01*
X0253382D01*
X0253386Y0286169D01*
D02*
G37*
G36*
X0183815Y0270955D02*
X0183786Y0270978D01*
X0183718Y0270998D01*
X0183610Y0271016D01*
X0183464Y0271031D01*
X0182791Y0271063D01*
X0181766Y0271074D01*
X0181761Y0273074D01*
X0182142Y0273075D01*
X0183785Y0273180D01*
X0183815Y0273205D01*
Y0270955D01*
D02*
G37*
G36*
X0110209Y0274337D02*
X0110284Y0274124D01*
X0110409Y0273937D01*
X0110584Y0273774D01*
X0110809Y0273637D01*
X0111084Y0273524D01*
X0111409Y0273436D01*
X0111784Y0273374D01*
X0112209Y0273337D01*
X0112684Y0273324D01*
Y0270824D01*
X0112209Y0270812D01*
X0111784Y0270774D01*
X0111409Y0270711D01*
X0111084Y0270624D01*
X0110809Y0270512D01*
X0110584Y0270374D01*
X0110409Y0270212D01*
X0110284Y0270024D01*
X0110209Y0269812D01*
X0110184Y0269574D01*
Y0274574D01*
X0110209Y0274337D01*
D02*
G37*
G36*
X0183815Y0260955D02*
X0183785Y0260979D01*
X0183717Y0261000D01*
X0183609Y0261019D01*
X0183462Y0261035D01*
X0182788Y0261069D01*
X0181764Y0261080D01*
Y0263080D01*
X0182144Y0263081D01*
X0183785Y0263181D01*
X0183815Y0263205D01*
Y0260955D01*
D02*
G37*
G36*
X0172827Y0264161D02*
X0172889Y0263991D01*
X0172992Y0263842D01*
X0173136Y0263713D01*
X0173321Y0263603D01*
X0173548Y0263514D01*
X0173816Y0263444D01*
X0174125Y0263394D01*
X0174475Y0263364D01*
X0174867Y0263354D01*
Y0261354D01*
X0174536Y0261346D01*
X0174232Y0261322D01*
X0173957Y0261282D01*
X0173709Y0261226D01*
X0173489Y0261153D01*
X0173297Y0261065D01*
X0173133Y0260960D01*
X0172997Y0260840D01*
X0172889Y0260703D01*
X0172808Y0260550D01*
X0172806Y0264350D01*
X0172827Y0264161D01*
D02*
G37*
G36*
X0167998Y0260550D02*
X0167917Y0260703D01*
X0167808Y0260840D01*
X0167672Y0260960D01*
X0167508Y0261065D01*
X0167316Y0261153D01*
X0167096Y0261226D01*
X0166849Y0261282D01*
X0166573Y0261322D01*
X0166270Y0261346D01*
X0165939Y0261354D01*
Y0263354D01*
X0166330Y0263364D01*
X0166681Y0263394D01*
X0166990Y0263444D01*
X0167257Y0263514D01*
X0167484Y0263603D01*
X0167670Y0263713D01*
X0167814Y0263842D01*
X0167917Y0263991D01*
X0167979Y0264161D01*
X0168000Y0264350D01*
X0167998Y0260550D01*
D02*
G37*
G36*
X0179487Y0262740D02*
X0179348Y0262680D01*
X0179226Y0262580D01*
X0179120Y0262440D01*
X0179030Y0262260D01*
X0178956Y0262040D01*
X0178899Y0261780D01*
X0178875Y0261599D01*
X0178885Y0261469D01*
X0178932Y0261209D01*
X0178991Y0260989D01*
X0179064Y0260809D01*
X0179150Y0260669D01*
X0179249Y0260569D01*
X0179362Y0260509D01*
X0179487Y0260489D01*
X0176165D01*
X0176290Y0260509D01*
X0176403Y0260569D01*
X0176502Y0260669D01*
X0176588Y0260809D01*
X0176661Y0260989D01*
X0176720Y0261209D01*
X0176767Y0261469D01*
X0176782Y0261606D01*
X0176745Y0262040D01*
X0176699Y0262260D01*
X0176644Y0262440D01*
X0176578Y0262580D01*
X0176502Y0262680D01*
X0176416Y0262740D01*
X0176320Y0262760D01*
X0179642D01*
X0179487Y0262740D01*
D02*
G37*
G36*
X0183815Y0255955D02*
X0183789Y0255979D01*
X0183728Y0256000D01*
X0183635Y0256019D01*
X0183509Y0256035D01*
X0183157Y0256060D01*
X0182056Y0256080D01*
Y0258080D01*
X0182381Y0258081D01*
X0183728Y0258160D01*
X0183789Y0258181D01*
X0183815Y0258205D01*
Y0255955D01*
D02*
G37*
G36*
X0180901Y0254511D02*
X0180633Y0254230D01*
X0180180Y0253677D01*
X0179996Y0253406D01*
X0179841Y0253139D01*
X0179713Y0252874D01*
X0179614Y0252614D01*
X0179544Y0252356D01*
X0179501Y0252102D01*
X0179487Y0251851D01*
X0177125Y0254965D01*
X0177262Y0254836D01*
X0177432Y0254767D01*
X0177634Y0254758D01*
X0177868Y0254810D01*
X0178135Y0254923D01*
X0178434Y0255096D01*
X0178765Y0255329D01*
X0179129Y0255623D01*
X0179953Y0256391D01*
X0180901Y0254511D01*
D02*
G37*
G36*
X0169131Y0257054D02*
X0169191Y0256906D01*
X0169291Y0256776D01*
X0169431Y0256663D01*
X0169611Y0256568D01*
X0169831Y0256490D01*
X0170091Y0256429D01*
X0170391Y0256386D01*
X0170731Y0256360D01*
X0171111Y0256351D01*
Y0254351D01*
X0170731Y0254349D01*
X0169431Y0254258D01*
X0169291Y0254225D01*
X0169191Y0254186D01*
X0169131Y0254142D01*
X0169111Y0254093D01*
Y0257219D01*
X0169131Y0257054D01*
D02*
G37*
G36*
X0165789Y0254093D02*
X0165769Y0254200D01*
X0165709Y0254296D01*
X0165609Y0254380D01*
X0165469Y0254453D01*
X0165289Y0254515D01*
X0165069Y0254566D01*
X0164809Y0254605D01*
X0164509Y0254633D01*
X0163789Y0254656D01*
Y0256656D01*
X0164169Y0256662D01*
X0164809Y0256707D01*
X0165069Y0256746D01*
X0165289Y0256797D01*
X0165469Y0256858D01*
X0165609Y0256932D01*
X0165709Y0257016D01*
X0165769Y0257112D01*
X0165789Y0257219D01*
Y0254093D01*
D02*
G37*
G36*
X0159443Y0254656D02*
X0159062Y0254646D01*
X0158720Y0254616D01*
X0158419Y0254566D01*
X0158158Y0254496D01*
X0157937Y0254406D01*
X0157755Y0254296D01*
X0157614Y0254166D01*
X0157513Y0254016D01*
X0157452Y0253846D01*
X0157431Y0253656D01*
X0157443Y0255788D01*
X0157463Y0255953D01*
X0157523Y0256100D01*
X0157623Y0256231D01*
X0157763Y0256344D01*
X0157943Y0256439D01*
X0158163Y0256517D01*
X0158423Y0256578D01*
X0158723Y0256621D01*
X0159063Y0256647D01*
X0159443Y0256656D01*
Y0254656D01*
D02*
G37*
G36*
X0242321Y0252920D02*
X0243255Y0252900D01*
Y0248900D01*
X0242495Y0248895D01*
X0239895Y0248724D01*
X0239615Y0248661D01*
X0239415Y0248588D01*
X0239295Y0248505D01*
X0239255Y0248412D01*
Y0249026D01*
X0238321Y0248900D01*
Y0252900D01*
X0239081Y0252908D01*
X0239255Y0252921D01*
Y0253388D01*
X0239295Y0253295D01*
X0239415Y0253212D01*
X0239615Y0253139D01*
X0239895Y0253076D01*
X0240255Y0253022D01*
X0240458Y0253006D01*
X0240881Y0253035D01*
X0241321Y0253112D01*
X0241681Y0253205D01*
X0241961Y0253315D01*
X0242161Y0253442D01*
X0242281Y0253586D01*
X0242321Y0253746D01*
Y0252920D01*
D02*
G37*
G36*
X0149278Y0256805D02*
X0150015Y0256180D01*
X0150340Y0255953D01*
X0150637Y0255782D01*
X0150906Y0255668D01*
X0151146Y0255610D01*
X0151358Y0255609D01*
X0151541Y0255664D01*
X0151695Y0255776D01*
X0148879Y0252960D01*
X0148991Y0253114D01*
X0149046Y0253297D01*
X0149045Y0253509D01*
X0148987Y0253749D01*
X0148873Y0254017D01*
X0148702Y0254314D01*
X0148474Y0254640D01*
X0148190Y0254994D01*
X0147452Y0255788D01*
X0148867Y0257202D01*
X0149278Y0256805D01*
D02*
G37*
G36*
X0183815Y0250955D02*
X0183785Y0250979D01*
X0183717Y0251000D01*
X0183609Y0251019D01*
X0183462Y0251035D01*
X0182788Y0251069D01*
X0181764Y0251080D01*
Y0253080D01*
X0182144Y0253081D01*
X0183785Y0253181D01*
X0183815Y0253205D01*
Y0250955D01*
D02*
G37*
G36*
X0277049Y0252941D02*
X0277139Y0252913D01*
X0277289Y0252889D01*
X0277499Y0252868D01*
X0278489Y0252824D01*
X0280019Y0252810D01*
Y0249810D01*
X0277019Y0249649D01*
Y0252971D01*
X0277049Y0252941D01*
D02*
G37*
G36*
X0248633Y0253680D02*
X0248741Y0253622D01*
X0248921Y0253570D01*
X0249173Y0253525D01*
X0249497Y0253487D01*
X0250362Y0253431D01*
X0252200Y0253400D01*
Y0249400D01*
X0248597Y0249440D01*
Y0253746D01*
X0248633Y0253680D01*
D02*
G37*
G36*
X0165789Y0248581D02*
X0165769Y0248688D01*
X0165709Y0248784D01*
X0165609Y0248868D01*
X0165469Y0248941D01*
X0165289Y0249003D01*
X0165069Y0249054D01*
X0164809Y0249093D01*
X0164509Y0249122D01*
X0163789Y0249144D01*
Y0251144D01*
X0164169Y0251150D01*
X0164809Y0251195D01*
X0165069Y0251234D01*
X0165289Y0251285D01*
X0165469Y0251347D01*
X0165609Y0251420D01*
X0165709Y0251504D01*
X0165769Y0251600D01*
X0165789Y0251707D01*
Y0248581D01*
D02*
G37*
G36*
X0232979Y0253388D02*
Y0248412D01*
X0232939Y0248729D01*
X0232819Y0249012D01*
X0232619Y0249263D01*
X0232339Y0249479D01*
X0231979Y0249663D01*
X0231539Y0249813D01*
X0231019Y0249930D01*
X0230419Y0250013D01*
X0229739Y0250063D01*
X0228979Y0250080D01*
Y0254080D01*
X0232979Y0253388D01*
D02*
G37*
G36*
X0181689Y0246531D02*
X0181296Y0246124D01*
X0180677Y0245393D01*
X0180451Y0245069D01*
X0180281Y0244773D01*
X0180166Y0244504D01*
X0180107Y0244262D01*
X0180103Y0244048D01*
X0180155Y0243862D01*
X0180263Y0243703D01*
X0177545Y0246618D01*
X0177695Y0246501D01*
X0177874Y0246443D01*
X0178083Y0246441D01*
X0178322Y0246498D01*
X0178590Y0246611D01*
X0178888Y0246783D01*
X0179215Y0247012D01*
X0179571Y0247298D01*
X0180373Y0248044D01*
X0181689Y0246531D01*
D02*
G37*
G36*
X0226123Y0247425D02*
X0226174Y0247420D01*
X0226362Y0247411D01*
X0227632Y0247400D01*
Y0246400D01*
X0226103Y0246369D01*
Y0247431D01*
X0226123Y0247425D01*
D02*
G37*
G36*
X0228640Y0247805D02*
X0228669Y0247720D01*
X0228718Y0247645D01*
X0228788Y0247580D01*
X0228879Y0247525D01*
X0228991Y0247480D01*
X0229123Y0247445D01*
X0229276Y0247420D01*
X0229450Y0247405D01*
X0229644Y0247400D01*
Y0246400D01*
X0229476Y0246396D01*
X0229322Y0246382D01*
X0229181Y0246360D01*
X0229055Y0246329D01*
X0228942Y0246289D01*
X0228843Y0246240D01*
X0228757Y0246182D01*
X0228686Y0246115D01*
X0228628Y0246040D01*
X0228585Y0245955D01*
X0228632Y0247900D01*
X0228640Y0247805D01*
D02*
G37*
G36*
X0264334Y0244759D02*
X0264311Y0244818D01*
X0264242Y0244871D01*
X0264127Y0244918D01*
X0263967Y0244959D01*
X0263760Y0244993D01*
X0263508Y0245021D01*
X0262866Y0245059D01*
X0262040Y0245071D01*
Y0247571D01*
X0262476Y0247574D01*
X0263967Y0247684D01*
X0264127Y0247725D01*
X0264242Y0247772D01*
X0264311Y0247825D01*
X0264334Y0247884D01*
Y0244759D01*
D02*
G37*
G36*
X0291849Y0252366D02*
X0291894Y0252363D01*
X0292188Y0252354D01*
X0293216Y0252349D01*
X0293228Y0244622D01*
X0293206Y0245044D01*
X0293142Y0245467D01*
X0293035Y0245891D01*
X0292885Y0246315D01*
X0292693Y0246739D01*
X0292458Y0247163D01*
X0292181Y0247588D01*
X0291862Y0248013D01*
X0291499Y0248439D01*
X0291095Y0248864D01*
X0291831Y0252371D01*
X0291849Y0252366D01*
D02*
G37*
G36*
X0267484Y0247825D02*
X0267559Y0247772D01*
X0267684Y0247725D01*
X0267859Y0247684D01*
X0268084Y0247650D01*
X0268684Y0247599D01*
X0269959Y0247571D01*
Y0247019D01*
X0270234Y0246951D01*
X0270246Y0243821D01*
X0270220Y0244059D01*
X0270144Y0244271D01*
X0270018Y0244459D01*
X0269841Y0244621D01*
X0269615Y0244759D01*
X0269339Y0244871D01*
X0269013Y0244959D01*
X0268680Y0245014D01*
X0267859Y0244959D01*
X0267684Y0244918D01*
X0267559Y0244871D01*
X0267484Y0244818D01*
X0267459Y0244759D01*
Y0247884D01*
X0267484Y0247825D01*
D02*
G37*
G36*
X0171637Y0243307D02*
X0171617Y0243433D01*
X0171557Y0243545D01*
X0171457Y0243644D01*
X0171317Y0243730D01*
X0171137Y0243803D01*
X0170917Y0243863D01*
X0170657Y0243909D01*
X0170357Y0243942D01*
X0169637Y0243968D01*
Y0245968D01*
X0170017Y0245975D01*
X0170657Y0246028D01*
X0170917Y0246074D01*
X0171137Y0246134D01*
X0171317Y0246206D01*
X0171457Y0246292D01*
X0171557Y0246392D01*
X0171617Y0246504D01*
X0171637Y0246630D01*
Y0243307D01*
D02*
G37*
G36*
X0261617Y0244321D02*
X0261681Y0243559D01*
X0261720Y0243373D01*
X0261767Y0243220D01*
X0261823Y0243102D01*
X0261888Y0243018D01*
X0261961Y0242968D01*
X0262042Y0242952D01*
X0258687Y0242916D01*
X0258768Y0242934D01*
X0258840Y0242986D01*
X0258904Y0243073D01*
X0258959Y0243195D01*
X0259006Y0243350D01*
X0259044Y0243540D01*
X0259074Y0243764D01*
X0259108Y0244316D01*
X0259112Y0244644D01*
X0261612D01*
X0261617Y0244321D01*
D02*
G37*
G36*
X0282386Y0245659D02*
X0282461Y0245606D01*
X0282586Y0245559D01*
X0282761Y0245518D01*
X0282986Y0245484D01*
X0283586Y0245434D01*
X0284861Y0245406D01*
Y0242906D01*
X0284386Y0242903D01*
X0282761Y0242793D01*
X0282586Y0242753D01*
X0282461Y0242706D01*
X0282386Y0242653D01*
X0282361Y0242593D01*
Y0245719D01*
X0282386Y0245659D01*
D02*
G37*
G36*
X0277113Y0246418D02*
X0277189Y0246206D01*
X0277315Y0246018D01*
X0277491Y0245856D01*
X0277717Y0245718D01*
X0277993Y0245606D01*
X0278320Y0245518D01*
X0278411Y0245503D01*
X0278639Y0245518D01*
X0278814Y0245559D01*
X0278939Y0245606D01*
X0279014Y0245659D01*
X0279039Y0245719D01*
Y0245426D01*
X0279123Y0245418D01*
X0279599Y0245406D01*
Y0242906D01*
X0279124Y0242903D01*
X0279039Y0242897D01*
Y0242593D01*
X0279014Y0242653D01*
X0278939Y0242706D01*
X0278814Y0242753D01*
X0278639Y0242793D01*
X0278414Y0242828D01*
X0278244Y0242842D01*
X0277324Y0242778D01*
X0277199Y0242739D01*
X0277124Y0242694D01*
X0277099Y0242644D01*
X0277099Y0242894D01*
X0276539Y0242906D01*
Y0245406D01*
X0277014Y0245409D01*
X0277091Y0245414D01*
X0277087Y0246656D01*
X0277113Y0246418D01*
D02*
G37*
G36*
X0180168Y0243287D02*
X0180072Y0243227D01*
X0179988Y0243127D01*
X0179914Y0242987D01*
X0179852Y0242807D01*
X0179802Y0242587D01*
X0179762Y0242327D01*
X0179734Y0242027D01*
X0179731Y0241927D01*
X0179762Y0241482D01*
X0179802Y0241222D01*
X0179852Y0241002D01*
X0179914Y0240822D01*
X0179988Y0240682D01*
X0180072Y0240582D01*
X0180168Y0240522D01*
X0180275Y0240502D01*
X0177149D01*
X0177256Y0240522D01*
X0177352Y0240582D01*
X0177436Y0240682D01*
X0177509Y0240822D01*
X0177571Y0241002D01*
X0177622Y0241222D01*
X0177661Y0241482D01*
X0177689Y0241782D01*
X0177692Y0241882D01*
X0177661Y0242327D01*
X0177622Y0242587D01*
X0177571Y0242807D01*
X0177509Y0242987D01*
X0177436Y0243127D01*
X0177352Y0243227D01*
X0177256Y0243287D01*
X0177149Y0243307D01*
X0180275D01*
X0180168Y0243287D01*
D02*
G37*
G36*
X0171637Y0237180D02*
X0171617Y0237305D01*
X0171557Y0237418D01*
X0171457Y0237517D01*
X0171317Y0237603D01*
X0171137Y0237676D01*
X0170917Y0237735D01*
X0170657Y0237781D01*
X0170357Y0237814D01*
X0169637Y0237841D01*
Y0239841D01*
X0170017Y0239848D01*
X0170657Y0239900D01*
X0170917Y0239947D01*
X0171137Y0240006D01*
X0171317Y0240079D01*
X0171457Y0240165D01*
X0171557Y0240264D01*
X0171617Y0240376D01*
X0171637Y0240502D01*
Y0237180D01*
D02*
G37*
G36*
X0130455Y0236908D02*
X0130142Y0236901D01*
X0129842Y0236874D01*
X0129553Y0236826D01*
X0129276Y0236757D01*
X0129011Y0236669D01*
X0128757Y0236560D01*
X0128515Y0236430D01*
X0128285Y0236280D01*
X0128066Y0236110D01*
X0127859Y0235919D01*
X0126445Y0237333D01*
X0126636Y0237540D01*
X0126806Y0237759D01*
X0126956Y0237989D01*
X0127086Y0238231D01*
X0127195Y0238485D01*
X0127284Y0238750D01*
X0127352Y0239027D01*
X0127400Y0239316D01*
X0127427Y0239616D01*
X0127434Y0239929D01*
X0130455Y0236908D01*
D02*
G37*
G36*
X0180168Y0237160D02*
X0180072Y0237100D01*
X0179988Y0237000D01*
X0179914Y0236860D01*
X0179852Y0236680D01*
X0179802Y0236460D01*
X0179762Y0236200D01*
X0179734Y0235900D01*
X0179733Y0235852D01*
X0179762Y0235431D01*
X0179802Y0235171D01*
X0179852Y0234951D01*
X0179914Y0234771D01*
X0179988Y0234631D01*
X0180072Y0234531D01*
X0180168Y0234471D01*
X0180275Y0234451D01*
X0177149D01*
X0177256Y0234471D01*
X0177352Y0234531D01*
X0177436Y0234631D01*
X0177509Y0234771D01*
X0177571Y0234951D01*
X0177622Y0235171D01*
X0177661Y0235431D01*
X0177689Y0235731D01*
X0177691Y0235778D01*
X0177661Y0236200D01*
X0177622Y0236460D01*
X0177571Y0236680D01*
X0177509Y0236860D01*
X0177436Y0237000D01*
X0177352Y0237100D01*
X0177256Y0237160D01*
X0177149Y0237180D01*
X0180275D01*
X0180168Y0237160D01*
D02*
G37*
G36*
X0122720Y0237950D02*
X0122780Y0237610D01*
X0122880Y0237310D01*
X0123020Y0237050D01*
X0123200Y0236830D01*
X0123420Y0236650D01*
X0123680Y0236510D01*
X0123980Y0236410D01*
X0124320Y0236350D01*
X0124700Y0236330D01*
X0124114Y0234330D01*
X0123720Y0234316D01*
X0123338Y0234274D01*
X0122967Y0234203D01*
X0122608Y0234104D01*
X0122261Y0233977D01*
X0121925Y0233821D01*
X0121601Y0233637D01*
X0121289Y0233425D01*
X0120989Y0233185D01*
X0120700Y0232916D01*
X0119286Y0234330D01*
X0119554Y0234619D01*
X0119795Y0234919D01*
X0120007Y0235232D01*
X0120191Y0235555D01*
X0120346Y0235891D01*
X0120474Y0236238D01*
X0120573Y0236597D01*
X0120643Y0236968D01*
X0120686Y0237350D01*
X0120700Y0237744D01*
X0122700Y0238330D01*
X0122720Y0237950D01*
D02*
G37*
G36*
X0268050Y0234916D02*
X0267888Y0234896D01*
X0267744Y0234836D01*
X0267616Y0234736D01*
X0267506Y0234596D01*
X0267412Y0234416D01*
X0267336Y0234196D01*
X0267277Y0233936D01*
X0267234Y0233636D01*
X0267209Y0233296D01*
X0267200Y0232916D01*
X0265200D01*
X0265190Y0233298D01*
X0265160Y0233639D01*
X0265110Y0233941D01*
X0265040Y0234202D01*
X0264950Y0234423D01*
X0264840Y0234605D01*
X0264710Y0234746D01*
X0264560Y0234846D01*
X0264390Y0234907D01*
X0264200Y0234928D01*
X0268050Y0234916D01*
D02*
G37*
G36*
X0262899Y0233336D02*
X0262959Y0233166D01*
X0263060Y0233016D01*
X0263200Y0232886D01*
X0263382Y0232776D01*
X0263603Y0232686D01*
X0263864Y0232616D01*
X0264166Y0232566D01*
X0264508Y0232536D01*
X0264891Y0232526D01*
Y0230526D01*
X0264508Y0230516D01*
X0264166Y0230486D01*
X0263864Y0230436D01*
X0263603Y0230366D01*
X0263382Y0230276D01*
X0263200Y0230166D01*
X0263060Y0230036D01*
X0262959Y0229886D01*
X0262899Y0229716D01*
X0262878Y0229526D01*
Y0230199D01*
X0262825Y0230166D01*
X0262684Y0230036D01*
X0262583Y0229886D01*
X0262523Y0229716D01*
X0262503Y0229526D01*
Y0233526D01*
X0262523Y0233336D01*
X0262583Y0233166D01*
X0262684Y0233016D01*
X0262825Y0232886D01*
X0262878Y0232853D01*
Y0233526D01*
X0262899Y0233336D01*
D02*
G37*
G36*
X0174880Y0228628D02*
X0172380D01*
X0172373Y0229103D01*
X0172313Y0229904D01*
X0172261Y0230228D01*
X0172194Y0230504D01*
X0172113Y0230729D01*
X0172016Y0230904D01*
X0171905Y0231029D01*
X0171778Y0231103D01*
X0171637Y0231129D01*
X0174763D01*
X0174880Y0228628D01*
D02*
G37*
G36*
X0111598Y0223814D02*
X0111330Y0223532D01*
X0111089Y0223249D01*
X0110877Y0222966D01*
X0110693Y0222683D01*
X0110538Y0222400D01*
X0110410Y0222117D01*
X0110311Y0221834D01*
X0110241Y0221552D01*
X0110198Y0221269D01*
X0110184Y0220986D01*
Y0226643D01*
X0110198Y0226388D01*
X0110241Y0226190D01*
X0110311Y0226049D01*
X0110410Y0225964D01*
X0110538Y0225936D01*
X0110693Y0225964D01*
X0110877Y0226049D01*
X0111089Y0226190D01*
X0111330Y0226388D01*
X0111598Y0226643D01*
Y0223814D01*
D02*
G37*
G36*
X0250283Y0246826D02*
X0250398Y0246653D01*
X0253334Y0243717D01*
X0253535Y0243418D01*
X0253606Y0243347D01*
X0253661Y0243263D01*
X0253745Y0243207D01*
X0253816Y0243136D01*
X0253909Y0243098D01*
X0253992Y0243042D01*
X0254091Y0243022D01*
X0254183Y0242984D01*
X0254596Y0242131D01*
Y0238149D01*
X0254584Y0238132D01*
X0254572Y0238102D01*
X0254569Y0238099D01*
X0254560Y0238095D01*
X0254582D01*
X0254490Y0238048D01*
X0254443Y0238010D01*
X0254387Y0237987D01*
X0254366Y0237973D01*
X0254348Y0237955D01*
X0254326Y0237945D01*
X0254321Y0237941D01*
X0254320Y0237940D01*
X0254264Y0237879D01*
X0254195Y0237832D01*
X0254182Y0237818D01*
X0254171Y0237807D01*
X0254128Y0237741D01*
X0254071Y0237687D01*
X0254040Y0237643D01*
X0254039Y0237641D01*
X0254010Y0237577D01*
X0253965Y0237521D01*
X0253965Y0237520D01*
X0253926Y0237446D01*
X0253908Y0237386D01*
X0253876Y0237333D01*
X0253868Y0237312D01*
X0253834Y0237222D01*
X0253825Y0237169D01*
X0253802Y0237121D01*
X0253763Y0236971D01*
X0253760Y0236925D01*
X0253744Y0236883D01*
X0253712Y0236694D01*
X0253713Y0236655D01*
X0253702Y0236618D01*
X0253693Y0236519D01*
X0253698Y0236472D01*
X0253689Y0236426D01*
Y0235600D01*
X0253698Y0235554D01*
X0253693Y0235507D01*
X0253702Y0235408D01*
X0253713Y0235371D01*
X0253712Y0235332D01*
X0253744Y0235143D01*
X0253760Y0235101D01*
X0253763Y0235055D01*
X0253802Y0234905D01*
X0253825Y0234857D01*
X0253834Y0234804D01*
X0253876Y0234693D01*
X0253908Y0234640D01*
X0253926Y0234580D01*
X0253965Y0234505D01*
X0254010Y0234450D01*
X0254039Y0234385D01*
X0254071Y0234339D01*
X0254128Y0234285D01*
X0254171Y0234219D01*
X0254184Y0234206D01*
X0254196Y0234194D01*
X0254264Y0234147D01*
X0254320Y0234085D01*
X0254326Y0234081D01*
X0254348Y0234070D01*
X0254366Y0234053D01*
X0254387Y0234039D01*
X0254443Y0234016D01*
X0254490Y0233978D01*
X0254582Y0233931D01*
X0254560D01*
X0254569Y0233927D01*
X0254572Y0233924D01*
X0254584Y0233894D01*
X0254596Y0233877D01*
Y0229175D01*
X0254584Y0229158D01*
X0254572Y0229128D01*
X0254569Y0229125D01*
X0254560Y0229121D01*
X0254582D01*
X0254490Y0229074D01*
X0254443Y0229036D01*
X0254387Y0229013D01*
X0254366Y0228999D01*
X0254348Y0228981D01*
X0254326Y0228971D01*
X0254321Y0228967D01*
X0254320Y0228966D01*
X0254264Y0228905D01*
X0254195Y0228858D01*
X0254182Y0228844D01*
X0254171Y0228833D01*
X0254128Y0228767D01*
X0254071Y0228713D01*
X0254040Y0228669D01*
X0254039Y0228667D01*
X0254010Y0228603D01*
X0253965Y0228547D01*
X0253965Y0228546D01*
X0253926Y0228472D01*
X0253908Y0228412D01*
X0253876Y0228359D01*
X0253868Y0228338D01*
X0253834Y0228248D01*
X0253825Y0228195D01*
X0253802Y0228147D01*
X0253763Y0227997D01*
X0253760Y0227951D01*
X0253744Y0227909D01*
X0253712Y0227720D01*
X0253713Y0227681D01*
X0253702Y0227644D01*
X0253693Y0227545D01*
X0253698Y0227498D01*
X0253689Y0227452D01*
Y0225217D01*
X0251649D01*
Y0227452D01*
X0251640Y0227498D01*
X0251645Y0227545D01*
X0251636Y0227644D01*
X0251625Y0227681D01*
X0251626Y0227720D01*
X0251594Y0227909D01*
X0251578Y0227951D01*
X0251575Y0227997D01*
X0251536Y0228147D01*
X0251513Y0228195D01*
X0251504Y0228248D01*
X0251462Y0228359D01*
X0251430Y0228412D01*
X0251412Y0228472D01*
X0251373Y0228547D01*
X0251328Y0228603D01*
X0251299Y0228667D01*
X0251267Y0228713D01*
X0251210Y0228767D01*
X0251167Y0228833D01*
X0251154Y0228846D01*
X0251142Y0228858D01*
X0251074Y0228905D01*
X0251018Y0228966D01*
X0251012Y0228971D01*
X0250990Y0228982D01*
X0250972Y0228999D01*
X0250951Y0229013D01*
X0250895Y0229036D01*
X0250848Y0229074D01*
X0250756Y0229121D01*
X0250778D01*
X0250769Y0229125D01*
X0250766Y0229128D01*
X0250754Y0229158D01*
X0250730Y0229193D01*
X0250697Y0229363D01*
Y0233689D01*
X0250730Y0233859D01*
X0250754Y0233894D01*
X0250766Y0233924D01*
X0250769Y0233927D01*
X0250778Y0233931D01*
X0250756D01*
X0250848Y0233978D01*
X0250895Y0234016D01*
X0250951Y0234038D01*
X0250972Y0234053D01*
X0250990Y0234070D01*
X0251012Y0234081D01*
X0251017Y0234085D01*
X0251018Y0234086D01*
X0251074Y0234147D01*
X0251143Y0234194D01*
X0251156Y0234208D01*
X0251167Y0234219D01*
X0251210Y0234285D01*
X0251267Y0234339D01*
X0251298Y0234383D01*
X0251299Y0234385D01*
X0251328Y0234450D01*
X0251373Y0234505D01*
X0251373Y0234506D01*
X0251412Y0234580D01*
X0251430Y0234640D01*
X0251462Y0234693D01*
X0251470Y0234714D01*
X0251504Y0234804D01*
X0251513Y0234857D01*
X0251536Y0234905D01*
X0251575Y0235055D01*
X0251578Y0235101D01*
X0251594Y0235143D01*
X0251626Y0235332D01*
X0251625Y0235371D01*
X0251636Y0235408D01*
X0251645Y0235507D01*
X0251640Y0235554D01*
X0251649Y0235600D01*
Y0236426D01*
X0251640Y0236472D01*
X0251645Y0236519D01*
X0251636Y0236618D01*
X0251625Y0236655D01*
X0251626Y0236694D01*
X0251594Y0236883D01*
X0251578Y0236925D01*
X0251575Y0236971D01*
X0251536Y0237121D01*
X0251513Y0237169D01*
X0251504Y0237222D01*
X0251462Y0237333D01*
X0251430Y0237386D01*
X0251412Y0237446D01*
X0251373Y0237521D01*
X0251328Y0237577D01*
X0251299Y0237641D01*
X0251267Y0237687D01*
X0251210Y0237741D01*
X0251167Y0237807D01*
X0251154Y0237820D01*
X0251142Y0237832D01*
X0251074Y0237879D01*
X0251018Y0237941D01*
X0251012Y0237945D01*
X0250990Y0237956D01*
X0250972Y0237973D01*
X0250951Y0237987D01*
X0250895Y0238010D01*
X0250848Y0238048D01*
X0250756Y0238095D01*
X0250778D01*
X0250769Y0238099D01*
X0250766Y0238102D01*
X0250754Y0238132D01*
X0250730Y0238167D01*
X0250697Y0238337D01*
Y0242663D01*
X0250730Y0242833D01*
X0250882Y0243060D01*
X0250902Y0243107D01*
X0250934Y0243146D01*
X0250977Y0243289D01*
X0251034Y0243428D01*
Y0243478D01*
X0251049Y0243527D01*
X0251095Y0243988D01*
X0251090Y0244038D01*
X0251099Y0244088D01*
X0251070Y0244235D01*
X0251056Y0244384D01*
X0251032Y0244428D01*
X0251022Y0244478D01*
X0250939Y0244603D01*
X0250868Y0244735D01*
X0250829Y0244767D01*
X0250801Y0244809D01*
X0249518Y0246092D01*
X0249457Y0246132D01*
X0249433Y0246481D01*
X0249909Y0246912D01*
X0250283Y0246826D01*
D02*
G37*
G36*
X0303200Y0254500D02*
Y0186500D01*
X0246293Y0186500D01*
X0241170Y0191623D01*
Y0234000D01*
X0221741D01*
X0221732Y0243978D01*
X0221944Y0244288D01*
X0222731Y0244875D01*
X0228440D01*
X0228909Y0244968D01*
X0229109Y0245102D01*
X0229242Y0245175D01*
X0229261Y0245200D01*
X0229288Y0245216D01*
X0229294Y0245226D01*
X0229306Y0245234D01*
X0229391Y0245361D01*
X0229446Y0245370D01*
X0229458Y0245371D01*
X0248797D01*
X0250080Y0244088D01*
X0250034Y0243627D01*
X0249770Y0243231D01*
X0249677Y0242764D01*
Y0238236D01*
X0249770Y0237769D01*
X0249906Y0237566D01*
X0249980Y0237434D01*
X0250010Y0237409D01*
X0250034Y0237373D01*
X0250173Y0237281D01*
X0250292Y0237187D01*
X0250384Y0237140D01*
X0250406Y0237125D01*
X0250412Y0237121D01*
X0250436Y0237096D01*
X0250469Y0237050D01*
X0250508Y0236975D01*
X0250550Y0236863D01*
X0250589Y0236713D01*
X0250621Y0236525D01*
X0250630Y0236426D01*
Y0235600D01*
X0250621Y0235501D01*
X0250589Y0235313D01*
X0250550Y0235163D01*
X0250508Y0235051D01*
X0250469Y0234976D01*
X0250436Y0234930D01*
X0250412Y0234905D01*
X0250406Y0234901D01*
X0250384Y0234886D01*
X0250292Y0234839D01*
X0250173Y0234745D01*
X0250034Y0234653D01*
X0250010Y0234617D01*
X0249980Y0234593D01*
X0249906Y0234460D01*
X0249770Y0234257D01*
X0249677Y0233790D01*
Y0229262D01*
X0249770Y0228795D01*
X0249906Y0228592D01*
X0249980Y0228460D01*
X0250010Y0228435D01*
X0250034Y0228399D01*
X0250173Y0228307D01*
X0250292Y0228213D01*
X0250384Y0228166D01*
X0250406Y0228151D01*
X0250412Y0228147D01*
X0250436Y0228122D01*
X0250469Y0228076D01*
X0250508Y0228001D01*
X0250550Y0227889D01*
X0250589Y0227739D01*
X0250621Y0227551D01*
X0250630Y0227452D01*
Y0222431D01*
X0250785Y0221651D01*
X0251227Y0220989D01*
X0251549Y0220668D01*
X0251637Y0220556D01*
X0251716Y0220445D01*
X0251768Y0220357D01*
X0251787Y0220320D01*
X0251665Y0219400D01*
X0251803Y0218356D01*
X0252206Y0217383D01*
X0252847Y0216547D01*
X0253683Y0215906D01*
X0254656Y0215503D01*
X0255700Y0215366D01*
X0256744Y0215503D01*
X0257717Y0215906D01*
X0258553Y0216547D01*
X0259194Y0217383D01*
X0259597Y0218356D01*
X0259735Y0219400D01*
X0259597Y0220444D01*
X0259194Y0221417D01*
X0258553Y0222253D01*
X0257717Y0222894D01*
X0256744Y0223297D01*
X0255700Y0223434D01*
X0254708Y0224313D01*
Y0227452D01*
X0254717Y0227551D01*
X0254749Y0227739D01*
X0254788Y0227889D01*
X0254830Y0228001D01*
X0254869Y0228076D01*
X0254902Y0228122D01*
X0254926Y0228147D01*
X0254932Y0228151D01*
X0254954Y0228166D01*
X0255046Y0228213D01*
X0255165Y0228307D01*
X0255304Y0228399D01*
X0255328Y0228435D01*
X0255358Y0228460D01*
X0255432Y0228592D01*
X0255568Y0228795D01*
X0255661Y0229262D01*
Y0233790D01*
X0255568Y0234257D01*
X0255432Y0234460D01*
X0255358Y0234593D01*
X0255328Y0234617D01*
X0255304Y0234653D01*
X0255165Y0234745D01*
X0255046Y0234839D01*
X0254954Y0234886D01*
X0254932Y0234901D01*
X0254926Y0234905D01*
X0254902Y0234930D01*
X0254869Y0234976D01*
X0254830Y0235051D01*
X0254788Y0235163D01*
X0254749Y0235313D01*
X0254717Y0235501D01*
X0254708Y0235600D01*
Y0236426D01*
X0254717Y0236525D01*
X0254749Y0236713D01*
X0254788Y0236863D01*
X0254830Y0236975D01*
X0254869Y0237050D01*
X0254902Y0237096D01*
X0254926Y0237121D01*
X0254932Y0237125D01*
X0254954Y0237140D01*
X0255046Y0237187D01*
X0255165Y0237281D01*
X0255304Y0237373D01*
X0255328Y0237409D01*
X0255358Y0237434D01*
X0255432Y0237566D01*
X0255568Y0237769D01*
X0255661Y0238236D01*
Y0242764D01*
X0255568Y0243231D01*
X0255304Y0243627D01*
X0254908Y0243891D01*
X0254441Y0243984D01*
X0254382D01*
X0254126Y0244367D01*
X0251119Y0247374D01*
X0251534Y0248374D01*
X0259434D01*
X0259848Y0247374D01*
X0258740Y0246266D01*
X0258243Y0245522D01*
X0258068Y0244644D01*
Y0244020D01*
X0258059Y0243863D01*
X0258039Y0243714D01*
X0257909Y0243627D01*
X0257644Y0243231D01*
X0257551Y0242764D01*
Y0238236D01*
X0257644Y0237769D01*
X0257909Y0237373D01*
X0258304Y0237109D01*
X0258771Y0237016D01*
X0262315D01*
X0262731Y0236674D01*
Y0235352D01*
X0262315Y0235010D01*
X0258771D01*
X0258304Y0234917D01*
X0257909Y0234653D01*
X0257644Y0234257D01*
X0257551Y0233790D01*
Y0229262D01*
X0257644Y0228795D01*
X0257909Y0228399D01*
X0258304Y0228135D01*
X0258771Y0228042D01*
X0262315D01*
X0262782Y0228135D01*
X0263177Y0228399D01*
X0263327Y0228623D01*
X0263390Y0228665D01*
X0263520Y0228733D01*
X0263554Y0228775D01*
X0263599Y0228805D01*
X0263681Y0228926D01*
X0263774Y0229039D01*
X0263790Y0229091D01*
X0263821Y0229136D01*
X0263849Y0229279D01*
X0263880Y0229378D01*
X0263928Y0229398D01*
X0264080Y0229438D01*
X0264294Y0229474D01*
X0264444Y0229487D01*
X0264932D01*
X0265712Y0229642D01*
X0266374Y0230084D01*
X0267642Y0231352D01*
X0268084Y0232014D01*
X0268239Y0232794D01*
Y0233406D01*
X0268248Y0233526D01*
X0268280Y0233751D01*
X0268315Y0233904D01*
X0269062D01*
Y0234875D01*
X0269070Y0234913D01*
X0269062Y0234951D01*
Y0240698D01*
X0269222Y0241632D01*
X0277007D01*
X0277025Y0241627D01*
X0277064Y0241632D01*
X0277102Y0241625D01*
X0278027Y0241581D01*
Y0241581D01*
X0279001D01*
X0279039Y0241574D01*
X0279042Y0241574D01*
X0279044Y0241574D01*
X0279081Y0241581D01*
X0282319D01*
X0282356Y0241574D01*
X0282358Y0241574D01*
X0282361Y0241574D01*
X0282399Y0241581D01*
X0283373D01*
Y0241813D01*
X0284103Y0241862D01*
X0286647D01*
X0286893Y0241616D01*
Y0222767D01*
X0286855Y0222551D01*
X0286823Y0222512D01*
X0286628Y0222340D01*
X0286493Y0222261D01*
X0286355Y0222209D01*
X0286048Y0222155D01*
X0285974Y0222160D01*
X0285616Y0222253D01*
X0284780Y0222894D01*
X0283807Y0223297D01*
X0282763Y0223434D01*
X0281719Y0223297D01*
X0280746Y0222894D01*
X0279910Y0222253D01*
X0279269Y0221417D01*
X0278866Y0220444D01*
X0278728Y0219400D01*
X0278866Y0218356D01*
X0279269Y0217383D01*
X0279910Y0216547D01*
X0280746Y0215906D01*
X0281719Y0215503D01*
X0282763Y0215366D01*
X0283807Y0215503D01*
X0284780Y0215906D01*
X0285616Y0216547D01*
X0285672Y0216621D01*
X0285738Y0216682D01*
X0285851Y0216768D01*
X0285974Y0216846D01*
X0286110Y0216915D01*
X0286261Y0216976D01*
X0286430Y0217029D01*
X0286616Y0217072D01*
X0286821Y0217103D01*
X0286851Y0217106D01*
X0291285D01*
X0291492Y0217088D01*
X0291781Y0217040D01*
X0291998Y0216982D01*
X0292140Y0216924D01*
X0292204Y0216885D01*
Y0212509D01*
X0302196D01*
Y0229469D01*
X0292204D01*
X0291481Y0230138D01*
Y0235731D01*
X0292204Y0236400D01*
X0302196D01*
Y0253361D01*
X0293258D01*
X0293221Y0253368D01*
X0292996Y0253369D01*
X0292898Y0253500D01*
X0293400Y0254500D01*
X0303200D01*
D02*
G37*
G36*
X0290462Y0222675D02*
X0290537Y0222250D01*
X0290662Y0221875D01*
X0290837Y0221550D01*
X0291062Y0221275D01*
X0291337Y0221050D01*
X0291662Y0220875D01*
X0291998Y0220763D01*
X0292324Y0220850D01*
X0292600Y0220963D01*
X0292826Y0221100D01*
X0293002Y0221263D01*
X0293127Y0221450D01*
X0293203Y0221662D01*
X0293228Y0221900D01*
Y0216900D01*
X0293203Y0217138D01*
X0293127Y0217350D01*
X0293002Y0217537D01*
X0292826Y0217700D01*
X0292600Y0217838D01*
X0292324Y0217950D01*
X0291997Y0218038D01*
X0291620Y0218100D01*
X0291193Y0218138D01*
X0290716Y0218150D01*
Y0219169D01*
X0289187Y0218150D01*
X0287290Y0219414D01*
Y0218150D01*
X0286987Y0218142D01*
X0286698Y0218116D01*
X0286424Y0218074D01*
X0286164Y0218014D01*
X0285918Y0217937D01*
X0285687Y0217844D01*
X0285470Y0217734D01*
X0285267Y0217606D01*
X0285079Y0217461D01*
X0284905Y0217300D01*
Y0221500D01*
X0285079Y0221339D01*
X0285267Y0221194D01*
X0285470Y0221066D01*
X0285687Y0220956D01*
X0285918Y0220863D01*
X0286164Y0220786D01*
X0286328Y0220748D01*
X0286337Y0220750D01*
X0286712Y0220875D01*
X0287037Y0221050D01*
X0287312Y0221275D01*
X0287537Y0221550D01*
X0287712Y0221875D01*
X0287837Y0222250D01*
X0287912Y0222675D01*
X0287937Y0223150D01*
X0290437D01*
X0290462Y0222675D01*
D02*
G37*
G36*
X0253570Y0222952D02*
X0253931Y0222647D01*
X0254099Y0222529D01*
X0254258Y0222433D01*
X0254409Y0222361D01*
X0254551Y0222311D01*
X0254684Y0222284D01*
X0254808Y0222280D01*
X0254925Y0222298D01*
X0252802Y0220175D01*
X0252820Y0220291D01*
X0252816Y0220416D01*
X0252789Y0220550D01*
X0252739Y0220691D01*
X0252667Y0220842D01*
X0252571Y0221001D01*
X0252453Y0221169D01*
X0252312Y0221345D01*
X0251962Y0221724D01*
X0253376Y0223138D01*
X0253570Y0222952D01*
D02*
G37*
G36*
X0141617Y0220307D02*
X0142609Y0219457D01*
X0143033Y0219155D01*
X0143410Y0218936D01*
X0143740Y0218799D01*
X0144023Y0218745D01*
X0144258Y0218773D01*
X0144446Y0218884D01*
X0144586Y0219077D01*
X0142244Y0214372D01*
X0142331Y0214618D01*
X0142359Y0214889D01*
X0142329Y0215183D01*
X0142239Y0215500D01*
X0142091Y0215842D01*
X0141883Y0216208D01*
X0141617Y0216597D01*
X0141291Y0217010D01*
X0140907Y0217447D01*
X0140464Y0217908D01*
X0141051Y0220857D01*
X0141617Y0220307D01*
D02*
G37*
G36*
X0178642Y0208004D02*
X0178672Y0207664D01*
X0178722Y0207364D01*
X0178792Y0207104D01*
X0178882Y0206884D01*
X0178992Y0206704D01*
X0179122Y0206564D01*
X0179272Y0206464D01*
X0179442Y0206404D01*
X0179632Y0206384D01*
X0175632D01*
X0175822Y0206404D01*
X0175992Y0206464D01*
X0176142Y0206564D01*
X0176272Y0206704D01*
X0176382Y0206884D01*
X0176472Y0207104D01*
X0176542Y0207364D01*
X0176592Y0207664D01*
X0176622Y0208004D01*
X0176632Y0208384D01*
X0178632D01*
X0178642Y0208004D01*
D02*
G37*
G36*
X0133313Y0204506D02*
X0133431Y0204326D01*
X0133573Y0204168D01*
X0133740Y0204030D01*
X0133931Y0203914D01*
X0134146Y0203819D01*
X0134386Y0203745D01*
X0134651Y0203692D01*
X0134939Y0203661D01*
X0135253Y0203650D01*
X0134001Y0201150D01*
X0133689Y0201146D01*
X0132585Y0201060D01*
X0132344Y0201021D01*
X0131907Y0200920D01*
X0131710Y0200859D01*
X0131527Y0200790D01*
X0133220Y0204707D01*
X0133313Y0204506D01*
D02*
G37*
G36*
X0160173Y0204016D02*
X0160225Y0203939D01*
X0160311Y0203872D01*
X0160431Y0203813D01*
X0160585Y0203763D01*
X0160773Y0203722D01*
X0160996Y0203691D01*
X0161253Y0203668D01*
X0161871Y0203650D01*
Y0201150D01*
X0161545Y0201146D01*
X0160773Y0201078D01*
X0160585Y0201037D01*
X0160431Y0200987D01*
X0160311Y0200928D01*
X0160225Y0200861D01*
X0160173Y0200784D01*
X0160156Y0200698D01*
Y0204102D01*
X0160173Y0204016D01*
D02*
G37*
G36*
X0145244Y0199900D02*
X0145219Y0200137D01*
X0145143Y0200350D01*
X0145018Y0200537D01*
X0144842Y0200700D01*
X0144616Y0200837D01*
X0144339Y0200950D01*
X0144013Y0201038D01*
X0143636Y0201100D01*
X0143209Y0201137D01*
X0142732Y0201150D01*
Y0203650D01*
X0143209Y0203662D01*
X0143636Y0203700D01*
X0144013Y0203763D01*
X0144339Y0203850D01*
X0144616Y0203962D01*
X0144842Y0204100D01*
X0145018Y0204262D01*
X0145143Y0204450D01*
X0145219Y0204662D01*
X0145244Y0204900D01*
Y0199900D01*
D02*
G37*
G36*
X0110186Y0197686D02*
X0110194Y0197612D01*
X0110205Y0197553D01*
X0110222Y0197508D01*
X0110244Y0197477D01*
X0110270Y0197460D01*
X0110301Y0197458D01*
X0110336Y0197470D01*
X0110377Y0197496D01*
X0110422Y0197536D01*
X0111598Y0195884D01*
X0111330Y0195611D01*
X0110538Y0194704D01*
X0110410Y0194525D01*
X0110311Y0194364D01*
X0110241Y0194222D01*
X0110198Y0194098D01*
X0110184Y0193994D01*
Y0197774D01*
X0110186Y0197686D01*
D02*
G37*
G36*
X0127832Y0197938D02*
X0128753Y0197158D01*
X0129160Y0196874D01*
X0129532Y0196660D01*
X0129867Y0196518D01*
X0130167Y0196446D01*
X0130432Y0196445D01*
X0130661Y0196514D01*
X0130854Y0196654D01*
X0127331Y0193131D01*
X0127471Y0193324D01*
X0127541Y0193553D01*
X0127539Y0193818D01*
X0127467Y0194118D01*
X0127325Y0194454D01*
X0127111Y0194825D01*
X0126827Y0195232D01*
X0126473Y0195675D01*
X0125551Y0196667D01*
X0127319Y0198434D01*
X0127832Y0197938D01*
D02*
G37*
%LPC*%
G36*
X0182197Y0337729D02*
X0181336Y0337615D01*
X0180533Y0337282D01*
X0179844Y0336754D01*
X0179315Y0336064D01*
X0178982Y0335262D01*
X0178869Y0334400D01*
X0178982Y0333539D01*
X0179315Y0332736D01*
X0179844Y0332046D01*
X0180533Y0331518D01*
X0181336Y0331185D01*
X0182197Y0331071D01*
X0183059Y0331185D01*
X0183862Y0331518D01*
X0184551Y0332046D01*
X0185080Y0332736D01*
X0185413Y0333539D01*
X0185526Y0334400D01*
X0185413Y0335262D01*
X0185080Y0336064D01*
X0184551Y0336754D01*
X0183862Y0337282D01*
X0183059Y0337615D01*
X0182197Y0337729D01*
D02*
G37*
G36*
X0157700D02*
X0156839Y0337615D01*
X0156036Y0337282D01*
X0155346Y0336754D01*
X0154817Y0336064D01*
X0154485Y0335262D01*
X0154372Y0334400D01*
X0154485Y0333539D01*
X0154817Y0332736D01*
X0155346Y0332046D01*
X0156036Y0331518D01*
X0156839Y0331185D01*
X0157700Y0331071D01*
X0158562Y0331185D01*
X0159364Y0331518D01*
X0160054Y0332046D01*
X0160582Y0332736D01*
X0160915Y0333539D01*
X0161029Y0334400D01*
X0160915Y0335262D01*
X0160582Y0336064D01*
X0160054Y0336754D01*
X0159364Y0337282D01*
X0158562Y0337615D01*
X0157700Y0337729D01*
D02*
G37*
G36*
X0111196Y0311454D02*
X0101204D01*
Y0294493D01*
X0111196D01*
Y0300831D01*
X0111231Y0300845D01*
X0111381Y0300886D01*
X0111593Y0300921D01*
X0111740Y0300934D01*
X0112650D01*
X0113419Y0300781D01*
X0114258Y0300948D01*
X0114969Y0301423D01*
X0115444Y0302134D01*
X0115611Y0302973D01*
X0115444Y0303812D01*
X0114969Y0304523D01*
X0114258Y0304998D01*
X0113419Y0305165D01*
X0112650Y0305012D01*
X0111740D01*
X0111593Y0305025D01*
X0111381Y0305061D01*
X0111231Y0305101D01*
X0111196Y0305115D01*
Y0311454D01*
D02*
G37*
G36*
X0132151Y0306750D02*
X0129100D01*
X0128114Y0306554D01*
X0127279Y0305995D01*
X0126721Y0305160D01*
X0126525Y0304174D01*
Y0301123D01*
X0126721Y0300138D01*
X0127279Y0299302D01*
X0128114Y0298744D01*
X0129100Y0298548D01*
X0132151D01*
X0133136Y0298744D01*
X0133972Y0299302D01*
X0134530Y0300138D01*
X0134726Y0301123D01*
Y0304174D01*
X0134530Y0305160D01*
X0133972Y0305995D01*
X0133136Y0306554D01*
X0132151Y0306750D01*
D02*
G37*
G36*
X0111196Y0256025D02*
X0101204D01*
Y0239064D01*
X0111196D01*
Y0245112D01*
X0111231Y0245126D01*
X0111381Y0245167D01*
X0111593Y0245202D01*
X0111740Y0245215D01*
X0114431D01*
X0115200Y0245062D01*
X0116039Y0245229D01*
X0116750Y0245704D01*
X0117225Y0246415D01*
X0117392Y0247254D01*
X0117225Y0248093D01*
X0116750Y0248804D01*
X0116039Y0249279D01*
X0115200Y0249446D01*
X0114431Y0249293D01*
X0111740D01*
X0111593Y0249306D01*
X0111381Y0249342D01*
X0111231Y0249382D01*
X0111196Y0249396D01*
Y0256025D01*
D02*
G37*
G36*
X0149700Y0243912D02*
X0148861Y0243745D01*
X0148150Y0243270D01*
X0147675Y0242559D01*
X0147508Y0241720D01*
X0147620Y0241155D01*
X0147065Y0240179D01*
X0144763D01*
Y0230699D01*
X0154637D01*
Y0240179D01*
X0152335D01*
X0151780Y0241155D01*
X0151892Y0241720D01*
X0151725Y0242559D01*
X0151250Y0243270D01*
X0150539Y0243745D01*
X0149700Y0243912D01*
D02*
G37*
G36*
X0154700Y0223609D02*
X0153861Y0223443D01*
X0153150Y0222967D01*
X0152675Y0222256D01*
X0152508Y0221417D01*
X0152582Y0221044D01*
Y0220642D01*
X0152569Y0220493D01*
X0152533Y0220278D01*
X0152493Y0220126D01*
X0152482Y0220101D01*
X0151062D01*
Y0210620D01*
X0158180D01*
Y0220101D01*
X0157572D01*
X0157482Y0220151D01*
X0156829Y0221101D01*
X0156892Y0221417D01*
X0156725Y0222256D01*
X0156250Y0222967D01*
X0155539Y0223443D01*
X0154700Y0223609D01*
D02*
G37*
%LPD*%
G36*
X0110204Y0304783D02*
X0110264Y0304613D01*
X0110364Y0304463D01*
X0110504Y0304333D01*
X0110684Y0304223D01*
X0110904Y0304133D01*
X0111164Y0304063D01*
X0111464Y0304013D01*
X0111804Y0303983D01*
X0112184Y0303973D01*
Y0301973D01*
X0111804Y0301963D01*
X0111464Y0301933D01*
X0111164Y0301883D01*
X0110904Y0301813D01*
X0110684Y0301723D01*
X0110504Y0301613D01*
X0110364Y0301483D01*
X0110264Y0301333D01*
X0110204Y0301163D01*
X0110184Y0300973D01*
Y0304973D01*
X0110204Y0304783D01*
D02*
G37*
G36*
Y0249064D02*
X0110264Y0248894D01*
X0110364Y0248744D01*
X0110504Y0248614D01*
X0110684Y0248504D01*
X0110904Y0248414D01*
X0111164Y0248344D01*
X0111464Y0248294D01*
X0111804Y0248264D01*
X0112184Y0248254D01*
Y0246254D01*
X0111804Y0246244D01*
X0111464Y0246214D01*
X0111164Y0246164D01*
X0110904Y0246094D01*
X0110684Y0246004D01*
X0110504Y0245894D01*
X0110364Y0245764D01*
X0110264Y0245614D01*
X0110204Y0245444D01*
X0110184Y0245254D01*
Y0249254D01*
X0110204Y0249064D01*
D02*
G37*
G36*
X0150710Y0240785D02*
X0150740Y0240443D01*
X0150790Y0240141D01*
X0150860Y0239880D01*
X0150950Y0239658D01*
X0151060Y0239477D01*
X0151190Y0239337D01*
X0151340Y0239236D01*
X0151510Y0239176D01*
X0151700Y0239156D01*
X0147700D01*
X0147890Y0239176D01*
X0148060Y0239236D01*
X0148210Y0239337D01*
X0148340Y0239477D01*
X0148450Y0239658D01*
X0148540Y0239880D01*
X0148610Y0240141D01*
X0148660Y0240443D01*
X0148690Y0240785D01*
X0148700Y0241167D01*
X0150700D01*
X0150710Y0240785D01*
D02*
G37*
G36*
X0155631Y0220707D02*
X0155661Y0220364D01*
X0155711Y0220063D01*
X0155781Y0219801D01*
X0155871Y0219580D01*
X0155981Y0219399D01*
X0156111Y0219258D01*
X0156261Y0219157D01*
X0156431Y0219097D01*
X0156621Y0219077D01*
X0152621D01*
X0152811Y0219097D01*
X0152981Y0219157D01*
X0153131Y0219258D01*
X0153261Y0219399D01*
X0153371Y0219580D01*
X0153461Y0219801D01*
X0153531Y0220063D01*
X0153581Y0220364D01*
X0153611Y0220707D01*
X0153621Y0221089D01*
X0155621D01*
X0155631Y0220707D01*
D02*
G37*
G54D18*
X0250363Y0275424D02*
X0251882Y0273906D01*
X0231625Y0275424D02*
X0250363D01*
X0228280Y0272080D02*
X0231625Y0275424D01*
X0225393Y0272080D02*
X0228280D01*
X0253045Y0240467D02*
Y0243286D01*
X0225573Y0246900D02*
X0249431D01*
X0253045Y0243286D01*
X0497200Y0080717D02*
Y0101050D01*
X0413200Y0080717D02*
Y0101050D01*
X0040000Y0080717D02*
X0700200D01*
X0040000Y0060383D02*
X0700000D01*
X0040000Y0040050D02*
X0440500D01*
X0040050Y0101050D02*
X0700200D01*
X0040050Y0040050D02*
Y0101050D01*
Y0040050D02*
X0197600D01*
X0040000D02*
Y0101050D01*
X0286500Y0040050D02*
Y0101050D01*
X0700200Y0040050D02*
Y0101050D01*
X0440500Y0040050D02*
X0700200D01*
X0559400Y0039400D02*
Y0059683D01*
G54D19*
X0126900Y0073549D02*
X0130899D01*
X0128899D01*
Y0067551D01*
X0133898D02*
X0135897D01*
X0136897Y0068550D01*
Y0070550D01*
X0135897Y0071549D01*
X0133898D01*
X0132898Y0070550D01*
Y0068550D01*
X0133898Y0067551D01*
X0138896Y0065551D02*
Y0071549D01*
X0141895D01*
X0142895Y0070550D01*
Y0068550D01*
X0141895Y0067551D01*
X0138896D01*
X0150892Y0073549D02*
Y0067551D01*
X0154891D01*
X0157890Y0071549D02*
X0159889D01*
X0160889Y0070550D01*
Y0067551D01*
X0157890D01*
X0156890Y0068550D01*
X0157890Y0069550D01*
X0160889D01*
X0162888Y0071549D02*
Y0068550D01*
X0163888Y0067551D01*
X0166887D01*
Y0066551D01*
X0165887Y0065551D01*
X0164888D01*
X0166887Y0067551D02*
Y0071549D01*
X0171885Y0067551D02*
X0169886D01*
X0168886Y0068550D01*
Y0070550D01*
X0169886Y0071549D01*
X0171885D01*
X0172885Y0070550D01*
Y0069550D01*
X0168886D01*
X0174884Y0071549D02*
Y0067551D01*
Y0069550D01*
X0175884Y0070550D01*
X0176884Y0071549D01*
X0177884D01*
X0567400Y0087833D02*
Y0093831D01*
X0571399Y0087833D01*
Y0093831D01*
X0574398Y0087833D02*
X0576397D01*
X0577397Y0088833D01*
Y0090832D01*
X0576397Y0091832D01*
X0574398D01*
X0573398Y0090832D01*
Y0088833D01*
X0574398Y0087833D01*
X0580396Y0092832D02*
Y0091832D01*
X0579396D01*
X0581395D01*
X0580396D01*
Y0088833D01*
X0581395Y0087833D01*
X0590393Y0093831D02*
X0592392D01*
X0591392D01*
Y0087833D01*
X0590393D01*
X0592392D01*
X0595391D02*
Y0091832D01*
X0598390D01*
X0599390Y0090832D01*
Y0087833D01*
X0607387Y0093831D02*
Y0089833D01*
X0609386Y0087833D01*
X0611386Y0089833D01*
Y0093831D01*
X0616384Y0087833D02*
X0614385D01*
X0613385Y0088833D01*
Y0090832D01*
X0614385Y0091832D01*
X0616384D01*
X0617384Y0090832D01*
Y0089833D01*
X0613385D01*
X0619383Y0091832D02*
Y0087833D01*
Y0089833D01*
X0620383Y0090832D01*
X0621383Y0091832D01*
X0622382D01*
X0625381Y0087833D02*
X0628380D01*
X0629380Y0088833D01*
X0628380Y0089833D01*
X0626381D01*
X0625381Y0090832D01*
X0626381Y0091832D01*
X0629380D01*
X0631379Y0087833D02*
X0633379D01*
X0632379D01*
Y0091832D01*
X0631379D01*
X0637377Y0087833D02*
X0639377D01*
X0640376Y0088833D01*
Y0090832D01*
X0639377Y0091832D01*
X0637377D01*
X0636378Y0090832D01*
Y0088833D01*
X0637377Y0087833D01*
X0642376D02*
Y0091832D01*
X0645375D01*
X0646374Y0090832D01*
Y0087833D01*
X0652373Y0092832D02*
X0651373Y0093831D01*
X0649373D01*
X0648374Y0092832D01*
Y0088833D01*
X0649373Y0087833D01*
X0651373D01*
X0652373Y0088833D01*
X0655372Y0087833D02*
X0657371D01*
X0658371Y0088833D01*
Y0090832D01*
X0657371Y0091832D01*
X0655372D01*
X0654372Y0090832D01*
Y0088833D01*
X0655372Y0087833D01*
X0660370D02*
Y0091832D01*
X0663369D01*
X0664369Y0090832D01*
Y0087833D01*
X0667368Y0092832D02*
Y0091832D01*
X0666368D01*
X0668367D01*
X0667368D01*
Y0088833D01*
X0668367Y0087833D01*
X0671366Y0091832D02*
Y0087833D01*
Y0089833D01*
X0672366Y0090832D01*
X0673366Y0091832D01*
X0674365D01*
X0678364Y0087833D02*
X0680364D01*
X0681363Y0088833D01*
Y0090832D01*
X0680364Y0091832D01*
X0678364D01*
X0677364Y0090832D01*
Y0088833D01*
X0678364Y0087833D01*
X0683362D02*
X0685362D01*
X0684362D01*
Y0093831D01*
X0683362D01*
X0520799Y0092832D02*
X0519799Y0093831D01*
X0517800D01*
X0516800Y0092832D01*
Y0091832D01*
X0517800Y0090832D01*
X0519799D01*
X0520799Y0089833D01*
Y0088833D01*
X0519799Y0087833D01*
X0517800D01*
X0516800Y0088833D01*
X0522798Y0093831D02*
Y0089833D01*
X0524797Y0087833D01*
X0526797Y0089833D01*
Y0093831D01*
X0528796Y0087833D02*
Y0093831D01*
X0532795Y0087833D01*
Y0093831D01*
X0540792Y0087833D02*
Y0093831D01*
X0543791D01*
X0544791Y0092832D01*
Y0090832D01*
X0543791Y0089833D01*
X0540792D01*
X0542792D02*
X0544791Y0087833D01*
X0550789Y0093831D02*
X0546790D01*
Y0087833D01*
X0550789D01*
X0546790Y0090832D02*
X0548790D01*
X0552788Y0093831D02*
Y0089833D01*
X0554788Y0087833D01*
X0556787Y0089833D01*
Y0093831D01*
X0558786Y0091832D02*
X0559786D01*
Y0090832D01*
X0558786D01*
Y0091832D01*
Y0088833D02*
X0559786D01*
Y0087833D01*
X0558786D01*
Y0088833D01*
X0433000Y0087833D02*
Y0093831D01*
X0435999D01*
X0436999Y0092832D01*
Y0090832D01*
X0435999Y0089833D01*
X0433000D01*
X0434999D02*
X0436999Y0087833D01*
X0442997Y0093831D02*
X0438998D01*
Y0087833D01*
X0442997D01*
X0438998Y0090832D02*
X0440997D01*
X0444996Y0093831D02*
Y0089833D01*
X0446995Y0087833D01*
X0448995Y0089833D01*
Y0093831D01*
X0450994Y0091832D02*
X0451994D01*
Y0090832D01*
X0450994D01*
Y0091832D01*
Y0088833D02*
X0451994D01*
Y0087833D01*
X0450994D01*
Y0088833D01*
X0130899Y0051965D02*
X0129899Y0052965D01*
X0127900D01*
X0126900Y0051965D01*
Y0050965D01*
X0127900Y0049966D01*
X0129899D01*
X0130899Y0048966D01*
Y0047966D01*
X0129899Y0046966D01*
X0127900D01*
X0126900Y0047966D01*
X0132898Y0052965D02*
Y0048966D01*
X0134897Y0046966D01*
X0136897Y0048966D01*
Y0052965D01*
X0142895D02*
X0140895Y0051965D01*
X0138896Y0049966D01*
Y0047966D01*
X0139896Y0046966D01*
X0141895D01*
X0142895Y0047966D01*
Y0048966D01*
X0141895Y0049966D01*
X0138896D01*
X0144894Y0051965D02*
X0145894Y0052965D01*
X0147893D01*
X0148893Y0051965D01*
Y0047966D01*
X0147893Y0046966D01*
X0145894D01*
X0144894Y0047966D01*
Y0051965D01*
X0150892Y0046966D02*
X0152892D01*
X0151892D01*
Y0052965D01*
X0150892Y0051965D01*
X0159889Y0046966D02*
X0155891D01*
X0159889Y0050965D01*
Y0051965D01*
X0158890Y0052965D01*
X0156890D01*
X0155891Y0051965D01*
X0161889D02*
X0162888Y0052965D01*
X0164888D01*
X0165887Y0051965D01*
Y0050965D01*
X0164888Y0049966D01*
X0165887Y0048966D01*
Y0047966D01*
X0164888Y0046966D01*
X0162888D01*
X0161889Y0047966D01*
Y0048966D01*
X0162888Y0049966D01*
X0161889Y0050965D01*
Y0051965D01*
X0162888Y0049966D02*
X0164888D01*
X0171885Y0052965D02*
X0169886Y0051965D01*
X0167887Y0049966D01*
Y0047966D01*
X0168886Y0046966D01*
X0170886D01*
X0171885Y0047966D01*
Y0048966D01*
X0170886Y0049966D01*
X0167887D01*
X0177884Y0051965D02*
X0176884Y0052965D01*
X0174884D01*
X0173885Y0051965D01*
Y0047966D01*
X0174884Y0046966D01*
X0176884D01*
X0177884Y0047966D01*
Y0049966D01*
X0175884D01*
X0179883Y0046966D02*
Y0047966D01*
X0180883D01*
Y0046966D01*
X0179883D01*
X0188880Y0051965D02*
X0187880Y0052965D01*
X0185881D01*
X0184881Y0051965D01*
Y0047966D01*
X0185881Y0046966D01*
X0187880D01*
X0188880Y0047966D01*
Y0049966D01*
X0186881D01*
X0190879Y0052965D02*
X0194878D01*
X0192879D01*
Y0046966D01*
X0196877Y0052965D02*
Y0046966D01*
X0200876D01*
X0385149Y0052965D02*
X0381150D01*
Y0049966D01*
X0383149Y0050965D01*
X0384149D01*
X0385149Y0049966D01*
Y0047966D01*
X0384149Y0046966D01*
X0382150D01*
X0381150Y0047966D01*
X0387148Y0046966D02*
X0391147Y0050965D01*
X0393146Y0046966D02*
X0395146D01*
X0394146D01*
Y0052965D01*
X0393146Y0051965D01*
X0398145Y0047966D02*
X0399144Y0046966D01*
X0401144D01*
X0402143Y0047966D01*
Y0051965D01*
X0401144Y0052965D01*
X0399144D01*
X0398145Y0051965D01*
Y0050965D01*
X0399144Y0049966D01*
X0402143D01*
X0404143Y0046966D02*
X0408141Y0050965D01*
X0414139Y0046966D02*
X0410141D01*
X0414139Y0050965D01*
Y0051965D01*
X0413140Y0052965D01*
X0411140D01*
X0410141Y0051965D01*
X0416139D02*
X0417138Y0052965D01*
X0419138D01*
X0420137Y0051965D01*
Y0047966D01*
X0419138Y0046966D01*
X0417138D01*
X0416139Y0047966D01*
Y0051965D01*
X0426135Y0046966D02*
X0422137D01*
X0426135Y0050965D01*
Y0051965D01*
X0425136Y0052965D01*
X0423136D01*
X0422137Y0051965D01*
X0428135Y0046966D02*
X0430134D01*
X0429135D01*
Y0052965D01*
X0428135Y0051965D01*
X0298199D02*
X0297199Y0052965D01*
X0295200D01*
X0294200Y0051965D01*
Y0047966D01*
X0295200Y0046966D01*
X0297199D01*
X0298199Y0047966D01*
Y0049966D01*
X0296199D01*
X0304197Y0052965D02*
X0300198D01*
Y0046966D01*
X0304197D01*
X0300198Y0049966D02*
X0302197D01*
X0306196Y0046966D02*
Y0052965D01*
X0310195Y0046966D01*
Y0052965D01*
X0316193D02*
X0312194D01*
Y0046966D01*
X0316193D01*
X0312194Y0049966D02*
X0314194D01*
X0318192Y0046966D02*
Y0052965D01*
X0321191D01*
X0322191Y0051965D01*
Y0049966D01*
X0321191Y0048966D01*
X0318192D01*
X0320192D02*
X0322191Y0046966D01*
X0324190D02*
Y0050965D01*
X0326190Y0052965D01*
X0328189Y0050965D01*
Y0046966D01*
Y0049966D01*
X0324190D01*
X0330188Y0052965D02*
X0334187D01*
X0332188D01*
Y0046966D01*
X0340185Y0052965D02*
X0336186D01*
Y0046966D01*
X0340185D01*
X0336186Y0049966D02*
X0338186D01*
X0342184Y0052965D02*
Y0046966D01*
X0345183D01*
X0346183Y0047966D01*
Y0051965D01*
X0345183Y0052965D01*
X0342184D01*
X0372175Y0050965D02*
X0373175D01*
Y0049966D01*
X0372175D01*
Y0050965D01*
Y0047966D02*
X0373175D01*
Y0046966D01*
X0372175D01*
Y0047966D01*
X0046350Y0087833D02*
Y0091832D01*
X0048349Y0093831D01*
X0050349Y0091832D01*
Y0087833D01*
Y0090832D01*
X0046350D01*
X0052348Y0093831D02*
Y0087833D01*
X0056347D01*
X0058346Y0093831D02*
Y0087833D01*
X0062345D01*
X0070342D02*
Y0091832D01*
X0072342Y0093831D01*
X0074341Y0091832D01*
Y0087833D01*
Y0090832D01*
X0070342D01*
X0076340Y0087833D02*
Y0093831D01*
X0079339D01*
X0080339Y0092832D01*
Y0090832D01*
X0079339Y0089833D01*
X0076340D01*
X0078340D02*
X0080339Y0087833D01*
X0082338Y0093831D02*
X0086337D01*
X0084338D01*
Y0087833D01*
X0088336Y0093831D02*
Y0087833D01*
X0090336Y0089833D01*
X0092335Y0087833D01*
Y0093831D01*
X0097334D02*
X0095334D01*
X0094335Y0092832D01*
Y0088833D01*
X0095334Y0087833D01*
X0097334D01*
X0098333Y0088833D01*
Y0092832D01*
X0097334Y0093831D01*
X0100332Y0087833D02*
Y0093831D01*
X0103332D01*
X0104331Y0092832D01*
Y0090832D01*
X0103332Y0089833D01*
X0100332D01*
X0102332D02*
X0104331Y0087833D01*
X0106331Y0093831D02*
Y0087833D01*
Y0089833D01*
X0110329Y0093831D01*
X0107330Y0090832D01*
X0110329Y0087833D01*
X0118327Y0093831D02*
Y0089833D01*
X0120326Y0087833D01*
X0122325Y0089833D01*
Y0093831D01*
X0124325D02*
X0126324D01*
X0125324D01*
Y0087833D01*
X0124325D01*
X0126324D01*
X0133322Y0093831D02*
X0129323D01*
Y0087833D01*
X0133322D01*
X0129323Y0090832D02*
X0131323D01*
X0135321Y0093831D02*
Y0087833D01*
X0137321Y0089833D01*
X0139320Y0087833D01*
Y0093831D01*
X0145318D02*
X0141319D01*
Y0087833D01*
X0145318D01*
X0141319Y0090832D02*
X0143319D01*
X0147317Y0093831D02*
Y0087833D01*
X0150316D01*
X0151316Y0088833D01*
Y0092832D01*
X0150316Y0093831D01*
X0147317D01*
X0163312D02*
X0159313D01*
Y0090832D01*
X0161313D01*
X0159313D01*
Y0087833D01*
X0165312D02*
Y0093831D01*
X0168310D01*
X0169310Y0092832D01*
Y0090832D01*
X0168310Y0089833D01*
X0165312D01*
X0167311D02*
X0169310Y0087833D01*
X0174309Y0093831D02*
X0172309D01*
X0171310Y0092832D01*
Y0088833D01*
X0172309Y0087833D01*
X0174309D01*
X0175308Y0088833D01*
Y0092832D01*
X0174309Y0093831D01*
X0177308Y0087833D02*
Y0093831D01*
X0179307Y0091832D01*
X0181306Y0093831D01*
Y0087833D01*
X0189304Y0093831D02*
X0193303D01*
X0191303D01*
Y0087833D01*
X0198301Y0093831D02*
X0196301D01*
X0195302Y0092832D01*
Y0088833D01*
X0196301Y0087833D01*
X0198301D01*
X0199301Y0088833D01*
Y0092832D01*
X0198301Y0093831D01*
X0201300Y0087833D02*
Y0093831D01*
X0204299D01*
X0205299Y0092832D01*
Y0090832D01*
X0204299Y0089833D01*
X0201300D01*
X0217295Y0092832D02*
X0216295Y0093831D01*
X0214296D01*
X0213296Y0092832D01*
Y0091832D01*
X0214296Y0090832D01*
X0216295D01*
X0217295Y0089833D01*
Y0088833D01*
X0216295Y0087833D01*
X0214296D01*
X0213296Y0088833D01*
X0219294Y0093831D02*
X0221293D01*
X0220294D01*
Y0087833D01*
X0219294D01*
X0221293D01*
X0224292Y0093831D02*
Y0087833D01*
X0227291D01*
X0228291Y0088833D01*
Y0092832D01*
X0227291Y0093831D01*
X0224292D01*
X0234289D02*
X0230291D01*
Y0087833D01*
X0234289D01*
X0230291Y0090832D02*
X0232290D01*
X0466149Y0092832D02*
X0465149Y0093831D01*
X0463150D01*
X0462150Y0092832D01*
Y0088833D01*
X0463150Y0087833D01*
X0465149D01*
X0466149Y0088833D01*
Y0090832D01*
X0464149D01*
X0352549Y0092832D02*
X0351549Y0093831D01*
X0349550D01*
X0348550Y0092832D01*
Y0091832D01*
X0349550Y0090832D01*
X0351549D01*
X0352549Y0089833D01*
Y0088833D01*
X0351549Y0087833D01*
X0349550D01*
X0348550Y0088833D01*
X0354548Y0093831D02*
Y0089833D01*
X0356547Y0087833D01*
X0358547Y0089833D01*
Y0093831D01*
X0364545D02*
X0362545Y0092832D01*
X0360546Y0090832D01*
Y0088833D01*
X0361546Y0087833D01*
X0363545D01*
X0364545Y0088833D01*
Y0089833D01*
X0363545Y0090832D01*
X0360546D01*
X0366544Y0092832D02*
X0367544Y0093831D01*
X0369543D01*
X0370543Y0092832D01*
Y0088833D01*
X0369543Y0087833D01*
X0367544D01*
X0366544Y0088833D01*
Y0092832D01*
X0372542Y0087833D02*
X0374542D01*
X0373542D01*
Y0093831D01*
X0372542Y0092832D01*
X0381539Y0087833D02*
X0377541D01*
X0381539Y0091832D01*
Y0092832D01*
X0380540Y0093831D01*
X0378540D01*
X0377541Y0092832D01*
X0383539D02*
X0384538Y0093831D01*
X0386538D01*
X0387537Y0092832D01*
Y0091832D01*
X0386538Y0090832D01*
X0387537Y0089833D01*
Y0088833D01*
X0386538Y0087833D01*
X0384538D01*
X0383539Y0088833D01*
Y0089833D01*
X0384538Y0090832D01*
X0383539Y0091832D01*
Y0092832D01*
X0384538Y0090832D02*
X0386538D01*
X0393535Y0093831D02*
X0391536Y0092832D01*
X0389537Y0090832D01*
Y0088833D01*
X0390536Y0087833D01*
X0392536D01*
X0393535Y0088833D01*
Y0089833D01*
X0392536Y0090832D01*
X0389537D01*
X0294000Y0093831D02*
Y0087833D01*
X0296999D01*
X0297999Y0088833D01*
Y0089833D01*
X0296999Y0090832D01*
X0294000D01*
X0296999D01*
X0297999Y0091832D01*
Y0092832D01*
X0296999Y0093831D01*
X0294000D01*
X0302997D02*
X0300998D01*
X0299998Y0092832D01*
Y0088833D01*
X0300998Y0087833D01*
X0302997D01*
X0303997Y0088833D01*
Y0092832D01*
X0302997Y0093831D01*
X0305996Y0087833D02*
Y0091832D01*
X0307996Y0093831D01*
X0309995Y0091832D01*
Y0087833D01*
Y0090832D01*
X0305996D01*
X0311994Y0087833D02*
Y0093831D01*
X0314993D01*
X0315993Y0092832D01*
Y0090832D01*
X0314993Y0089833D01*
X0311994D01*
X0313994D02*
X0315993Y0087833D01*
X0317992Y0093831D02*
Y0087833D01*
X0320991D01*
X0321991Y0088833D01*
Y0092832D01*
X0320991Y0093831D01*
X0317992D01*
X0330988Y0087833D02*
Y0093831D01*
X0332987D02*
Y0087833D01*
X0329988Y0091832D02*
X0332987D01*
X0333987D01*
X0329988Y0089833D02*
X0333987D01*
X0335986Y0091832D02*
X0336986D01*
Y0090832D01*
X0335986D01*
Y0091832D01*
Y0088833D02*
X0336986D01*
Y0087833D01*
X0335986D01*
Y0088833D01*
X0046350Y0073549D02*
Y0067551D01*
X0050349D01*
X0052348D02*
Y0071549D01*
X0054347Y0073549D01*
X0056347Y0071549D01*
Y0067551D01*
Y0070550D01*
X0052348D01*
X0058346Y0073549D02*
Y0072549D01*
X0060346Y0070550D01*
X0062345Y0072549D01*
Y0073549D01*
X0060346Y0070550D02*
Y0067551D01*
X0068343Y0073549D02*
X0064344D01*
Y0067551D01*
X0068343D01*
X0064344Y0070550D02*
X0066343D01*
X0070342Y0067551D02*
Y0073549D01*
X0073341D01*
X0074341Y0072549D01*
Y0070550D01*
X0073341Y0069550D01*
X0070342D01*
X0072342D02*
X0074341Y0067551D01*
X0082338D02*
Y0073549D01*
X0086337Y0067551D01*
Y0073549D01*
X0088336Y0067551D02*
Y0071549D01*
X0090336Y0073549D01*
X0092335Y0071549D01*
Y0067551D01*
Y0070550D01*
X0088336D01*
X0094335Y0067551D02*
Y0073549D01*
X0096334Y0071549D01*
X0098333Y0073549D01*
Y0067551D01*
X0104331Y0073549D02*
X0100332D01*
Y0067551D01*
X0104331D01*
X0100332Y0070550D02*
X0102332D01*
X0112329Y0069550D02*
X0116327D01*
X0112329Y0071549D02*
X0116327D01*
X0046350Y0046966D02*
Y0052965D01*
X0049349D01*
X0050349Y0051965D01*
Y0049966D01*
X0049349Y0048966D01*
X0046350D01*
X0052348Y0052965D02*
Y0046966D01*
X0056347D01*
X0061345Y0052965D02*
X0059346D01*
X0058346Y0051965D01*
Y0047966D01*
X0059346Y0046966D01*
X0061345D01*
X0062345Y0047966D01*
Y0051965D01*
X0061345Y0052965D01*
X0064344D02*
X0068343D01*
X0066343D01*
Y0046966D01*
X0076340D02*
Y0052965D01*
X0080339Y0046966D01*
Y0052965D01*
X0082338Y0046966D02*
Y0050965D01*
X0084338Y0052965D01*
X0086337Y0050965D01*
Y0046966D01*
Y0049966D01*
X0082338D01*
X0088336Y0046966D02*
Y0052965D01*
X0090336Y0050965D01*
X0092335Y0052965D01*
Y0046966D01*
X0098333Y0052965D02*
X0094335D01*
Y0046966D01*
X0098333D01*
X0094335Y0049966D02*
X0096334D01*
X0106331Y0048966D02*
X0110329D01*
X0106331Y0050965D02*
X0110329D01*
X0454050Y0046966D02*
X0456049D01*
X0455050D01*
Y0052965D01*
X0454050Y0051965D01*
X0459048Y0046966D02*
X0461048D01*
X0460048D01*
Y0052965D01*
X0459048Y0051965D01*
X0464047Y0050965D02*
X0465046D01*
Y0049966D01*
X0464047D01*
Y0050965D01*
Y0047966D02*
X0465046D01*
Y0046966D01*
X0464047D01*
Y0047966D01*
X0472044Y0046966D02*
Y0052965D01*
X0469045Y0049966D01*
X0473044D01*
X0479042Y0052965D02*
X0475043D01*
Y0049966D01*
X0477043Y0050965D01*
X0478042D01*
X0479042Y0049966D01*
Y0047966D01*
X0478042Y0046966D01*
X0476043D01*
X0475043Y0047966D01*
X0481041Y0050965D02*
X0482041D01*
Y0049966D01*
X0481041D01*
Y0050965D01*
Y0047966D02*
X0482041D01*
Y0046966D01*
X0481041D01*
Y0047966D01*
X0486040Y0046966D02*
X0488039D01*
X0487039D01*
Y0052965D01*
X0486040Y0051965D01*
X0495037Y0046966D02*
X0491038D01*
X0495037Y0050965D01*
Y0051965D01*
X0494037Y0052965D01*
X0492038D01*
X0491038Y0051965D01*
X0503034Y0046966D02*
Y0050965D01*
X0505033Y0052965D01*
X0507033Y0050965D01*
Y0046966D01*
Y0049966D01*
X0503034D01*
X0509032Y0046966D02*
Y0052965D01*
X0511031Y0050965D01*
X0513031Y0052965D01*
Y0046966D01*
X0580500Y0052965D02*
X0584499D01*
X0582499D01*
Y0046966D01*
X0590497Y0052965D02*
X0586498D01*
Y0046966D01*
X0590497D01*
X0586498Y0049966D02*
X0588497D01*
X0592496Y0052965D02*
X0596495Y0046966D01*
Y0052965D02*
X0592496Y0046966D01*
X0598494D02*
Y0050965D01*
X0600493Y0052965D01*
X0602493Y0050965D01*
Y0046966D01*
Y0049966D01*
X0598494D01*
X0608491Y0051965D02*
X0607491Y0052965D01*
X0605492D01*
X0604492Y0051965D01*
Y0050965D01*
X0605492Y0049966D01*
X0607491D01*
X0608491Y0048966D01*
Y0047966D01*
X0607491Y0046966D01*
X0605492D01*
X0604492Y0047966D01*
X0616488Y0052965D02*
X0618488D01*
X0617488D01*
Y0046966D01*
X0616488D01*
X0618488D01*
X0621487D02*
Y0052965D01*
X0625486Y0046966D01*
Y0052965D01*
X0631484Y0051965D02*
X0630484Y0052965D01*
X0628484D01*
X0627485Y0051965D01*
Y0050965D01*
X0628484Y0049966D01*
X0630484D01*
X0631484Y0048966D01*
Y0047966D01*
X0630484Y0046966D01*
X0628484D01*
X0627485Y0047966D01*
X0633483Y0052965D02*
X0637482D01*
X0635482D01*
Y0046966D01*
X0639481D02*
Y0052965D01*
X0642480D01*
X0643480Y0051965D01*
Y0049966D01*
X0642480Y0048966D01*
X0639481D01*
X0641480D02*
X0643480Y0046966D01*
X0645479Y0052965D02*
Y0047966D01*
X0646479Y0046966D01*
X0648478D01*
X0649478Y0047966D01*
Y0052965D01*
X0651477Y0046966D02*
Y0052965D01*
X0653476Y0050965D01*
X0655476Y0052965D01*
Y0046966D01*
X0661474Y0052965D02*
X0657475D01*
Y0046966D01*
X0661474D01*
X0657475Y0049966D02*
X0659474D01*
X0663473Y0046966D02*
Y0052965D01*
X0667472Y0046966D01*
Y0052965D01*
X0669471D02*
X0673470D01*
X0671471D01*
Y0046966D01*
X0679468Y0051965D02*
X0678468Y0052965D01*
X0676469D01*
X0675469Y0051965D01*
Y0050965D01*
X0676469Y0049966D01*
X0678468D01*
X0679468Y0048966D01*
Y0047966D01*
X0678468Y0046966D01*
X0676469D01*
X0675469Y0047966D01*
X0294000Y0073498D02*
X0297999D01*
X0295999D01*
Y0067500D01*
X0299998Y0073498D02*
X0301997D01*
X0300998D01*
Y0067500D01*
X0299998D01*
X0301997D01*
X0304996Y0073498D02*
Y0067500D01*
X0307996D01*
X0308995Y0068500D01*
Y0072498D01*
X0307996Y0073498D01*
X0304996D01*
X0317992Y0067500D02*
Y0073498D01*
X0319992D02*
Y0067500D01*
X0316993Y0071499D02*
X0319992D01*
X0320991D01*
X0316993Y0069499D02*
X0320991D01*
X0322991Y0071499D02*
X0323990D01*
Y0070499D01*
X0322991D01*
Y0071499D01*
Y0068500D02*
X0323990D01*
Y0067500D01*
X0322991D01*
Y0068500D01*
X0348550Y0067500D02*
Y0073498D01*
X0352549Y0067500D01*
Y0073498D01*
X0354548Y0067500D02*
X0358547Y0071499D01*
X0360546Y0067500D02*
Y0071499D01*
X0362545Y0073498D01*
X0364545Y0071499D01*
Y0067500D01*
Y0070499D01*
X0360546D01*
G54D21*
X0144779Y0215361D02*
D03*
X0154621D02*
D03*
G54D22*
X0149700Y0235439D02*
D03*
G54D23*
X0265897Y0274988D02*
D03*
Y0238841D02*
D03*
G54D24*
Y0282469D02*
D03*
Y0246321D02*
D03*
G54D25*
X0106200Y0191900D02*
D03*
Y0275259D02*
D03*
Y0302973D02*
D03*
Y0330687D02*
D03*
Y0219830D02*
D03*
Y0247545D02*
D03*
X0297200Y0195900D02*
D03*
Y0220989D02*
D03*
Y0244880D02*
D03*
Y0274383D02*
D03*
Y0300383D02*
D03*
Y0326107D02*
D03*
G54D26*
X0279094Y0163116D02*
D03*
X0129153Y0374900D02*
D03*
Y0163400D02*
D03*
G54D27*
X0187007Y0277080D02*
D03*
Y0272080D02*
D03*
Y0267080D02*
D03*
Y0262080D02*
D03*
Y0257080D02*
D03*
Y0252080D02*
D03*
Y0247080D02*
D03*
Y0242080D02*
D03*
X0225393D02*
D03*
Y0247080D02*
D03*
Y0252080D02*
D03*
Y0257080D02*
D03*
Y0262080D02*
D03*
Y0267080D02*
D03*
Y0272080D02*
D03*
Y0277080D02*
D03*
G54D28*
X0273666Y0244798D02*
D03*
Y0234168D02*
D03*
X0273444Y0281951D02*
D03*
Y0271322D02*
D03*
G54D29*
X0245459Y0251593D02*
D03*
Y0238207D02*
D03*
G54D30*
X0259756Y0273906D02*
D03*
X0251882D02*
D03*
X0260543Y0231526D02*
D03*
X0252669D02*
D03*
X0259756Y0281255D02*
D03*
X0251882D02*
D03*
X0260543Y0240500D02*
D03*
X0252669D02*
D03*
G54D31*
X0236117Y0242900D02*
D03*
Y0250900D02*
D03*
X0236371Y0279424D02*
D03*
Y0271424D02*
D03*
X0245241Y0279424D02*
D03*
Y0271424D02*
D03*
G54D32*
X0280324Y0275776D02*
D03*
Y0270264D02*
D03*
X0177981Y0275579D02*
D03*
Y0281091D02*
D03*
X0187200Y0289040D02*
D03*
Y0283528D02*
D03*
X0177826Y0258926D02*
D03*
X0177826Y0253414D02*
D03*
X0177981Y0264323D02*
D03*
Y0269835D02*
D03*
X0169700Y0287644D02*
D03*
Y0293156D02*
D03*
X0280700Y0244156D02*
D03*
Y0238644D02*
D03*
X0167450Y0255656D02*
D03*
Y0250144D02*
D03*
X0177981Y0287644D02*
D03*
Y0293156D02*
D03*
X0169320Y0280936D02*
D03*
Y0275424D02*
D03*
G54D33*
X0150355Y0254300D02*
D03*
X0155955D02*
D03*
G54D34*
X0170403Y0262463D02*
D03*
Y0270337D02*
D03*
G54D35*
X0173200Y0244968D02*
D03*
X0178712D02*
D03*
X0278661Y0337400D02*
D03*
X0273149D02*
D03*
X0275456Y0251310D02*
D03*
X0269944D02*
D03*
X0156456Y0277266D02*
D03*
X0150944D02*
D03*
X0178712Y0238841D02*
D03*
X0173200D02*
D03*
X0178712Y0232790D02*
D03*
X0173200D02*
D03*
G54D36*
X0143200Y0355400D02*
D03*
X0109684D02*
D03*
X0177632Y0202400D02*
D03*
X0152700D02*
D03*
G54D56*
X0225831Y0277518D02*
Y0281400D01*
X0225393Y0277080D02*
X0225831Y0277518D01*
X0245241Y0279424D02*
X0246200Y0280383D01*
Y0323900D01*
X0259700Y0337400D01*
X0273149D01*
X0236371Y0279424D02*
X0245241D01*
X0234378Y0281418D02*
X0236371Y0279424D01*
X0229103Y0281418D02*
X0234378D01*
X0229085Y0281400D02*
X0229103Y0281418D01*
X0225831Y0281400D02*
X0229085D01*
X0222346D02*
X0225831D01*
G54D57*
X0169330Y0245059D02*
X0169421Y0244968D01*
X0173200D01*
X0177632Y0202400D02*
Y0211272D01*
X0163700Y0250144D02*
X0167450D01*
X0149700Y0235439D02*
Y0241720D01*
X0181502Y0262080D02*
X0187007D01*
X0154621Y0221339D02*
X0154700Y0221417D01*
X0154621Y0215361D02*
Y0221339D01*
X0143200Y0355400D02*
X0159158D01*
X0165200Y0275424D02*
X0169320D01*
X0181300Y0267080D02*
X0187007D01*
X0178545Y0269835D02*
X0181300Y0267080D01*
X0177981Y0269835D02*
X0178545D01*
X0177479Y0270337D02*
X0177981Y0269835D01*
X0170403Y0270337D02*
X0177479D01*
X0173257Y0275579D02*
X0177981D01*
X0252669Y0231526D02*
Y0240091D01*
X0253045Y0240467D01*
X0165383Y0262354D02*
X0176012D01*
X0178712Y0244968D02*
X0181759Y0248016D01*
Y0252080D01*
X0187007D01*
X0178712Y0244968D02*
X0178712Y0244968D01*
X0178712Y0238841D02*
Y0244968D01*
Y0232790D02*
Y0238841D01*
X0169537D02*
X0173200D01*
X0169328Y0238632D02*
X0169537Y0238841D01*
X0176012Y0262354D02*
X0177826Y0264168D01*
X0177981Y0264323D01*
X0177826Y0258926D02*
Y0264168D01*
X0167450Y0255351D02*
X0175889D01*
X0167450D02*
Y0255656D01*
X0175889Y0255351D02*
X0177826Y0253414D01*
X0181784Y0293156D02*
X0182350Y0293721D01*
X0177981Y0293156D02*
X0181784D01*
X0182372Y0289729D02*
X0183061Y0289040D01*
X0187200D01*
X0121700Y0235330D02*
X0125856D01*
X0130485Y0239959D01*
X0147255Y0257400D02*
X0150355Y0254300D01*
X0123700Y0257400D02*
X0147255D01*
X0121700Y0255400D02*
X0123700Y0257400D01*
X0121700Y0235330D02*
Y0255400D01*
X0106200Y0219830D02*
X0121700Y0235330D01*
X0277534Y0281951D02*
X0280146Y0279339D01*
X0280432Y0279054D01*
X0280146Y0279339D02*
Y0305900D01*
X0280324Y0275776D02*
X0280432Y0275884D01*
Y0279054D01*
X0273444Y0281951D02*
X0277534D01*
X0272927Y0282469D02*
X0273444Y0281951D01*
X0265897Y0282469D02*
X0272927D01*
X0260969D02*
X0265897D01*
X0259756Y0281255D02*
X0260969Y0282469D01*
X0291683Y0305900D02*
X0297200Y0300383D01*
X0280146Y0305900D02*
X0291683D01*
X0115700Y0312649D02*
X0130625D01*
X0106200Y0322149D02*
X0115700Y0312649D01*
X0106200Y0322149D02*
Y0330687D01*
X0187001Y0272074D02*
X0187007Y0272080D01*
X0181736Y0272074D02*
X0187001D01*
X0181736D02*
Y0277901D01*
X0178545Y0281091D02*
X0181736Y0277901D01*
X0177981Y0281091D02*
X0178545D01*
X0173700Y0287644D02*
X0178256D01*
X0169700D02*
X0173700D01*
Y0305903D01*
X0182197Y0314400D01*
X0187007Y0277080D02*
X0187200Y0277273D01*
Y0283528D01*
X0182372D02*
X0187200D01*
X0178256Y0287644D02*
X0182372Y0283528D01*
X0160200Y0322400D02*
X0170132Y0312468D01*
Y0293436D02*
Y0312468D01*
X0130625Y0312649D02*
X0140377Y0322400D01*
X0160200D01*
X0154700Y0279021D02*
X0156456Y0277266D01*
X0154700Y0279021D02*
Y0311400D01*
X0157700Y0314400D01*
X0177826Y0280936D02*
X0177981Y0281091D01*
X0169320Y0280936D02*
X0177826D01*
X0160126D02*
X0169320D01*
X0156456Y0277266D02*
X0160126Y0280936D01*
X0111129Y0196829D02*
X0113700D01*
X0106200Y0191900D02*
X0111129Y0196829D01*
X0106200Y0247545D02*
X0106491Y0247254D01*
X0115200D01*
X0106200Y0302973D02*
X0113419D01*
X0182056Y0257080D02*
X0187007D01*
X0178391Y0253414D02*
X0182056Y0257080D01*
X0177826Y0253414D02*
X0178391D01*
X0157311Y0255656D02*
X0167450D01*
X0155955Y0254300D02*
X0157311Y0255656D01*
X0251882Y0273906D02*
Y0281255D01*
X0252669Y0222431D02*
X0255700Y0219400D01*
X0252669Y0222431D02*
Y0231526D01*
X0259756Y0273906D02*
X0260838Y0274988D01*
X0265306D01*
Y0238920D02*
X0266200Y0238026D01*
X0260664Y0231526D02*
X0264932D01*
X0266200Y0232794D02*
Y0238026D01*
X0264932Y0231526D02*
X0266200Y0232794D01*
G54D58*
X0289187Y0219400D02*
Y0242567D01*
X0287598Y0244156D02*
X0289187Y0242567D01*
X0280700Y0244156D02*
X0287598D01*
X0278661Y0337400D02*
X0285907D01*
X0297200Y0326107D01*
X0152700Y0202400D02*
X0161871D01*
X0173630Y0214160D01*
X0173444Y0232790D02*
X0173630Y0232604D01*
Y0214160D02*
Y0232604D01*
X0130371Y0203614D02*
X0131585Y0202400D01*
X0152700D01*
X0126626Y0272304D02*
X0130625Y0276304D01*
X0126626Y0272074D02*
Y0272304D01*
X0109385Y0272074D02*
X0126626D01*
X0149983Y0276304D02*
X0150944Y0277266D01*
X0130625Y0276304D02*
X0149983D01*
X0106200Y0275259D02*
X0109385Y0272074D01*
X0260362Y0240681D02*
X0260543Y0240500D01*
X0260362Y0240681D02*
Y0244644D01*
X0262040Y0246321D01*
X0265897D01*
X0272143D01*
X0273666Y0244798D01*
X0274308Y0244156D01*
X0280700D01*
X0289187Y0219400D02*
X0295611D01*
X0282763D02*
X0289187D01*
X0295611D02*
X0297200Y0220989D01*
X0139239Y0220900D02*
X0144779Y0215361D01*
X0126746Y0220900D02*
X0139239D01*
X0124200Y0218354D02*
X0126746Y0220900D01*
X0124200Y0199785D02*
Y0218354D01*
Y0199785D02*
X0130371Y0193614D01*
G54D59*
X0245266Y0251400D02*
X0252200D01*
X0255200D01*
X0257700D01*
X0244766Y0250900D02*
X0245266Y0251400D01*
X0257700D02*
X0269854D01*
X0269944Y0251310D01*
X0236117Y0250900D02*
X0244766D01*
X0234937Y0252080D02*
X0236117Y0250900D01*
X0225393Y0252080D02*
X0234937D01*
G54D60*
X0290771Y0251310D02*
X0297200Y0244880D01*
X0275456Y0251310D02*
X0290771D01*
X0251882Y0300582D02*
X0257200Y0305900D01*
X0251882Y0281255D02*
Y0300582D01*
G54D61*
X0225393Y0247080D02*
X0225573Y0246900D01*
G54D62*
X0282763Y0219400D02*
D03*
X0280146Y0305900D02*
D03*
X0257200D02*
D03*
X0157700Y0314400D02*
D03*
X0182197D02*
D03*
X0255700Y0219400D02*
D03*
G54D63*
X0282763Y0199400D02*
D03*
X0280146Y0325900D02*
D03*
X0257200D02*
D03*
X0157700Y0334400D02*
D03*
X0182197D02*
D03*
X0255700Y0199400D02*
D03*
G54D64*
X0130485Y0229959D02*
D03*
X0130625Y0302649D02*
D03*
Y0266304D02*
D03*
X0130371Y0193614D02*
D03*
G54D65*
X0130485Y0239959D02*
D03*
Y0249959D02*
D03*
X0130625Y0312649D02*
D03*
Y0322649D02*
D03*
Y0276304D02*
D03*
Y0286304D02*
D03*
X0130371Y0203614D02*
D03*
Y0213614D02*
D03*
G54D66*
X0169330Y0245059D02*
D03*
X0177632Y0211272D02*
D03*
X0163700Y0250144D02*
D03*
X0149700Y0241720D02*
D03*
X0159158Y0355400D02*
D03*
X0165200Y0275424D02*
D03*
X0173257Y0275579D02*
D03*
X0169328Y0238632D02*
D03*
X0182372Y0289729D02*
D03*
X0182350Y0293721D02*
D03*
X0181502Y0262080D02*
D03*
X0113419Y0302973D02*
D03*
X0165383Y0262354D02*
D03*
X0154700Y0221417D02*
D03*
X0113700Y0196829D02*
D03*
X0115200Y0247254D02*
D03*
X0252200Y0251400D02*
D03*
X0255200D02*
D03*
X0257700D02*
D03*
X0289200Y0196400D02*
D03*
Y0199150D02*
D03*
X0225831Y0281400D02*
D03*
X0222346D02*
D03*
X0281200Y0230818D02*
D03*
X0272420Y0222400D02*
D03*
X0273957Y0225400D02*
D03*
X0229103Y0281418D02*
D03*
X0244200Y0232900D02*
D03*
X0247754D02*
D03*
X0270649Y0225400D02*
D03*
X0233064Y0237646D02*
D03*
X0229828D02*
D03*
X0226593D02*
D03*
X0223358D02*
D03*
X0281200Y0234676D02*
D03*
X0289200Y0201900D02*
D03*
X0263700Y0193310D02*
D03*
X0271700D02*
D03*
X0267700D02*
D03*
X0281200Y0226960D02*
D03*
G54D67*
X0264200Y0326400D02*
D03*
X0270200D02*
D03*
X0234627Y0266400D02*
D03*
X0237389D02*
D03*
X0240152D02*
D03*
X0282688D02*
D03*
X0267200Y0326400D02*
D03*
X0279952Y0266400D02*
D03*
X0277216D02*
D03*
X0274480D02*
D03*
M02*
