G04*
G04 #@! TF.GenerationSoftware,Altium Limited,Altium Designer,18.1.9 (240)*
G04*
G04 Layer_Color=32896*
%FSAX25Y25*%
%MOIN*%
G70*
G01*
G75*
%ADD15C,0.00700*%
%ADD18C,0.01000*%
%ADD19C,0.00800*%
G36*
X0228284Y0278447D02*
X0228344Y0278358D01*
X0228417Y0278269D01*
X0228483Y0278191D01*
X0228550Y0278125D01*
X0228600Y0278069D01*
X0228622Y0278053D01*
X0228639Y0278036D01*
X0228644Y0278030D01*
X0228650Y0278025D01*
X0228766Y0277931D01*
X0228883Y0277842D01*
X0228994Y0277764D01*
X0229105Y0277703D01*
X0229199Y0277648D01*
X0229238Y0277625D01*
X0229271Y0277609D01*
X0229299Y0277592D01*
X0229321Y0277587D01*
X0229332Y0277575D01*
X0229338D01*
Y0277120D01*
X0229255Y0277154D01*
X0229171Y0277192D01*
X0229088Y0277231D01*
X0229011Y0277270D01*
X0228944Y0277304D01*
X0228888Y0277331D01*
X0228855Y0277353D01*
X0228850Y0277359D01*
X0228844D01*
X0228744Y0277420D01*
X0228655Y0277481D01*
X0228578Y0277537D01*
X0228517Y0277587D01*
X0228461Y0277625D01*
X0228428Y0277659D01*
X0228400Y0277681D01*
X0228395Y0277686D01*
Y0274684D01*
X0227923D01*
Y0278541D01*
X0228228D01*
X0228284Y0278447D01*
D02*
G37*
G36*
X0233378Y0274684D02*
X0231996D01*
X0231869Y0274689D01*
X0231752Y0274695D01*
X0231647Y0274706D01*
X0231558Y0274717D01*
X0231480Y0274728D01*
X0231425Y0274734D01*
X0231408Y0274739D01*
X0231392Y0274745D01*
X0231380D01*
X0231280Y0274773D01*
X0231192Y0274806D01*
X0231114Y0274834D01*
X0231047Y0274867D01*
X0230992Y0274895D01*
X0230953Y0274917D01*
X0230931Y0274934D01*
X0230920Y0274939D01*
X0230848Y0274989D01*
X0230786Y0275050D01*
X0230726Y0275106D01*
X0230676Y0275161D01*
X0230631Y0275211D01*
X0230598Y0275250D01*
X0230576Y0275278D01*
X0230570Y0275289D01*
X0230515Y0275378D01*
X0230459Y0275472D01*
X0230415Y0275561D01*
X0230381Y0275650D01*
X0230348Y0275727D01*
X0230326Y0275788D01*
X0230320Y0275811D01*
X0230315Y0275827D01*
X0230309Y0275838D01*
Y0275844D01*
X0230276Y0275977D01*
X0230248Y0276110D01*
X0230231Y0276238D01*
X0230215Y0276360D01*
X0230209Y0276465D01*
Y0276510D01*
X0230204Y0276549D01*
Y0276576D01*
Y0276604D01*
Y0276615D01*
Y0276621D01*
X0230209Y0276810D01*
X0230226Y0276982D01*
X0230254Y0277137D01*
X0230265Y0277209D01*
X0230281Y0277270D01*
X0230298Y0277331D01*
X0230309Y0277381D01*
X0230320Y0277426D01*
X0230337Y0277464D01*
X0230343Y0277498D01*
X0230354Y0277520D01*
X0230359Y0277531D01*
Y0277537D01*
X0230420Y0277681D01*
X0230492Y0277808D01*
X0230570Y0277920D01*
X0230642Y0278014D01*
X0230709Y0278092D01*
X0230764Y0278147D01*
X0230786Y0278164D01*
X0230803Y0278180D01*
X0230809Y0278186D01*
X0230814Y0278191D01*
X0230903Y0278264D01*
X0230997Y0278319D01*
X0231092Y0278369D01*
X0231181Y0278408D01*
X0231258Y0278436D01*
X0231319Y0278452D01*
X0231342Y0278463D01*
X0231358D01*
X0231369Y0278469D01*
X0231375D01*
X0231469Y0278486D01*
X0231580Y0278502D01*
X0231691Y0278513D01*
X0231802Y0278519D01*
X0231902Y0278524D01*
X0233378D01*
Y0274684D01*
D02*
G37*
G36*
X0255086Y0253889D02*
X0253382D01*
Y0253235D01*
X0253387Y0253173D01*
Y0253129D01*
X0253393Y0253090D01*
X0253398Y0253062D01*
Y0253040D01*
X0253404Y0253029D01*
Y0253024D01*
X0253432Y0252935D01*
X0253449Y0252896D01*
X0253465Y0252863D01*
X0253482Y0252829D01*
X0253493Y0252807D01*
X0253498Y0252796D01*
X0253504Y0252790D01*
X0253537Y0252746D01*
X0253576Y0252702D01*
X0253659Y0252618D01*
X0253698Y0252580D01*
X0253731Y0252552D01*
X0253754Y0252535D01*
X0253759Y0252530D01*
X0253837Y0252474D01*
X0253920Y0252413D01*
X0254009Y0252352D01*
X0254092Y0252291D01*
X0254170Y0252241D01*
X0254231Y0252202D01*
X0254253Y0252186D01*
X0254270Y0252174D01*
X0254281Y0252163D01*
X0254287D01*
X0255086Y0251658D01*
Y0251026D01*
X0254042Y0251686D01*
X0253931Y0251764D01*
X0253831Y0251836D01*
X0253748Y0251908D01*
X0253671Y0251969D01*
X0253615Y0252025D01*
X0253571Y0252069D01*
X0253543Y0252097D01*
X0253532Y0252108D01*
X0253498Y0252152D01*
X0253460Y0252202D01*
X0253398Y0252302D01*
X0253376Y0252346D01*
X0253354Y0252380D01*
X0253343Y0252402D01*
X0253338Y0252413D01*
X0253321Y0252313D01*
X0253304Y0252219D01*
X0253276Y0252136D01*
X0253254Y0252052D01*
X0253226Y0251980D01*
X0253193Y0251914D01*
X0253165Y0251853D01*
X0253138Y0251797D01*
X0253104Y0251753D01*
X0253077Y0251708D01*
X0253054Y0251675D01*
X0253032Y0251647D01*
X0253016Y0251625D01*
X0252999Y0251608D01*
X0252993Y0251603D01*
X0252988Y0251597D01*
X0252932Y0251553D01*
X0252877Y0251508D01*
X0252760Y0251442D01*
X0252644Y0251397D01*
X0252533Y0251364D01*
X0252438Y0251342D01*
X0252399Y0251336D01*
X0252361D01*
X0252333Y0251331D01*
X0252311D01*
X0252300D01*
X0252294D01*
X0252178Y0251336D01*
X0252072Y0251353D01*
X0251972Y0251381D01*
X0251889Y0251409D01*
X0251817Y0251442D01*
X0251761Y0251464D01*
X0251728Y0251486D01*
X0251722Y0251492D01*
X0251717D01*
X0251628Y0251558D01*
X0251550Y0251625D01*
X0251484Y0251697D01*
X0251434Y0251764D01*
X0251395Y0251825D01*
X0251373Y0251875D01*
X0251356Y0251908D01*
X0251351Y0251914D01*
Y0251919D01*
X0251334Y0251969D01*
X0251317Y0252030D01*
X0251290Y0252152D01*
X0251273Y0252285D01*
X0251256Y0252408D01*
X0251251Y0252524D01*
Y0252574D01*
X0251245Y0252618D01*
Y0254400D01*
X0255086D01*
Y0253889D01*
D02*
G37*
G36*
X0252616Y0250282D02*
X0252577Y0250199D01*
X0252538Y0250115D01*
X0252499Y0250038D01*
X0252466Y0249971D01*
X0252438Y0249916D01*
X0252416Y0249882D01*
X0252411Y0249877D01*
Y0249871D01*
X0252350Y0249771D01*
X0252289Y0249682D01*
X0252233Y0249605D01*
X0252183Y0249544D01*
X0252144Y0249488D01*
X0252111Y0249455D01*
X0252089Y0249427D01*
X0252083Y0249422D01*
X0255086D01*
Y0248950D01*
X0251228D01*
Y0249255D01*
X0251323Y0249311D01*
X0251412Y0249372D01*
X0251500Y0249444D01*
X0251578Y0249510D01*
X0251645Y0249577D01*
X0251700Y0249627D01*
X0251717Y0249649D01*
X0251733Y0249666D01*
X0251739Y0249671D01*
X0251745Y0249677D01*
X0251839Y0249794D01*
X0251928Y0249910D01*
X0252006Y0250021D01*
X0252066Y0250132D01*
X0252122Y0250226D01*
X0252144Y0250265D01*
X0252161Y0250299D01*
X0252178Y0250326D01*
X0252183Y0250348D01*
X0252194Y0250360D01*
Y0250365D01*
X0252649D01*
X0252616Y0250282D01*
D02*
G37*
G36*
X0254170Y0247729D02*
X0254253Y0247712D01*
X0254409Y0247662D01*
X0254542Y0247601D01*
X0254603Y0247568D01*
X0254653Y0247535D01*
X0254703Y0247507D01*
X0254747Y0247474D01*
X0254781Y0247446D01*
X0254808Y0247418D01*
X0254830Y0247396D01*
X0254853Y0247385D01*
X0254858Y0247374D01*
X0254864Y0247368D01*
X0254914Y0247302D01*
X0254958Y0247235D01*
X0254997Y0247163D01*
X0255030Y0247091D01*
X0255080Y0246952D01*
X0255114Y0246813D01*
X0255130Y0246752D01*
X0255136Y0246691D01*
X0255141Y0246641D01*
X0255147Y0246597D01*
X0255152Y0246558D01*
Y0246508D01*
X0255147Y0246391D01*
X0255130Y0246280D01*
X0255108Y0246175D01*
X0255080Y0246080D01*
X0255041Y0245992D01*
X0255002Y0245908D01*
X0254964Y0245831D01*
X0254919Y0245764D01*
X0254875Y0245703D01*
X0254836Y0245648D01*
X0254792Y0245603D01*
X0254758Y0245564D01*
X0254731Y0245537D01*
X0254708Y0245514D01*
X0254692Y0245503D01*
X0254686Y0245498D01*
X0254614Y0245442D01*
X0254536Y0245398D01*
X0254464Y0245354D01*
X0254386Y0245320D01*
X0254237Y0245265D01*
X0254092Y0245231D01*
X0254031Y0245220D01*
X0253970Y0245209D01*
X0253920Y0245204D01*
X0253876Y0245198D01*
X0253837Y0245193D01*
X0253809D01*
X0253793D01*
X0253787D01*
X0253687Y0245198D01*
X0253593Y0245209D01*
X0253498Y0245226D01*
X0253415Y0245248D01*
X0253338Y0245276D01*
X0253260Y0245304D01*
X0253193Y0245337D01*
X0253132Y0245365D01*
X0253077Y0245398D01*
X0253027Y0245431D01*
X0252988Y0245459D01*
X0252949Y0245487D01*
X0252921Y0245509D01*
X0252905Y0245526D01*
X0252893Y0245537D01*
X0252888Y0245542D01*
X0252827Y0245609D01*
X0252771Y0245675D01*
X0252727Y0245748D01*
X0252688Y0245820D01*
X0252649Y0245892D01*
X0252622Y0245964D01*
X0252583Y0246097D01*
X0252566Y0246158D01*
X0252555Y0246214D01*
X0252549Y0246264D01*
X0252544Y0246308D01*
X0252538Y0246341D01*
Y0246463D01*
X0252549Y0246530D01*
X0252577Y0246663D01*
X0252616Y0246785D01*
X0252660Y0246896D01*
X0252705Y0246985D01*
X0252727Y0247024D01*
X0252744Y0247057D01*
X0252760Y0247085D01*
X0252771Y0247102D01*
X0252777Y0247113D01*
X0252783Y0247118D01*
X0251745Y0246913D01*
Y0245376D01*
X0251295D01*
Y0247285D01*
X0253271Y0247657D01*
X0253332Y0247213D01*
X0253271Y0247174D01*
X0253221Y0247124D01*
X0253171Y0247080D01*
X0253132Y0247035D01*
X0253104Y0246991D01*
X0253077Y0246957D01*
X0253065Y0246935D01*
X0253060Y0246930D01*
X0253027Y0246858D01*
X0252999Y0246785D01*
X0252982Y0246719D01*
X0252966Y0246652D01*
X0252960Y0246597D01*
X0252955Y0246552D01*
Y0246447D01*
X0252966Y0246380D01*
X0252993Y0246264D01*
X0253032Y0246164D01*
X0253071Y0246075D01*
X0253116Y0246008D01*
X0253154Y0245958D01*
X0253182Y0245931D01*
X0253188Y0245920D01*
X0253193D01*
X0253288Y0245842D01*
X0253387Y0245786D01*
X0253493Y0245748D01*
X0253598Y0245720D01*
X0253687Y0245703D01*
X0253726Y0245698D01*
X0253759D01*
X0253787Y0245692D01*
X0253809D01*
X0253820D01*
X0253826D01*
X0253904D01*
X0253976Y0245703D01*
X0254115Y0245731D01*
X0254231Y0245770D01*
X0254325Y0245809D01*
X0254403Y0245853D01*
X0254464Y0245892D01*
X0254481Y0245908D01*
X0254497Y0245920D01*
X0254503Y0245925D01*
X0254508Y0245931D01*
X0254553Y0245975D01*
X0254592Y0246020D01*
X0254658Y0246119D01*
X0254703Y0246214D01*
X0254731Y0246308D01*
X0254753Y0246386D01*
X0254758Y0246452D01*
X0254764Y0246475D01*
Y0246508D01*
X0254758Y0246613D01*
X0254736Y0246708D01*
X0254708Y0246791D01*
X0254675Y0246858D01*
X0254642Y0246919D01*
X0254614Y0246963D01*
X0254592Y0246985D01*
X0254586Y0246996D01*
X0254508Y0247063D01*
X0254425Y0247118D01*
X0254331Y0247163D01*
X0254248Y0247196D01*
X0254164Y0247218D01*
X0254103Y0247235D01*
X0254076Y0247240D01*
X0254059Y0247246D01*
X0254048D01*
X0254042D01*
X0254081Y0247740D01*
X0254170Y0247729D01*
D02*
G37*
%LPC*%
G36*
X0232868Y0278069D02*
X0231980D01*
X0231908Y0278064D01*
X0231836D01*
X0231769Y0278058D01*
X0231658Y0278042D01*
X0231569Y0278030D01*
X0231497Y0278014D01*
X0231447Y0277997D01*
X0231419Y0277992D01*
X0231408Y0277986D01*
X0231308Y0277936D01*
X0231214Y0277875D01*
X0231131Y0277803D01*
X0231059Y0277731D01*
X0231003Y0277664D01*
X0230959Y0277609D01*
X0230947Y0277587D01*
X0230936Y0277570D01*
X0230925Y0277559D01*
Y0277553D01*
X0230892Y0277492D01*
X0230859Y0277420D01*
X0230809Y0277276D01*
X0230775Y0277120D01*
X0230748Y0276971D01*
X0230742Y0276904D01*
X0230737Y0276837D01*
X0230731Y0276782D01*
Y0276732D01*
X0230726Y0276687D01*
Y0276660D01*
Y0276638D01*
Y0276632D01*
X0230731Y0276477D01*
X0230742Y0276332D01*
X0230759Y0276205D01*
X0230775Y0276094D01*
X0230786Y0276049D01*
X0230798Y0276010D01*
X0230809Y0275972D01*
X0230814Y0275944D01*
X0230820Y0275922D01*
X0230825Y0275905D01*
X0230831Y0275894D01*
Y0275888D01*
X0230870Y0275783D01*
X0230914Y0275688D01*
X0230964Y0275605D01*
X0231009Y0275533D01*
X0231047Y0275478D01*
X0231081Y0275439D01*
X0231103Y0275416D01*
X0231108Y0275405D01*
X0231164Y0275361D01*
X0231219Y0275322D01*
X0231275Y0275289D01*
X0231330Y0275255D01*
X0231380Y0275233D01*
X0231419Y0275217D01*
X0231447Y0275211D01*
X0231458Y0275206D01*
X0231541Y0275183D01*
X0231641Y0275167D01*
X0231741Y0275156D01*
X0231836Y0275150D01*
X0231919Y0275145D01*
X0231958Y0275139D01*
X0232868D01*
Y0278069D01*
D02*
G37*
G36*
X0252943Y0253889D02*
X0251673D01*
Y0252679D01*
X0251678Y0252530D01*
X0251700Y0252402D01*
X0251728Y0252291D01*
X0251761Y0252208D01*
X0251795Y0252136D01*
X0251822Y0252091D01*
X0251845Y0252063D01*
X0251850Y0252052D01*
X0251922Y0251986D01*
X0251994Y0251936D01*
X0252072Y0251903D01*
X0252139Y0251875D01*
X0252205Y0251864D01*
X0252255Y0251858D01*
X0252289Y0251853D01*
X0252294D01*
X0252300D01*
X0252366Y0251858D01*
X0252433Y0251869D01*
X0252488Y0251886D01*
X0252538Y0251903D01*
X0252583Y0251925D01*
X0252616Y0251941D01*
X0252638Y0251952D01*
X0252644Y0251958D01*
X0252699Y0251997D01*
X0252749Y0252047D01*
X0252788Y0252097D01*
X0252821Y0252147D01*
X0252843Y0252191D01*
X0252860Y0252224D01*
X0252871Y0252247D01*
X0252877Y0252258D01*
X0252899Y0252335D01*
X0252916Y0252424D01*
X0252927Y0252513D01*
X0252932Y0252602D01*
X0252938Y0252679D01*
X0252943Y0252746D01*
Y0253889D01*
D02*
G37*
%LPD*%
G54D15*
X0342003Y0358873D02*
G03*
X0342003Y0358873I-0022804J0000000D01*
G01*
Y0178400D02*
G03*
X0342003Y0178400I-0022804J0000000D01*
G01*
X0117004D02*
G03*
X0117004Y0178400I-0022804J0000000D01*
G01*
Y0358873D02*
G03*
X0117004Y0358873I-0022804J0000000D01*
G01*
G54D18*
X0497200Y0080717D02*
Y0101050D01*
X0413200Y0080717D02*
Y0101050D01*
X0040000Y0080717D02*
X0700200D01*
X0040000Y0060383D02*
X0700000D01*
X0040000Y0040050D02*
X0440500D01*
X0040050Y0101050D02*
X0700200D01*
X0040050Y0040050D02*
Y0101050D01*
Y0040050D02*
X0197600D01*
X0040000D02*
Y0101050D01*
X0286500Y0040050D02*
Y0101050D01*
X0700200Y0040050D02*
Y0101050D01*
X0440500Y0040050D02*
X0700200D01*
X0559400Y0039400D02*
Y0059683D01*
G54D19*
X0126900Y0073549D02*
Y0067551D01*
X0129899D01*
X0130899Y0068550D01*
Y0069550D01*
X0129899Y0070550D01*
X0126900D01*
X0129899D01*
X0130899Y0071549D01*
Y0072549D01*
X0129899Y0073549D01*
X0126900D01*
X0133898Y0067551D02*
X0135897D01*
X0136897Y0068550D01*
Y0070550D01*
X0135897Y0071549D01*
X0133898D01*
X0132898Y0070550D01*
Y0068550D01*
X0133898Y0067551D01*
X0139896Y0072549D02*
Y0071549D01*
X0138896D01*
X0140895D01*
X0139896D01*
Y0068550D01*
X0140895Y0067551D01*
X0144894Y0072549D02*
Y0071549D01*
X0143895D01*
X0145894D01*
X0144894D01*
Y0068550D01*
X0145894Y0067551D01*
X0149893D02*
X0151892D01*
X0152892Y0068550D01*
Y0070550D01*
X0151892Y0071549D01*
X0149893D01*
X0148893Y0070550D01*
Y0068550D01*
X0149893Y0067551D01*
X0154891D02*
Y0071549D01*
X0155891D01*
X0156890Y0070550D01*
Y0067551D01*
Y0070550D01*
X0157890Y0071549D01*
X0158890Y0070550D01*
Y0067551D01*
X0169886Y0073549D02*
X0167887D01*
X0166887Y0072549D01*
Y0068550D01*
X0167887Y0067551D01*
X0169886D01*
X0170886Y0068550D01*
Y0072549D01*
X0169886Y0073549D01*
X0172885Y0071549D02*
X0174884Y0067551D01*
X0176884Y0071549D01*
X0181882Y0067551D02*
X0179883D01*
X0178883Y0068550D01*
Y0070550D01*
X0179883Y0071549D01*
X0181882D01*
X0182882Y0070550D01*
Y0069550D01*
X0178883D01*
X0184881Y0071549D02*
Y0067551D01*
Y0069550D01*
X0185881Y0070550D01*
X0186881Y0071549D01*
X0187880D01*
X0190879Y0067551D02*
X0192879D01*
X0191879D01*
Y0073549D01*
X0190879D01*
X0196877Y0071549D02*
X0198877D01*
X0199876Y0070550D01*
Y0067551D01*
X0196877D01*
X0195878Y0068550D01*
X0196877Y0069550D01*
X0199876D01*
X0201876Y0071549D02*
Y0068550D01*
X0202875Y0067551D01*
X0205874D01*
Y0066551D01*
X0204875Y0065551D01*
X0203875D01*
X0205874Y0067551D02*
Y0071549D01*
X0567400Y0087833D02*
Y0093831D01*
X0571399Y0087833D01*
Y0093831D01*
X0574398Y0087833D02*
X0576397D01*
X0577397Y0088833D01*
Y0090832D01*
X0576397Y0091832D01*
X0574398D01*
X0573398Y0090832D01*
Y0088833D01*
X0574398Y0087833D01*
X0580396Y0092832D02*
Y0091832D01*
X0579396D01*
X0581395D01*
X0580396D01*
Y0088833D01*
X0581395Y0087833D01*
X0590393Y0093831D02*
X0592392D01*
X0591392D01*
Y0087833D01*
X0590393D01*
X0592392D01*
X0595391D02*
Y0091832D01*
X0598390D01*
X0599390Y0090832D01*
Y0087833D01*
X0607387Y0093831D02*
Y0089833D01*
X0609386Y0087833D01*
X0611386Y0089833D01*
Y0093831D01*
X0616384Y0087833D02*
X0614385D01*
X0613385Y0088833D01*
Y0090832D01*
X0614385Y0091832D01*
X0616384D01*
X0617384Y0090832D01*
Y0089833D01*
X0613385D01*
X0619383Y0091832D02*
Y0087833D01*
Y0089833D01*
X0620383Y0090832D01*
X0621383Y0091832D01*
X0622382D01*
X0625381Y0087833D02*
X0628380D01*
X0629380Y0088833D01*
X0628380Y0089833D01*
X0626381D01*
X0625381Y0090832D01*
X0626381Y0091832D01*
X0629380D01*
X0631379Y0087833D02*
X0633379D01*
X0632379D01*
Y0091832D01*
X0631379D01*
X0637377Y0087833D02*
X0639377D01*
X0640376Y0088833D01*
Y0090832D01*
X0639377Y0091832D01*
X0637377D01*
X0636378Y0090832D01*
Y0088833D01*
X0637377Y0087833D01*
X0642376D02*
Y0091832D01*
X0645375D01*
X0646374Y0090832D01*
Y0087833D01*
X0652373Y0092832D02*
X0651373Y0093831D01*
X0649373D01*
X0648374Y0092832D01*
Y0088833D01*
X0649373Y0087833D01*
X0651373D01*
X0652373Y0088833D01*
X0655372Y0087833D02*
X0657371D01*
X0658371Y0088833D01*
Y0090832D01*
X0657371Y0091832D01*
X0655372D01*
X0654372Y0090832D01*
Y0088833D01*
X0655372Y0087833D01*
X0660370D02*
Y0091832D01*
X0663369D01*
X0664369Y0090832D01*
Y0087833D01*
X0667368Y0092832D02*
Y0091832D01*
X0666368D01*
X0668367D01*
X0667368D01*
Y0088833D01*
X0668367Y0087833D01*
X0671366Y0091832D02*
Y0087833D01*
Y0089833D01*
X0672366Y0090832D01*
X0673366Y0091832D01*
X0674365D01*
X0678364Y0087833D02*
X0680364D01*
X0681363Y0088833D01*
Y0090832D01*
X0680364Y0091832D01*
X0678364D01*
X0677364Y0090832D01*
Y0088833D01*
X0678364Y0087833D01*
X0683362D02*
X0685362D01*
X0684362D01*
Y0093831D01*
X0683362D01*
X0520799Y0092832D02*
X0519799Y0093831D01*
X0517800D01*
X0516800Y0092832D01*
Y0091832D01*
X0517800Y0090832D01*
X0519799D01*
X0520799Y0089833D01*
Y0088833D01*
X0519799Y0087833D01*
X0517800D01*
X0516800Y0088833D01*
X0522798Y0093831D02*
Y0089833D01*
X0524797Y0087833D01*
X0526797Y0089833D01*
Y0093831D01*
X0528796Y0087833D02*
Y0093831D01*
X0532795Y0087833D01*
Y0093831D01*
X0540792Y0087833D02*
Y0093831D01*
X0543791D01*
X0544791Y0092832D01*
Y0090832D01*
X0543791Y0089833D01*
X0540792D01*
X0542792D02*
X0544791Y0087833D01*
X0550789Y0093831D02*
X0546790D01*
Y0087833D01*
X0550789D01*
X0546790Y0090832D02*
X0548790D01*
X0552788Y0093831D02*
Y0089833D01*
X0554788Y0087833D01*
X0556787Y0089833D01*
Y0093831D01*
X0558786Y0091832D02*
X0559786D01*
Y0090832D01*
X0558786D01*
Y0091832D01*
Y0088833D02*
X0559786D01*
Y0087833D01*
X0558786D01*
Y0088833D01*
X0433000Y0087833D02*
Y0093831D01*
X0435999D01*
X0436999Y0092832D01*
Y0090832D01*
X0435999Y0089833D01*
X0433000D01*
X0434999D02*
X0436999Y0087833D01*
X0442997Y0093831D02*
X0438998D01*
Y0087833D01*
X0442997D01*
X0438998Y0090832D02*
X0440997D01*
X0444996Y0093831D02*
Y0089833D01*
X0446995Y0087833D01*
X0448995Y0089833D01*
Y0093831D01*
X0450994Y0091832D02*
X0451994D01*
Y0090832D01*
X0450994D01*
Y0091832D01*
Y0088833D02*
X0451994D01*
Y0087833D01*
X0450994D01*
Y0088833D01*
X0130899Y0051965D02*
X0129899Y0052965D01*
X0127900D01*
X0126900Y0051965D01*
Y0050965D01*
X0127900Y0049966D01*
X0129899D01*
X0130899Y0048966D01*
Y0047966D01*
X0129899Y0046966D01*
X0127900D01*
X0126900Y0047966D01*
X0132898Y0052965D02*
Y0048966D01*
X0134897Y0046966D01*
X0136897Y0048966D01*
Y0052965D01*
X0142895D02*
X0140895Y0051965D01*
X0138896Y0049966D01*
Y0047966D01*
X0139896Y0046966D01*
X0141895D01*
X0142895Y0047966D01*
Y0048966D01*
X0141895Y0049966D01*
X0138896D01*
X0144894Y0051965D02*
X0145894Y0052965D01*
X0147893D01*
X0148893Y0051965D01*
Y0047966D01*
X0147893Y0046966D01*
X0145894D01*
X0144894Y0047966D01*
Y0051965D01*
X0150892Y0046966D02*
X0152892D01*
X0151892D01*
Y0052965D01*
X0150892Y0051965D01*
X0159889Y0046966D02*
X0155891D01*
X0159889Y0050965D01*
Y0051965D01*
X0158890Y0052965D01*
X0156890D01*
X0155891Y0051965D01*
X0161889D02*
X0162888Y0052965D01*
X0164888D01*
X0165887Y0051965D01*
Y0050965D01*
X0164888Y0049966D01*
X0165887Y0048966D01*
Y0047966D01*
X0164888Y0046966D01*
X0162888D01*
X0161889Y0047966D01*
Y0048966D01*
X0162888Y0049966D01*
X0161889Y0050965D01*
Y0051965D01*
X0162888Y0049966D02*
X0164888D01*
X0171885Y0052965D02*
X0169886Y0051965D01*
X0167887Y0049966D01*
Y0047966D01*
X0168886Y0046966D01*
X0170886D01*
X0171885Y0047966D01*
Y0048966D01*
X0170886Y0049966D01*
X0167887D01*
X0177884Y0051965D02*
X0176884Y0052965D01*
X0174884D01*
X0173885Y0051965D01*
Y0047966D01*
X0174884Y0046966D01*
X0176884D01*
X0177884Y0047966D01*
Y0049966D01*
X0175884D01*
X0179883Y0046966D02*
Y0047966D01*
X0180883D01*
Y0046966D01*
X0179883D01*
X0188880Y0051965D02*
X0187880Y0052965D01*
X0185881D01*
X0184881Y0051965D01*
Y0047966D01*
X0185881Y0046966D01*
X0187880D01*
X0188880Y0047966D01*
Y0049966D01*
X0186881D01*
X0190879Y0052965D02*
Y0046966D01*
X0193878D01*
X0194878Y0047966D01*
Y0048966D01*
X0193878Y0049966D01*
X0190879D01*
X0193878D01*
X0194878Y0050965D01*
Y0051965D01*
X0193878Y0052965D01*
X0190879D01*
X0199876D02*
X0197877D01*
X0196877Y0051965D01*
Y0047966D01*
X0197877Y0046966D01*
X0199876D01*
X0200876Y0047966D01*
Y0051965D01*
X0199876Y0052965D01*
X0385149D02*
X0381150D01*
Y0049966D01*
X0383149Y0050965D01*
X0384149D01*
X0385149Y0049966D01*
Y0047966D01*
X0384149Y0046966D01*
X0382150D01*
X0381150Y0047966D01*
X0387148Y0046966D02*
X0391147Y0050965D01*
X0393146Y0046966D02*
X0395146D01*
X0394146D01*
Y0052965D01*
X0393146Y0051965D01*
X0398145Y0047966D02*
X0399144Y0046966D01*
X0401144D01*
X0402143Y0047966D01*
Y0051965D01*
X0401144Y0052965D01*
X0399144D01*
X0398145Y0051965D01*
Y0050965D01*
X0399144Y0049966D01*
X0402143D01*
X0404143Y0046966D02*
X0408141Y0050965D01*
X0414139Y0046966D02*
X0410141D01*
X0414139Y0050965D01*
Y0051965D01*
X0413140Y0052965D01*
X0411140D01*
X0410141Y0051965D01*
X0416139D02*
X0417138Y0052965D01*
X0419138D01*
X0420137Y0051965D01*
Y0047966D01*
X0419138Y0046966D01*
X0417138D01*
X0416139Y0047966D01*
Y0051965D01*
X0426135Y0046966D02*
X0422137D01*
X0426135Y0050965D01*
Y0051965D01*
X0425136Y0052965D01*
X0423136D01*
X0422137Y0051965D01*
X0428135Y0046966D02*
X0430134D01*
X0429135D01*
Y0052965D01*
X0428135Y0051965D01*
X0298199D02*
X0297199Y0052965D01*
X0295200D01*
X0294200Y0051965D01*
Y0047966D01*
X0295200Y0046966D01*
X0297199D01*
X0298199Y0047966D01*
Y0049966D01*
X0296199D01*
X0304197Y0052965D02*
X0300198D01*
Y0046966D01*
X0304197D01*
X0300198Y0049966D02*
X0302197D01*
X0306196Y0046966D02*
Y0052965D01*
X0310195Y0046966D01*
Y0052965D01*
X0316193D02*
X0312194D01*
Y0046966D01*
X0316193D01*
X0312194Y0049966D02*
X0314194D01*
X0318192Y0046966D02*
Y0052965D01*
X0321191D01*
X0322191Y0051965D01*
Y0049966D01*
X0321191Y0048966D01*
X0318192D01*
X0320192D02*
X0322191Y0046966D01*
X0324190D02*
Y0050965D01*
X0326190Y0052965D01*
X0328189Y0050965D01*
Y0046966D01*
Y0049966D01*
X0324190D01*
X0330188Y0052965D02*
X0334187D01*
X0332188D01*
Y0046966D01*
X0340185Y0052965D02*
X0336186D01*
Y0046966D01*
X0340185D01*
X0336186Y0049966D02*
X0338186D01*
X0342184Y0052965D02*
Y0046966D01*
X0345183D01*
X0346183Y0047966D01*
Y0051965D01*
X0345183Y0052965D01*
X0342184D01*
X0372175Y0050965D02*
X0373175D01*
Y0049966D01*
X0372175D01*
Y0050965D01*
Y0047966D02*
X0373175D01*
Y0046966D01*
X0372175D01*
Y0047966D01*
X0046350Y0087833D02*
Y0091832D01*
X0048349Y0093831D01*
X0050349Y0091832D01*
Y0087833D01*
Y0090832D01*
X0046350D01*
X0052348Y0093831D02*
Y0087833D01*
X0056347D01*
X0058346Y0093831D02*
Y0087833D01*
X0062345D01*
X0070342D02*
Y0091832D01*
X0072342Y0093831D01*
X0074341Y0091832D01*
Y0087833D01*
Y0090832D01*
X0070342D01*
X0076340Y0087833D02*
Y0093831D01*
X0079339D01*
X0080339Y0092832D01*
Y0090832D01*
X0079339Y0089833D01*
X0076340D01*
X0078340D02*
X0080339Y0087833D01*
X0082338Y0093831D02*
X0086337D01*
X0084338D01*
Y0087833D01*
X0088336Y0093831D02*
Y0087833D01*
X0090336Y0089833D01*
X0092335Y0087833D01*
Y0093831D01*
X0097334D02*
X0095334D01*
X0094335Y0092832D01*
Y0088833D01*
X0095334Y0087833D01*
X0097334D01*
X0098333Y0088833D01*
Y0092832D01*
X0097334Y0093831D01*
X0100332Y0087833D02*
Y0093831D01*
X0103332D01*
X0104331Y0092832D01*
Y0090832D01*
X0103332Y0089833D01*
X0100332D01*
X0102332D02*
X0104331Y0087833D01*
X0106331Y0093831D02*
Y0087833D01*
Y0089833D01*
X0110329Y0093831D01*
X0107330Y0090832D01*
X0110329Y0087833D01*
X0118327Y0093831D02*
Y0089833D01*
X0120326Y0087833D01*
X0122325Y0089833D01*
Y0093831D01*
X0124325D02*
X0126324D01*
X0125324D01*
Y0087833D01*
X0124325D01*
X0126324D01*
X0133322Y0093831D02*
X0129323D01*
Y0087833D01*
X0133322D01*
X0129323Y0090832D02*
X0131323D01*
X0135321Y0093831D02*
Y0087833D01*
X0137321Y0089833D01*
X0139320Y0087833D01*
Y0093831D01*
X0145318D02*
X0141319D01*
Y0087833D01*
X0145318D01*
X0141319Y0090832D02*
X0143319D01*
X0147317Y0093831D02*
Y0087833D01*
X0150316D01*
X0151316Y0088833D01*
Y0092832D01*
X0150316Y0093831D01*
X0147317D01*
X0163312D02*
X0159313D01*
Y0090832D01*
X0161313D01*
X0159313D01*
Y0087833D01*
X0165312D02*
Y0093831D01*
X0168310D01*
X0169310Y0092832D01*
Y0090832D01*
X0168310Y0089833D01*
X0165312D01*
X0167311D02*
X0169310Y0087833D01*
X0174309Y0093831D02*
X0172309D01*
X0171310Y0092832D01*
Y0088833D01*
X0172309Y0087833D01*
X0174309D01*
X0175308Y0088833D01*
Y0092832D01*
X0174309Y0093831D01*
X0177308Y0087833D02*
Y0093831D01*
X0179307Y0091832D01*
X0181306Y0093831D01*
Y0087833D01*
X0189304Y0093831D02*
X0193303D01*
X0191303D01*
Y0087833D01*
X0198301Y0093831D02*
X0196301D01*
X0195302Y0092832D01*
Y0088833D01*
X0196301Y0087833D01*
X0198301D01*
X0199301Y0088833D01*
Y0092832D01*
X0198301Y0093831D01*
X0201300Y0087833D02*
Y0093831D01*
X0204299D01*
X0205299Y0092832D01*
Y0090832D01*
X0204299Y0089833D01*
X0201300D01*
X0217295Y0092832D02*
X0216295Y0093831D01*
X0214296D01*
X0213296Y0092832D01*
Y0091832D01*
X0214296Y0090832D01*
X0216295D01*
X0217295Y0089833D01*
Y0088833D01*
X0216295Y0087833D01*
X0214296D01*
X0213296Y0088833D01*
X0219294Y0093831D02*
X0221293D01*
X0220294D01*
Y0087833D01*
X0219294D01*
X0221293D01*
X0224292Y0093831D02*
Y0087833D01*
X0227291D01*
X0228291Y0088833D01*
Y0092832D01*
X0227291Y0093831D01*
X0224292D01*
X0234289D02*
X0230291D01*
Y0087833D01*
X0234289D01*
X0230291Y0090832D02*
X0232290D01*
X0466149Y0092832D02*
X0465149Y0093831D01*
X0463150D01*
X0462150Y0092832D01*
Y0088833D01*
X0463150Y0087833D01*
X0465149D01*
X0466149Y0088833D01*
Y0090832D01*
X0464149D01*
X0352549Y0092832D02*
X0351549Y0093831D01*
X0349550D01*
X0348550Y0092832D01*
Y0091832D01*
X0349550Y0090832D01*
X0351549D01*
X0352549Y0089833D01*
Y0088833D01*
X0351549Y0087833D01*
X0349550D01*
X0348550Y0088833D01*
X0354548Y0093831D02*
Y0089833D01*
X0356547Y0087833D01*
X0358547Y0089833D01*
Y0093831D01*
X0364545D02*
X0362545Y0092832D01*
X0360546Y0090832D01*
Y0088833D01*
X0361546Y0087833D01*
X0363545D01*
X0364545Y0088833D01*
Y0089833D01*
X0363545Y0090832D01*
X0360546D01*
X0366544Y0092832D02*
X0367544Y0093831D01*
X0369543D01*
X0370543Y0092832D01*
Y0088833D01*
X0369543Y0087833D01*
X0367544D01*
X0366544Y0088833D01*
Y0092832D01*
X0372542Y0087833D02*
X0374542D01*
X0373542D01*
Y0093831D01*
X0372542Y0092832D01*
X0381539Y0087833D02*
X0377541D01*
X0381539Y0091832D01*
Y0092832D01*
X0380540Y0093831D01*
X0378540D01*
X0377541Y0092832D01*
X0383539D02*
X0384538Y0093831D01*
X0386538D01*
X0387537Y0092832D01*
Y0091832D01*
X0386538Y0090832D01*
X0387537Y0089833D01*
Y0088833D01*
X0386538Y0087833D01*
X0384538D01*
X0383539Y0088833D01*
Y0089833D01*
X0384538Y0090832D01*
X0383539Y0091832D01*
Y0092832D01*
X0384538Y0090832D02*
X0386538D01*
X0393535Y0093831D02*
X0391536Y0092832D01*
X0389537Y0090832D01*
Y0088833D01*
X0390536Y0087833D01*
X0392536D01*
X0393535Y0088833D01*
Y0089833D01*
X0392536Y0090832D01*
X0389537D01*
X0294000Y0093831D02*
Y0087833D01*
X0296999D01*
X0297999Y0088833D01*
Y0089833D01*
X0296999Y0090832D01*
X0294000D01*
X0296999D01*
X0297999Y0091832D01*
Y0092832D01*
X0296999Y0093831D01*
X0294000D01*
X0302997D02*
X0300998D01*
X0299998Y0092832D01*
Y0088833D01*
X0300998Y0087833D01*
X0302997D01*
X0303997Y0088833D01*
Y0092832D01*
X0302997Y0093831D01*
X0305996Y0087833D02*
Y0091832D01*
X0307996Y0093831D01*
X0309995Y0091832D01*
Y0087833D01*
Y0090832D01*
X0305996D01*
X0311994Y0087833D02*
Y0093831D01*
X0314993D01*
X0315993Y0092832D01*
Y0090832D01*
X0314993Y0089833D01*
X0311994D01*
X0313994D02*
X0315993Y0087833D01*
X0317992Y0093831D02*
Y0087833D01*
X0320991D01*
X0321991Y0088833D01*
Y0092832D01*
X0320991Y0093831D01*
X0317992D01*
X0330988Y0087833D02*
Y0093831D01*
X0332987D02*
Y0087833D01*
X0329988Y0091832D02*
X0332987D01*
X0333987D01*
X0329988Y0089833D02*
X0333987D01*
X0335986Y0091832D02*
X0336986D01*
Y0090832D01*
X0335986D01*
Y0091832D01*
Y0088833D02*
X0336986D01*
Y0087833D01*
X0335986D01*
Y0088833D01*
X0046350Y0073549D02*
Y0067551D01*
X0050349D01*
X0052348D02*
Y0071549D01*
X0054347Y0073549D01*
X0056347Y0071549D01*
Y0067551D01*
Y0070550D01*
X0052348D01*
X0058346Y0073549D02*
Y0072549D01*
X0060346Y0070550D01*
X0062345Y0072549D01*
Y0073549D01*
X0060346Y0070550D02*
Y0067551D01*
X0068343Y0073549D02*
X0064344D01*
Y0067551D01*
X0068343D01*
X0064344Y0070550D02*
X0066343D01*
X0070342Y0067551D02*
Y0073549D01*
X0073341D01*
X0074341Y0072549D01*
Y0070550D01*
X0073341Y0069550D01*
X0070342D01*
X0072342D02*
X0074341Y0067551D01*
X0082338D02*
Y0073549D01*
X0086337Y0067551D01*
Y0073549D01*
X0088336Y0067551D02*
Y0071549D01*
X0090336Y0073549D01*
X0092335Y0071549D01*
Y0067551D01*
Y0070550D01*
X0088336D01*
X0094335Y0067551D02*
Y0073549D01*
X0096334Y0071549D01*
X0098333Y0073549D01*
Y0067551D01*
X0104331Y0073549D02*
X0100332D01*
Y0067551D01*
X0104331D01*
X0100332Y0070550D02*
X0102332D01*
X0112329Y0069550D02*
X0116327D01*
X0112329Y0071549D02*
X0116327D01*
X0046350Y0046966D02*
Y0052965D01*
X0049349D01*
X0050349Y0051965D01*
Y0049966D01*
X0049349Y0048966D01*
X0046350D01*
X0052348Y0052965D02*
Y0046966D01*
X0056347D01*
X0061345Y0052965D02*
X0059346D01*
X0058346Y0051965D01*
Y0047966D01*
X0059346Y0046966D01*
X0061345D01*
X0062345Y0047966D01*
Y0051965D01*
X0061345Y0052965D01*
X0064344D02*
X0068343D01*
X0066343D01*
Y0046966D01*
X0076340D02*
Y0052965D01*
X0080339Y0046966D01*
Y0052965D01*
X0082338Y0046966D02*
Y0050965D01*
X0084338Y0052965D01*
X0086337Y0050965D01*
Y0046966D01*
Y0049966D01*
X0082338D01*
X0088336Y0046966D02*
Y0052965D01*
X0090336Y0050965D01*
X0092335Y0052965D01*
Y0046966D01*
X0098333Y0052965D02*
X0094335D01*
Y0046966D01*
X0098333D01*
X0094335Y0049966D02*
X0096334D01*
X0106331Y0048966D02*
X0110329D01*
X0106331Y0050965D02*
X0110329D01*
X0454050Y0046966D02*
X0456049D01*
X0455050D01*
Y0052965D01*
X0454050Y0051965D01*
X0459048Y0046966D02*
X0461048D01*
X0460048D01*
Y0052965D01*
X0459048Y0051965D01*
X0464047Y0050965D02*
X0465046D01*
Y0049966D01*
X0464047D01*
Y0050965D01*
Y0047966D02*
X0465046D01*
Y0046966D01*
X0464047D01*
Y0047966D01*
X0472044Y0046966D02*
Y0052965D01*
X0469045Y0049966D01*
X0473044D01*
X0479042Y0052965D02*
X0475043D01*
Y0049966D01*
X0477043Y0050965D01*
X0478042D01*
X0479042Y0049966D01*
Y0047966D01*
X0478042Y0046966D01*
X0476043D01*
X0475043Y0047966D01*
X0481041Y0050965D02*
X0482041D01*
Y0049966D01*
X0481041D01*
Y0050965D01*
Y0047966D02*
X0482041D01*
Y0046966D01*
X0481041D01*
Y0047966D01*
X0486040Y0046966D02*
X0488039D01*
X0487039D01*
Y0052965D01*
X0486040Y0051965D01*
X0495037Y0046966D02*
X0491038D01*
X0495037Y0050965D01*
Y0051965D01*
X0494037Y0052965D01*
X0492038D01*
X0491038Y0051965D01*
X0503034Y0046966D02*
Y0050965D01*
X0505033Y0052965D01*
X0507033Y0050965D01*
Y0046966D01*
Y0049966D01*
X0503034D01*
X0509032Y0046966D02*
Y0052965D01*
X0511031Y0050965D01*
X0513031Y0052965D01*
Y0046966D01*
X0580500Y0052965D02*
X0584499D01*
X0582499D01*
Y0046966D01*
X0590497Y0052965D02*
X0586498D01*
Y0046966D01*
X0590497D01*
X0586498Y0049966D02*
X0588497D01*
X0592496Y0052965D02*
X0596495Y0046966D01*
Y0052965D02*
X0592496Y0046966D01*
X0598494D02*
Y0050965D01*
X0600493Y0052965D01*
X0602493Y0050965D01*
Y0046966D01*
Y0049966D01*
X0598494D01*
X0608491Y0051965D02*
X0607491Y0052965D01*
X0605492D01*
X0604492Y0051965D01*
Y0050965D01*
X0605492Y0049966D01*
X0607491D01*
X0608491Y0048966D01*
Y0047966D01*
X0607491Y0046966D01*
X0605492D01*
X0604492Y0047966D01*
X0616488Y0052965D02*
X0618488D01*
X0617488D01*
Y0046966D01*
X0616488D01*
X0618488D01*
X0621487D02*
Y0052965D01*
X0625486Y0046966D01*
Y0052965D01*
X0631484Y0051965D02*
X0630484Y0052965D01*
X0628484D01*
X0627485Y0051965D01*
Y0050965D01*
X0628484Y0049966D01*
X0630484D01*
X0631484Y0048966D01*
Y0047966D01*
X0630484Y0046966D01*
X0628484D01*
X0627485Y0047966D01*
X0633483Y0052965D02*
X0637482D01*
X0635482D01*
Y0046966D01*
X0639481D02*
Y0052965D01*
X0642480D01*
X0643480Y0051965D01*
Y0049966D01*
X0642480Y0048966D01*
X0639481D01*
X0641480D02*
X0643480Y0046966D01*
X0645479Y0052965D02*
Y0047966D01*
X0646479Y0046966D01*
X0648478D01*
X0649478Y0047966D01*
Y0052965D01*
X0651477Y0046966D02*
Y0052965D01*
X0653476Y0050965D01*
X0655476Y0052965D01*
Y0046966D01*
X0661474Y0052965D02*
X0657475D01*
Y0046966D01*
X0661474D01*
X0657475Y0049966D02*
X0659474D01*
X0663473Y0046966D02*
Y0052965D01*
X0667472Y0046966D01*
Y0052965D01*
X0669471D02*
X0673470D01*
X0671471D01*
Y0046966D01*
X0679468Y0051965D02*
X0678468Y0052965D01*
X0676469D01*
X0675469Y0051965D01*
Y0050965D01*
X0676469Y0049966D01*
X0678468D01*
X0679468Y0048966D01*
Y0047966D01*
X0678468Y0046966D01*
X0676469D01*
X0675469Y0047966D01*
X0294000Y0073498D02*
X0297999D01*
X0295999D01*
Y0067500D01*
X0299998Y0073498D02*
X0301997D01*
X0300998D01*
Y0067500D01*
X0299998D01*
X0301997D01*
X0304996Y0073498D02*
Y0067500D01*
X0307996D01*
X0308995Y0068500D01*
Y0072498D01*
X0307996Y0073498D01*
X0304996D01*
X0317992Y0067500D02*
Y0073498D01*
X0319992D02*
Y0067500D01*
X0316993Y0071499D02*
X0319992D01*
X0320991D01*
X0316993Y0069499D02*
X0320991D01*
X0322991Y0071499D02*
X0323990D01*
Y0070499D01*
X0322991D01*
Y0071499D01*
Y0068500D02*
X0323990D01*
Y0067500D01*
X0322991D01*
Y0068500D01*
X0348550Y0067500D02*
Y0073498D01*
X0352549Y0067500D01*
Y0073498D01*
X0354548Y0067500D02*
X0358547Y0071499D01*
X0360546Y0067500D02*
Y0071499D01*
X0362545Y0073498D01*
X0364545Y0071499D01*
Y0067500D01*
Y0070499D01*
X0360546D01*
M02*
